<svg width="216" height="240" viewBox="0 0 216 240" fill="none" xmlns="http://www.w3.org/2000/svg">
<g id="Frame 1984077405">
<path id="Vector 2" d="M83.0002 94C86.7768 97.7766 90.0895 101.878 93.8611 105.649C99.2892 111.077 105.02 116.192 110.722 121.327C114.446 124.682 119.614 131.315 125.042 132.451C127.882 133.045 131.089 132.626 133.976 132.626C141.042 132.626 143.76 130.828 145.669 123.955C147.647 116.836 141.306 111.235 134.633 110.642C127.857 110.039 125.576 111.645 126.137 119.05C126.469 123.435 128.475 125.726 131.086 128.86C139.227 138.63 152.661 143.288 164.544 146.64C176.407 149.986 189.461 151.466 196.163 163.194C199.431 168.912 201.465 174.658 202.776 181.106C203.489 184.611 203.608 187.962 203.608 191.529C203.608 197.413 203.481 200.85 204.222 207.119C204.664 210.866 205.135 214.629 206.061 218.287C212.708 244.56 206.288 214.084 214.644 238.257" stroke="#1D6FAB" stroke-width="2" stroke-linecap="round" stroke-dasharray="7 7"/>
<g id="Group">
<path id="Vector" d="M57.6888 90.028C60.7157 93.1986 66.7018 97.125 71.0748 93.4077C71.5772 92.9809 71.9736 92.4456 72.3624 91.9137C74.8166 88.5587 77.1678 85.1183 79.1519 81.4659C80.0394 79.8324 80.8749 78.0444 80.6936 76.1946C80.2531 71.699 67.5017 66.8498 63.7463 65.1162C58.31 62.6072 52.8579 60.8733 47.1889 59.326C41.7705 57.847 36.8547 54.5098 31.8314 52.0428C26.551 49.45 20.8672 47.3021 14.9852 47.3668C29.8574 61.0546 43.7582 75.4347 57.6888 90.028Z" fill="#1D6FAB"/>
<path id="Vector_2" d="M66.3916 87.8482C62.9739 84.6345 59.6747 81.2822 56.198 78.1324C49.352 71.9299 20.8554 49.7025 21.2914 49.8709C24.8974 51.2565 43.1412 61.9652 46.6316 63.6191C52.8794 66.5798 59.0772 69.6332 65.3593 72.523C68.5643 73.9966 71.7653 75.4877 74.8946 77.1194C76.0435 77.7187 78.6203 79.8507 79.8543 79.8526C81.092 79.8541 81.1833 79.0019 82.3548 78.417C88.4993 75.35 94.2921 69.6496 99.1743 64.9094C100.048 64.0625 100.924 63.1755 101.429 62.0694C101.932 60.9626 101.996 59.5767 101.28 58.5928C100.824 57.964 100.116 57.5728 99.4135 57.2412C96.7549 55.9859 93.8702 55.3024 91.0088 54.6271C64.3098 48.3267 37.8774 41.19 10.4624 38.7318C8.75202 38.5785 5.94358 38.1901 4.81834 39.7924C3.73366 41.3366 4.7945 43.3454 5.73885 44.6826C17.8325 61.7956 30.4994 78.5045 42.3103 95.8132C45.3438 100.259 48.5949 104.279 52.0686 108.364C55.1488 111.986 57.5826 115.998 61.4565 118.991C64.3045 115.343 65.8995 110.897 67.4489 106.536C68.6278 103.217 71.4368 98.4596 71.5647 94.9694C71.6888 91.5783 68.9747 90.2776 66.3916 87.8482Z" fill="#57B4F7"/>
<path id="Vector_3" d="M71.8532 91.0558C67.75 86.6281 63.3878 82.4528 58.7858 78.5476C57.8113 77.7215 56.387 79.1265 57.3718 79.9623C61.9738 83.8674 66.3367 88.0435 70.4392 92.4704C71.3138 93.415 72.7286 91.9997 71.8532 91.0558Z" fill="#171714"/>
<path id="Vector_4" d="M59.2386 96.2091C57.961 94.4304 56.6834 92.6517 55.4058 90.873C55.0906 90.4348 54.5381 90.2201 54.0387 90.51C53.6063 90.7603 53.3587 91.4365 53.6757 91.8771C54.9533 93.6558 56.231 95.4345 57.5086 97.2133C57.8237 97.6515 58.3755 97.8668 58.8757 97.5762C59.3081 97.3259 59.5556 96.6497 59.2386 96.2091Z" fill="#171714"/>
<path id="Vector_5" d="M57.7394 101.502C56.0749 100.134 54.7612 98.5085 53.7838 96.5943C53.5381 96.1133 52.8666 95.9708 52.4167 96.2313C51.9281 96.5139 51.8068 97.1159 52.0538 97.5984C53.0943 99.6363 54.558 101.463 56.3254 102.916C56.7422 103.259 57.3317 103.325 57.7397 102.916C58.0932 102.562 58.1588 101.846 57.7394 101.502Z" fill="#171714"/>
<path id="Vector_6" d="M81.7855 62.8398C81.7681 62.3079 81.3572 61.8222 80.7975 61.8272L74.6502 61.8854C74.1275 61.8903 73.6199 62.3251 73.6376 62.8734C73.655 63.4054 74.0659 63.8911 74.6257 63.886C76.6753 63.8662 78.7247 63.8478 80.7743 63.828C81.2956 63.8229 81.804 63.3875 81.7855 62.8398Z" fill="#171714"/>
</g>
</g>
</svg>
