<svg width="158" height="172" viewBox="0 0 158 172" fill="none" xmlns="http://www.w3.org/2000/svg">
<path id="Vector" d="M133.447 21.5683C132.526 20.3773 131.257 19.4596 129.809 19.0021C123.667 17.0726 120.974 24.4994 120.372 29.1226L116.552 58.5599C116.102 60.2302 115.589 61.8822 114.967 63.472C113.628 66.8974 109.483 68.4033 106.464 66.5621C102.223 46.7323 96.9648 27.1372 90.6271 7.86336C88.8659 2.50426 83.5367 -1.07019 77.8352 0.434924C72.6079 1.81237 68.6099 7.83625 70.3772 13.22C70.7119 14.2366 71.0006 15.273 71.3276 16.2929C72.4912 21.8741 74.1055 27.4105 75.3097 32.9696C77.3586 42.4123 79.8924 52.0689 81.2312 61.632C81.485 63.4532 80.903 65.6633 79.4706 66.6563C77.2558 62.9917 75.0311 59.336 72.8163 55.6714L48.3846 15.3181C44.4123 8.76128 36.7742 9.32336 32.2471 13.1532C29.549 14.1745 28.0529 17.4995 28.4402 20.9799C28.7323 23.6179 29.9273 26.0431 31.177 28.3626C33.9283 33.4574 37.0424 38.3361 40.1527 43.2164L50.6981 59.7366C54.0377 65.2738 57.4338 70.7728 60.8009 76.289C61.3471 77.6467 61.5969 78.8366 61.0959 79.4085C59.7753 80.9133 56.3165 78.3606 55.1429 77.6204C54.5707 77.2576 54.027 76.8552 53.4751 76.4655C42.2718 64.702 30.6984 53.2853 18.7247 42.2832C8.84081 33.2007 -6.17903 47.79 3.75279 56.92C22.0937 73.7802 39.5369 91.5615 56.0537 110.176C57.715 112.646 59.1804 115.232 60.2785 118.013C61.0926 120.075 61.7081 122.331 61.2206 124.528C60.5397 127.596 58.7664 129.647 56.3767 131.054C54.7359 130.785 53.1148 130.466 51.462 130.242C37.0409 128.269 21.6202 127.825 8.58108 135.314C3.83284 138.041 1.64671 144.794 4.66109 149.579C7.54628 154.16 13.3427 156.166 18.2963 153.755C18.6174 153.748 18.9424 153.772 19.264 153.756C29.9976 153.207 39.9148 155.836 49.7888 159.43C69.3883 166.56 78.3926 176.109 98.7603 169.094C114.115 163.805 142.125 155.32 151.84 141.495C169.511 116.364 137.671 93.046 135.838 67.8022C134.918 55.1023 138.302 42.2894 136.289 29.6478C135.844 26.7936 135.263 23.9113 133.447 21.5683Z" fill="#F7CC48"/>
</svg>
