<svg width="158" height="139" viewBox="0 0 158 139" fill="none" xmlns="http://www.w3.org/2000/svg">
<g id="Group">
<path id="Vector" d="M38.003 48.2603C39.1086 44.1988 40.9809 40.3579 43.6115 37.051C50.3053 28.6329 65.7177 21.2487 76.4891 25.9889C84.5117 29.5203 90.7643 43.4914 93.3202 51.1003C95.4833 44.3664 99.6457 38.0953 105.679 34.3999C111.711 30.7062 119.713 29.9384 125.9 33.3662C134.613 38.1942 135.717 46.4983 130.327 54.6445C135.295 51.4412 142.599 53.8622 145.613 58.9475C148.625 64.0333 147.759 70.7975 144.507 75.7337C141.254 80.6686 135.98 83.969 130.45 86.06C123.462 88.7034 115.098 89.467 108.906 85.2851C111.583 97.6522 103.442 111.39 91.3074 114.977C79.1736 118.566 64.8698 111.464 60.3926 99.6301C56.3123 112.061 39.0935 117.868 28.3178 110.448C17.5433 103.028 16.8274 84.869 26.9864 76.6248C31.4136 73.0314 38.5882 71.6593 42.5 75.8072C36.9448 67.9358 35.4807 57.5213 38.003 48.2603Z" fill="#77E6AC"/>
<path id="Vector_2" d="M52.7889 79.5883C51.0361 76.1758 52.7732 72.2259 55.5426 69.9084C59.3192 66.748 65.4617 69.8283 63.8045 75.0096" stroke="#1B0512" stroke-width="2" stroke-miterlimit="10" stroke-linecap="round"/>
<path id="Vector_3" d="M109.316 67.0004C107.891 65.1171 108.612 62.3404 110.001 60.4294C111.516 58.3427 114.194 56.7195 116.622 57.5847C118.998 58.4327 120.028 61.1577 120.768 63.5689" stroke="#1B0512" stroke-width="2" stroke-miterlimit="10" stroke-linecap="round"/>
<path id="Vector_4" d="M83.3911 73.6174C85.8628 73.6708 88.3455 73.1044 90.5487 71.9857" stroke="#1B0512" stroke-width="2" stroke-miterlimit="10" stroke-linecap="round"/>
<path id="Vector_5" d="M140.114 61.3694C139.474 61.5351 138.936 62.2997 139.176 62.9701C139.968 65.1805 139.75 67.6343 138.693 69.7274C137.52 72.0452 135.575 73.8253 133.371 75.1484C131.926 76.0161 133.211 78.3036 134.664 77.4311C137.277 75.8612 139.668 73.6959 141.019 70.922C142.312 68.267 142.728 65.1292 141.716 62.3077C141.474 61.6408 140.843 61.1795 140.114 61.3694Z" fill="white"/>
<path id="Vector_6" d="M84.6471 106.246C81.6972 105.06 79.2998 102.621 78.0119 99.6266C77.7316 98.9761 76.7925 98.8094 76.2242 99.1315C75.5538 99.5117 75.4479 100.266 75.7292 100.919C77.2805 104.521 80.299 107.311 83.9164 108.765C84.5736 109.03 85.3595 108.503 85.5423 107.871C85.7542 107.134 85.306 106.511 84.6471 106.246Z" fill="white"/>
<path id="Vector_7" d="M88.5733 101.997C88.1669 101.432 87.7606 100.867 87.3543 100.302C87.274 100.148 87.1637 100.024 87.0218 99.929C86.8971 99.8112 86.7485 99.7308 86.5789 99.6879C86.2658 99.5967 85.8478 99.6303 85.5666 99.8065C85.2842 99.9833 85.0342 100.249 84.9529 100.582C84.8753 100.903 84.8683 101.313 85.0715 101.594C85.4779 102.159 85.8842 102.724 86.2906 103.289C86.3708 103.443 86.4823 103.567 86.623 103.662C86.7477 103.78 86.8963 103.86 87.066 103.903C87.3791 103.994 87.797 103.96 88.0782 103.784C88.3606 103.607 88.6106 103.342 88.6919 103.009C88.7695 102.687 88.7753 102.278 88.5733 101.997Z" fill="white"/>
<path id="Vector_8" d="M98.0947 100.27C97.9778 100.141 97.8386 100.049 97.6762 99.993C97.5202 99.9086 97.3533 99.8689 97.1726 99.8736C96.833 99.8836 96.4795 99.9909 96.2401 100.245C96.1704 100.332 96.1012 100.42 96.0314 100.507C95.9102 100.71 95.8474 100.93 95.8435 101.167C95.7745 101.772 95.7055 102.376 95.6353 102.981C95.6259 103.162 95.6612 103.331 95.7413 103.488C95.7916 103.652 95.8809 103.794 96.0066 103.914C96.1236 104.044 96.2627 104.135 96.4251 104.191C96.58 104.276 96.748 104.315 96.9287 104.311C97.2683 104.301 97.6219 104.193 97.8612 103.939C97.9304 103.851 98.0001 103.764 98.0699 103.677C98.1911 103.474 98.2539 103.254 98.2578 103.017C98.3268 102.413 98.3958 101.808 98.466 101.203C98.4754 101.022 98.4401 100.853 98.36 100.696C98.3097 100.532 98.2204 100.39 98.0947 100.27Z" fill="white"/>
<path id="Vector_9" d="M79.033 36.5825C78.3485 36.7932 77.9151 37.4699 78.0941 38.1837C78.5606 40.0372 79.027 41.8907 79.4923 43.7447C79.6589 44.4096 80.4204 44.8908 81.093 44.6823C81.7775 44.4716 82.2109 43.7949 82.0307 43.0816C81.5642 41.2281 81.0977 39.3746 80.6325 37.5206C80.4659 36.8557 79.7057 36.374 79.033 36.5825Z" fill="white"/>
<path id="Vector_10" d="M48.3627 43.3363C44.4661 49.442 42.5425 56.7411 42.9524 63.9745C43.0473 65.6505 45.6714 65.6999 45.5749 64.0103C45.1881 57.2037 46.9405 50.4404 50.6087 44.6908C51.5197 43.2642 49.2699 41.9142 48.3627 43.3363Z" fill="white"/>
<path id="Vector_11" d="M54.7246 44.356C54.0509 44.1925 53.2814 44.5381 53.0987 45.25C52.5269 47.4745 52.1208 49.7391 51.8588 52.0205C51.7799 52.7051 52.4934 53.3709 53.1522 53.3497C53.9226 53.3261 54.3972 52.7888 54.4813 52.0563C54.5124 51.7861 54.5448 51.5154 54.5806 51.246C54.5985 51.1114 54.6163 50.9767 54.6354 50.8415C54.6447 50.7733 54.702 50.3178 54.6576 50.6836C54.7206 50.1614 54.8252 49.6399 54.9214 49.122C55.1172 48.0677 55.3515 47.0198 55.6186 45.9819C55.788 45.3185 55.4272 44.5271 54.7246 44.356Z" fill="white"/>
<path id="Vector_12" d="M36.0182 105.862C33.4163 104.413 30.7637 102.809 29.8286 99.7997C28.908 96.8337 29.2005 93.6217 28.7153 90.5761C28.4499 88.9119 25.9129 89.5815 26.1764 91.238C26.7097 94.5854 26.3241 98.1028 27.5942 101.311C28.8847 104.571 31.7131 106.465 34.662 108.108C36.1378 108.93 37.4952 106.684 36.0182 105.862Z" fill="white"/>
<path id="Vector_13" d="M122.915 68.6018C121.327 68.3082 119.704 68.911 118.255 69.5069C117.427 69.8473 116.627 70.2475 115.847 70.6888C115.121 71.1003 114.372 71.517 113.865 72.1982C113.34 72.9013 113.23 73.8602 113.657 74.642C113.766 74.8434 113.899 75.0134 114.046 75.1584C114.155 75.7053 114.483 76.1999 115.027 76.4762C116.275 77.1124 117.954 77.0176 119.283 76.7148C120.551 76.425 121.778 75.8436 122.832 75.0864C123.929 74.2976 125.206 73.2962 125.424 71.8742C125.669 70.291 124.441 68.884 122.915 68.6018Z" fill="#FFBB97"/>
<path id="Vector_14" d="M63.6122 84.3765C63.0031 83.7715 62.1965 83.5308 61.3695 83.4159C60.0208 83.2292 58.6716 83.6236 57.467 84.2057C56.8369 84.5101 56.2404 84.8829 55.6665 85.2816C55.0748 85.6923 54.3886 86.1021 53.9147 86.6477C53.1939 87.4762 53.1381 88.6674 53.8919 89.5001C54.1523 89.788 54.4816 90.0136 54.8407 90.1821C54.9871 90.3306 55.148 90.4628 55.3311 90.557C56.0355 90.9185 56.7682 90.847 57.5232 90.7573C60.0745 90.454 63.3546 89.667 64.181 86.8283C64.4268 85.9737 64.2562 85.0166 63.6122 84.3765Z" fill="#FFBB97"/>
</g>
</svg>
