<svg width="18" height="18" viewBox="0 0 18 18" fill="none" xmlns="http://www.w3.org/2000/svg">
<g id="icon-volume-2" clip-path="url(#clip0_991_40175)">
<g id="Shape">
<path d="M13.6713 3.2531C13.3831 3.02395 12.9637 3.07182 12.7346 3.36001C12.5054 3.64821 12.5533 4.0676 12.8415 4.29674C14.0868 5.28691 14.8879 6.73114 15.0685 8.31183C15.2492 9.89253 14.7946 11.4803 13.8048 12.7259C13.5758 13.0141 13.6238 13.4335 13.912 13.6626C14.2003 13.8916 14.6197 13.8436 14.8487 13.5554C16.0585 12.033 16.614 10.0924 16.3932 8.16043C16.1724 6.22847 15.1933 4.4633 13.6713 3.2531Z" fill="#1A2434"/>
<path d="M11.6004 5.85843C11.3122 5.62929 10.8928 5.67715 10.6637 5.96535C10.4345 6.25354 10.4824 6.67293 10.7706 6.90208C11.3241 7.34215 11.6801 7.98403 11.7604 8.68656C11.8407 9.38909 11.6387 10.0947 11.1988 10.6484C10.9697 10.9366 11.0177 11.356 11.306 11.585C11.5942 11.8141 12.0136 11.7661 12.2426 11.4779C12.9025 10.6474 13.2055 9.58896 13.0851 8.53516C12.9647 7.48136 12.4306 6.51854 11.6004 5.85843Z" fill="#1A2434"/>
<path fill-rule="evenodd" clip-rule="evenodd" d="M8.57882 4.35649C8.54972 4.10188 8.37725 3.88649 8.13516 3.80242C7.89307 3.71835 7.62422 3.78049 7.44358 3.96227L4.59945 6.82431L2.18237 7.10056C1.81656 7.14237 1.55391 7.4728 1.59571 7.83861L2.04991 11.8127C2.09172 12.1786 2.42216 12.4412 2.78797 12.3994L5.20505 12.1232L8.6216 14.2697C8.8386 14.406 9.11454 14.4059 9.33142 14.2694C9.54829 14.1328 9.66772 13.8841 9.63862 13.6295L8.57882 4.35649ZM5.38037 7.93004L7.41161 5.886L8.1564 12.4027L5.71635 10.8697C5.58816 10.7892 5.43639 10.7547 5.28599 10.7719L3.29892 10.999L2.99612 8.34957L4.98319 8.12247C5.13359 8.10528 5.27366 8.03741 5.38037 7.93004Z" fill="#1A2434"/>
</g>
</g>
<defs>
<clipPath id="clip0_991_40175">
<rect width="16" height="16" fill="white" transform="translate(0.251953 1.95312) rotate(-6.52)"/>
</clipPath>
</defs>
</svg>
