<svg width="121" height="81" viewBox="0 0 121 81" fill="none" xmlns="http://www.w3.org/2000/svg">
<path id="Vector 4" d="M1 8.5L27.5 37M27.5 37V53.75C27.5 61.0678 21.5276 67 14.2099 67V67C6.93629 67 1 61.1036 1 53.83V53.83C1 47.7649 5.14211 42.484 11.0326 41.0392L27.5 37ZM55 43.5L73.5 59.5L92.5 79.5M41 8.5L69.8825 1.70412C77.7902 -0.15651 85.9071 3.84912 89.2407 11.2572L90.8646 14.8659C91.9009 17.1687 91.8614 19.8128 90.7566 22.0836L89.5567 24.55C87.0253 29.7536 79.6681 29.9109 76.9164 24.8204V24.8204C75.0357 21.3411 76.3579 16.9958 79.8578 15.1538L85.8167 12.0175C89.9795 9.82655 94.973 9.91312 99.0573 12.247L103.199 14.6137C107.603 17.1302 111.025 21.0634 112.909 25.7728L120 43.5" stroke="#F6D94A" stroke-width="2" stroke-dasharray="8 8"/>
</svg>
