<svg width="16" height="16" viewBox="0 0 16 16" fill="none" xmlns="http://www.w3.org/2000/svg">
<g id="icon-menu">
<g id="Shape">
<path d="M1.3335 4.00016C1.3335 3.63197 1.63197 3.3335 2.00016 3.3335H14.0002C14.3684 3.3335 14.6668 3.63197 14.6668 4.00016C14.6668 4.36835 14.3684 4.66683 14.0002 4.66683H2.00016C1.63197 4.66683 1.3335 4.36835 1.3335 4.00016Z" fill="#4D1435"/>
<path d="M1.3335 8.00016C1.3335 7.63197 1.63197 7.3335 2.00016 7.3335H14.0002C14.3684 7.3335 14.6668 7.63197 14.6668 8.00016C14.6668 8.36835 14.3684 8.66683 14.0002 8.66683H2.00016C1.63197 8.66683 1.3335 8.36835 1.3335 8.00016Z" fill="#4D1435"/>
<path d="M2.00016 11.3335C1.63197 11.3335 1.3335 11.632 1.3335 12.0002C1.3335 12.3684 1.63197 12.6668 2.00016 12.6668H14.0002C14.3684 12.6668 14.6668 12.3684 14.6668 12.0002C14.6668 11.632 14.3684 11.3335 14.0002 11.3335H2.00016Z" fill="#4D1435"/>
</g>
</g>
</svg>
