<svg id="Layer_1" data-name="Layer 1" xmlns="http://www.w3.org/2000/svg" xmlns:xlink="http://www.w3.org/1999/xlink" viewBox="0 0 248.5 153.44"><defs><style>.cls-1{fill:#f6ed5a;}.cls-2{fill:url(#radial-gradient);}.cls-3{fill:#c3161c;}.cls-4{fill:#201917;}.cls-5{fill:#231f20;}</style><radialGradient id="radial-gradient" cx="78.62" cy="82.08" r="53.39" gradientTransform="translate(-7.08 -1.46) rotate(-2.77)" gradientUnits="userSpaceOnUse"><stop offset="0" stop-color="#f6ec57"/><stop offset="1" stop-color="#f2d52b"/></radialGradient></defs><path class="cls-1" d="M134.36,74.55,156.17,60l-25.92.27,14.89-16.8-22.4,4.25,10-20-21,10.75L117.24,15,99.38,31.27l-.72-23.8L85.79,27.09,78.56,5.36,71.25,27.13,59.07,7.94,57.29,30.71l-17-15.25,4.5,22.87-20.48-11L34.36,48,12,43l15.23,17.8-23,1.13L23.66,74.8,3.34,82l20.27,7.16L4.08,101.87,27.29,103,12.1,120.57l22.33-5.06L24.31,136.06l20.19-9.92-4.12,22.15L57,133.58l1.5,23.21,12.58-19.43,7.37,21.44,7.29-21.32,12.79,19L100,133.77l17.16,14.94-4.52-22.35,20.55,10.13-10.68-20.6,23.36,5.24-16.41-17.89L152,101.83,135.2,89l20.26-7.21Zm-6.12,27.8-.12.51-.32.55C128,103.06,128.1,102.7,128.24,102.35Zm-6.76,12-.39.67-.64.64C120.8,115.24,121.15,114.81,121.48,114.36ZM99.15,131.9l-.32.19-.53.15Zm-27.89,3.83h-.17l-.17,0Z" transform="translate(-3.34 -5.36)"/><circle class="cls-2" cx="75.42" cy="76.72" r="53.39"/><path class="cls-3" d="M186.41,90.28a3,3,0,0,1,1.93,1.13,3.29,3.29,0,0,1,.8,2.16v17.91a2.41,2.41,0,0,1-.8,1.9,2.26,2.26,0,0,1-1.93.56l-17.12-2.56a3.1,3.1,0,0,1-1.95-1.14,3.26,3.26,0,0,1-.81-2.15V90.18a2.41,2.41,0,0,1,.81-1.9,2.29,2.29,0,0,1,1.95-.56ZM174.5,109.21v-5.36l2.8-2.56,4.68,9,4.43.65-6.75-11.83,6.4-6-4.61-.69-6.95,6.87V91.46l-3.42-.52v17.78Z" transform="translate(-3.34 -5.36)"/><path class="cls-3" d="M212.76,88.28a2.37,2.37,0,0,1,.83,1.9v17.91a3.18,3.18,0,0,1-.83,2.15,3.12,3.12,0,0,1-2,1.14l-17.38,2.56a2.32,2.32,0,0,1-2-.56,2.41,2.41,0,0,1-.81-1.9V93.57a3.3,3.3,0,0,1,.81-2.16,3.1,3.1,0,0,1,2-1.13l17.38-2.56A2.32,2.32,0,0,1,212.76,88.28Zm-8.67,2.92-3.57.52V110.4l3.57-.52Z" transform="translate(-3.34 -5.36)"/><path class="cls-3" d="M217.42,87.46,234.63,90a3.11,3.11,0,0,1,2,1.12,3.23,3.23,0,0,1,.82,2.17v17.94a2.45,2.45,0,0,1-.82,1.94,2.3,2.3,0,0,1-2,.56l-17.21-2.5a3.15,3.15,0,0,1-1.95-1.11,3.28,3.28,0,0,1-.82-2.17V90a2.49,2.49,0,0,1,.82-1.94A2.32,2.32,0,0,1,217.42,87.46Zm2.45,2.77v18.92l6.93,1a5.56,5.56,0,0,0,5.53-2.09,8.14,8.14,0,0,0,1.48-5V100.8a10.77,10.77,0,0,0-1.76-6.21,7.33,7.33,0,0,0-5.22-3.31Zm3.59,16.09,3.28.47a2.44,2.44,0,0,0,.53,0q2.86,0,2.86-4.29v-2.27a8.34,8.34,0,0,0-.8-3.88,3.31,3.31,0,0,0-2.63-1.79l-3.24-.47Z" transform="translate(-3.34 -5.36)"/><path class="cls-4" d="M148.83,131.65l.53-2.26,1.54-7.78.31-1.67c0-.27.09-.53.13-.79l.17-1.08,2,0,1.43,0,1.43,0a6.63,6.63,0,0,1,1.82.18,2.19,2.19,0,0,1,1,.62,2.49,2.49,0,0,1,.56,1.07,3.42,3.42,0,0,1,.05,1.4,4.75,4.75,0,0,1-1,2.26,5,5,0,0,1-2,1.49,6.35,6.35,0,0,1-2.51.49,8.08,8.08,0,0,1-1.55-.16,8.67,8.67,0,0,0-.14-1.24,7.51,7.51,0,0,0,1.48.15,5.79,5.79,0,0,0,1.38-.17,3.3,3.3,0,0,0,1.2-.55,3.09,3.09,0,0,0,.87-1,3.4,3.4,0,0,0,.45-1.22,2.26,2.26,0,0,0,0-.94,1.33,1.33,0,0,0-.41-.68,1.55,1.55,0,0,0-.7-.35,6,6,0,0,0-1.2-.09h-.83l-1,0H153c-.31,1.45-.58,2.77-.8,4l-.78,4.09c-.29,1.55-.48,2.59-.56,3.11l-.18,1.13-.91,0Z" transform="translate(-3.34 -5.36)"/><path class="cls-4" d="M159.79,131.65l.62-2.68,1-4.94.75-4.16c.15-.84.25-1.44.31-1.8l2,0,1.49,0,1.34,0a9.2,9.2,0,0,1,1.65.13,2.39,2.39,0,0,1,1.25.59,2.32,2.32,0,0,1,.71,1.07,3,3,0,0,1,.06,1.39,4.35,4.35,0,0,1-.44,1.39,4.63,4.63,0,0,1-2,2,5.27,5.27,0,0,1-1.2.4,12.75,12.75,0,0,1-1.27.19l1.29,2.8,1.35,2.77c.1.19.23.48.41.87l-1,0c-.18,0-.53,0-1.05,0l-.5-1.37c-.1-.26-.2-.52-.31-.78s-.22-.54-.34-.84L164.23,125c-.07-.14-.18-.4-.34-.76a7.43,7.43,0,0,0,1.32.14,5.05,5.05,0,0,0,1.84-.33,3.3,3.3,0,0,0,1.41-1,3.34,3.34,0,0,0,.68-1.54,2.42,2.42,0,0,0,0-.85,1.39,1.39,0,0,0-.34-.66,1.68,1.68,0,0,0-.53-.39,2.69,2.69,0,0,0-.72-.18,7.27,7.27,0,0,0-1-.06l-1.41,0H164q-1.36,6.69-2.31,12.3l-1,0Z" transform="translate(-3.34 -5.36)"/><path class="cls-4" d="M180.6,117.85a8.09,8.09,0,0,1,2.7.43,4.82,4.82,0,0,1,3.17,3.62,7.85,7.85,0,0,1,0,2.65,10.24,10.24,0,0,1-.93,3,7.69,7.69,0,0,1-1.84,2.4,7.84,7.84,0,0,1-2.66,1.47,10,10,0,0,1-3.11.5,8.64,8.64,0,0,1-2.82-.45A5,5,0,0,1,173,130a4.5,4.5,0,0,1-1.06-2.19,7.71,7.71,0,0,1,0-2.67,9.51,9.51,0,0,1,1-3,7.87,7.87,0,0,1,1.93-2.41,7.72,7.72,0,0,1,2.69-1.46A10.28,10.28,0,0,1,180.6,117.85Zm-.32,1.33a7,7,0,0,0-2.3.39,5.68,5.68,0,0,0-2,1.22,6.76,6.76,0,0,0-1.48,2,8.77,8.77,0,0,0-.76,2.39,6.29,6.29,0,0,0,0,2.21,3.65,3.65,0,0,0,.83,1.76,3.7,3.7,0,0,0,1.59,1.05,6.13,6.13,0,0,0,2.08.34,6.88,6.88,0,0,0,2.24-.37,5.36,5.36,0,0,0,2-1.16,6.19,6.19,0,0,0,1.43-1.94,8.49,8.49,0,0,0,.74-2.37,7.33,7.33,0,0,0,0-2.24,3.86,3.86,0,0,0-.76-1.83,3.43,3.43,0,0,0-1.55-1.09A6,6,0,0,0,180.28,119.18Z" transform="translate(-3.34 -5.36)"/><path class="cls-4" d="M196.34,124h4.82q-.69,3-1.46,7.18a26.26,26.26,0,0,1-5.21.65,10.27,10.27,0,0,1-2.93-.41,5.2,5.2,0,0,1-2.23-1.25,4.12,4.12,0,0,1-1.14-2.14,7.59,7.59,0,0,1-.06-2.78,9,9,0,0,1,1.12-3.13,8.37,8.37,0,0,1,2.15-2.46,8.24,8.24,0,0,1,2.78-1.42,11.38,11.38,0,0,1,3.21-.43,18.85,18.85,0,0,1,4.15.51c-.07.5-.12,1-.16,1.61a13.91,13.91,0,0,0-2.29-.63,10.09,10.09,0,0,0-1.82-.18,8.46,8.46,0,0,0-2.6.41,6.45,6.45,0,0,0-2.26,1.23,6.57,6.57,0,0,0-1.62,2,8.22,8.22,0,0,0-.85,2.53,6.11,6.11,0,0,0,0,2.18,3.18,3.18,0,0,0,.82,1.67,4.08,4.08,0,0,0,1.63,1,6.72,6.72,0,0,0,2.22.34,13.15,13.15,0,0,0,1.62-.12,14.38,14.38,0,0,0,1.94-.42l.94-4.71h-.92c-.62,0-1.33,0-2.14,0Q196.24,124.64,196.34,124Z" transform="translate(-3.34 -5.36)"/><path class="cls-4" d="M202.54,131.65l.62-2.68,1-4.94.75-4.16c.15-.84.25-1.44.31-1.8l2,0,1.48,0,1.34,0a9.24,9.24,0,0,1,1.66.13,2.43,2.43,0,0,1,1.25.59,2.32,2.32,0,0,1,.71,1.07,3.18,3.18,0,0,1,.06,1.39,4.53,4.53,0,0,1-1.27,2.54,4.76,4.76,0,0,1-1.15.85,5.27,5.27,0,0,1-1.2.4c-.32.07-.74.13-1.28.19l1.3,2.8,1.35,2.77c.1.19.23.48.41.87l-1,0c-.18,0-.53,0-1.05,0l-.5-1.37c-.1-.26-.2-.52-.31-.78s-.22-.54-.34-.84L207,125c-.07-.14-.19-.4-.34-.76a7.43,7.43,0,0,0,1.32.14,5.05,5.05,0,0,0,1.84-.33,3.3,3.3,0,0,0,1.41-1,3.34,3.34,0,0,0,.68-1.54,2.42,2.42,0,0,0,0-.85,1.39,1.39,0,0,0-.34-.66,1.68,1.68,0,0,0-.53-.39,2.69,2.69,0,0,0-.72-.18,7.27,7.27,0,0,0-1-.06l-1.41,0h-1.15q-1.36,6.69-2.32,12.3l-1,0Z" transform="translate(-3.34 -5.36)"/><path class="cls-4" d="M212.19,131.65l2.34-3.42,6-9,.71-1.13h2.3l.94,4.87,1.78,8.71-.94,0-1.06,0c-.07-.64-.22-1.56-.44-2.77s-.41-2.18-.58-2.93h-5.38l-1.9,3-1.69,2.73-1,0Zm6.46-7h4.43l-1-5.26Z" transform="translate(-3.34 -5.36)"/><path class="cls-4" d="M227.78,131.65l.5-1.84,1.79-7.41,1-4.33h2.54l.09.86c0,.24.07.51.11.82s.14.83.27,1.56l.65,3.53.76,4.74,2.71-4.74,3.06-5.17c.11-.18.21-.38.32-.59l.52-1h2.59l-.87,4.74-.55,3.12c-.05.29-.1.58-.14.87l-.35,2.28-.21,1.28-.18,1.29c-.43,0-.72,0-.87,0s-.5,0-.9,0l.26-1.27,1.28-7.16c.15-.8.3-1.69.46-2.67l.12-.82-6,10.47-.8,1.45c-.42,0-.72,0-.89,0s-.52,0-.95,0l-.58-3.75-.63-3.69-.63-3.56c0-.16-.08-.45-.13-.86l-.31,1.16-1.95,8.56c-.06.28-.12.57-.17.85s-.14.72-.24,1.29l-.83,0Z" transform="translate(-3.34 -5.36)"/><path class="cls-5" d="M64.09,95.4h-2.2l.67-3.51h7c-.71,3.16-1.33,6.3-1.89,9.43a39.7,39.7,0,0,1-7.24.66c-8.43,0-8.5-5.43-8.1-8.11.7-4.7,4.55-9.24,11.71-9.24a27,27,0,0,1,5.85.66l-.42,3.94a15.48,15.48,0,0,0-5-.93c-3.57,0-6.49,1.9-7.08,5.82-.41,2.79,1,4.34,3.68,4.34a10.78,10.78,0,0,0,2.4-.35Z" transform="translate(-3.34 -5.36)"/><path class="cls-5" d="M87.14,84.94l-.72,3.74c-1.48-.08-3-.16-4.43-.16H78.37l-.61,2.94h2.79c1.37,0,2.71,0,4.09-.08l-.79,3.67H77l-.63,3H78c2.2,0,4.41-.08,6.62-.2l-.78,3.79H70.52a170.18,170.18,0,0,0,3.33-16.74Z" transform="translate(-3.34 -5.36)"/><path class="cls-5" d="M100.54,95.78h0c.36-1.61,1.59-7.91,2-10.84h4.67c-.4,1.7-2.67,12.35-3.4,16.74h-6C96.58,98,94.85,94.57,93.65,91H93.6c-.3,1.5-1.58,8.13-2,10.64H87c.71-2.66,2.61-11.93,3.33-16.74h6.11Z" transform="translate(-3.34 -5.36)"/><path class="cls-5" d="M107.34,101.68c1.06-5,2.19-9.92,3.21-16.74h5.3c-1.27,5.57-2.3,11.17-3.16,16.74Z" transform="translate(-3.34 -5.36)"/><path class="cls-5" d="M124.34,84.94c-.59,2.78-1.76,7.7-2.07,9.79-.34,2.26.27,3.59,2.22,3.59,3.08,0,3.55-2.49,4.21-5.4.59-2.66,1.13-5.32,1.58-8h5.23c-.23,1-1.78,8-2.5,11.82-.48,2.56-3.1,5.22-9.07,5.22s-7.49-2.66-7.15-5c.56-3.77,1.65-7.63,2.41-12.07Z" transform="translate(-3.34 -5.36)"/><path class="cls-5" d="M148.49,89.06a8.57,8.57,0,0,0-3.42-.83c-.76,0-2.24.27-2.4,1.33-.29,2,5.22,3.84,4.67,7.55-.26,1.71-1.9,4.87-7.13,4.87a25.19,25.19,0,0,1-4.79-.55l.25-4.14a9.73,9.73,0,0,0,4,1.1c.81,0,2.33-.15,2.5-1.3.29-1.94-5.21-3.94-4.62-7.86.17-1.15,1.34-4.59,6.89-4.59a21.5,21.5,0,0,1,4.28.48Z" transform="translate(-3.34 -5.36)"/><path class="cls-5" d="M58.09,80.53c.5-1.81.9-3.31,1.19-4.5q.77-3.16,2-8.67c.57-2.55.94-4.35,1.13-5.4l.22-1.25,3.32,0,3.13,0L66.47,71.56l-1.93,9-3.13,0Zm9.09-10.46,4-4.42L74.47,62l1-1.25,3.64,0,3.47,0-7.47,7.73L73.72,70l.77,1.71L79,80.54l-3.55,0-3.93,0Q70.27,77,67.18,70.07Z" transform="translate(-3.34 -5.36)"/><path class="cls-5" d="M78.2,80.54l1.57-2.09,10-14.14,1.07-1.58c.32-.46.76-1.13,1.33-2l3.71,0q2,0,3.78,0l1.05,6.06,2.25,11.65.47,2.12-3,0-3.58,0q-.23-2.39-.85-5.63H88.64q-1.69,2.55-3.59,5.63l-3.3,0Zm12.94-9.85h4.49q-.78-5.11-.84-5.64c-.89,1.42-1.63,2.59-2.24,3.5Z" transform="translate(-3.34 -5.36)"/><path class="cls-5" d="M109.27,60.74l3.18,0,3.09,0L114,66.91c-.29,1.17-.54,2.25-.77,3.27s-.36,1.72-.43,2.11a8.77,8.77,0,0,0-.16,1.84,2.42,2.42,0,0,0,.35,1.26,2,2,0,0,0,1,.77,4.17,4.17,0,0,0,1.51.27,5,5,0,0,0,1.34-.19,4,4,0,0,0,.93-.44,3.85,3.85,0,0,0,.68-.6,5.55,5.55,0,0,0,.72-1,7.25,7.25,0,0,0,.61-1.52q.3-.94,1.11-4.32c.46-1.91.86-3.67,1.21-5.26a14.75,14.75,0,0,1,.57-2.31h6.38l-2.51,10.31a4.63,4.63,0,0,0-.1.48,24.76,24.76,0,0,1-1.12,4.26A7,7,0,0,1,124,78a8.13,8.13,0,0,1-2.41,1.64,12.08,12.08,0,0,1-3.34,1,22.22,22.22,0,0,1-3.63.3,20.17,20.17,0,0,1-3.08-.23,10.72,10.72,0,0,1-2.39-.68,6.94,6.94,0,0,1-1.76-1,4,4,0,0,1-1-1.12,3.93,3.93,0,0,1-.39-1.38,6.69,6.69,0,0,1,.07-1.93c0-.23.12-.58.22-1s.26-1.14.48-2l.6-2.32c.16-.61.37-1.5.63-2.69Z" transform="translate(-3.34 -5.36)"/><path class="cls-5" d="M127.84,80.27c.24-2.07.39-3.72.44-5a13.39,13.39,0,0,0,2.72,1,9.56,9.56,0,0,0,2.17.28,5,5,0,0,0,2.08-.37,1.44,1.44,0,0,0,.93-1.09,1.57,1.57,0,0,0,0-.48,1.74,1.74,0,0,0-.19-.5,2.89,2.89,0,0,0-.47-.62l-2.31-2.39c-.54-.54-.92-.93-1.13-1.17a6.59,6.59,0,0,1-.95-1.38,3.76,3.76,0,0,1-.4-1.3,4.76,4.76,0,0,1,.05-1.4,5.6,5.6,0,0,1,.62-1.74,6.61,6.61,0,0,1,3.08-2.86,8.54,8.54,0,0,1,2.33-.74,15.37,15.37,0,0,1,2.45-.19,26,26,0,0,1,5.23.57c-.09.67-.16,1.28-.22,1.84s-.14,1.53-.24,2.92a11.14,11.14,0,0,0-2.3-.75,9.78,9.78,0,0,0-1.86-.21,4.25,4.25,0,0,0-1.95.42,1.57,1.57,0,0,0-.93,1,1.5,1.5,0,0,0,0,.56,2.15,2.15,0,0,0,.32.65,5.27,5.27,0,0,0,.7.81c.29.3.76.74,1.4,1.32l.9.83a9.7,9.7,0,0,1,.84.91,8.19,8.19,0,0,1,.74,1.06,4.85,4.85,0,0,1,.43,1,3.79,3.79,0,0,1,.16.88,4.58,4.58,0,0,1-.07,1,6,6,0,0,1-1.06,2.49,6.62,6.62,0,0,1-2.1,1.94,8.91,8.91,0,0,1-2.7,1.07,14.26,14.26,0,0,1-3,.3A31.35,31.35,0,0,1,127.84,80.27Z" transform="translate(-3.34 -5.36)"/><path class="cls-5" d="M144.41,80.58l2-7.93,1.27-5.77.53-2.57c.15-.75.28-1.47.4-2.15l.23-1.4,3.4,0c.59,0,1.62,0,3.08,0-.72,2.77-1.29,5.23-1.73,7.36h7.88c.18-.79.42-1.87.7-3.22s.46-2.28.55-2.77c0-.26.12-.72.21-1.37l3.42,0,3,0q-1.83,7.47-2.61,11.1t-1.67,8.72l-3.16,0-3.39,0c.64-2.3,1.28-5,1.9-8h-7.88l-1.66,8-3.36,0Z" transform="translate(-3.34 -5.36)"/><path class="cls-5" d="M166,80.59l1.57-2.09,10-14.13,1.07-1.59c.32-.46.76-1.13,1.33-2l3.71,0c1.36,0,2.62,0,3.79,0l1,6.06,2.25,11.65.47,2.12-3,0-3.58,0a55.76,55.76,0,0,0-.85-5.64h-7.28q-1.71,2.55-3.6,5.63l-3.29,0ZM179,70.74h4.49q-.76-5.11-.84-5.64c-.89,1.42-1.63,2.59-2.23,3.5Z" transform="translate(-3.34 -5.36)"/><path class="cls-5" d="M192.6,80.61c.64-2.28,1.14-4.15,1.5-5.59q1-3.94,1.84-7.85t1.27-6.38l3.48,0,3,0-1.27,5.26-1.88,8.22-.42,2,3.24,0c2.54,0,4.47,0,5.78-.1L208,80.62l-7.24,0C197.66,80.58,194.93,80.59,192.6,80.61Z" transform="translate(-3.34 -5.36)"/><path class="cls-5" d="M214.29,80.62q.36-1.17,1.05-4c.47-1.88.77-3.2.91-4L211.7,60.8l3.59,0,3.26,0c.22,1,.54,2.12,1,3.47s.76,2.53,1,3.59c1.45-2,2.61-3.5,3.48-4.59s1.49-1.92,1.88-2.46l3.53,0,3.27,0-8,9.39c-1.59,1.88-2.4,2.86-2.41,3l0,.14,0,.15,0,.14-.49,2.21c-.32,1.46-.66,3.07-1,4.84l-3.15,0C216.72,80.6,215.66,80.6,214.29,80.62Z" transform="translate(-3.34 -5.36)"/><path class="cls-5" d="M226.64,80.63l1.57-2.09,10-14.14,1.08-1.58c.31-.47.75-1.13,1.32-2,1.69,0,2.93,0,3.71,0,1.37,0,2.63,0,3.79,0l1,6.06,2.25,11.64.46,2.12-3,0-3.59,0a54.88,54.88,0,0,0-.84-5.63h-7.29q-1.71,2.55-3.59,5.63l-3.3,0Zm12.94-9.85h4.5q-.78-5.11-.85-5.64c-.88,1.42-1.63,2.58-2.23,3.49Z" transform="translate(-3.34 -5.36)"/></svg>