<svg width="16" height="17" viewBox="0 0 16 17" fill="none" xmlns="http://www.w3.org/2000/svg">
<g id="google-docs 1" clip-path="url(#clip0_1764_3943)">
<g id="Group">
<path id="Vector" d="M13.9564 4.38725L10.2065 0.637344C10.119 0.549781 9.9995 0.5 9.875 0.5H3.3125C2.53709 0.5 1.90625 1.13084 1.90625 1.90625V15.0938C1.90625 15.8692 2.53709 16.5 3.3125 16.5H12.6875C13.4629 16.5 14.0938 15.8692 14.0938 15.0938V4.71875C14.0938 4.59094 14.0401 4.47091 13.9564 4.38725ZM10.3438 2.10041L12.4933 4.25H10.8125C10.554 4.25 10.3438 4.03972 10.3438 3.78125V2.10041ZM12.6875 15.5625H3.3125C3.05403 15.5625 2.84375 15.3522 2.84375 15.0938V1.90625C2.84375 1.64778 3.05403 1.4375 3.3125 1.4375H9.40625V3.78125C9.40625 4.55666 10.0371 5.1875 10.8125 5.1875H13.1562V15.0938C13.1562 15.3522 12.946 15.5625 12.6875 15.5625Z" fill="#686F79"/>
<path id="Vector_2" d="M10.8125 7.125H5.1875C4.92862 7.125 4.71875 7.33487 4.71875 7.59375C4.71875 7.85263 4.92862 8.0625 5.1875 8.0625H10.8125C11.0714 8.0625 11.2812 7.85263 11.2812 7.59375C11.2812 7.33487 11.0714 7.125 10.8125 7.125Z" fill="#686F79"/>
<path id="Vector_3" d="M10.8125 9H5.1875C4.92862 9 4.71875 9.20987 4.71875 9.46875C4.71875 9.72763 4.92862 9.9375 5.1875 9.9375H10.8125C11.0714 9.9375 11.2812 9.72763 11.2812 9.46875C11.2812 9.20987 11.0714 9 10.8125 9Z" fill="#686F79"/>
<path id="Vector_4" d="M10.8125 10.875H5.1875C4.92862 10.875 4.71875 11.0849 4.71875 11.3438C4.71875 11.6026 4.92862 11.8125 5.1875 11.8125H10.8125C11.0714 11.8125 11.2812 11.6026 11.2812 11.3438C11.2812 11.0849 11.0714 10.875 10.8125 10.875Z" fill="#686F79"/>
<path id="Vector_5" d="M8.9375 12.75H5.1875C4.92862 12.75 4.71875 12.9599 4.71875 13.2188C4.71875 13.4776 4.92862 13.6875 5.1875 13.6875H8.9375C9.19637 13.6875 9.40625 13.4776 9.40625 13.2188C9.40625 12.9599 9.19637 12.75 8.9375 12.75Z" fill="#686F79"/>
</g>
</g>
<defs>
<clipPath id="clip0_1764_3943">
<rect width="16" height="16" fill="white" transform="translate(0 0.5)"/>
</clipPath>
</defs>
</svg>
