<svg width="299" height="339" viewBox="0 0 299 339" fill="none" xmlns="http://www.w3.org/2000/svg">
<path d="M3.29549 240.142C10.1207 225.888 22.3052 213.498 37.1592 208.815L43.2078 213.772C40.2381 214.995 37.5362 216.48 35.7747 217.622C14.9236 231.135 2.43711 256.577 4.50537 281.337C21.487 273.996 39.3379 265.966 49.9847 250.837C54.3862 244.582 58.2308 235.706 59.6054 227.209L64.7056 231.389C64.5879 232.301 64.4504 233.218 64.2951 234.139C61.4925 250.766 56.0228 263.687 41.6574 273.804C27.2983 283.916 9.90173 288.478 -6.63934 294.38C-6.42828 275.851 -4.7074 256.855 3.29549 240.142Z" fill="#F5AD04"/>
<path d="M44.0168 214.435L50.5275 219.771L59.6051 227.209C58.2306 235.706 54.386 244.582 49.9843 250.837C39.3375 265.966 21.4867 273.996 4.50504 281.337C2.43677 256.577 14.9232 231.135 35.7743 217.622C37.536 216.48 40.238 214.995 43.2075 213.772L44.0168 214.435Z" fill="#FBE14C"/>
<path d="M204.933 35.1207C204.586 34.7383 204.222 34.3723 203.84 34.0241C203.837 34.0213 203.834 34.0178 203.831 34.0148C203.626 33.8197 203.415 33.6396 203.197 33.461C203.116 33.3949 203.027 33.3412 202.946 33.2769L213.211 20.9877C213.861 21.823 214.68 22.5283 215.634 23.0459L205.249 35.4792C205.217 35.4425 205.185 35.4067 205.153 35.3704C205.08 35.287 205.008 35.2028 204.933 35.1207Z" fill="#1D1226"/>
<path d="M134.481 182.959C134.524 188.113 133.779 193.188 132.392 198.148C130.801 203.849 128.451 209.321 125.694 214.549C114.575 235.626 97.6384 253.002 79.6918 268.738C77.1265 266.63 78.9343 262.207 80.9808 259.39C93.0246 242.828 105.672 225.79 109.968 205.77C110.27 204.356 110.553 202.626 110.851 200.688C118.513 195.33 126.456 188.883 134.435 181.497C134.46 181.998 134.478 182.487 134.481 182.959Z" fill="#EE714B"/>
<path d="M125.694 214.549C128.451 209.321 130.801 203.849 132.392 198.148C133.779 193.187 134.524 188.113 134.481 182.959C134.478 182.486 134.46 181.997 134.435 181.497C136.71 179.391 138.987 177.206 141.263 174.95C143.936 186.783 137.483 206.246 134.238 212.983C128.149 225.636 118.93 236.517 109.151 246.594C102.312 253.638 95.1554 260.374 87.699 266.76C85.5138 268.637 82.3806 270.563 79.9861 268.959C79.8806 268.886 79.7826 268.812 79.6918 268.738C97.6384 253.002 114.575 235.626 125.694 214.549Z" fill="#D85232"/>
<path d="M40.4041 144.657C44.9881 140.926 49.8912 137.547 55.1696 134.867C59.76 132.532 64.5888 130.805 69.6512 129.833C70.3527 129.698 71.0977 129.588 71.864 129.481C66.2023 138.689 61.4404 147.686 57.6714 156.209C55.5201 156.992 53.6095 157.699 52.1031 158.351C33.3163 166.497 19.0963 182.247 5.22469 197.31C2.86491 199.87 -1.11634 202.512 -3.68842 200.412C8.21438 179.722 21.9235 159.701 40.4041 144.657Z" fill="#EE714B"/>
<path d="M69.6513 129.834C64.5888 130.805 59.7603 132.532 55.1697 134.867C49.8912 137.547 44.9882 140.927 40.4042 144.657C21.9235 159.701 8.21433 179.722 -3.68846 200.412C-3.77924 200.338 -3.87052 200.256 -3.96232 200.166C-6.00613 198.134 -4.73359 194.683 -3.32233 192.172C1.47446 183.606 6.67139 175.265 12.2343 167.176C20.1935 155.607 29.0502 144.429 40.2604 135.972C46.3439 131.379 64.7382 120.919 76.8696 121.639C75.1299 124.267 73.462 126.882 71.864 129.481C71.0978 129.589 70.3528 129.698 69.6513 129.834Z" fill="#D85232"/>
<path d="M162.672 85.8361C167.128 89.687 172.169 92.8479 177.566 95.2055C178.056 95.4218 178.562 95.636 179.093 95.8443L179.14 95.8627C181.794 96.955 184.831 98.0124 188.005 98.8487C183.596 105.681 178.439 112.11 173.116 118.245C169.958 121.885 166.714 125.463 163.368 128.942C163.011 128.692 162.599 128.509 162.146 128.414C160.347 128.038 158.583 129.192 158.207 130.991C158.01 131.937 158.243 132.866 158.761 133.596C156.992 135.33 155.196 137.033 153.363 138.696C152.989 138.419 152.556 138.21 152.071 138.109C150.271 137.733 148.508 138.887 148.132 140.687C147.963 141.495 148.116 142.289 148.485 142.961C145.647 145.346 142.725 147.626 139.717 149.792C139.28 149.368 138.727 149.053 138.087 148.919C136.288 148.544 134.525 149.697 134.148 151.497C134.005 152.182 134.086 152.86 134.337 153.46C131.138 155.533 127.846 157.46 124.474 159.237C128.251 150.699 126.602 140.897 119.756 135.287C111.337 128.388 98.2452 130.441 90.5158 139.873C82.7863 149.306 83.3457 162.545 91.7654 169.445C92.3625 169.934 92.9853 170.373 93.6258 170.773C83.8917 173.069 73.8998 174.266 63.898 174.252C59.2751 174.242 55.5181 173.007 51.7227 171.769C53.291 166.818 55.2841 161.608 57.6713 156.21C61.4402 147.686 66.2022 138.69 71.8639 129.482C73.462 126.882 75.1299 124.267 76.8695 121.64C82.3751 113.327 88.5756 104.905 95.4129 96.5615C108.097 81.0817 121.48 67.6817 134.465 57.0171C137.255 54.7206 140.031 52.5504 142.775 50.5121C145.026 62.4372 150.613 73.7321 159.059 82.4281C160.213 83.6145 161.419 84.7539 162.672 85.8361Z" fill="#FEF6F5"/>
<path d="M80.4645 196.518L73.9537 191.183L53.2643 174.229C52.6633 173.737 52.0042 173.36 51.3152 173.091C51.449 172.652 51.5823 172.212 51.7229 171.768C55.5183 173.007 59.2753 174.242 63.8982 174.252C73.8999 174.266 83.8919 173.068 93.626 170.773C102.017 176.011 113.825 173.622 121.006 164.859C122.451 163.096 123.605 161.2 124.474 159.237C127.846 157.46 131.138 155.533 134.338 153.46C134.747 154.436 135.611 155.203 136.726 155.435C138.525 155.811 140.289 154.657 140.665 152.858C140.907 151.699 140.509 150.56 139.717 149.792C142.725 147.626 145.647 145.345 148.485 142.96C148.936 143.783 149.719 144.418 150.709 144.625C152.508 145 154.272 143.847 154.648 142.047C154.923 140.733 154.376 139.445 153.363 138.696C155.196 137.033 156.992 135.329 158.761 133.595C159.23 134.254 159.931 134.751 160.785 134.93C162.584 135.306 164.348 134.152 164.723 132.352C165.005 131.006 164.429 129.681 163.369 128.941C166.714 125.463 169.958 121.885 173.116 118.245C178.439 112.11 183.596 105.681 188.005 98.8483C190.703 99.5588 193.499 100.112 196.259 100.366L196.177 100.533C194.349 104.183 192.35 107.898 190.197 111.66C182.764 124.643 173.447 138.197 162.509 151.544C155.575 160.006 148.433 167.839 141.263 174.95C138.987 177.206 136.71 179.391 134.435 181.497C126.456 188.883 118.513 195.33 110.851 200.688C105.801 204.219 100.875 207.276 96.14 209.823C95.7411 209.201 95.2433 208.629 94.643 208.137L80.4645 196.518Z" fill="#F9DAD4"/>
<path d="M155.362 122.933C147.633 132.365 134.542 134.419 126.122 127.519C117.702 120.619 117.143 107.379 124.873 97.9473C132.602 88.515 145.694 86.4615 154.113 93.3607C162.533 100.261 163.092 113.501 155.362 122.933Z" fill="#1D1226"/>
<path d="M90.5159 139.873C98.2454 130.441 111.337 128.388 119.756 135.287C126.602 140.897 128.251 150.699 124.474 159.237C123.605 161.2 122.45 163.096 121.006 164.859C113.825 173.622 102.017 176.011 93.6258 170.773C92.9854 170.373 92.3624 169.934 91.7655 169.445C83.3457 162.545 82.7865 149.306 90.5159 139.873Z" fill="#1D1226"/>
<path d="M203.831 34.0149C198.935 47.1857 191.384 59.3644 181.812 69.6525C176.107 75.7815 169.68 81.2495 162.672 85.836C161.419 84.7541 160.213 83.6145 159.059 82.4277C150.614 73.7319 145.026 62.4368 142.776 50.5117C143.104 50.2711 143.424 50.0316 143.749 49.7947C167.065 32.7195 188.15 25.3138 200.257 31.5405C201.212 32.028 202.105 32.6145 202.946 33.277C203.028 33.3413 203.117 33.395 203.197 33.4611C203.415 33.6397 203.626 33.8199 203.831 34.0149Z" fill="#60CAC7"/>
<path d="M89.1961 203.674L65.7701 232.261L64.7054 231.389L59.6052 227.209L57.0382 225.106L80.4644 196.518L89.1961 203.674Z" fill="#EE714B"/>
<path d="M67.4432 185.848L44.017 214.435L43.2078 213.772L37.159 208.815L35.2809 207.276L58.7071 178.689L67.4432 185.848Z" fill="#EE714B"/>
<path d="M128.604 124.49C121.731 118.858 121.314 108.002 127.673 100.242C134.031 92.4823 144.758 90.7579 151.631 96.3902C158.504 102.023 158.921 112.878 152.562 120.638C146.204 128.398 135.477 130.122 128.604 124.49Z" fill="#DCB0C9"/>
<path d="M93.3162 142.168C99.6751 134.408 110.401 132.684 117.274 138.316C124.147 143.949 124.565 154.805 118.206 162.564C111.847 170.324 101.121 172.048 94.2479 166.416C87.3747 160.784 86.9576 149.928 93.3162 142.168Z" fill="#DCB0C9"/>
<path d="M142.378 123.4C139.007 124.627 134.248 122.363 137.673 118.953C141.309 115.332 144.193 112.741 145.924 107.638C146.592 105.669 147.113 103.594 148.353 101.925C148.93 101.149 149.878 100.427 150.788 100.755C151.146 100.884 151.431 101.159 151.682 101.446C153.958 104.042 154.227 107.909 153.373 111.254C151.968 116.76 147.717 121.456 142.378 123.4Z" fill="white"/>
<path d="M107.862 165.52C104.491 166.747 99.7319 164.484 103.157 161.073C106.793 157.452 109.676 154.861 111.408 149.758C112.076 147.79 112.597 145.715 113.837 144.046C114.414 143.27 115.362 142.547 116.272 142.875C116.63 143.004 116.915 143.28 117.166 143.566C119.442 146.163 119.711 150.029 118.857 153.375C117.452 158.88 113.201 163.577 107.862 165.52Z" fill="white"/>
<path d="M58.7069 178.689L35.2807 207.276L29.8381 202.816C26.7463 200.283 26.2892 195.676 28.8229 192.585L43.0324 175.245C45.0736 172.754 48.4592 171.976 51.315 173.091C52.0042 173.361 52.6633 173.737 53.2642 174.229L58.7069 178.689Z" fill="#D85232"/>
<path d="M44.0168 214.435L67.443 185.848L80.4644 196.518L80.4644 196.518L57.0382 225.106L44.0169 214.435L44.0168 214.435Z" fill="#D85232"/>
<path d="M89.196 203.674L94.6429 208.137C95.2432 208.629 95.741 209.201 96.1398 209.823C97.7945 212.403 97.6954 215.874 95.6538 218.365L81.4442 235.706C78.9106 238.798 74.3081 239.258 71.2167 236.725L65.7698 232.261L89.196 203.674Z" fill="#D85232"/>
<path d="M179.14 95.8627L179.093 95.8443C178.561 95.6361 178.056 95.4216 177.565 95.2055C172.169 92.8477 167.128 89.6871 162.672 85.8361C169.679 81.2495 176.107 75.7815 181.811 69.6525C191.384 59.3644 198.935 47.1857 203.831 34.015C203.834 34.0179 203.837 34.0213 203.84 34.0243C204.224 34.3702 204.585 34.7388 204.933 35.1209C205.008 35.2028 205.08 35.2871 205.153 35.3706C205.485 35.7502 205.807 36.1404 206.106 36.5535C206.352 36.8902 206.584 37.2398 206.808 37.5973C206.877 37.7079 206.942 37.8229 207.009 37.9353C207.161 38.1894 207.309 38.4468 207.451 38.7109C207.522 38.8445 207.592 38.9803 207.661 39.1164C207.791 39.3748 207.918 39.6375 208.039 39.9049C208.102 40.042 208.165 40.1791 208.224 40.3189C208.351 40.6142 208.471 40.916 208.587 41.2218C208.63 41.3369 208.677 41.4495 208.719 41.566C209.028 42.4224 209.294 43.318 209.519 44.2505C209.55 44.3796 209.577 44.5123 209.607 44.6429C209.684 44.9843 209.757 45.3291 209.824 45.68C209.854 45.8387 209.881 45.9993 209.909 46.16C209.968 46.4996 210.022 46.8436 210.071 47.1918C210.093 47.3523 210.116 47.512 210.137 47.6741C210.185 48.059 210.227 48.4498 210.264 48.8447C210.275 48.971 210.29 49.0949 210.301 49.2222C210.345 49.7551 210.381 50.2952 210.404 50.8455C210.404 50.8527 210.404 50.8603 210.405 50.8675C210.427 51.3996 210.438 51.9412 210.442 52.4891C210.443 52.6493 210.44 52.8125 210.439 52.9741C210.437 53.3757 210.432 53.7804 210.42 54.1899C210.415 54.3852 210.407 54.5819 210.399 54.7791C210.384 55.1712 210.363 55.5673 210.338 55.9665C210.326 56.166 210.314 56.3651 210.3 56.5662C210.268 57.0012 210.23 57.4414 210.188 57.8843C210.172 58.0482 210.16 58.2099 210.143 58.3749C210.08 58.9825 210.01 59.5965 209.928 60.2186C209.916 60.3156 209.9 60.4151 209.886 60.5125C209.816 61.0352 209.739 61.5622 209.655 62.0948C209.619 62.3223 209.579 62.5529 209.541 62.7822C209.472 63.1921 209.401 63.604 209.325 64.0195C209.277 64.281 209.227 64.5438 209.176 64.8075C209.1 65.2011 209.019 65.5975 208.937 65.9958C208.88 66.2696 208.823 66.543 208.763 66.8189C208.673 67.2298 208.578 67.645 208.481 68.0608C208.42 68.3233 208.362 68.5839 208.298 68.8483C208.144 69.4905 207.981 70.1379 207.81 70.791C207.734 71.0803 207.651 71.374 207.572 71.6653C207.465 72.0587 207.359 72.4519 207.247 72.8489C207.146 73.2032 207.04 73.5607 206.935 73.918C206.836 74.2557 206.736 74.594 206.633 74.9343C206.517 75.3161 206.398 75.6998 206.277 76.0848C206.178 76.3985 206.077 76.7139 205.975 77.0298C205.843 77.4392 205.709 77.8489 205.572 78.2616C205.48 78.5347 205.385 78.8104 205.291 79.085C204.728 80.734 204.121 82.4085 203.469 84.1076C203.413 84.2551 203.358 84.4014 203.301 84.5492C203.091 85.091 202.875 85.6365 202.656 86.1831C202.611 86.2967 202.565 86.4102 202.519 86.524C202.5 86.5716 202.482 86.6191 202.462 86.6667C201.597 88.812 200.665 90.9913 199.666 93.2024C199.603 93.3444 199.536 93.4871 199.472 93.6293C199.047 94.5624 198.611 95.5007 198.164 96.4444C198.06 96.6626 197.958 96.8803 197.853 97.0992C197.335 98.1829 196.807 99.2706 196.258 100.367C193.498 100.112 190.702 99.5594 188.005 98.8491C184.831 98.0124 181.794 96.955 179.14 95.8627Z" fill="#4EAEAD"/>
<path d="M213.211 20.9879C211.858 19.2479 211.245 16.9495 211.732 14.6227C212.61 10.4189 216.73 7.72293 220.934 8.60129C225.138 9.47969 227.834 13.5998 226.955 17.8036C226.077 22.0075 221.957 24.7035 217.753 23.8251C216.993 23.6662 216.284 23.3984 215.635 23.0462C214.681 22.5286 213.861 21.8231 213.211 20.9879Z" fill="#FAB50A"/>
<path d="M222.635 16.5318C223.09 14.9988 222.337 13.6528 222.592 12.1711C222.7 11.5437 223.35 11.3686 223.846 11.6688C225.534 12.6909 225.47 15.5621 225.03 17.239C224.547 19.0822 223.266 20.8652 221.486 21.6386C220.544 22.0485 219.4 20.7489 220.202 19.9489C221.244 18.9072 222.198 18.0004 222.635 16.5318Z" fill="#FEFBE5"/>
<path d="M183.207 45.2514C174.163 50.615 167.571 58.2927 162.577 67.4242C161.65 69.1189 160.392 70.7589 158.558 70.1282C158.032 69.9477 157.615 69.5474 157.226 69.1507C154.855 66.7308 152.824 63.9787 151.202 61.0052C150.319 59.3874 149.157 57.7364 148.835 55.8853C148.284 52.7182 151.781 50.834 153.981 49.309C157.113 47.1365 160.344 45.1078 163.662 43.2315C167.92 40.8235 172.19 38.4014 176.702 36.4931C179.504 35.308 182.324 33.7738 185.383 33.208C189.519 32.4423 192.742 34.8676 190.391 39.2792C188.841 42.1895 185.92 43.6419 183.207 45.2514Z" fill="#4EAEAD"/>
<path d="M134.149 151.496C134.525 149.697 136.288 148.544 138.087 148.919C138.728 149.053 139.28 149.368 139.717 149.792C140.509 150.56 140.907 151.699 140.665 152.858C140.289 154.657 138.525 155.811 136.726 155.435C135.611 155.203 134.747 154.436 134.338 153.46C134.086 152.86 134.006 152.181 134.149 151.496Z" fill="#F09885"/>
<path d="M148.132 140.686C148.508 138.886 150.272 137.733 152.071 138.108C152.556 138.21 152.989 138.419 153.363 138.696C154.376 139.445 154.923 140.733 154.648 142.047C154.272 143.847 152.508 145 150.709 144.625C149.719 144.418 148.936 143.783 148.485 142.961C148.116 142.289 147.963 141.495 148.132 140.686Z" fill="#F09885"/>
<path d="M158.207 130.991C158.583 129.192 160.347 128.038 162.146 128.414C162.6 128.509 163.011 128.692 163.369 128.941C164.429 129.682 165.005 131.007 164.723 132.353C164.347 134.152 162.584 135.306 160.785 134.93C159.931 134.751 159.23 134.254 158.761 133.595C158.243 132.866 158.01 131.936 158.207 130.991Z" fill="#F09885"/>
<path d="M120.374 79.6118C116.653 82.976 113.055 86.4735 109.592 90.1032C103.047 96.9652 96.9666 104.268 91.3946 111.942C85.6615 119.837 80.4815 128.135 75.8615 136.728C71.3755 145.072 68.0716 154.098 63.3866 162.301C62.9472 163.071 61.5708 162.868 61.7678 161.843C63.5446 152.603 68.2057 143.578 72.545 135.303C77.0208 126.765 82.1183 118.558 87.7344 110.725C93.51 102.668 99.8535 95.0153 106.699 87.8459C109.783 84.6166 112.965 81.4771 116.243 78.4444C119.492 75.4379 123.362 70.8387 127.622 69.4162C128.55 69.1064 129.908 70.0523 129.288 71.106C127.254 74.5639 123.326 76.9414 120.374 79.6118Z" fill="#F9DAD4"/>
<path d="M138 63.6721C136.672 64.7717 135.3 66.239 133.651 66.8191C133.248 66.9606 132.729 66.5557 132.958 66.1164C133.722 64.6592 135.182 63.6027 136.385 62.5138C137.521 61.4866 138.811 59.9156 140.439 59.8172C140.692 59.8016 140.959 60.0102 140.901 60.2902C140.591 61.7907 139.118 62.746 138 63.6721Z" fill="#D7E5D3"/>
<path d="M105.149 229.124C105.087 229.211 104.959 229.11 105.018 229.021C110.289 221.136 111.826 211.373 115.183 202.717C115.567 201.725 116.848 202.279 116.833 203.185C116.76 207.756 114.947 213.005 113.029 217.124C110.918 221.659 107.984 225.09 105.149 229.124Z" fill="#F09885"/>
<path d="M98.5009 240.617C97.3153 242.073 96.2034 243.947 94.6194 244.985C94.3756 245.144 93.9115 244.977 94.0088 244.625C94.507 242.825 95.8509 241.286 96.8563 239.738C98.0375 237.919 99.1348 236.348 100.791 234.944C101.249 234.555 101.892 235.12 101.679 235.636C100.891 237.542 99.8016 239.019 98.5009 240.617Z" fill="#F09885"/>
<path d="M41.24 157.516C44.9423 155.167 50.2306 151.199 54.6668 151.13C55.3117 151.119 55.5945 151.814 55.1278 152.259C53.3831 153.922 51.0016 154.493 48.8568 155.554C46.2593 156.84 43.7424 158.299 41.3128 159.878C37.2645 162.508 33.7323 166.15 29.5265 168.454C29.1063 168.683 28.8172 168.107 29.0201 167.788C31.7694 163.459 36.9935 160.21 41.24 157.516Z" fill="#F09885"/>
<path d="M25.678 171.159C25.9009 171.02 26.2291 171.284 26.0262 171.512C24.3085 173.434 22.3254 175.102 20.4753 176.897C18.7008 178.618 17.0319 180.938 14.8753 182.172C14.6204 182.318 14.3239 181.976 14.4427 181.733C15.4158 179.735 17.5187 178.118 19.1206 176.595C21.164 174.653 23.2835 172.656 25.678 171.159Z" fill="#F09885"/>
<path d="M47.7925 195.903C50.2261 192.976 52.6765 188.755 55.9578 186.8C56.4728 186.492 57.1289 186.919 56.8968 187.531C55.5391 191.118 51.8389 194.22 49.3682 197.133C46.8464 200.105 44.3916 203.973 41.122 206.131C40.7341 206.386 40.1848 206.022 40.3864 205.557C41.9464 201.956 45.2975 198.904 47.7925 195.903Z" fill="#F09885"/>
<path d="M69.2611 214.33C72.0483 210.999 74.9136 207.732 77.8004 204.486C78.8785 203.275 80.8802 204.826 79.7938 206.041C76.8978 209.281 74.0522 212.562 71.2282 215.865C68.7522 218.761 66.3838 222.451 63.1477 224.517C62.7006 224.802 62.1439 224.401 62.3355 223.883C63.6675 220.282 66.8262 217.241 69.2611 214.33Z" fill="#F09885"/>
</svg>
