<svg width="441" height="465" viewBox="0 0 441 465" fill="none" xmlns="http://www.w3.org/2000/svg">
<g opacity="0.4">
<path d="M158.329 279.94L118.215 363.812L133.734 374.388L204.328 306.926" stroke="#171714" stroke-width="2" stroke-miterlimit="10"/>
<path d="M159.564 369.092L226.355 312.122L142.852 259.578L135.749 270.001L105.894 363.045" stroke="#171714" stroke-width="2" stroke-miterlimit="10"/>
<path d="M141.433 403.167L89.3164 367.65L105.615 327.017L173.291 373.138L141.433 403.167Z" fill="#F64E33"/>
<path d="M324.197 78.4586C209.124 0.0360147 145.945 72.3488 124.756 135.309C111.108 175.857 117.725 237.852 127.904 279.692L208.5 332.705C250.725 326.575 310.878 311.998 344.285 284.916C396.027 242.969 441.903 158.676 324.197 78.4586Z" fill="#57B4F7"/>
<path d="M324.36 78.5691C258.535 33.7095 199.418 108.79 171.881 167.425C154.147 205.188 144.918 254.426 143.789 288.563L195.625 323.89C226.73 310.181 268.418 283.064 297.456 253.004C342.434 206.445 391.693 124.457 324.36 78.5691Z" fill="#F64E33"/>
<path d="M324.495 78.6631C298.807 61.1569 242.999 138.493 210.289 193.602C189.223 229.094 169.865 271.429 159.518 299.285L179.747 313.07C201.791 293.187 233.817 259.485 259.293 226.998C298.757 176.68 350.77 96.5698 324.495 78.6631Z" fill="#FFCB0F"/>
<path d="M213.079 333.857C184.229 315.36 155.796 296.223 127.795 276.463C124.595 274.205 121.755 279.613 124.932 281.857C152.932 301.618 181.366 320.753 210.216 339.25C213.522 341.37 216.375 335.97 213.079 333.857Z" fill="#1D6FAB"/>
<path d="M162.108 374.912C145.088 363.372 127.829 352.194 110.336 341.388C106.992 339.323 104.134 344.72 107.473 346.781C124.965 357.59 142.228 368.767 159.245 380.305C162.492 382.507 165.337 377.102 162.108 374.912Z" fill="#1D6FAB"/>
<path d="M151.244 383.816C144.936 377.958 137.89 373.271 130.313 369.223C122.411 365.001 115.105 360.159 107.879 354.868C104.749 352.576 100.549 357.021 103.724 359.344C110.8 364.524 117.91 369.518 125.652 373.66C133.407 377.807 140.615 382.283 147.089 388.292C149.965 390.961 154.133 386.498 151.244 383.816Z" fill="#1D6FAB"/>
<path d="M321.712 243.467C311.619 256.06 300.897 268.129 289.575 279.63C286.821 282.43 291.291 286.588 294.051 283.785C305.37 272.282 316.095 260.215 326.188 247.622C328.627 244.574 324.176 240.388 321.712 243.467Z" fill="black"/>
<path d="M322.951 272.327C311.416 282.52 298.509 291.068 284.696 297.85C281.172 299.578 284.405 304.759 287.907 303.041C302.235 296.008 315.472 287.046 327.428 276.479C330.366 273.882 325.879 269.738 322.951 272.327Z" fill="black"/>
<path d="M293.072 211.284C291.87 210.262 289.848 210.128 288.757 211.447L277.952 224.493C276.935 225.721 276.806 227.698 278.115 228.808C279.317 229.83 281.339 229.964 282.43 228.645L293.235 215.599C294.25 214.374 294.381 212.394 293.072 211.284Z" fill="black"/>
<path d="M187.369 271.698C198.537 237.439 221.267 208.829 243.466 181.068C245.901 178.021 241.452 173.833 238.991 176.913C216.09 205.551 192.94 234.966 181.428 270.294C180.208 274.036 186.159 275.414 187.369 271.698Z" fill="black"/>
<path d="M191.349 185.396C192.017 183.89 191.615 182.079 190.084 181.268C188.706 180.536 186.627 181.018 185.956 182.533C181.616 192.332 177.275 202.133 172.936 211.932C172.268 213.438 172.67 215.249 174.201 216.06C175.579 216.792 177.658 216.31 178.329 214.794C182.673 204.995 187.01 195.195 191.349 185.396Z" fill="black"/>
<path d="M132.838 234.147C129.197 192.921 142.081 151.032 168.501 119.133C170.996 116.123 166.541 111.942 164.025 114.978C136.63 148.053 122.953 191.485 126.736 234.297C127.076 238.2 133.182 238.065 132.838 234.147Z" fill="black"/>
<path d="M149.579 194.916C150.595 190.931 151.608 186.945 152.626 182.958C153.022 181.407 151.956 179.594 150.356 179.286C148.708 178.972 147.105 179.904 146.684 181.557C145.668 185.542 144.654 189.528 143.637 193.515C143.241 195.066 144.305 196.881 145.907 197.186C147.558 197.502 149.158 196.568 149.579 194.916Z" fill="black"/>
</g>
</svg>
