<svg width="338" height="231" viewBox="0 0 338 231" fill="none" xmlns="http://www.w3.org/2000/svg">
<path d="M196.674 177.04C196.674 177.04 230.463 201.9 249.695 162.921C213.625 138.669 196.674 177.04 196.674 177.04Z" fill="#FFF8F4"/>
<path d="M213.401 159.166C213.401 159.166 217.362 161.515 221.354 163.856C223.351 165.026 225.355 166.194 226.877 167.066C227.638 167.502 228.279 167.864 228.74 168.116C228.792 168.144 228.833 168.166 228.88 168.191L212.467 172.562L203.773 167.524L203.508 167.982L211.745 172.754L197.885 176.445L198.021 176.956L219.631 171.201L212.563 183.401L213.02 183.666L220.353 171.009L234.513 167.239L229.504 180.385L229.984 180.568L235.125 167.075L244.518 164.574L244.382 164.063L229.642 167.988C229.591 167.966 229.504 167.924 229.376 167.857C228.173 167.227 224.238 164.936 220.616 162.808C218.804 161.745 217.068 160.72 215.785 159.962C215.143 159.583 214.615 159.27 214.247 159.052C213.879 158.834 213.671 158.711 213.671 158.711L213.401 159.166Z" fill="white"/>
<path d="M134.455 174.878C134.455 174.878 100.666 199.738 81.4336 160.759C117.503 136.507 134.455 174.878 134.455 174.878Z" fill="#FFF8F4"/>
<path d="M117.726 157.004C117.726 157.004 113.766 159.353 109.774 161.693C107.777 162.864 105.773 164.032 104.251 164.903C103.49 165.34 102.849 165.701 102.389 165.953C102.336 165.981 102.295 166.003 102.248 166.028L118.661 170.399L127.355 165.361L127.62 165.819L119.383 170.591L133.244 174.282L133.107 174.793L111.497 169.038L118.566 181.238L118.108 181.502L110.775 168.846L96.6155 165.075L101.624 178.222L101.143 178.405L96.0025 164.912L86.6094 162.411L86.7458 161.9L101.486 165.825C101.536 165.803 101.624 165.761 101.751 165.694C102.955 165.064 106.889 162.773 110.512 160.645C112.324 159.581 114.06 158.557 115.343 157.799C115.985 157.42 116.513 157.107 116.881 156.889C117.249 156.671 117.456 156.548 117.456 156.548L117.726 157.004Z" fill="white"/>
<path d="M63.9873 33.1045C63.9873 33.1045 8.2738 50.2996 35.9201 104.016C92.8412 83.7709 63.9873 33.1045 63.9873 33.1045Z" fill="#FFF8F4"/>
<path d="M70.1255 66.5718C70.1255 66.5718 64.2271 69.0539 58.3112 71.58C55.3532 72.8427 52.3908 74.1164 50.158 75.096C49.0412 75.5858 48.1078 76.0023 47.4456 76.3089C47.3709 76.3433 47.3129 76.3712 47.2455 76.4027L55.9325 54.4517L68.7492 48.9038L68.4574 48.2292L56.3152 53.4852L63.6523 34.9476L62.9689 34.677L51.5299 63.5786L43.7449 45.5939L43.0703 45.8857L51.1472 64.5451L43.6517 83.4824L33.1059 67.0162L32.5039 67.4019L43.3276 84.3014L38.3554 96.8637L39.0388 97.1343L46.8414 77.4205C46.9082 77.3824 47.0269 77.3193 47.2073 77.2328C48.9063 76.4093 54.7196 73.9074 60.0915 71.6196C62.7789 70.475 65.3586 69.3824 67.2665 68.5758C68.2205 68.1725 69.0066 67.8411 69.5543 67.6101C70.1021 67.3791 70.4108 67.2494 70.4108 67.2494L70.1255 66.5718Z" fill="white"/>
<path d="M1.58671 74.5674C1.58671 74.5674 -10.6229 123.659 41.6728 127.211C52.1578 75.8543 1.58671 74.5674 1.58671 74.5674Z" fill="#F6E2D7"/>
<path d="M29.1967 85.0141C29.1967 85.0141 28.3959 90.5085 27.6187 96.0351C27.23 98.7988 26.848 101.57 26.5745 103.668C26.4381 104.717 26.3281 105.597 26.2585 106.226C26.2504 106.297 26.2453 106.353 26.2387 106.417L13.8296 90.1213L15.456 78.1134L14.8239 78.0276L13.2833 89.4034L2.80425 75.6415L2.29683 76.028L18.6347 97.484L1.78501 95.2021L1.69922 95.8342L19.1803 98.2019L29.8852 112.261L12.9255 112.711L12.9416 113.331L30.3479 112.869L37.4496 122.196L37.957 121.809L26.8143 107.173C26.8157 107.107 26.8223 106.99 26.8392 106.818C26.9895 105.186 27.7375 99.7469 28.4473 94.7314C28.8022 92.2221 29.1475 89.8156 29.4034 88.0374C29.5318 87.1479 29.6381 86.4154 29.7121 85.905C29.7862 85.3947 29.828 85.1073 29.828 85.1073L29.1967 85.0141Z" fill="white"/>
<path d="M20.6246 99.0371C20.6246 99.0371 -13.9452 157.575 52.0421 182.224C85.2604 120.107 20.6246 99.0371 20.6246 99.0371Z" fill="#FBD15B"/>
<path d="M52.1737 123.091C52.1737 123.091 49.0331 129.86 45.9108 136.68C44.3497 140.089 42.7937 143.511 41.6359 146.109C41.0574 147.407 40.5785 148.499 40.2471 149.282C40.2097 149.371 40.1811 149.441 40.1481 149.52L30.4228 123.77L37.1263 108.929L36.3454 108.576L29.9939 122.636L21.7806 100.89L20.9791 101.192L33.7841 135.097L12.9601 125.691L12.6074 126.472L34.2123 136.232L42.6024 158.446L20.5875 152.516L20.3705 153.321L42.9646 159.408L48.5301 174.145L49.3315 173.842L40.5976 150.716C40.6255 150.631 40.679 150.483 40.7655 150.267C41.5853 148.224 44.6372 141.505 47.4756 135.318C48.896 132.223 50.2642 129.256 51.2769 127.063C51.7836 125.967 52.2015 125.065 52.4926 124.436C52.7837 123.808 52.948 123.453 52.948 123.453L52.1737 123.091Z" fill="white"/>
<path d="M337.834 113.984C337.834 113.984 296.101 109.735 299.335 153.079C342.724 155.647 337.834 113.984 337.834 113.984Z" fill="#FFF8F4"/>
<path d="M332.503 137.878C332.503 137.878 327.899 137.867 323.271 137.879C320.957 137.885 318.638 137.897 316.883 137.919C316.006 137.93 315.271 137.944 314.745 137.961C314.686 137.963 314.64 137.965 314.586 137.967L326.503 125.865L336.551 125.788L336.547 125.259L327.028 125.332L337.092 115.112L336.715 114.741L321.024 130.675L320.915 116.576L320.387 116.58L320.499 131.207L310.218 141.648L307.854 127.779L307.348 127.866L309.773 142.099L302.953 149.025L303.33 149.396L314.033 138.528C314.088 138.521 314.185 138.513 314.328 138.506C315.684 138.437 320.238 138.412 324.438 138.404C326.539 138.401 328.555 138.401 330.045 138.402C330.79 138.403 331.404 138.404 331.831 138.404C332.259 138.405 332.5 138.406 332.5 138.406L332.503 137.878Z" fill="white"/>
<path d="M312.775 58.1934C312.775 58.1934 252.722 90.0581 296.122 145.542C356.891 109.919 312.775 58.1934 312.775 58.1934Z" fill="#F6E2D7"/>
<path d="M327.12 95.1833C327.12 95.1833 320.906 99.3152 314.682 103.5C311.571 105.593 308.456 107.698 306.113 109.308C304.941 110.113 303.962 110.794 303.271 111.289C303.192 111.345 303.132 111.39 303.062 111.441L308.217 84.4021L321.684 75.2473L321.202 74.5389L308.443 83.2112L312.797 60.3774L311.955 60.2168L305.167 95.8175L292.322 76.9198L291.613 77.4016L304.94 97.0076L300.492 120.334L284.816 103.779L284.211 104.353L300.299 121.344L297.35 136.818L298.191 136.979L302.821 112.696C302.889 112.638 303.012 112.54 303.2 112.401C304.965 111.087 311.077 106.951 316.73 103.158C319.557 101.259 322.273 99.4443 324.282 98.1039C325.287 97.4336 326.115 96.8822 326.691 96.498C327.268 96.1138 327.593 95.8975 327.593 95.8975L327.12 95.1833Z" fill="white"/>
<path d="M234.263 25.292C234.263 25.292 217.851 63.8969 260.21 73.6376C275.505 32.9531 234.263 25.292 234.263 25.292Z" fill="#FFF8F4"/>
<path d="M255.507 37.4549C255.507 37.4549 254.134 41.8494 252.775 46.2732C252.096 48.4854 251.421 50.7043 250.923 52.3871C250.674 53.2282 250.469 53.9351 250.331 54.441C250.315 54.4982 250.304 54.5429 250.29 54.595L242.257 39.6298L245.157 30.0094L244.651 29.8568L241.903 38.9699L235.121 26.332L234.655 26.5821L245.23 46.2864L231.731 42.2168L231.578 42.7227L245.583 46.9448L252.513 59.8554L238.566 58.0083L238.499 58.518L252.812 60.4142L257.409 68.9787L257.874 68.7287L250.661 55.2887C250.672 55.2344 250.692 55.1398 250.728 55.0005C251.064 53.6843 252.387 49.328 253.624 45.3133C254.242 43.3049 254.839 41.3794 255.282 39.9568C255.503 39.2456 255.686 38.659 255.813 38.2513C255.94 37.8428 256.012 37.6126 256.012 37.6126L255.507 37.4549Z" fill="white"/>
<path d="M154.265 76.9857H160.684C160.939 73.8276 163.574 71.3147 166.794 71.3147H176.416C176.219 70.6056 176.106 69.8635 176.106 69.0944C176.106 64.485 179.877 60.7139 184.486 60.7139H199.243C203.852 60.7139 207.624 64.485 207.624 69.0944C207.624 69.8635 207.51 70.6056 207.314 71.3147H208.626C211.847 71.3147 214.481 73.8283 214.736 76.9857H216.666C221.042 76.9857 224.623 80.5663 224.623 84.9424C224.623 89.3185 221.042 92.8991 216.666 92.8991H154.263C149.887 92.8991 146.307 89.3185 146.307 84.9424C146.308 80.5663 149.889 76.9857 154.265 76.9857Z" fill="#FFF8F4"/>
<path d="M277.686 185.187V189.782L258.539 200.412V195.817L277.686 185.187Z" fill="#112B46"/>
<path d="M258.54 195.816V200.412L233.549 192.079V187.483L258.54 195.816Z" fill="#6262A0"/>
<path d="M277.687 185.186L258.54 195.816L233.549 187.483L247.373 180.017V182.314L262.369 186.718L267.638 184.42V181.831L277.687 185.186Z" fill="#56548C"/>
<path d="M267.636 181.831V184.42L262.367 186.718V170.703L267.636 170.994V181.831Z" fill="#112B46"/>
<path d="M262.371 170.703V186.718L247.375 182.314V180.017V169.868L262.371 170.703Z" fill="#6262A0"/>
<path d="M296.642 171.975L288.473 175.23V39.4824L296.642 41.0736V171.975Z" fill="#112B46"/>
<path d="M206.277 167.579V70.9331L288.471 39.4863V175.231L206.277 167.579Z" fill="#56548C"/>
<path d="M285.16 44.8408V166.805L209.594 162.595V73.7505L246.497 59.6293L285.16 44.8408Z" fill="#FBD15B"/>
<path d="M143.4 61.4057C143.319 60.0469 142.929 58.7425 142.28 57.5795L143.389 56.9606C142.833 55.9626 142.11 55.0571 141.246 54.2886L140.401 55.2397C139.424 54.3722 138.248 53.7005 136.908 53.3185L137.254 52.102L137.238 52.0976C136.309 51.8344 135.37 51.709 134.447 51.709C134.246 51.709 134.046 51.7149 133.847 51.7266L133.922 52.9951C132.563 53.0758 131.259 53.4644 130.095 54.1119L129.478 53.0017C128.479 53.5575 127.573 54.2791 126.804 55.1429L127.755 55.9883C126.886 56.9643 126.214 58.1404 125.83 59.4801L124.614 59.1326L124.607 59.156C124.344 60.0851 124.218 61.0236 124.219 61.9468C124.219 62.1448 124.225 62.3421 124.236 62.5386L125.504 62.4645C125.583 63.8233 125.971 65.1285 126.618 66.2929L125.507 66.9096C126.062 67.9083 126.783 68.8153 127.646 69.5845L128.493 68.6349C129.468 69.5039 130.644 70.177 131.983 70.5612L131.635 71.7777L131.667 71.7865C132.596 72.0498 133.535 72.1751 134.458 72.1751C134.664 72.1751 134.87 72.1693 135.075 72.1561L134.998 70.8883C136.356 70.8061 137.66 70.4138 138.823 69.7649L139.443 70.8743C140.441 70.317 141.346 69.594 142.113 68.7288L141.162 67.8848C142.028 66.9081 142.699 65.7305 143.081 64.3901L144.297 64.7354L144.299 64.7274C144.562 63.7983 144.689 62.8597 144.688 61.9366C144.688 61.7327 144.682 61.5303 144.67 61.328L143.4 61.4057ZM139.67 63.4192C138.996 65.8075 136.818 67.3664 134.456 67.3664C133.968 67.3664 133.471 67.3004 132.976 67.1596C130.588 66.4857 129.029 64.3079 129.029 61.9454C129.029 61.457 129.096 60.9613 129.236 60.4656C129.91 58.0774 132.087 56.5185 134.45 56.5185C134.938 56.5185 135.435 56.5852 135.93 56.7252C138.318 57.3991 139.877 59.5762 139.877 61.9395C139.876 62.4278 139.81 62.9243 139.67 63.4192Z" fill="#F6E2D7"/>
<path d="M149.523 108.314C149.393 106.134 148.766 104.04 147.725 102.173L149.507 101.18C148.613 99.5779 147.454 98.1246 146.066 96.8912L144.71 98.4172C143.143 97.0247 141.253 95.9468 139.102 95.333L139.658 93.3804L139.632 93.373C138.141 92.9514 136.635 92.749 135.153 92.749C134.83 92.749 134.509 92.7585 134.19 92.7776L134.31 94.8139C132.13 94.9429 130.035 95.5677 128.168 96.6067L127.176 94.8249C125.574 95.7165 124.119 96.8751 122.885 98.2617L124.41 99.619C123.016 101.185 121.937 103.073 121.322 105.223L119.369 104.666L119.358 104.704C118.936 106.196 118.734 107.702 118.734 109.183C118.734 109.501 118.744 109.818 118.762 110.133L120.799 110.014C120.925 112.195 121.549 114.29 122.586 116.159L120.804 117.148C121.694 118.752 122.852 120.207 124.237 121.442L125.596 119.919C127.16 121.314 129.048 122.393 131.198 123.011L130.638 124.964L130.69 124.978C132.181 125.401 133.687 125.602 135.169 125.602C135.5 125.602 135.83 125.593 136.159 125.572L136.035 123.537C138.215 123.405 140.308 122.775 142.175 121.733L143.169 123.513C144.77 122.619 146.223 121.458 147.455 120.069L145.928 118.714C147.319 117.145 148.396 115.256 149.007 113.104L150.96 113.659L150.964 113.646C151.386 112.155 151.588 110.649 151.588 109.167C151.588 108.84 151.578 108.514 151.558 108.19L149.523 108.314ZM143.536 111.546C142.453 115.378 138.959 117.881 135.167 117.882C134.383 117.882 133.587 117.775 132.792 117.55C128.958 116.468 126.456 112.974 126.456 109.181C126.456 108.398 126.563 107.601 126.787 106.807C127.869 102.974 131.363 100.472 135.156 100.471C135.94 100.471 136.736 100.577 137.531 100.802C141.364 101.885 143.866 105.379 143.867 109.171C143.867 109.955 143.761 110.751 143.536 111.546Z" fill="#FBD15B"/>
<path d="M101.413 189.302V193.344L88.7266 202.913V199.157L101.413 189.302Z" fill="#BCBEC0"/>
<path d="M88.7263 199.157V202.913C88.7263 202.913 76.3041 201.857 73.0359 199.395C70.3536 197.361 70.0808 192.009 70.0566 190.993L73.7376 188.944C73.7376 188.944 72.4999 194.717 75.1074 196.679C77.9554 198.831 88.7263 199.157 88.7263 199.157Z" fill="#808285"/>
<path d="M70.0579 190.993L56.3979 198.585C55.944 198.839 55.4652 199.006 54.9863 199.085V187.102L111.525 156.282H113.712V166.724L91.2038 179.24L73.7388 188.944L70.0579 190.993Z" fill="#BCBEC0"/>
<path d="M113.712 66.8738V156.282H111.525V68.1357L54.9863 54.8343V50.959L111.877 64.6139C112.955 64.8727 113.712 65.8047 113.712 66.8738Z" fill="#BCBEC0"/>
<path d="M111.527 68.1379V156.28L54.9844 187.101V54.832L111.527 68.1379Z" fill="#F6E2D7"/>
<path d="M101.412 189.301L88.7259 199.156C88.7259 199.156 77.9549 198.831 75.1069 196.679C72.4987 194.717 73.7372 188.944 73.7372 188.944L91.2021 179.24L91.0371 182.282C91.252 185.466 92.9605 185.871 95.1148 186.808L101.412 189.301Z" fill="#D1D3D4"/>
<path d="M54.9841 199.086V199.157H54.1914C54.4561 199.157 54.7201 199.133 54.9841 199.086Z" fill="#808285"/>
<path d="M54.985 187.102V199.085C54.721 199.132 54.4571 199.156 54.1924 199.156C51.8811 199.156 49.7598 197.377 49.7598 194.891V54.2216C49.7598 52.2286 51.4514 50.6953 53.4166 50.6953C53.7055 50.6953 54.0105 50.7268 54.3082 50.7987L54.985 50.9578V54.8331V187.102Z" fill="#BCBEC0"/>
<path d="M54.1927 199.156H51.9313C45.2952 199.156 39.9219 193.987 39.9219 187.61V59.8841C39.9219 54.8099 44.1975 50.6963 49.4719 50.6963H53.4176C51.4532 50.6963 49.7608 52.2288 49.7608 54.2226V194.892C49.7608 197.377 51.8822 199.156 54.1927 199.156Z" fill="#808285"/>
<path d="M217.463 153.868C217.571 157.603 216.762 158.895 216.762 158.895C216.762 158.895 214.679 158.019 213.986 156.694L217.463 153.868Z" fill="#D4D6D8"/>
<path d="M225.057 159.369C222.256 160.519 219.964 156.693 219.964 156.693L219.855 156.543L226.516 151.475C226.457 153.842 226.283 156.318 225.982 158.894C225.641 159.102 225.34 159.252 225.057 159.369Z" fill="#112B46"/>
<path d="M176.942 114.563C186.128 115.847 188.178 114.697 191.497 111.637C191.497 111.637 202.025 107.861 211.211 130.46C216.079 142.406 217.346 149.675 217.463 153.868L213.986 156.694L203.15 165.496C202.766 163.654 201.674 161.628 200.432 159.586C197.998 155.585 192.771 146.349 176.941 136.904C161.111 127.46 163.028 136.145 152.433 139.072C141.838 142.006 138.262 134.612 139.163 132.311C139.888 130.435 152.2 121.907 158.285 117.882C159.644 116.973 160.703 116.298 161.236 115.973C164.171 114.18 167.748 113.288 176.942 114.563Z" fill="#D1AE88"/>
<path d="M285.159 44.8408V110.316C260.476 131.89 226.066 158.135 225.982 158.894C226.282 156.318 226.457 153.843 226.516 151.475C227.016 129.543 217.305 116.689 209.594 109.979C206.326 107.128 203.408 105.386 201.783 104.519C201.783 104.519 200.207 105.428 198.199 106.72C197.965 106.17 197.649 105.153 198.099 104.285C198.507 103.501 202.967 99.2337 209.594 93.1234C219.239 84.212 233.494 71.3747 246.498 59.6293L285.159 44.8408Z" fill="#112B46"/>
<path d="M201.782 104.519C207.242 107.419 227.224 120.24 226.515 151.475L219.855 156.544L216.762 158.895C216.762 158.895 217.571 157.603 217.462 153.868C217.346 149.675 216.079 142.406 211.211 130.461C202.024 107.861 191.496 111.638 191.496 111.638C193.23 110.029 195.99 108.145 198.198 106.72C200.207 105.427 201.782 104.519 201.782 104.519Z" fill="#E6E7E8"/>
<path d="M105.585 161.287C105.585 161.287 107.139 160.413 108.788 158.634L105.853 155.013L104.395 157.027L105.585 161.287Z" fill="#B7BABC"/>
<path d="M201.784 170.156C200.626 171.206 199.309 171.465 197.908 171.156C197.591 171.089 197.266 170.99 196.933 170.864C196.983 170.964 197.25 171.565 197.458 172.423L197.466 172.431C197.874 174.082 198.075 176.725 196.09 178.708C194.14 180.659 192.423 181.434 189.613 180.359C189.405 180.284 189.197 180.192 188.972 180.092C189.071 180.233 189.805 181.267 190.006 182.701C190.189 183.943 189.964 185.493 188.563 187.002C186.638 189.069 184.695 189.153 183.245 188.736C182.903 188.636 182.586 188.511 182.303 188.378C182.336 188.444 182.536 188.811 182.686 189.345C182.944 190.287 183.078 191.745 181.978 193.071C180.194 195.239 176.885 194.596 173.492 193.071C172.316 192.529 170.183 191.612 167.89 190.637C163.606 188.82 158.813 186.811 158.813 186.811C158.813 186.811 160.097 184.452 156.737 180.142C154.836 177.699 152.727 177.441 151.002 178.449C150.994 178.316 152.386 171.305 148.034 168.471C145.483 166.803 143.441 168.054 141.849 170.313C141.849 170.313 141.524 164.819 137.79 163.869C135.031 163.161 133.48 164.786 131.738 167.703C131.755 167.678 130.412 161.193 126.87 161.284C124.236 161.351 121.968 163.702 120.626 166.761L107.764 157.925L105.589 156.433L105.455 156.425C105.88 148.481 109.223 131.567 127.662 111.652C132.172 114.12 136.089 116.012 137.791 116.479C141.625 117.538 142.704 116.612 148.831 116.136C154.959 115.653 159.313 117.2 159.313 117.2C153.228 121.227 139.891 130.433 139.166 132.309C138.266 134.609 141.842 142.003 152.437 139.069C163.032 136.143 161.115 127.457 176.945 136.902C192.774 146.346 198.001 155.582 200.436 159.584C201.678 161.626 202.77 163.652 203.153 165.494C203.518 167.255 203.226 168.856 201.784 170.156Z" fill="#E8C8A1"/>
<path d="M167.888 190.638C167.888 190.638 160.002 195.456 153.967 193.072C153.25 192.788 152.608 192.489 152.024 192.156C151.991 192.148 151.958 192.122 151.925 192.097L151.191 191.664C147.565 189.28 146.923 186.004 148.032 182.536C148.607 180.727 149.682 179.235 150.982 178.46C150.991 178.46 150.991 178.452 150.999 178.452C151.15 178.36 151.299 178.285 151.458 178.227C153.091 177.501 155 177.91 156.734 180.144C160.093 184.453 158.81 186.813 158.81 186.813C158.81 186.813 163.603 188.821 167.888 190.638Z" fill="#D1AE88"/>
<path d="M151.191 191.663L150.874 191.705L145.848 192.314C144.589 192.464 143.33 192.197 142.255 191.563C142.005 191.422 141.763 191.247 141.529 191.063C139.97 189.788 138.003 187.995 137.495 186.653C136.636 184.352 137.303 180.818 139.02 176.125C139.745 174.15 140.679 171.965 141.846 170.315C142.071 169.998 142.296 169.706 142.538 169.431C144.022 167.764 145.84 167.039 148.032 168.473C151.908 170.999 151.225 176.842 151.041 178.167C151.016 178.334 151 178.434 151 178.451C150.991 178.451 150.991 178.459 150.983 178.459C149.683 179.234 148.607 180.726 148.032 182.535C146.923 186.002 147.565 189.279 151.191 191.663Z" fill="#D1AE88"/>
<path d="M141.531 191.063C141.531 191.063 141.431 191.071 141.248 191.096C140.281 191.188 137.03 191.488 134.179 191.405C130.786 191.313 128.502 189.563 126.485 186.186C126.21 185.719 126.002 185.236 125.859 184.728C125.751 184.394 125.684 184.053 125.634 183.694C125.117 179.91 127.485 175.366 129.744 171.282C130.478 169.956 131.12 168.748 131.737 167.706C131.945 167.355 132.153 167.031 132.353 166.722C133.862 164.43 135.354 163.245 137.788 163.871C140.981 164.68 141.681 168.814 141.815 169.998C141.839 170.198 141.848 170.315 141.848 170.315C140.681 171.965 139.747 174.149 139.022 176.125C137.305 180.818 136.638 184.352 137.497 186.653C138.005 187.995 139.973 189.787 141.531 191.063Z" fill="#D1AE88"/>
<path d="M129.743 171.281C127.484 175.366 125.117 179.909 125.633 183.693C125.558 183.676 125.492 183.66 125.416 183.643V183.635C124.149 183.319 123.032 182.876 122.09 182.435C120.164 181.527 118.955 179.584 118.981 177.458C118.998 175.333 119.131 172.499 119.589 170.089C119.815 168.947 120.164 167.814 120.623 166.763C121.965 163.704 124.233 161.353 126.867 161.286C129.926 161.203 131.344 166.038 131.66 167.347C131.71 167.563 131.735 167.688 131.735 167.705C131.118 168.747 130.476 169.956 129.743 171.281Z" fill="#D1AE88"/>
<path d="M105.453 156.427C105.302 159.545 105.586 161.287 105.586 161.287L88.2305 155.027C89.2475 124.908 111.08 101.293 111.08 101.293C116.922 104.453 123.204 108.308 128.864 111.401C110.424 131.316 105.878 148.483 105.453 156.427Z" fill="#DBDCDD"/>
<path d="M111.076 101.29C111.076 101.297 111.061 101.304 111.046 101.319C111.024 101.341 110.988 101.385 110.936 101.444C110.804 101.598 110.57 101.854 110.262 102.221C110.196 102.294 110.137 102.368 110.071 102.448C109.829 102.727 109.558 103.057 109.243 103.438C109.059 103.673 108.854 103.922 108.641 104.186C108.194 104.751 107.695 105.396 107.153 106.107C107.021 106.283 106.881 106.467 106.742 106.657C106.185 107.405 105.591 108.234 104.968 109.121C104.689 109.517 104.41 109.928 104.117 110.353C103.919 110.646 103.721 110.94 103.523 111.24C103.362 111.49 103.193 111.746 103.024 111.995C102.695 112.509 102.357 113.037 102.013 113.579C101.844 113.851 101.675 114.129 101.499 114.408C100.986 115.251 100.465 116.124 99.9448 117.026C99.7688 117.326 99.6001 117.634 99.4241 117.942C99.0795 118.558 98.7275 119.189 98.3829 119.841C98.0603 120.435 97.7376 121.044 97.4223 121.667C97.4003 121.719 97.3783 121.77 97.349 121.814C97.1803 122.151 97.0117 122.496 96.843 122.833C95.6625 125.238 94.5186 127.797 93.4774 130.488C93.1914 131.222 92.9127 131.97 92.6414 132.725C92.3628 133.524 92.0842 134.331 91.8275 135.145C91.6955 135.541 91.5709 135.944 91.4462 136.347C90.1777 140.483 89.1951 144.882 88.6525 149.458C88.5572 150.287 88.4692 151.122 88.4032 151.966C88.3225 152.978 88.2638 153.997 88.2272 155.023C88.1539 157.15 84.2602 157.575 82.7937 157.634C78.7241 157.81 68.451 151.878 59.6592 146.32C58.0387 145.286 56.4621 144.266 54.9883 143.306V60.7109C59.6079 63.6367 67.1971 68.7549 75.2411 74.2397C89.899 84.2634 106.031 95.519 108.231 96.9562C109.089 97.5282 112.359 99.9039 111.076 101.29Z" fill="#E6E7E8"/>
<path d="M75.2411 74.2397C71.0175 74.8116 66.2586 76.6374 63.1495 81.411C57.0268 90.8335 54.1304 126.668 59.6592 146.32C58.0387 145.286 56.4621 144.266 54.9883 143.306V60.7109C59.6079 63.6367 67.1971 68.7549 75.2411 74.2397Z" fill="#DBDCDD"/>
<path d="M147.459 15.5344H143.265C143.098 13.471 141.377 11.8285 139.272 11.8285H132.985C133.113 11.3651 133.187 10.8804 133.187 10.3774C133.187 7.36514 130.723 4.90137 127.711 4.90137H118.069C115.056 4.90137 112.593 7.36587 112.593 10.3774C112.593 10.8797 112.667 11.3651 112.795 11.8285H111.937C109.833 11.8285 108.111 13.471 107.944 15.5344H106.683C103.823 15.5344 101.484 17.8743 101.484 20.7333C101.484 23.593 103.824 25.9329 106.683 25.9329H147.46C150.32 25.9329 152.659 23.593 152.659 20.7333C152.659 17.8736 150.319 15.5344 147.459 15.5344Z" fill="#FFF8F4"/>
<path d="M216.408 162.098C216.46 162.108 216.508 162.132 216.547 162.167L216.408 162.098Z" fill="#A1CFE2"/>
<path d="M159.49 135.466C159.49 135.466 159.602 135.369 159.81 135.188C160.027 135.019 160.311 134.715 160.744 134.423C161.59 133.827 162.932 133.036 164.754 132.693C166.563 132.348 168.77 132.428 170.972 132.969C172.08 133.219 173.184 133.58 174.286 133.96C174.832 134.154 175.381 134.35 175.933 134.546L176.752 134.838L177.613 135.171C179.857 136.15 181.876 137.37 183.753 138.508C185.633 139.634 187.34 140.743 188.889 141.519C190.429 142.304 191.752 142.893 192.737 143.135C193.222 143.299 193.616 143.361 193.888 143.405C194.161 143.454 194.306 143.479 194.306 143.479C194.306 143.479 194.159 143.485 193.883 143.498C193.606 143.513 193.195 143.54 192.674 143.486C191.639 143.385 190.136 143.119 188.47 142.456C186.805 141.804 184.906 140.944 182.962 139.908C181.006 138.9 178.983 137.717 176.911 136.855L176.138 136.541L175.31 136.23C174.767 136.022 174.225 135.816 173.688 135.611C172.619 135.21 171.575 134.822 170.557 134.517C168.526 133.904 166.571 133.546 164.891 133.706C163.225 133.857 161.827 134.267 160.923 134.727C160.448 134.914 160.116 135.143 159.866 135.262C159.62 135.395 159.49 135.466 159.49 135.466Z" fill="#B79370"/>
<path d="M197.456 172.423C197.456 172.423 197.411 172.338 197.326 172.179C197.237 172.021 197.133 171.781 196.945 171.502C196.612 170.922 196.07 170.134 195.416 169.195C194.772 168.248 193.95 167.192 193.084 166.055C192.205 164.927 191.268 163.722 190.285 162.557C189.322 161.375 188.315 160.232 187.358 159.173C186.388 158.128 185.492 157.135 184.649 156.365C184.236 155.969 183.856 155.608 183.503 155.307C183.155 154.999 182.86 154.714 182.586 154.525C182.058 154.107 181.758 153.868 181.758 153.868C181.758 153.868 182.095 154.054 182.687 154.379C182.986 154.54 183.32 154.775 183.713 155.036C184.112 155.291 184.541 155.607 184.986 155.978C185.896 156.699 186.914 157.594 187.94 158.618C188.968 159.64 189.998 160.791 190.988 161.975C191.969 163.167 192.905 164.394 193.732 165.581C194.561 166.767 195.265 167.92 195.848 168.921C196.441 169.916 196.834 170.805 197.104 171.424C197.243 171.731 197.309 171.994 197.37 172.162C197.425 172.332 197.456 172.423 197.456 172.423Z" fill="#B79370"/>
<path d="M188.97 180.091C188.97 180.091 188.749 179.86 188.361 179.456C187.989 179.04 187.426 178.47 186.799 177.749C186.167 177.037 185.414 176.187 184.633 175.309C183.843 174.404 183.014 173.454 182.179 172.499C181.353 171.536 180.5 170.6 179.71 169.713C178.902 168.845 178.171 168.009 177.488 167.351C176.812 166.684 176.246 166.129 175.823 165.767C175.396 165.406 175.152 165.2 175.152 165.2C175.152 165.2 175.434 165.353 175.927 165.623C176.397 165.928 177.088 166.351 177.83 166.968C178.578 167.577 179.43 168.313 180.29 169.155C181.146 169.999 182.018 170.94 182.866 171.898C183.699 172.869 184.521 173.848 185.252 174.798C185.993 175.739 186.632 176.657 187.198 177.43C187.761 178.205 188.185 178.885 188.498 179.347C188.798 179.821 188.97 180.091 188.97 180.091Z" fill="#B79370"/>
<path d="M182.302 188.379C182.302 188.379 182.076 188.222 181.679 187.948C181.295 187.66 180.723 187.275 180.079 186.763C179.435 186.251 178.665 185.675 177.874 185.018C177.077 184.367 176.249 183.649 175.419 182.931C174.602 182.2 173.783 181.471 173.036 180.762C172.282 180.063 171.614 179.371 171.023 178.798C170.432 178.225 169.979 177.705 169.643 177.361C169.32 177.001 169.137 176.797 169.137 176.797C169.137 176.797 169.363 176.954 169.762 177.228C170.146 177.518 170.721 177.903 171.365 178.414C172.009 178.927 172.78 179.502 173.569 180.16C174.366 180.809 175.192 181.528 176.021 182.244C176.837 182.975 177.654 183.703 178.4 184.41C179.152 185.111 179.822 185.801 180.413 186.375C181.003 186.949 181.459 187.469 181.795 187.814C182.118 188.173 182.302 188.379 182.302 188.379Z" fill="#B79370"/>
<path d="M156.609 120.977C156.609 120.977 156.759 120.803 157.019 120.499C157.296 120.211 157.681 119.785 158.199 119.335C158.721 118.892 159.325 118.36 160.036 117.872C160.737 117.371 161.531 116.901 162.354 116.48C163.181 116.068 164.049 115.73 164.885 115.483C165.31 115.378 165.724 115.29 166.116 115.218C166.515 115.178 166.897 115.14 167.239 115.105C167.942 115.105 168.517 115.153 168.911 115.255C169.301 115.347 169.524 115.399 169.524 115.399C169.524 115.399 169.296 115.411 168.897 115.433C168.504 115.404 167.949 115.538 167.297 115.615C166.981 115.693 166.628 115.779 166.259 115.87C165.893 115.993 165.513 116.12 165.131 116.248C164.363 116.554 163.546 116.884 162.761 117.296C161.964 117.683 161.191 118.123 160.469 118.547C159.749 118.971 159.07 119.369 158.508 119.742C157.95 120.119 157.455 120.403 157.132 120.633C156.801 120.851 156.609 120.977 156.609 120.977Z" fill="#E8C8A1"/>
<path d="M141.53 191.063C141.53 191.063 141.23 190.838 140.708 190.447C140.206 190.029 139.46 189.453 138.696 188.615C137.944 187.778 137.058 186.74 136.551 185.333C136.3 184.635 136.175 183.838 136.262 183.042C136.292 182.645 136.396 182.247 136.504 181.877L136.826 180.814C137.271 179.392 137.74 177.971 138.251 176.664C138.75 175.353 139.311 174.164 139.814 173.158C140.317 172.152 140.834 171.365 141.197 170.821C141.581 170.288 141.814 169.998 141.814 169.998C141.814 169.998 141.634 170.327 141.351 170.911C141.053 171.488 140.703 172.347 140.282 173.37C139.859 174.395 139.45 175.624 139.008 176.936C138.576 178.253 138.123 179.66 137.698 181.083L137.362 182.148C137.259 182.486 137.169 182.805 137.137 183.138C137.051 183.798 137.129 184.461 137.315 185.086C137.703 186.336 138.415 187.423 139.088 188.285C139.765 189.15 140.379 189.849 140.828 190.318C141.274 190.791 141.53 191.063 141.53 191.063Z" fill="#B79370"/>
<path d="M150.999 178.45C150.999 178.45 150.884 178.654 150.682 179.01C150.47 179.354 150.219 179.878 149.935 180.497C149.648 181.117 149.389 181.869 149.18 182.685C148.973 183.5 148.81 184.384 148.756 185.275C148.68 186.164 148.721 187.063 148.852 187.87C148.984 188.656 149.323 189.344 149.721 189.898C150.111 190.448 150.474 190.902 150.752 191.196C151.021 191.502 151.191 191.664 151.191 191.664C151.191 191.664 150.983 191.554 150.636 191.331C150.306 191.088 149.806 190.757 149.322 190.221C148.844 189.702 148.286 188.975 148.066 188.044C147.837 187.147 147.785 186.174 147.846 185.212C147.923 184.252 148.115 183.301 148.413 182.452C148.694 181.595 149.114 180.861 149.485 180.255C149.857 179.646 150.266 179.209 150.54 178.905C150.832 178.615 150.999 178.45 150.999 178.45Z" fill="#B79370"/>
<path d="M158.809 186.812C158.809 186.812 158.817 186.854 158.832 186.927C158.837 186.999 158.861 187.106 158.859 187.227C158.856 187.349 158.866 187.493 158.852 187.643C158.843 187.793 158.816 187.951 158.79 188.109C158.755 188.264 158.722 188.421 158.674 188.564C158.632 188.708 158.567 188.838 158.525 188.952C158.482 189.066 158.418 189.155 158.387 189.22C158.346 189.283 158.323 189.319 158.323 189.319C158.323 189.319 158.315 189.277 158.3 189.203C158.296 189.131 158.27 189.024 158.273 188.903C158.276 188.781 158.264 188.637 158.28 188.487C158.289 188.336 158.316 188.179 158.342 188.021C158.377 187.865 158.411 187.709 158.459 187.566C158.501 187.422 158.566 187.292 158.608 187.178C158.651 187.064 158.714 186.975 158.745 186.91C158.786 186.848 158.809 186.812 158.809 186.812Z" fill="#B79370"/>
<path d="M131.734 167.705C131.734 167.705 131.623 167.954 131.428 168.391C131.215 168.817 130.938 169.441 130.563 170.162C130.183 170.88 129.785 171.741 129.332 172.643C128.896 173.554 128.418 174.516 127.998 175.501C127.558 176.478 127.162 177.471 126.831 178.414C126.665 178.887 126.505 179.343 126.38 179.783C126.233 180.22 126.134 180.641 126.049 181.033C125.948 181.423 125.896 181.785 125.834 182.107C125.764 182.429 125.721 182.713 125.713 182.948C125.661 183.423 125.631 183.693 125.631 183.693C125.631 183.693 125.596 183.423 125.535 182.947C125.506 182.707 125.486 182.415 125.492 182.08C125.491 181.744 125.479 181.36 125.542 180.951C125.59 180.54 125.633 180.091 125.73 179.627C125.806 179.156 125.92 178.67 126.065 178.172C126.333 177.172 126.73 176.142 127.163 175.132C127.613 174.129 128.113 173.154 128.625 172.265C129.136 171.377 129.671 170.583 130.122 169.902C130.571 169.219 131 168.687 131.277 168.299C131.568 167.921 131.734 167.705 131.734 167.705Z" fill="#B79370"/>
<path d="M224.325 50.6659V49.4157H200.15V35.8832H223.074V50.6659H224.325H225.576V34.633C225.576 34.3038 225.442 33.9819 225.21 33.7487C224.976 33.5163 224.655 33.3828 224.325 33.3828H198.899C198.57 33.3828 198.248 33.5163 198.015 33.7487C197.782 33.9819 197.648 34.3038 197.648 34.633V50.6659C197.648 50.9951 197.782 51.317 198.015 51.5502C198.248 51.7834 198.57 51.9161 198.899 51.9161H224.325C224.655 51.9161 224.976 51.7826 225.21 51.5502C225.443 51.3177 225.576 50.9951 225.576 50.6659H224.325Z" fill="#F6E2D7"/>
<path d="M198.12 35.6111L210.833 45.7389C211.288 46.1012 211.937 46.1012 212.391 45.7389L225.104 35.6111C225.644 35.1807 225.733 34.3939 225.303 33.8542C224.872 33.3138 224.085 33.225 223.546 33.6555L211.612 43.1623L199.678 33.6555C199.138 33.225 198.351 33.3145 197.921 33.8542C197.491 34.3939 197.579 35.1807 198.12 35.6111Z" fill="#F6E2D7"/>
<path d="M211.611 210.354H199.57V212.361H211.611V210.354Z" fill="#FBD15B"/>
<path d="M220.642 206.341C220.527 206.341 220.414 206.35 220.301 206.362C221.124 207.098 221.646 208.164 221.646 209.352C221.646 210.539 221.124 211.606 220.301 212.341C220.413 212.354 220.527 212.362 220.642 212.362C222.305 212.362 223.653 211.014 223.653 209.352C223.653 207.689 222.305 206.341 220.642 206.341Z" fill="#FBD15B"/>
<path d="M220.641 209.352C220.641 211.014 219.293 212.362 217.631 212.362C215.969 212.362 214.621 211.014 214.621 209.352C214.621 207.689 215.969 206.341 217.631 206.341C219.293 206.341 220.641 207.689 220.641 209.352Z" fill="#FBD15B"/>
<path d="M227.667 199.317H195.559V203.331H227.667V199.317Z" fill="#FBD15B"/>
<path d="M225.659 215.371V214.695H197.564C196.83 214.694 196.234 214.099 196.233 213.364V197.31C196.234 196.574 196.83 195.98 197.564 195.978H225.659C226.394 195.98 226.99 196.574 226.99 197.31V213.364C226.989 214.099 226.393 214.694 225.659 214.695V215.371V216.046C227.14 216.045 228.34 214.846 228.341 213.365V197.311C228.341 195.829 227.141 194.629 225.659 194.629H197.564C196.083 194.63 194.883 195.829 194.883 197.311V213.365C194.884 214.846 196.083 216.045 197.564 216.046H225.659V215.371Z" fill="#FBD15B"/>
<path d="M118.788 215.112H126.524C126.853 215.112 127.175 214.978 127.408 214.746C127.641 214.513 127.774 214.191 127.774 213.861V199.599C127.774 199.251 127.632 198.923 127.377 198.686L116.149 188.191C115.669 187.742 114.921 187.742 114.442 188.191L103.205 198.686C102.951 198.923 102.809 199.251 102.809 199.599V213.861C102.809 214.191 102.942 214.513 103.174 214.746C103.408 214.979 103.73 215.112 104.059 215.112H111.795C112.485 215.112 113.045 214.552 113.045 213.861C113.045 213.171 112.485 212.611 111.795 212.611H105.31V200.142L115.296 190.815L125.275 200.141V212.61H118.789C118.099 212.61 117.539 213.17 117.539 213.861C117.538 214.551 118.097 215.112 118.788 215.112Z" fill="#F6E2D7"/>
<path d="M113.043 213.861V205.249H117.537V213.861C117.537 214.552 118.096 215.111 118.787 215.111C119.478 215.111 120.037 214.552 120.037 213.861V203.999C120.037 203.67 119.904 203.348 119.671 203.115C119.438 202.882 119.116 202.749 118.787 202.749H111.793C111.464 202.749 111.142 202.882 110.909 203.115C110.676 203.348 110.543 203.67 110.543 203.999V213.861C110.543 214.552 111.103 215.111 111.793 215.111C112.483 215.112 113.043 214.552 113.043 213.861Z" fill="#F6E2D7"/>
<path d="M332.241 132.128C332.241 132.128 264.258 132.129 276.589 201.482C346.966 198.497 332.241 132.128 332.241 132.128Z" fill="#FBD15B"/>
<path d="M327.572 171.526C327.572 171.526 320.147 172.264 312.688 173.043C308.958 173.433 305.22 173.833 302.395 174.157C300.983 174.319 299.799 174.462 298.956 174.575C298.861 174.587 298.787 174.598 298.7 174.611L315.927 153.142L332.115 151.368L332.021 150.516L316.686 152.196L331.234 134.066L330.566 133.53L307.884 161.797L305.394 139.083L304.542 139.176L307.125 162.742L292.264 181.263L286.175 159.291L285.372 159.514L291.62 182.064L281.762 194.35L282.43 194.886L297.901 175.606C297.988 175.586 298.143 175.557 298.373 175.522C300.549 175.189 307.886 174.4 314.657 173.699C318.045 173.347 321.295 173.017 323.698 172.775C324.9 172.654 325.889 172.554 326.579 172.485C327.268 172.416 327.656 172.377 327.658 172.377L327.572 171.526Z" fill="white"/>
<path d="M16.2972 149.017C16.2972 149.017 84.2804 149.017 71.9491 218.37C1.57182 215.386 16.2972 149.017 16.2972 149.017Z" fill="#F6E2D7"/>
<path d="M20.9664 188.415C20.9664 188.415 28.3914 189.152 35.8509 189.932C39.5811 190.322 43.3193 190.721 46.1438 191.045C47.5561 191.208 48.7395 191.351 49.5828 191.463C49.6781 191.476 49.7522 191.488 49.8387 191.499L32.6114 170.031L16.4238 168.256L16.517 167.404L31.8525 169.085L17.3045 150.955L17.9732 150.419L40.6553 178.686L43.1447 155.972L43.9968 156.065L41.4135 179.631L56.2753 198.152L62.3636 176.18L63.1673 176.402L56.9191 198.952L66.7779 211.239L66.1099 211.776L50.6387 192.495C50.5514 192.475 50.3967 192.447 50.1665 192.412C47.9909 192.079 40.6538 191.29 33.8821 190.588C30.4944 190.237 27.2446 189.906 24.8417 189.664C23.6399 189.543 22.6507 189.443 21.9607 189.374C21.2714 189.305 20.8835 189.267 20.8821 189.267L20.9664 188.415Z" fill="white"/>
<path d="M93.6296 43.9818C93.0958 43.4399 92.6543 42.9479 92.3874 42.5394C92.254 42.3312 92.1623 42.156 92.1125 42.0056C92.0795 41.9059 92.0626 41.8223 92.0457 41.7475C92.0626 41.6141 92.0956 41.4806 92.1792 41.2973C92.3544 40.8969 92.7878 40.3551 93.3715 39.7472C94.2551 38.8218 95.4554 37.763 96.4805 36.4291C96.9975 35.7538 97.4726 35.0037 97.8143 34.1531C98.1641 33.2944 98.3731 32.3441 98.3731 31.3102C98.3731 30.9348 98.2228 30.5682 97.9566 30.3013C97.6904 30.0343 97.3311 29.8848 96.9564 29.8848H81.7184C81.343 29.8848 80.9764 30.0351 80.7095 30.3013C80.4513 30.5682 80.293 30.9348 80.293 31.3102C80.293 32.886 80.8011 34.2697 81.4933 35.4114C82.5353 37.1206 83.9688 38.3877 85.0357 39.4795C85.5695 40.0214 86.011 40.5134 86.2779 40.9219C86.4194 41.1221 86.503 41.3054 86.5616 41.4557C86.5954 41.5554 86.6115 41.639 86.6203 41.7138C86.6122 41.8392 86.5785 41.9807 86.4949 42.164C86.3116 42.5556 85.8863 43.1063 85.2946 43.7149C84.419 44.6322 83.2187 45.6903 82.1855 47.0329C81.6766 47.7082 81.2015 48.4584 80.8598 49.3089C80.5093 50.1595 80.293 51.1179 80.293 52.1518C80.293 52.5272 80.4513 52.8939 80.7095 53.1608C80.9764 53.4277 81.343 53.5773 81.7184 53.5773H96.9564C97.3318 53.5773 97.6897 53.427 97.9566 53.1608C98.2235 52.8946 98.3731 52.5272 98.3731 52.1518C98.3811 50.576 97.873 49.1924 97.1808 48.0507C96.1388 46.3326 94.7053 45.0743 93.6296 43.9818ZM84.4432 34.6957C84.0429 34.1707 83.718 33.6369 83.4929 33.0789C83.4431 32.9623 83.4093 32.8457 83.3683 32.7284H95.3051C95.1716 33.1449 94.9803 33.5452 94.7464 33.9368C94.0043 35.1701 92.7709 36.3126 91.6036 37.4792C91.028 38.0709 90.47 38.6627 90.0117 39.3629C89.7865 39.7046 89.5783 40.0801 89.436 40.4966C89.3942 40.597 89.3613 40.7048 89.3363 40.8133C89.2615 40.5633 89.1779 40.3213 89.0694 40.0962C88.6441 39.1877 88.0106 38.4706 87.3521 37.7791C86.3527 36.7379 85.252 35.7545 84.4432 34.6957ZM83.3683 50.7256C83.5017 50.3172 83.685 49.9168 83.927 49.5253C84.6603 48.2919 85.9024 47.1414 87.0617 45.9829C87.6454 45.3911 88.2034 44.7906 88.6624 44.0991C88.8876 43.7486 89.0877 43.382 89.2373 42.9655C89.2791 42.8657 89.3121 42.7572 89.3371 42.6487C89.4038 42.8987 89.4954 43.1407 89.5952 43.3658C90.0285 44.2744 90.6621 44.9915 91.3205 45.6837C92.3207 46.7176 93.4213 47.709 94.2213 48.7597C94.6298 49.2936 94.9546 49.8266 95.1797 50.3766C95.2215 50.4932 95.2633 50.6098 95.3051 50.7263L83.3683 50.7256Z" fill="#FBD15B"/>
<path d="M183.478 16.3761H182.519V34.0881L175.905 42.4385H163.769V17.3352H183.477V16.3761H182.518H183.478V15.417H162.811C162.558 15.417 162.311 15.5196 162.132 15.6978C161.953 15.876 161.852 16.1231 161.852 16.3761V43.3977C161.852 43.6499 161.953 43.897 162.132 44.0759C162.311 44.2541 162.558 44.3568 162.811 44.3568H176.369C176.664 44.3568 176.938 44.224 177.121 43.9931L184.229 35.0179C184.364 34.847 184.437 34.6403 184.437 34.4225V16.3761C184.437 16.1239 184.335 15.8767 184.156 15.6978C183.977 15.5189 183.731 15.417 183.478 15.417V16.3761Z" fill="#FBD15B"/>
<path d="M176.369 43.3974H177.328V35.3814H181.496L175.618 42.802L176.369 43.3974L177.121 43.9928L184.229 35.0177C184.457 34.7302 184.5 34.335 184.341 34.005C184.181 33.6743 183.844 33.4639 183.478 33.4639H176.369C176.117 33.4639 175.87 33.5658 175.691 33.7447C175.512 33.9236 175.41 34.17 175.41 34.423V43.3981C175.41 43.8066 175.668 44.1695 176.054 44.3037C176.44 44.4379 176.867 44.3125 177.121 43.9928L176.369 43.3974Z" fill="#FBD15B"/>
<path d="M166.59 22.1643H179.924V20.2461H166.59" fill="#FBD15B"/>
<path d="M166.59 25.8196H179.924V23.9014H166.59" fill="#FBD15B"/>
<path d="M166.59 29.4749H177.155V27.5566H166.59" fill="#FBD15B"/>
<path d="M298.944 48.7666L298.258 48.5078C298.485 47.9028 298.68 47.2099 298.836 46.4473L299.554 46.594C299.391 47.3947 299.186 48.1257 298.944 48.7666ZM299.799 45.123L299.073 45.0262C299.161 44.359 299.23 43.6308 299.276 42.8624L300.008 42.9064C299.961 43.6924 299.89 44.4381 299.799 45.123ZM300.069 41.4281L299.336 41.4098C299.348 40.9551 299.353 40.4998 299.353 40.0444C299.353 39.7702 299.351 39.4967 299.348 39.2232L300.081 39.2136C300.085 39.4894 300.086 39.7665 300.086 40.0444C300.086 40.5057 300.082 40.9683 300.069 41.4281ZM299.316 37.7632C299.294 37.0131 299.263 36.2791 299.231 35.5715L299.964 35.5378C299.996 36.2491 300.027 36.9882 300.049 37.742L299.316 37.7632ZM299.161 34.1064L299.132 33.4766C299.108 32.9574 299.073 32.4405 299.026 31.9265L299.756 31.8605C299.804 32.3855 299.84 32.9127 299.864 33.4421L299.894 34.072L299.161 34.1064ZM298.864 30.4871C298.769 29.7692 298.65 29.0469 298.51 28.3408L299.229 28.1985C299.372 28.9201 299.494 29.6577 299.591 30.391L298.864 30.4871ZM211.8 28.3027L211.086 28.1355C211.25 27.4315 211.398 26.7173 211.538 25.9973L212.258 26.1373C212.115 26.8662 211.967 27.5899 211.8 28.3027ZM298.197 26.9256C298.026 26.2238 297.83 25.5192 297.613 24.8314L298.313 24.6107C298.534 25.3146 298.735 26.0347 298.909 26.7525L298.197 26.9256ZM264.026 26.4607C263.917 26.4607 263.806 26.4585 263.695 26.4526L263.73 25.7201C264.443 25.7538 265.125 25.6644 265.766 25.4532L265.995 26.1498C265.37 26.3558 264.707 26.46 264.026 26.4607ZM262.174 26.218C261.795 26.1205 261.408 25.9921 261.026 25.8374C260.684 25.6996 260.355 25.5375 260.048 25.3571L260.419 24.7251C260.696 24.8878 260.993 25.0338 261.301 25.1584C261.653 25.3014 262.008 25.4187 262.357 25.5082L262.174 26.218ZM267.396 25.4789L266.998 24.8629C267.564 24.497 268.069 24.0226 268.501 23.4528L269.085 23.8957C268.602 24.5329 268.034 25.0653 267.396 25.4789ZM212.533 24.6943L211.813 24.5586C211.948 23.84 212.083 23.117 212.229 22.3933L212.948 22.5385C212.802 23.2585 212.667 23.9779 212.533 24.6943ZM258.811 24.4288C258.261 23.9082 257.793 23.2886 257.42 22.5883L258.068 22.2437C258.403 22.8736 258.823 23.4301 259.316 23.8957L258.811 24.4288ZM297.148 23.4587C296.9 22.776 296.626 22.0978 296.335 21.443L297.006 21.1453C297.303 21.8155 297.583 22.5091 297.838 23.2079L297.148 23.4587ZM269.884 22.5817L269.224 22.2642C269.521 21.6453 269.737 20.9737 269.867 20.269L270.587 20.4017C270.447 21.1709 270.209 21.9042 269.884 22.5817ZM256.829 21.1768C256.608 20.4861 256.458 19.7359 256.383 18.9462L257.113 18.8765C257.183 19.6135 257.323 20.3123 257.527 20.9531L256.829 21.1768ZM213.253 21.1145L212.538 20.9509C212.717 20.1649 212.899 19.461 213.093 18.7995L213.797 19.0056C213.607 19.6531 213.429 20.3431 213.253 21.1145ZM295.716 20.1326C295.392 19.4851 295.043 18.8435 294.677 18.2247L295.307 17.8507C295.682 18.4842 296.041 19.1412 296.373 19.8041L295.716 20.1326ZM270.739 18.8846L270.006 18.8707L270.007 18.7028C270.007 18.2327 269.97 17.7583 269.896 17.292C269.867 17.1138 269.836 16.9371 269.801 16.7625L270.521 16.6217C270.557 16.8051 270.59 16.9899 270.62 17.1768C270.7 17.6813 270.741 18.1946 270.741 18.7028L270.739 18.8846ZM214.24 17.6307L213.55 17.3858C213.745 16.8329 213.959 16.2954 214.183 15.7888C214.253 15.6311 214.325 15.4742 214.397 15.3187L215.061 15.6296C214.991 15.7807 214.921 15.9325 214.853 16.085C214.636 16.5756 214.43 17.0954 214.24 17.6307ZM257.061 17.4547L256.328 17.4401C256.342 16.7075 256.413 15.953 256.54 15.1977L257.263 15.3195C257.142 16.0403 257.074 16.7581 257.061 17.4547ZM293.91 16.9964C293.511 16.3908 293.086 15.7954 292.65 15.2263L293.231 14.7798C293.679 15.3627 294.114 15.9728 294.522 16.5931L293.91 16.9964ZM269.46 15.3767C269.255 14.6933 268.996 14.0216 268.691 13.3807L269.353 13.0654C269.675 13.7408 269.947 14.4476 270.162 15.1662L269.46 15.3767ZM215.716 14.3464L215.073 13.9923C215.433 13.3404 215.828 12.701 216.248 12.0924L216.852 12.5081C216.445 13.0969 216.063 13.7151 215.716 14.3464ZM291.739 14.1008C291.273 13.5508 290.779 13.0112 290.273 12.4979L290.796 11.9831C291.315 12.5096 291.821 13.0625 292.299 13.6264L291.739 14.1008ZM257.566 13.9197L256.857 13.7327C257.05 13.0009 257.292 12.2838 257.577 11.6018L258.254 11.8841C257.982 12.5353 257.751 13.2201 257.566 13.9197ZM268.014 12.1254C267.649 11.5234 267.231 10.936 266.772 10.3795L267.337 9.91237C267.818 10.4961 268.256 11.1127 268.641 11.7448L268.014 12.1254ZM289.231 11.4904C288.701 11.0027 288.145 10.5291 287.578 10.081L288.033 9.50614C288.613 9.96517 289.183 10.4513 289.727 10.9507L289.231 11.4904ZM217.708 11.3474L217.133 10.8928C217.592 10.3127 218.086 9.74666 218.603 9.20991L219.131 9.71879C218.63 10.2387 218.152 10.7864 217.708 11.3474ZM258.87 10.5958L258.226 10.2445C258.612 9.53621 259.04 8.9034 259.497 8.36299L260.057 8.83668C259.632 9.3397 259.233 9.93144 258.87 10.5958ZM265.811 9.3155C265.32 8.81761 264.781 8.33365 264.208 7.87536L264.666 7.30268C265.262 7.77857 265.823 8.28233 266.333 8.80074L265.811 9.3155ZM286.42 9.21284C285.836 8.79561 285.226 8.39378 284.607 8.01835L284.987 7.39214C285.622 7.77711 286.247 8.18847 286.846 8.61596L286.42 9.21284ZM220.164 8.71275L219.67 8.1716C220.211 7.67665 220.788 7.19636 221.385 6.7432L221.828 7.32761C221.249 7.76684 220.69 8.2332 220.164 8.71275ZM261.045 7.81744L260.548 7.27849C260.952 6.90599 261.382 6.55549 261.832 6.23285C261.628 6.11113 261.422 5.99161 261.213 5.87429L261.572 5.23488C262.236 5.60811 262.874 6.00481 263.468 6.4147L263.052 7.01818C262.874 6.89572 262.693 6.77473 262.508 6.65448C261.992 7.00571 261.502 7.39655 261.045 7.81744ZM283.351 7.29608C283.064 7.14063 282.774 6.98885 282.48 6.84146C282.129 6.66621 281.771 6.49683 281.405 6.33478L281.703 5.66457C282.079 5.83175 282.448 6.00554 282.808 6.18592C283.109 6.33771 283.406 6.49243 283.7 6.65155L283.351 7.29608ZM223.004 6.48876L222.595 5.88015C223.202 5.47319 223.841 5.08236 224.497 4.71719L224.853 5.35807C224.216 5.71297 223.594 6.09353 223.004 6.48876ZM263.965 5.78922L263.632 5.13589C264.289 4.80078 264.99 4.50968 265.712 4.27063L265.943 4.96651C265.255 5.19455 264.59 5.47099 263.965 5.78922ZM280.068 5.78556C279.393 5.52965 278.7 5.29941 278.01 5.10069L278.212 4.39602C278.922 4.59987 279.634 4.83745 280.327 5.09996L280.068 5.78556ZM259.932 5.19968C259.3 4.88805 258.633 4.5896 257.948 4.3117L258.224 3.63196C258.925 3.91647 259.608 4.22297 260.256 4.54194L259.932 5.19968ZM276.609 4.73919C275.897 4.57714 275.18 4.44589 274.477 4.34836L274.577 3.62243C275.301 3.72215 276.039 3.85781 276.772 4.02499L276.609 4.73919ZM226.135 4.68713L225.812 4.02866C226.468 3.70676 227.152 3.40245 227.845 3.12381L228.119 3.80428C227.442 4.07632 226.775 4.37329 226.135 4.68713ZM267.322 4.58154L267.157 3.86661C267.87 3.70162 268.615 3.57917 269.372 3.50217L269.446 4.23177C268.72 4.30583 268.005 4.42315 267.322 4.58154ZM273.042 4.19438C272.311 4.14011 271.591 4.12105 270.881 4.14011L270.862 3.40685C271.595 3.38631 272.341 3.40612 273.097 3.46331L273.042 4.19438ZM256.591 3.79401C255.924 3.55497 255.227 3.32839 254.518 3.12014L254.725 2.41694C255.447 2.62885 256.158 2.85983 256.838 3.10401L256.591 3.79401ZM229.475 3.29539L229.233 2.60319C229.922 2.36195 230.636 2.13903 231.355 1.93958L231.551 2.64645C230.847 2.84077 230.149 3.05928 229.475 3.29539ZM253.117 2.73444C252.426 2.55699 251.71 2.39201 250.99 2.24389L251.138 1.52602C251.869 1.67634 252.596 1.84426 253.299 2.02465L253.117 2.73444ZM232.956 2.28642L232.788 1.57222C233.503 1.40503 234.235 1.25692 234.965 1.13153L235.089 1.85379C234.374 1.97772 233.655 2.1229 232.956 2.28642ZM249.56 1.97185C248.829 1.84426 248.108 1.73574 247.399 1.64408L247.493 0.916681C248.212 1.00981 248.945 1.12053 249.686 1.24958L249.56 1.97185ZM236.526 1.63675L236.429 0.91008C237.156 0.813289 237.898 0.735561 238.637 0.677634L238.693 1.4087C237.968 1.46516 237.239 1.54142 236.526 1.63675ZM245.953 1.47983C245.239 1.4109 244.508 1.35884 243.779 1.32657L243.812 0.594042C244.554 0.627773 245.298 0.679838 246.025 0.750232L245.953 1.47983ZM240.145 1.32071L240.114 0.58818C240.71 0.563249 241.305 0.550781 241.899 0.550781L242.333 0.55298L242.325 1.28624L241.898 1.28405C241.315 1.28478 240.73 1.29651 240.145 1.32071Z" fill="#FFF8F4"/>
<path d="M25.9498 63.8318L25.479 63.2855L26.0356 62.8082L26.5049 63.353L25.9498 63.8318ZM24.5273 62.1637C24.0609 61.6086 23.5916 61.0366 23.1289 60.4493L23.7053 59.9961C24.1628 60.5769 24.627 61.143 25.0882 61.6922L24.5273 62.1637ZM22.2314 59.2761C21.7629 58.644 21.3471 58.0478 20.9592 57.4539L21.5737 57.0528C21.9535 57.635 22.3612 58.2187 22.821 58.839L22.2314 59.2761ZM20.1775 56.1912C19.7882 55.5225 19.4391 54.8574 19.14 54.2136L19.805 53.9049C20.0939 54.5282 20.432 55.1734 20.8111 55.8217L20.1775 56.1912ZM18.5636 52.8358C18.293 52.1128 18.0767 51.3876 17.9205 50.6815L18.6369 50.5223C18.7865 51.1962 18.9926 51.8884 19.2507 52.5799L18.5636 52.8358ZM17.672 49.1973C17.6258 48.7845 17.5994 48.3673 17.5928 47.9574L17.5898 47.6069C17.5898 47.3862 17.5935 47.1669 17.6001 46.9499L18.3334 46.9719C18.3268 47.1823 18.3238 47.3942 18.3231 47.6076L18.326 47.9456C18.3319 48.3321 18.3568 48.7258 18.4008 49.1159L17.672 49.1973ZM18.4294 45.5361L17.7006 45.4599C17.7798 44.7009 17.9037 43.9567 18.0701 43.2462L18.7843 43.4133C18.6245 44.0938 18.5057 44.808 18.4294 45.5361ZM19.1722 42.0355L18.4771 41.8038C18.7183 41.0816 19.0124 40.3828 19.3511 39.7272L20.003 40.0638C19.6804 40.6856 19.401 41.3492 19.1722 42.0355ZM20.7238 38.8363L20.1137 38.4293C20.5317 37.8017 21.0054 37.2077 21.5223 36.6644L22.054 37.1689C21.5663 37.6821 21.119 38.2431 20.7238 38.8363ZM23.0923 36.1958L22.6215 35.6327C23.1905 35.1575 23.8109 34.7205 24.4664 34.3348L24.8389 34.9661C24.2186 35.332 23.6305 35.7456 23.0923 36.1958ZM26.1045 34.3047L25.798 33.6389C26.4609 33.3331 27.1685 33.0655 27.8988 32.8426L28.1129 33.5436C27.4141 33.7577 26.7381 34.0136 26.1045 34.3047ZM43.9954 33.9506L43.9852 33.2173C44.7588 33.207 45.451 33.1366 46.1014 33.0032L46.2488 33.7218C45.5529 33.864 44.8152 33.9388 43.9954 33.9506ZM42.4996 33.9044C41.847 33.8589 41.1445 33.7834 40.2881 33.6646L40.3885 32.9387C41.2281 33.0545 41.9152 33.1286 42.5494 33.1726L42.4996 33.9044ZM38.8325 33.4497L38.4916 33.3969C37.8852 33.3031 37.2751 33.2085 36.6628 33.1234L36.7633 32.3975C37.3799 32.4826 37.9937 32.5779 38.6038 32.6717L38.944 32.7245L38.8325 33.4497ZM47.7138 33.2928L47.4484 32.6094C48.0981 32.3564 48.7133 32.014 49.2757 31.5909L49.7164 32.1775C49.0997 32.6409 48.4258 33.0164 47.7138 33.2928ZM29.5032 33.1814L29.3448 32.465C29.6411 32.3997 29.9439 32.3403 30.2511 32.2868C30.6728 32.2134 31.1156 32.1592 31.5681 32.1247L31.6238 32.8558C31.1948 32.8881 30.7747 32.9401 30.3765 33.009C30.0795 33.0611 29.7884 33.1183 29.5032 33.1814ZM35.219 32.9467C34.4278 32.8653 33.7209 32.8213 33.0573 32.8133L33.0669 32.08C33.7525 32.0888 34.4813 32.1335 35.2945 32.2171L35.219 32.9467ZM50.8522 31.1627L50.3213 30.6567C50.7818 30.1742 51.221 29.6096 51.6258 28.979L52.2432 29.375C51.8135 30.0452 51.345 30.6472 50.8522 31.1627ZM52.9823 28.0632L52.3253 27.7376C52.6487 27.085 52.9354 26.3957 53.1965 25.7483L53.8769 26.0225C53.6093 26.6832 53.316 27.3886 52.9823 28.0632ZM87.0814 26.81C86.8988 26.3679 86.7213 25.9169 86.5424 25.4623L86.266 24.762L86.9472 24.4907L87.2251 25.1932C87.4025 25.6441 87.5785 26.0922 87.7596 26.5299L87.0814 26.81ZM54.4232 24.663L53.7449 24.3851C53.9957 23.7728 54.3022 23.0528 54.6688 22.3518L55.3185 22.692C54.9651 23.3651 54.6681 24.0661 54.4232 24.663ZM85.708 23.4172C85.3831 22.6722 85.0693 22.0401 84.7488 21.4836L85.3839 21.1177C85.7182 21.6977 86.0438 22.354 86.3804 23.1239L85.708 23.4172ZM56.0496 21.4763L55.449 21.0554C55.5158 20.9608 55.584 20.8676 55.6536 20.7753C56.032 20.2788 56.4756 19.8029 56.9735 19.3608L57.4604 19.9093C56.9977 20.3199 56.5863 20.7606 56.2366 21.2196C56.1735 21.3032 56.1105 21.3897 56.0496 21.4763ZM83.9708 20.295C83.5258 19.6996 83.0528 19.1987 82.5241 18.7632L82.9912 18.1978C83.5646 18.6708 84.0772 19.2134 84.5582 19.8557L83.9708 20.295ZM58.5808 19.0367L58.1658 18.4325C58.7568 18.0262 59.4116 17.6464 60.1141 17.3025L60.436 17.961C59.7665 18.2895 59.1425 18.651 58.5808 19.0367ZM81.3656 17.9646C80.7694 17.6119 80.1227 17.2952 79.4429 17.0239L79.715 16.3427C80.4299 16.6286 81.1104 16.9615 81.7388 17.334L81.3656 17.9646ZM61.7515 17.3824L61.4823 16.6998C62.1548 16.4351 62.8682 16.1953 63.6015 15.9863L63.8017 16.6917C63.0911 16.8933 62.4011 17.1258 61.7515 17.3824ZM78.0893 16.5516C77.4235 16.3515 76.7174 16.1828 75.9907 16.0523L76.1213 15.3308C76.875 15.4671 77.6083 15.6417 78.3005 15.8492L78.0893 16.5516ZM65.2029 16.339L65.0453 15.6226C65.7712 15.4627 66.5103 15.3322 67.2421 15.234L67.3397 15.9606C66.6277 16.056 65.9091 16.1835 65.2029 16.339ZM74.5638 15.8426C73.8687 15.7634 73.1405 15.7113 72.3999 15.6901L72.4219 14.9568C73.1831 14.9795 73.9317 15.0331 74.6467 15.1144L74.5638 15.8426ZM68.7813 15.8023L68.7167 15.0719C69.4661 15.0059 70.2133 14.9649 70.9378 14.9502L70.9532 15.6835C70.2441 15.6974 69.5138 15.7377 68.7813 15.8023Z" fill="#FFF8F4"/>
<path d="M150.241 69.1269L150.224 68.3937C150.937 68.3783 151.662 68.3247 152.381 68.2353L152.471 68.9627C151.729 69.0551 150.978 69.1101 150.241 69.1269ZM148.748 69.1057C147.989 69.0675 147.24 68.9861 146.52 68.8644L146.642 68.1414C147.333 68.2587 148.054 68.3365 148.785 68.3731L148.748 69.1057ZM153.944 68.731L153.805 68.0109C154.514 67.8752 155.22 67.7029 155.906 67.4991L156.115 68.2023C155.407 68.4127 154.676 68.5909 153.944 68.731ZM157.53 67.7279L157.273 67.0408C157.956 66.7856 158.621 66.4952 159.25 66.1777L159.581 66.8326C158.929 67.1625 158.238 67.4639 157.53 67.7279ZM160.892 66.1008L160.501 65.4797C161.133 65.0822 161.68 64.657 162.171 64.1774L162.683 64.7024C162.161 65.2113 161.558 65.6821 160.892 66.1008ZM163.685 63.5556L163.096 63.1186C163.253 62.9059 163.401 62.6874 163.541 62.4601C163.285 62.3992 163.03 62.3296 162.781 62.2511L163.002 61.5516C163.301 61.6462 163.607 61.7268 163.914 61.7928C163.997 61.6293 164.077 61.4614 164.154 61.2883L164.824 61.5853C164.773 61.6997 164.721 61.8133 164.667 61.9248C164.805 61.9431 164.941 61.9585 165.078 61.971L165.012 62.7013C164.779 62.6808 164.542 62.6507 164.303 62.6119C164.112 62.944 163.905 63.2593 163.685 63.5556ZM166.547 62.6999L166.471 61.9703C166.632 61.9534 166.788 61.9307 166.937 61.9006C167.495 61.7884 168.008 61.6242 168.462 61.413L168.772 62.0773C168.265 62.3134 167.697 62.496 167.08 62.6199C166.909 62.6537 166.731 62.6808 166.547 62.6999ZM161.368 61.6902C160.62 61.3243 159.979 60.8902 159.461 60.3989L159.966 59.8665C160.43 60.3065 161.01 60.6981 161.691 61.031L161.368 61.6902ZM170.085 61.237L169.609 60.6797C170.11 60.25 170.526 59.7059 170.844 59.0629L171.501 59.3877C171.14 60.121 170.663 60.7428 170.085 61.237ZM165.348 60.1584L164.639 59.967C164.806 59.3488 164.913 58.6068 164.941 57.875L165.673 57.9028C165.645 58.6874 165.528 59.4882 165.348 60.1584ZM158.492 59.156C158.231 58.6698 158.078 58.1551 158.036 57.6249C158.029 57.5267 158.024 57.4277 158.024 57.3287C158.024 57.1586 158.035 56.9863 158.057 56.8132L158.784 56.9019C158.767 57.0449 158.758 57.1879 158.758 57.3287C158.758 57.4094 158.761 57.4893 158.767 57.5685C158.801 57.9967 158.926 58.4139 159.138 58.8092L158.492 59.156ZM172.039 57.9505L171.331 57.7569C171.5 57.1381 171.616 56.451 171.687 55.6554L172.417 55.7199C172.343 56.5595 172.219 57.2898 172.039 57.9505ZM164.889 56.4678C164.795 55.6767 164.595 55.0241 164.294 54.5284L164.921 54.1478C165.276 54.7337 165.51 55.4845 165.617 56.3806L164.889 56.4678ZM159.162 55.6092L158.497 55.3012C158.84 54.5606 159.332 53.9154 159.919 53.4343L160.383 54.0026C159.888 54.4066 159.454 54.9779 159.162 55.6092ZM172.495 54.2314L171.761 54.216C171.767 53.9806 171.769 53.7445 171.769 53.5084C171.769 53.0127 171.759 52.5192 171.748 52.0323L172.481 52.0147C172.493 52.5067 172.502 53.0076 172.502 53.5084C172.502 53.7489 172.5 53.9902 172.495 54.2314ZM163.384 53.6572C162.782 53.3214 162.151 53.2334 161.533 53.3955L161.347 52.6864C162.147 52.4752 162.974 52.5881 163.741 53.0171L163.384 53.6572ZM171.712 50.5643C171.707 50.274 171.704 49.9887 171.704 49.7108C171.704 49.2283 171.715 48.7656 171.745 48.333L172.476 48.3836C172.447 48.8008 172.437 49.2459 172.437 49.7108C172.437 49.9843 172.44 50.2644 172.446 50.5504L171.712 50.5643Z" fill="#FFF8F4"/>
<path d="M122.644 53.2892L121.913 53.2379C121.924 53.0854 121.928 52.9321 121.928 52.7796C121.928 52.2524 121.863 51.7105 121.735 51.1686L122.449 51C122.59 51.5976 122.662 52.1959 122.662 52.7804C122.662 52.949 122.656 53.1191 122.644 53.2892ZM121.297 49.8356C121.038 49.2189 120.697 48.5905 120.282 47.9672L120.892 47.5602C121.333 48.2224 121.697 48.8918 121.973 49.5518L121.297 49.8356ZM119.429 46.8182C118.995 46.2858 118.501 45.7535 117.964 45.2358L118.473 44.7078C119.031 45.2453 119.543 45.7997 119.997 46.354L119.429 46.8182ZM116.893 44.2686C116.357 43.8147 115.78 43.3682 115.178 42.9414L115.602 42.3438C116.221 42.783 116.815 43.242 117.367 43.7091L116.893 44.2686ZM113.975 42.1355C113.368 41.7506 112.735 41.3832 112.095 41.043L112.44 40.3955C113.096 40.7445 113.744 41.1214 114.367 41.5159L113.975 42.1355ZM110.799 40.394C110.131 40.0802 109.458 39.7972 108.798 39.5515L109.054 38.8637C109.732 39.1167 110.424 39.4078 111.111 39.7297L110.799 40.394ZM107.43 39.0874C106.705 38.8674 106 38.6965 105.334 38.5792L105.461 37.8577C106.157 37.9801 106.89 38.1583 107.643 38.3864L107.43 39.0874ZM103.919 38.4069C103.577 38.3856 103.247 38.382 102.93 38.3959L102.896 37.6634C103.237 37.648 103.595 37.6524 103.964 37.6751L103.919 38.4069Z" fill="#FFF8F4"/>
<path d="M160.107 107.294C159.925 107.294 159.744 107.293 159.566 107.29L159.576 106.557C160.294 106.567 161.023 106.556 161.756 106.525L161.787 107.258C161.223 107.282 160.662 107.294 160.107 107.294ZM158.086 107.243C157.34 107.205 156.595 107.146 155.872 107.069L155.951 106.34C156.66 106.416 157.391 106.474 158.122 106.511L158.086 107.243ZM163.266 107.166L163.205 106.435C163.939 106.374 164.668 106.291 165.369 106.187L165.476 106.913C164.759 107.018 164.015 107.104 163.266 107.166ZM154.403 106.88L153.977 106.814L154.094 106.091L154.51 106.155L154.403 106.88ZM166.938 106.662L166.798 105.942C167.524 105.799 168.235 105.631 168.908 105.441L169.107 106.147C168.415 106.342 167.685 106.515 166.938 106.662ZM170.528 105.702L170.287 105.01C170.986 104.766 171.659 104.492 172.286 104.194L172.601 104.856C171.949 105.166 171.252 105.45 170.528 105.702ZM173.924 104.161L173.556 103.526C174.192 103.158 174.788 102.751 175.328 102.32L175.785 102.893C175.217 103.347 174.592 103.773 173.924 104.161ZM176.909 101.89L176.39 101.373C176.898 100.863 177.355 100.312 177.748 99.7368L178.354 100.15C177.935 100.763 177.449 101.349 176.909 101.89ZM179.123 98.8481L178.469 98.5167C178.785 97.8934 179.046 97.2283 179.245 96.5391L179.95 96.7422C179.738 97.4754 179.46 98.1845 179.123 98.8481Z" fill="#FFF8F4"/>
<path d="M147.422 230.436C147.05 230.436 146.678 230.429 146.307 230.418L146.331 229.684C147.054 229.709 147.78 229.709 148.506 229.684L148.531 230.417C148.161 230.43 147.791 230.436 147.422 230.436ZM144.825 230.333C144.085 230.275 143.341 230.192 142.616 230.086L142.722 229.36C143.432 229.464 144.16 229.545 144.884 229.603L144.825 230.333ZM150.012 230.332L149.953 229.602C150.673 229.544 151.4 229.459 152.112 229.35L152.222 230.075C151.493 230.186 150.749 230.273 150.012 230.332ZM141.155 229.841C140.429 229.704 139.698 229.542 138.985 229.36L139.167 228.649C139.866 228.828 140.58 228.986 141.29 229.121L141.155 229.841ZM153.684 229.816L153.539 229.098C154.235 228.958 154.947 228.788 155.657 228.595L155.85 229.302C155.124 229.499 154.395 229.672 153.684 229.816ZM178.257 229.474C177.626 229.474 176.993 229.458 176.359 229.426L176.396 228.695C177.017 228.725 177.637 228.742 178.257 228.742L178.575 228.74L178.58 229.473L178.257 229.474ZM180.061 229.429L180.024 228.697C180.746 228.66 181.475 228.601 182.193 228.52L182.275 229.249C181.543 229.332 180.798 229.393 180.061 229.429ZM174.883 229.322C174.157 229.258 173.415 229.171 172.678 229.065L172.783 228.339C173.507 228.444 174.235 228.529 174.948 228.592L174.883 229.322ZM183.746 229.051L183.631 228.326C184.35 228.214 185.069 228.076 185.769 227.919L185.929 228.635C185.214 228.795 184.48 228.935 183.746 229.051ZM137.557 228.966C136.849 228.754 136.139 228.519 135.449 228.267L135.701 227.579C136.377 227.826 137.073 228.056 137.768 228.263L137.557 228.966ZM157.272 228.882L157.049 228.183C157.745 227.961 158.437 227.718 159.103 227.46L159.368 228.143C158.688 228.407 157.982 228.656 157.272 228.882ZM171.218 228.828C170.886 228.768 170.556 228.705 170.224 228.637C169.86 228.563 169.464 228.479 169.046 228.384L169.207 227.669C169.621 227.763 170.011 227.845 170.37 227.918C170.696 227.984 171.022 228.047 171.348 228.106L171.218 228.828ZM187.368 228.278L187.176 227.57C187.872 227.382 188.571 227.168 189.257 226.934L189.494 227.628C188.793 227.867 188.078 228.086 187.368 228.278ZM167.608 228.042C166.876 227.856 166.157 227.656 165.47 227.445L165.684 226.743C166.36 226.95 167.068 227.148 167.788 227.331L167.608 228.042ZM134.068 227.733C133.383 227.452 132.701 227.15 132.039 226.833L132.355 226.171C133.004 226.482 133.674 226.779 134.345 227.054L134.068 227.733ZM160.741 227.577L160.446 226.905C160.973 226.674 161.492 226.43 161.994 226.176C161.993 226.174 161.99 226.174 161.989 226.173L162.282 225.501C162.911 225.776 163.592 226.042 164.307 226.292L164.065 226.984C163.582 226.815 163.114 226.639 162.667 226.457L162.748 226.611C162.105 226.949 161.429 227.274 160.741 227.577ZM190.888 227.114L190.615 226.433C191.288 226.164 191.952 225.863 192.587 225.539L192.92 226.193C192.264 226.527 191.58 226.837 190.888 227.114ZM130.715 226.17C130.06 225.826 129.409 225.461 128.779 225.084L129.155 224.456C129.774 224.825 130.413 225.184 131.056 225.522L130.715 226.17ZM164.044 225.885L163.669 225.256C164.307 224.875 164.916 224.475 165.481 224.068L165.91 224.662C165.329 225.083 164.701 225.494 164.044 225.885ZM160.641 225.533C159.932 225.168 159.283 224.779 158.713 224.378L159.134 223.778C159.678 224.159 160.298 224.531 160.978 224.882L160.641 225.533ZM194.225 225.478L193.853 224.846C194.464 224.486 195.073 224.087 195.666 223.662L196.094 224.258C195.484 224.695 194.855 225.106 194.225 225.478ZM127.523 224.302C126.904 223.9 126.288 223.476 125.694 223.042L126.127 222.45C126.71 222.875 127.314 223.291 127.922 223.686L127.523 224.302ZM167.089 223.747L166.619 223.184C167.188 222.71 167.716 222.214 168.189 221.709L168.723 222.21C168.23 222.737 167.68 223.254 167.089 223.747ZM157.53 223.433C156.921 222.872 156.428 222.277 156.064 221.662L156.695 221.289C157.022 221.842 157.47 222.381 158.026 222.892L157.53 223.433ZM197.275 223.357L196.815 222.786C197.36 222.347 197.898 221.883 198.458 221.363L198.956 221.901C198.384 222.431 197.834 222.908 197.275 223.357ZM124.515 222.15C123.935 221.694 123.36 221.217 122.808 220.731L123.292 220.18C123.834 220.657 124.398 221.126 124.968 221.573L124.515 222.15ZM169.698 221.069L169.116 220.622C169.563 220.041 169.954 219.438 170.275 218.83L170.924 219.174C170.582 219.817 170.17 220.455 169.698 221.069ZM200.023 220.873L199.505 220.353C200.011 219.848 200.513 219.323 201.017 218.778L201.555 219.275C201.045 219.829 200.537 220.361 200.023 220.873ZM155.433 220.252C155.206 219.541 155.087 218.776 155.079 217.978L155.813 217.971C155.82 218.696 155.927 219.388 156.132 220.028L155.433 220.252ZM121.714 219.734C121.379 219.417 121.05 219.095 120.727 218.768L121.248 218.253C121.566 218.575 121.889 218.891 122.218 219.202L121.714 219.734ZM171.544 217.796L170.858 217.538C171.108 216.872 171.288 216.182 171.395 215.489L172.12 215.601C172.005 216.345 171.812 217.083 171.544 217.796ZM155.914 216.569L155.19 216.459C155.299 215.741 155.489 215.002 155.754 214.262L156.444 214.51C156.195 215.205 156.016 215.897 155.914 216.569ZM172.248 214.095L171.515 214.081L171.516 213.902C171.516 213.268 171.459 212.615 171.346 211.96L172.068 211.835C172.189 212.53 172.249 213.226 172.249 213.901L172.248 214.095ZM156.998 213.194L156.338 212.874C156.659 212.21 157.037 211.553 157.461 210.923L158.07 211.333C157.664 211.934 157.303 212.561 156.998 213.194ZM171.025 210.573L170.958 210.348C170.759 209.699 170.523 209.109 170.253 208.594L170.903 208.255C171.193 208.809 171.448 209.441 171.66 210.134L171.73 210.367L171.025 210.573ZM158.922 210.179L158.352 209.718C158.828 209.129 159.345 208.575 159.884 208.07L160.385 208.605C159.869 209.088 159.377 209.617 158.922 210.179ZM161.476 207.684L161.033 207.1C161.666 206.62 162.314 206.217 162.958 205.901L163.28 206.56C162.679 206.854 162.072 207.233 161.476 207.684ZM169.494 207.434C169.033 206.874 168.501 206.453 167.913 206.183L168.219 205.518C168.908 205.834 169.528 206.323 170.06 206.967L169.494 207.434ZM164.585 206.05L164.382 205.345C165.184 205.114 165.96 205.032 166.693 205.107L166.619 205.836C165.976 205.771 165.297 205.845 164.585 206.05Z" fill="#FFF8F4"/>
<path d="M257.971 205.024L256.587 205.021L256.591 204.288L257.971 204.291L258.786 204.29L258.789 205.023L257.971 205.024ZM260.258 205.014L260.251 204.281C260.983 204.274 261.715 204.263 262.446 204.247L262.461 204.98C261.728 204.996 260.993 205.007 260.258 205.014ZM255.119 205.011C254.385 205.003 253.651 204.994 252.917 204.983L252.928 204.249C253.662 204.261 254.394 204.27 255.126 204.277L255.119 205.011ZM251.449 204.958L249.249 204.914L249.264 204.181L251.463 204.224L251.449 204.958ZM263.932 204.945L263.91 204.211L264.276 204.2L264.298 204.934L263.932 204.945ZM247.782 204.884L245.583 204.835L245.599 204.101L247.799 204.15L247.782 204.884ZM244.117 204.802L241.918 204.757L241.933 204.024L244.133 204.068L244.117 204.802ZM240.453 204.73C239.721 204.717 238.987 204.707 238.256 204.698L238.264 203.965C238.998 203.974 239.732 203.984 240.466 203.996L240.453 204.73ZM236.791 204.683C236.058 204.678 235.326 204.675 234.594 204.675V203.941C235.328 203.941 236.062 203.944 236.796 203.95L236.791 204.683Z" fill="#FFF8F4"/>
<path d="M263.635 217.917C263.02 217.605 262.354 217.321 261.657 217.073L261.903 216.383C262.629 216.641 263.324 216.938 263.966 217.263L263.635 217.917ZM260.284 216.64C259.619 216.456 258.929 216.294 258.171 216.148L258.31 215.428C259.087 215.579 259.797 215.744 260.481 215.934L260.284 216.64ZM256.74 215.901C256.026 215.792 255.302 215.7 254.572 215.617L254.654 214.888C255.394 214.972 256.127 215.065 256.851 215.176L256.74 215.901ZM253.118 215.465C252.528 215.407 251.935 215.354 251.342 215.299L250.927 215.262L250.994 214.532L251.408 214.57C252.003 214.623 252.597 214.677 253.189 214.735L253.118 215.465ZM249.465 215.127C248.73 215.055 247.996 214.98 247.268 214.891L247.356 214.164C248.079 214.251 248.806 214.327 249.535 214.397L249.465 215.127ZM245.804 214.695C245.019 214.579 244.304 214.452 243.617 214.307L243.768 213.589C244.44 213.731 245.142 213.855 245.912 213.971L245.804 214.695ZM242.171 213.964C241.42 213.764 240.704 213.534 240.041 213.283L240.301 212.597C240.941 212.841 241.633 213.062 242.36 213.255L242.171 213.964ZM238.667 212.697C237.977 212.367 237.319 211.993 236.713 211.586L237.121 210.978C237.699 211.364 238.325 211.72 238.984 212.035L238.667 212.697Z" fill="#FFF8F4"/>
<path d="M71.8329 229.168L71.5117 228.51C71.6547 228.439 71.794 228.365 71.9304 228.285L72.2992 228.918C72.1467 229.007 71.992 229.091 71.8329 229.168ZM73.5436 228.043L73.0802 227.474C73.5993 227.051 74.1009 226.57 74.5848 226.104L74.6816 226.012L75.189 226.54L75.093 226.633C74.598 227.108 74.0862 227.6 73.5436 228.043ZM76.2537 225.553L75.7676 225.004C76.319 224.516 76.8763 224.035 77.4387 223.56L77.9117 224.12C77.3544 224.592 76.8015 225.069 76.2537 225.553ZM79.035 223.186L78.5694 222.619C79.1377 222.152 79.7104 221.69 80.2867 221.234L80.7421 221.808C80.1694 222.262 79.6004 222.721 79.035 223.186ZM81.8926 220.904L81.4423 220.326C82.0223 219.875 82.6045 219.427 83.189 218.982L83.6326 219.565C83.0511 220.008 82.4704 220.454 81.8926 220.904ZM84.8007 218.68L84.3585 218.095C84.9444 217.652 85.5317 217.212 86.1198 216.773L86.5591 217.361C85.9717 217.8 85.3858 218.239 84.8007 218.68ZM87.7345 216.484L87.2952 215.896L89.058 214.578L89.4958 215.167L87.7345 216.484ZM90.6734 214.298L90.2408 213.707L92.0175 212.409L92.4508 213.001L90.6734 214.298ZM93.6328 212.13L93.1958 211.541C93.7846 211.104 94.3683 210.664 94.9425 210.218L95.3927 210.796C94.8141 211.247 94.2261 211.69 93.6328 212.13Z" fill="#FFF8F4"/>
<path d="M133.703 116.609C133.703 116.609 133.935 116.69 134.346 116.792C134.752 116.912 135.349 117.015 136.051 117.162C136.757 117.299 137.588 117.401 138.477 117.491C138.921 117.541 139.384 117.562 139.849 117.608C140.319 117.624 140.794 117.66 141.27 117.665C142.224 117.699 143.178 117.678 144.075 117.662C144.523 117.637 144.958 117.626 145.372 117.618C145.785 117.591 146.18 117.566 146.535 117.543C147.257 117.5 147.862 117.452 148.286 117.418C148.714 117.396 148.957 117.384 148.957 117.384C148.957 117.384 148.726 117.46 148.319 117.593C147.907 117.699 147.329 117.927 146.607 118.051C146.251 118.122 145.857 118.201 145.443 118.283C145.027 118.346 144.587 118.411 144.129 118.464C143.214 118.56 142.23 118.593 141.244 118.577C140.752 118.561 140.261 118.517 139.777 118.484C139.295 118.42 138.82 118.376 138.366 118.285C137.453 118.133 136.624 117.875 135.921 117.656C135.22 117.424 134.665 117.147 134.282 116.956C133.905 116.747 133.703 116.609 133.703 116.609Z" fill="#F4DEC6"/>
</svg>
