<svg width="260" height="258" viewBox="0 0 260 258" fill="none" xmlns="http://www.w3.org/2000/svg">
<path d="M12.135 5.52631C11.8946 4.50071 13.334 3.81909 14.2154 4.53545C23.1658 11.8097 44.6711 33.593 39.3116 71.6608C32.5873 119.423 44.0833 136.85 58.393 147.481C58.393 147.481 38.741 142.482 26.3769 124.798C-3.97983 81.3786 16.409 23.7612 12.135 5.52631Z" fill="#FECAAD"/>
<path d="M18.9466 20.4438C20.0663 25.7609 21.0642 31.0943 21.8355 36.4515C22.639 41.8043 23.2548 47.1759 23.6762 52.5563C24.0736 57.9376 24.3544 63.3246 24.3704 68.7138C24.4143 74.1027 24.1909 79.4873 23.9446 84.8928C23.7333 90.2964 23.485 95.7389 23.8796 101.22C24.2678 106.69 25.4165 112.208 27.6962 117.38C28.266 118.669 28.8653 119.954 29.5461 121.196C30.2005 122.449 30.9192 123.678 31.6631 124.894C33.1652 127.322 34.8561 129.668 36.7403 131.894C40.5224 136.34 45.0838 140.283 50.1088 143.62C50.6377 143.971 51.3954 143.885 51.8013 143.427C52.1999 142.978 52.1109 142.337 51.6068 141.982L51.6032 141.979C50.4075 141.138 49.2244 140.285 48.0894 139.39C47.5134 138.95 46.9613 138.489 46.3993 138.037C45.8579 137.568 45.2951 137.116 44.7709 136.632C42.6372 134.729 40.6605 132.698 38.867 130.551C35.2597 126.276 32.3719 121.513 30.184 116.575C29.122 114.095 28.273 111.551 27.6531 108.959C27.0355 106.367 26.647 103.73 26.4322 101.071C26.0019 95.7513 26.1963 90.3626 26.3627 84.9581C26.521 79.5521 26.6372 74.1188 26.4949 68.6898C26.4322 65.9754 26.3131 63.2624 26.138 60.5526C26.0594 59.1973 25.9506 57.8435 25.8446 56.4899C25.7236 55.137 25.5938 53.785 25.4515 52.4342C24.8705 47.0314 24.0993 41.6467 23.1326 36.2905C22.1363 30.9383 20.9762 25.6109 19.5809 20.3311C19.5409 20.1801 19.3673 20.0858 19.193 20.1204C19.0236 20.1539 18.9161 20.2974 18.9466 20.4438Z" fill="white"/>
<path d="M35.3234 119.848C34.226 121.015 32.296 120.679 31.6358 119.219C27.993 111.158 19.7499 87.4357 33.3638 60.1061C44.8602 37.0274 48.9058 23.4183 50.3152 17.1127C50.6133 15.7794 52.4364 15.6023 52.9868 16.8525C59.0582 30.6453 75.0896 77.561 35.3234 119.848Z" fill="#FECAAD"/>
<path d="M33.3292 118.997C33.2902 119.004 33.25 119.007 33.2089 119.007C32.8639 119.001 32.5885 118.717 32.5938 118.371C32.5998 117.979 33.3609 78.8013 47.8995 45.9882C48.0395 45.6725 48.4085 45.53 48.7241 45.6701C49.0394 45.8106 49.1815 46.1804 49.0416 46.4966C34.6087 79.0708 33.849 118.001 33.843 118.39C33.8385 118.695 33.6177 118.945 33.3292 118.997Z" fill="white"/>
<path d="M190.908 59.332C187.428 53.2048 184.749 44.9649 190.219 38.7972C200.099 27.6579 219.858 25.1826 224.797 42.5105C226.841 49.6784 225.398 55.25 223.003 59.3194C220.784 63.0882 223.519 67.8381 227.885 67.8381H259.375V109.949C259.375 113.752 255.113 115.928 251.996 113.76C230.871 99.0644 219.855 116.399 219.832 124.2C219.806 132.864 223.562 153.286 237.147 152.667C243.354 152.385 248.531 150.292 252.322 148.103C255.461 146.291 259.375 148.498 259.375 152.129V191.38H226.786C222.917 191.38 220.609 195.663 222.714 198.917C225.132 202.655 227.157 208.076 227.267 215.79C227.548 235.428 197.629 231.881 190.219 225.692C184.927 221.272 184.709 207.098 188.83 198.332C190.352 195.094 187.848 191.38 184.276 191.38H152.554V148.428C152.554 145.297 149.161 143.372 146.475 144.972C141.016 148.223 132.583 152.3 124.151 152.667C109.949 153.286 108.097 137.196 107.479 124.818C106.934 113.887 127.728 96.1912 144.142 106.979C146.832 108.747 152.352 111.334 152.352 108.11V67.838H186.015C190.374 67.838 193.065 63.129 190.908 59.332Z" fill="url(#paint0_linear_1730_4771)"/>
<path d="M208.36 231.208C206.702 231.208 204.984 231.099 203.229 230.877C197.575 230.162 192.437 228.36 189.819 226.173C184.108 221.402 184.191 206.73 188.264 198.065C188.877 196.763 188.777 195.304 187.991 194.063C187.176 192.775 185.787 192.005 184.276 192.005H152.554C152.209 192.005 151.93 191.725 151.93 191.379V148.428C151.93 147.189 151.29 146.084 150.219 145.473C149.143 144.859 147.863 144.872 146.794 145.509C141.177 148.855 132.693 152.921 124.178 153.292C117.631 153.584 112.905 150.404 110.146 143.86C107.805 138.308 107.169 131.134 106.855 124.849C106.557 118.875 112.09 111.238 120.012 106.69C128.435 101.855 137.355 101.77 144.485 106.455C146.961 108.083 150.305 109.474 151.392 108.887C151.484 108.838 151.727 108.706 151.727 108.11V67.8374C151.727 67.4916 152.006 67.2113 152.351 67.2113H186.015C187.824 67.2113 189.445 66.2788 190.351 64.7172C191.268 63.1372 191.273 61.2396 190.365 59.641C185.393 50.8876 185.181 43.5357 189.752 38.3806C195.791 31.5716 205.388 28.0457 213.084 29.8039C219.113 31.1818 223.487 35.6331 225.398 42.3379C227.2 48.6604 226.575 54.4805 223.54 59.637C222.619 61.2032 222.606 63.0828 223.508 64.6649C224.416 66.2592 226.053 67.2113 227.885 67.2113H259.375C259.72 67.2113 260 67.4916 260 67.8374V109.948C260 111.953 258.945 113.703 257.178 114.63C255.41 115.557 253.288 115.42 251.64 114.274C241.157 106.981 233.834 108.128 229.537 110.372C223.361 113.599 220.467 120.532 220.456 124.201C220.436 130.907 222.586 142.977 228.591 148.746C231.02 151.079 233.881 152.184 237.118 152.041C242.255 151.807 247.265 150.3 252.01 147.56C253.696 146.586 255.7 146.584 257.372 147.552C259.018 148.505 260 150.216 260 152.129V191.379C260 191.725 259.72 192.005 259.375 192.005H226.786C225.206 192.005 223.814 192.833 223.063 194.218C222.308 195.61 222.374 197.239 223.238 198.576C226.229 203.199 227.795 208.988 227.892 215.781C227.979 221.843 225.22 226.388 219.916 228.925C216.767 230.431 212.775 231.208 208.36 231.208ZM153.179 190.753H184.276C186.217 190.753 188 191.74 189.046 193.392C190.051 194.979 190.181 196.926 189.395 198.599C185.197 207.529 185.826 221.207 190.619 225.211C195.531 229.314 210.369 232.103 219.378 227.795C224.279 225.451 226.723 221.415 226.642 215.799C226.549 209.246 225.05 203.68 222.19 199.257C221.072 197.529 220.988 195.422 221.965 193.62C222.938 191.825 224.741 190.753 226.786 190.753H258.75V152.129C258.75 150.669 258.002 149.363 256.747 148.636C255.466 147.895 253.929 147.898 252.633 148.646C247.714 151.486 242.513 153.049 237.175 153.292C233.596 153.458 230.413 152.23 227.727 149.65C221.438 143.609 219.186 131.119 219.207 124.198C219.219 120.105 222.253 112.766 228.96 109.262C233.562 106.857 241.357 105.597 252.352 113.245C253.636 114.139 255.224 114.241 256.598 113.521C257.946 112.814 258.75 111.479 258.75 109.948V68.4637H227.885C225.598 68.4637 223.556 67.2757 222.423 65.2861C221.296 63.3087 221.312 60.9593 222.464 59.0008C225.318 54.1518 225.901 48.6614 224.197 42.6824C221.915 34.6774 216.743 31.9247 212.806 31.0253C205.532 29.361 196.435 32.7297 190.686 39.2131C187.77 42.5014 185.535 48.6075 191.451 59.0219C192.581 61.0125 192.574 63.3769 191.431 65.3469C190.299 67.2987 188.274 68.4637 186.015 68.4637H152.976V108.11C152.976 109.22 152.438 109.745 151.986 109.989C149.6 111.281 144.035 107.658 143.799 107.503C137.077 103.083 128.633 103.184 120.633 107.777C113.218 112.034 107.832 119.346 108.103 124.787C108.411 130.962 109.032 138 111.297 143.372C113.867 149.469 118.059 152.305 124.124 152.041C132.379 151.681 140.661 147.705 146.156 144.432C147.616 143.563 149.365 143.546 150.837 144.384C152.303 145.221 153.179 146.732 153.179 148.428V190.753Z" fill="#FCFCFC"/>
<path d="M32.4503 146.335C28.7456 148.827 23.8565 151.251 18.3452 151.803C6.14208 153.026 1.26108 139.572 0.650667 127.953C0.0408091 116.334 10.4131 105.327 19.5654 106.55C23.8762 107.126 28.5929 109.872 32.377 112.617C35.4331 114.834 39.7004 112.654 39.7004 108.873V67.1401H81.8253C85.3361 67.1401 87.6629 63.5068 86.1958 60.3096C82.8906 53.1098 79.1782 42.1693 84.356 37.4473C92.4024 30.1089 114.139 30.1089 117.8 41.1164C119.85 47.28 117.065 54.6952 114.217 60.028C112.5 63.243 114.817 67.1232 118.456 67.1232H154.409V105.772C154.409 109.895 149.756 112.457 146.402 110.071C130.849 99.0083 113.865 110.678 112.308 123.673C110.478 138.961 120.24 151.803 130.613 150.58C135.88 149.959 141.933 146.973 146.617 144.183C150.057 142.135 154.409 144.595 154.409 148.605V191.294H112.998C108.26 191.294 105.091 186.341 107.145 182.061C109.592 176.961 119.623 170.7 119.02 165.868C117.8 156.084 96.0635 153.663 84.356 155.485C75.4202 156.875 79.8622 170.885 84.9408 182.112C86.8877 186.415 83.7871 191.294 79.073 191.294H39.7004V150.136C39.7004 146.4 35.546 144.254 32.4503 146.335Z" fill="url(#paint1_linear_1730_4771)"/>
<path d="M154.407 191.921H112.997C110.536 191.921 108.283 190.672 106.972 188.581C105.677 186.516 105.53 183.977 106.58 181.79C107.632 179.598 110.004 177.221 112.297 174.922C115.453 171.759 118.716 168.488 118.399 165.946C118.164 164.064 117.065 162.368 115.132 160.907C110.726 157.577 97.614 154.056 84.4501 156.104C82.672 156.381 81.4458 157.186 80.7012 158.567C78.6636 162.345 80.3258 170.397 85.5079 181.853C86.5152 184.079 86.3309 186.63 85.0147 188.677C83.7085 190.708 81.487 191.921 79.0715 191.921H39.6989C39.3539 191.921 39.0742 191.64 39.0742 191.294V150.136C39.0742 148.64 38.2924 147.329 36.9832 146.629C35.6402 145.911 34.0751 145.995 32.797 146.855C28.0113 150.074 23.1692 151.949 18.4059 152.426C14.4694 152.821 11.0281 151.774 8.16961 149.315C5.95783 147.412 0.736605 141.526 0.0255672 127.986C-0.301414 121.76 2.52717 115.088 7.40678 110.574C11.1764 107.087 15.639 105.395 19.6468 105.93C23.3667 106.427 27.7726 108.506 32.7422 112.11C33.9843 113.011 35.5397 113.133 36.9016 112.436C38.2621 111.739 39.0744 110.407 39.0744 108.873V67.1402C39.0744 66.7945 39.3541 66.5141 39.6991 66.5141H81.824C83.2601 66.5141 84.5788 65.7927 85.3514 64.5841C86.1231 63.3768 86.2263 61.8767 85.6269 60.5713C81.9174 52.4898 78.6124 41.8379 83.9342 36.9843C89.0341 32.3327 99.6071 30.4098 108.003 32.6076C113.388 34.0166 117.078 36.9681 118.391 40.9183C120.528 47.3448 117.6 55.0182 114.767 60.3233C114.065 61.6379 114.101 63.1843 114.863 64.4604C115.625 65.7355 116.968 66.4971 118.455 66.4971H154.408C154.753 66.4971 155.032 66.7774 155.032 67.1232V105.772C155.032 107.963 153.817 109.952 151.86 110.966C149.946 111.957 147.77 111.813 146.039 110.582C139.449 105.894 132.04 104.99 125.179 108.038C118.525 110.992 113.716 117.159 112.927 123.747C111.929 132.086 114.488 140.46 119.607 145.602C122.85 148.86 126.73 150.408 130.539 149.958C135.854 149.331 142.042 146.179 146.297 143.645C148.113 142.563 150.292 142.541 152.123 143.585C153.945 144.624 155.032 146.501 155.032 148.605V191.294C155.032 191.64 154.752 191.921 154.407 191.921ZM92.3657 154.31C100.558 154.31 110.446 155.797 115.884 159.907C118.097 161.58 119.36 163.56 119.639 165.791C120.031 168.941 116.549 172.432 113.18 175.807C110.961 178.032 108.666 180.333 107.706 182.333C106.843 184.13 106.965 186.217 108.03 187.914C109.111 189.639 110.968 190.668 112.997 190.668H153.783V148.605C153.783 146.957 152.931 145.487 151.505 144.674C150.069 143.855 148.361 143.872 146.934 144.722C142.575 147.318 136.218 150.549 130.684 151.202C126.493 151.697 122.241 150.022 118.722 146.486C113.339 141.079 110.643 132.309 111.687 123.598C112.527 116.58 117.624 110.023 124.672 106.893C131.953 103.661 139.799 104.608 146.762 109.561C148.105 110.516 149.796 110.625 151.286 109.853C152.826 109.056 153.783 107.492 153.783 105.772V67.7494H118.454C116.524 67.7494 114.781 66.7604 113.791 65.104C112.801 63.4466 112.753 61.4387 113.664 59.7325C116.382 54.6441 119.202 47.3181 117.206 41.3147C116.03 37.7796 112.65 35.1177 107.688 33.8193C99.6573 31.719 89.594 33.5157 84.7745 37.9107C82.6224 39.8734 80.0187 45.3593 86.7617 60.048C87.5396 61.7432 87.4053 63.6915 86.4031 65.2596C85.3995 66.8295 83.6877 67.7665 81.8237 67.7665H40.3236V108.873C40.3236 110.858 39.23 112.65 37.4697 113.551C35.7078 114.453 33.6153 114.29 32.0093 113.124C27.277 109.692 22.945 107.634 19.4814 107.171C15.8432 106.683 11.7497 108.26 8.25439 111.494C3.64015 115.763 0.96537 122.057 1.27308 127.92C1.74896 136.979 4.63119 144.621 8.9834 148.365C11.5725 150.591 14.7009 151.541 18.2814 151.18C22.8383 150.724 27.4875 148.919 32.1008 145.815C33.7444 144.711 35.8402 144.599 37.5709 145.524C39.2947 146.445 40.3236 148.17 40.3236 150.136V190.668H79.0715C81.0603 190.668 82.8896 189.67 83.9648 187.999C85.0498 186.312 85.2014 184.208 84.3702 182.371C78.944 170.375 77.3398 162.166 79.6022 157.971C80.5319 156.247 82.0987 155.203 84.2585 154.866C86.5177 154.515 89.3249 154.31 92.3657 154.31Z" fill="#FCFCFC"/>
<g opacity="0.3">
<path d="M197.108 40.7432C196.72 40.8159 196.332 40.5846 196.217 40.1972C195.966 39.3503 195.747 38.4797 195.568 37.6098C195.481 37.1866 195.752 36.7727 196.174 36.6852C196.179 36.6842 196.184 36.6833 196.189 36.6824C196.606 36.6043 197.011 36.8748 197.097 37.293C197.267 38.1194 197.475 38.9463 197.714 39.7509C197.837 40.1649 197.601 40.6007 197.188 40.7239C197.162 40.7318 197.135 40.7382 197.108 40.7432ZM195.908 34.0347C195.878 34.0404 195.847 34.0443 195.816 34.0464C195.386 34.0754 195.014 33.7494 194.985 33.3184C194.925 32.4329 194.903 31.5361 194.919 30.6531C194.927 30.2211 195.281 29.8783 195.713 29.8846C196.144 29.8924 196.487 30.2491 196.48 30.6808C196.465 31.5202 196.486 32.3722 196.542 33.2137C196.569 33.6133 196.291 33.9628 195.908 34.0347ZM196.211 27.2282C196.126 27.2442 196.036 27.246 195.946 27.2317C195.52 27.1639 195.229 26.7631 195.297 26.3364C195.435 25.4617 195.614 24.5821 195.827 23.7221C195.931 23.3027 196.354 23.0477 196.772 23.1513C197.19 23.2554 197.446 23.6799 197.342 24.099C197.139 24.9157 196.97 25.7507 196.839 26.5815C196.786 26.9173 196.527 27.1691 196.211 27.2282ZM198.026 20.6593C197.885 20.6858 197.735 20.6735 197.592 20.6158C197.192 20.4545 196.998 19.9986 197.159 19.5979C197.49 18.7759 197.86 17.9583 198.259 17.1678C198.454 16.7828 198.923 16.6284 199.308 16.823C199.692 17.018 199.846 17.4888 199.652 17.8743C199.273 18.625 198.921 19.4015 198.608 20.1828C198.504 20.4398 198.279 20.6119 198.026 20.6593ZM201.257 14.661C201.059 14.6981 200.847 14.6589 200.668 14.5347C200.314 14.2884 200.226 13.8009 200.472 13.4461C200.975 12.7199 201.516 12.0047 202.08 11.3214C202.355 10.9883 202.847 10.9415 203.179 11.2171C203.511 11.4926 203.558 11.9856 203.283 12.3187C202.747 12.9683 202.232 13.6479 201.754 14.338C201.633 14.5141 201.451 14.6245 201.257 14.661ZM205.73 9.52877C205.474 9.57678 205.2 9.49515 205.01 9.28816C204.719 8.96935 204.741 8.47466 205.059 8.18279C205.711 7.58502 206.396 7.00768 207.097 6.46731C207.439 6.20366 207.929 6.26764 208.192 6.61004C208.454 6.95215 208.391 7.4435 208.049 7.70705C207.384 8.22059 206.732 8.76886 206.113 9.33692C206.002 9.43944 205.869 9.50286 205.73 9.52877ZM233.504 2.42964C233.398 2.44951 233.286 2.44757 233.174 2.41989C232.36 2.21865 231.526 2.05038 230.696 1.92C230.27 1.85304 229.979 1.4528 230.045 1.02618C230.112 0.599278 230.511 0.307406 230.937 0.374362C231.812 0.511709 232.69 0.6888 233.548 0.900531C233.966 1.00398 234.222 1.428 234.119 1.84738C234.043 2.15513 233.796 2.37504 233.504 2.42964ZM211.224 5.52045C210.906 5.58007 210.571 5.43576 210.402 5.13785C210.189 4.76212 210.32 4.28461 210.695 4.07102C211.463 3.63335 212.26 3.22391 213.062 2.85394C213.455 2.67536 213.918 2.84512 214.098 3.23784C214.278 3.63038 214.106 4.09489 213.715 4.27561C212.952 4.62673 212.196 5.01564 211.466 5.43121C211.389 5.47532 211.307 5.50494 211.224 5.52045ZM226.761 1.55495C226.71 1.56442 226.658 1.56925 226.604 1.56842C225.765 1.55495 224.915 1.57789 224.076 1.63593C223.646 1.66555 223.273 1.34025 223.243 0.909354C223.214 0.478369 223.538 0.102826 223.968 0.0749663C224.851 0.0140471 225.746 -0.0100997 226.629 0.00382999C227.06 0.010702 227.404 0.36656 227.397 0.798473C227.391 1.17671 227.118 1.48799 226.761 1.55495ZM217.474 2.84261C217.087 2.91514 216.699 2.68465 216.584 2.29815C216.46 1.88425 216.694 1.44825 217.107 1.3239C217.953 1.07001 218.82 0.84927 219.687 0.66837C219.692 0.66707 219.697 0.66605 219.703 0.665029C220.119 0.587022 220.523 0.8567 220.61 1.27413C220.698 1.69722 220.428 2.11167 220.005 2.1998C219.183 2.37197 218.359 2.58175 217.555 2.82301C217.528 2.83082 217.501 2.8375 217.474 2.84261Z" fill="#F6E2D7"/>
<path d="M238.685 4.22142C238.534 4.24974 238.373 4.23386 238.222 4.16579C237.855 4.00012 237.479 3.83974 237.103 3.68819C236.703 3.52716 236.509 3.07138 236.67 2.67067C236.83 2.26968 237.285 2.07476 237.685 2.23671C238.08 2.39579 238.476 2.56471 238.863 2.73883C239.256 2.91611 239.431 3.37941 239.254 3.77316C239.145 4.01609 238.928 4.17591 238.685 4.22142Z" fill="#91B3FA"/>
</g>
<g opacity="0.3">
<path d="M254.849 21.7251C254.478 21.7945 254.102 21.5865 253.971 21.2196C253.836 20.8399 253.69 20.4565 253.538 20.0806C253.376 19.6801 253.569 19.2239 253.968 19.0617C254.369 18.8988 254.823 19.0927 254.985 19.493C255.145 19.8888 255.298 20.2925 255.441 20.6923C255.586 21.0991 255.375 21.5469 254.969 21.6926C254.929 21.707 254.889 21.7176 254.849 21.7251Z" fill="#91B3FA"/>
<path d="M231.853 61.9588C231.5 62.0249 231.144 62.0853 230.786 62.1399C230.36 62.2048 229.962 61.9114 229.897 61.4843C229.832 61.0572 230.127 60.6562 230.551 60.5929C231.377 60.4668 232.196 60.3074 232.995 60.1168C233.414 60.0173 233.835 60.2761 233.935 60.6964C234.035 61.1169 233.776 61.5388 233.356 61.6388C232.862 61.7569 232.357 61.8644 231.853 61.9588ZM226.68 62.4814C226.637 62.4894 226.592 62.4939 226.547 62.4947C225.677 62.5083 224.795 62.485 223.929 62.4255C223.499 62.396 223.174 62.0225 223.203 61.5917C223.233 61.1606 223.606 60.8339 224.035 60.8647C224.859 60.9213 225.696 60.9432 226.523 60.9305C226.954 60.9237 227.309 61.2685 227.316 61.7003C227.322 62.0872 227.047 62.4127 226.68 62.4814ZM237.276 60.4093C236.915 60.4771 236.545 60.28 236.406 59.9238C236.25 59.521 236.449 59.0677 236.851 58.9109C237.62 58.6115 238.386 58.2748 239.129 57.9099C239.516 57.7204 239.983 57.8803 240.173 58.2683C240.363 58.6565 240.202 59.1252 239.815 59.3152C239.033 59.6993 238.226 60.0538 237.417 60.3693C237.37 60.3874 237.323 60.4005 237.276 60.4093ZM220.016 61.8463C219.919 61.8646 219.817 61.8641 219.714 61.8427C218.862 61.6644 218.008 61.4473 217.174 61.1977C216.761 61.0739 216.527 60.6382 216.65 60.2243C216.774 59.8101 217.208 59.5747 217.621 59.6988C218.413 59.9357 219.224 60.1418 220.033 60.3111C220.455 60.3993 220.725 60.814 220.637 61.2368C220.571 61.5565 220.318 61.7898 220.016 61.8463ZM243.202 57.303C242.906 57.3586 242.591 57.238 242.411 56.9709C242.17 56.6125 242.265 56.1263 242.623 55.8848C243.306 55.4235 243.98 54.9261 244.625 54.4067C244.961 54.1361 245.452 54.1895 245.722 54.5266C245.992 54.8634 245.938 55.3556 245.602 55.6262C244.924 56.1731 244.214 56.6968 243.495 57.1826C243.404 57.2442 243.304 57.2839 243.202 57.303ZM248.305 52.9685C248.068 53.013 247.813 52.9469 247.625 52.768C247.311 52.4711 247.298 51.9759 247.594 51.662C248.162 51.06 248.712 50.427 249.227 49.7808C249.496 49.4428 249.987 49.3879 250.324 49.6579C250.661 49.9278 250.716 50.4199 250.447 50.7576C249.904 51.4377 249.326 52.1039 248.728 52.7373C248.61 52.8619 248.461 52.9392 248.305 52.9685ZM252.343 47.6222C252.163 47.656 251.97 47.6266 251.8 47.5248C251.43 47.3035 251.309 46.8231 251.53 46.4521C251.954 45.7399 252.353 45.0024 252.716 44.2593C252.905 43.8713 253.372 43.7101 253.76 43.9001C254.147 44.0899 254.307 44.5582 254.118 44.9466C253.736 45.7284 253.317 46.5051 252.87 47.2543C252.751 47.4548 252.556 47.5824 252.343 47.6222ZM255.122 41.5208C254.997 41.5442 254.865 41.5374 254.735 41.4947C254.326 41.3598 254.103 40.9178 254.238 40.5073C254.496 39.7199 254.724 38.9127 254.915 38.1079C255.014 37.6876 255.436 37.4276 255.854 37.5274C256.274 37.6272 256.533 38.049 256.434 38.4693C256.233 39.3171 255.993 40.1672 255.721 40.996C255.629 41.2771 255.393 41.4701 255.122 41.5208ZM256.497 34.9545C256.427 34.9676 256.354 34.9711 256.279 34.9639C255.85 34.9228 255.535 34.5406 255.576 34.1107C255.655 33.2876 255.7 32.4505 255.709 31.6218C255.714 31.1897 256.068 30.8437 256.498 30.8485C256.929 30.8532 257.275 31.2075 257.27 31.6396C257.26 32.5118 257.213 33.3933 257.13 34.2597C257.096 34.6149 256.83 34.892 256.497 34.9545ZM256.399 28.2502C256.384 28.2532 256.368 28.2555 256.352 28.2576C255.924 28.311 255.534 28.0067 255.481 27.578C255.405 26.9728 255.311 26.3629 255.199 25.7645C255.159 25.5479 255.116 25.3321 255.071 25.1176C254.983 24.6946 255.253 24.2799 255.675 24.1915C256.1 24.0934 256.51 24.3737 256.599 24.7965C256.646 25.0223 256.691 25.2489 256.734 25.477C256.851 26.1063 256.951 26.7483 257.03 27.3848C257.081 27.7973 256.802 28.1748 256.399 28.2502Z" fill="#F6E2D7"/>
<path d="M213.638 59.7484C213.485 59.777 213.323 59.7604 213.171 59.6913C212.787 59.5156 212.399 59.3283 212.018 59.1348C211.633 58.9395 211.479 58.4687 211.674 58.0834C211.869 57.698 212.339 57.5436 212.723 57.7391C213.085 57.9229 213.454 58.1007 213.819 58.2675C214.211 58.4465 214.384 58.9105 214.205 59.3037C214.095 59.5448 213.879 59.7031 213.638 59.7484Z" fill="#91B3FA"/>
</g>
<path d="M213.012 50.6348C213.131 50.7355 213.3 50.7495 213.434 50.6697L217.249 48.3923C219.096 49.3361 221.107 49.9917 223.218 50.3032L225.011 54.3713C225.074 54.5141 225.22 54.601 225.375 54.588L230.682 54.1409C230.837 54.1278 230.967 54.0174 231.005 53.8663L232.095 49.5553C234.125 48.8947 235.998 47.9121 237.663 46.6722L241.803 48.2792C241.948 48.3355 242.113 48.2934 242.214 48.1743L245.651 44.0969C245.751 43.9777 245.765 43.8078 245.686 43.6738L243.413 39.8506C244.355 37.999 245.009 35.9836 245.32 33.8678L249.379 32.0708C249.521 32.0079 249.608 31.8612 249.595 31.7058L249.149 26.3865C249.136 26.231 249.026 26.101 248.875 26.0628L244.574 24.9703C243.915 22.9361 242.934 21.0585 241.697 19.3905L243.301 15.2405C243.357 15.0952 243.315 14.9299 243.196 14.8292L239.128 11.3842C239.009 11.2835 238.839 11.2695 238.706 11.3494L234.891 13.6268C233.043 12.6828 231.033 12.0274 228.922 11.7158L227.129 7.64762C227.066 7.50498 226.919 7.41797 226.764 7.43097L221.457 7.8782C221.302 7.8912 221.172 8.00153 221.134 8.15271L220.044 12.4638C218.014 13.1242 216.141 14.107 214.477 15.3468L210.336 13.7398C210.191 13.6835 210.026 13.7256 209.926 13.8448L206.489 17.9223C206.388 18.0414 206.374 18.2113 206.454 18.3454L208.726 22.1686C207.784 24.0201 207.13 26.0356 206.819 28.1514L202.76 29.9483C202.618 30.0113 202.531 30.1579 202.544 30.3135L202.99 35.6326C203.003 35.788 203.113 35.918 203.264 35.9564L207.566 37.0488C208.225 39.083 209.205 40.9606 210.442 42.6286L208.839 46.7785C208.782 46.9241 208.825 47.0892 208.943 47.1899L213.012 50.6348Z" fill="#FFC3A2"/>
<path d="M227.049 36.2844C224.484 36.7651 221.879 35.2992 221.006 32.7538C220.046 29.9557 221.537 26.8971 224.328 25.9351C225.681 25.4688 227.133 25.5587 228.418 26.1876C229.703 26.8164 230.667 27.9092 231.131 29.2646C232.091 32.0627 230.601 35.1213 227.809 36.0833C227.558 36.1699 227.303 36.2368 227.049 36.2844ZM225.323 26.963C225.125 27.0002 224.928 27.0519 224.734 27.1188C222.594 27.8562 221.451 30.2017 222.187 32.3467C222.923 34.4919 225.263 35.6381 227.403 34.8996C229.544 34.1622 230.686 31.8167 229.95 29.6717C229.594 28.6324 228.855 27.7946 227.87 27.3124C227.069 26.9206 226.183 26.8018 225.323 26.963Z" fill="#4D1435"/>
<path d="M228.576 43.8826C228.136 43.9652 227.688 44.026 227.236 44.0642C227.093 44.0762 226.951 44.0859 226.808 44.0933C226.103 44.1298 225.397 44.1101 224.7 44.0346C224.691 44.0336 224.681 44.0326 224.672 44.0316C224.645 44.0285 224.618 44.0255 224.591 44.0221C224.539 44.0161 224.486 44.0094 224.434 44.0028C224.296 43.9851 224.191 43.8801 224.167 43.7503C224.161 43.7188 224.16 43.6857 224.164 43.6522C224.186 43.4808 224.343 43.3604 224.514 43.3822C225.394 43.4961 226.292 43.5156 227.183 43.4403C231.611 43.068 235.313 40.4194 237.24 36.7418C238.312 34.6964 238.835 32.3324 238.628 29.8642C238.591 29.4314 238.534 29.0036 238.455 28.5825C237.926 25.7482 236.453 23.2035 234.225 21.3176C231.667 19.1511 228.42 18.1128 225.083 18.3941C218.19 18.9756 213.059 25.0651 213.638 31.97C213.674 32.3958 213.731 32.8182 213.809 33.2353C214.146 35.0433 214.875 36.7571 215.948 38.2513C215.976 38.2899 215.993 38.3327 216.001 38.3765C216.023 38.4918 215.978 38.6149 215.877 38.688C215.737 38.7885 215.542 38.7576 215.441 38.6167C214.314 37.0481 213.549 35.2487 213.195 33.3506C213.113 32.9126 213.053 32.4694 213.016 32.0225C212.407 24.7728 217.799 18.3796 225.03 17.7701C228.534 17.4748 231.942 18.5649 234.628 20.8394C236.967 22.8193 238.513 25.4906 239.069 28.4662C239.151 28.9083 239.212 29.3574 239.25 29.8116C239.545 33.3235 238.457 36.7399 236.188 39.4318C234.212 41.7761 231.546 43.3262 228.576 43.8826Z" fill="#4D1435"/>
<g opacity="0.3">
<path d="M174.705 65.9144C174.5 65.9529 174.286 65.8542 174.187 65.6582C174.002 65.2926 173.825 64.9163 173.661 64.5398C173.555 64.2952 173.667 64.0108 173.911 63.904C174.155 63.7964 174.439 63.9097 174.545 64.1543C174.701 64.513 174.87 64.8716 175.047 65.2206C175.167 65.4581 175.073 65.7489 174.835 65.8702C174.793 65.8917 174.75 65.9062 174.705 65.9144Z" fill="#91B3FA"/>
<path d="M173.335 62.4602C173.095 62.5052 172.855 62.3615 172.784 62.1217C172.585 61.4441 172.418 60.7487 172.289 60.0548C172.262 59.9087 172.236 59.7618 172.212 59.6142C172.168 59.3506 172.362 59.1094 172.609 59.0584C172.871 59.0149 173.119 59.1931 173.163 59.4561C173.186 59.5972 173.211 59.7376 173.237 59.8772C173.36 60.5392 173.519 61.2025 173.709 61.8486C173.784 62.1047 173.638 62.3731 173.383 62.4488C173.367 62.4532 173.351 62.4572 173.335 62.4602ZM172.519 57.5102C172.497 57.5144 172.473 57.5174 172.45 57.5184C172.184 57.5293 171.959 57.3223 171.948 57.0556C171.912 56.2002 171.929 55.3349 171.998 54.4843C172.019 54.2182 172.253 54.0207 172.517 54.0418C172.783 54.0635 172.98 54.2964 172.959 54.5625C172.893 55.3741 172.877 56.1994 172.911 57.0153C172.922 57.2582 172.751 57.4668 172.519 57.5102ZM172.925 52.5098C172.865 52.5211 172.802 52.5209 172.739 52.5079C172.478 52.4535 172.311 52.1972 172.365 51.936C172.54 51.0992 172.768 50.2639 173.045 49.4541C173.131 49.2012 173.404 49.0671 173.657 49.1536C173.909 49.2399 174.043 49.5148 173.957 49.7671C173.693 50.5394 173.475 51.3354 173.309 52.1335C173.268 52.331 173.112 52.475 172.925 52.5098ZM174.546 47.7625C174.448 47.7809 174.343 47.7688 174.247 47.7221C174.008 47.6052 173.908 47.3157 174.025 47.0759C174.399 46.3058 174.824 45.5527 175.289 44.8368C175.434 44.6133 175.733 44.5505 175.956 44.6955C176.179 44.8409 176.242 45.1401 176.097 45.3642C175.654 46.0463 175.248 46.765 174.891 47.4992C174.822 47.6421 174.691 47.7353 174.546 47.7625ZM177.274 43.5559C177.137 43.5815 176.99 43.5477 176.875 43.4507C176.671 43.2791 176.645 42.9744 176.816 42.77C177.366 42.1155 177.961 41.4885 178.584 40.9069C178.779 40.7245 179.084 40.736 179.266 40.9315C179.447 41.1269 179.436 41.4328 179.241 41.6143C178.646 42.1694 178.079 42.7673 177.555 43.3921C177.48 43.4809 177.38 43.5361 177.274 43.5559ZM180.938 40.1409C180.761 40.1742 180.571 40.1053 180.458 39.949C180.302 39.7329 180.351 39.431 180.567 39.2744C181.258 38.7732 181.987 38.3106 182.734 37.9C182.969 37.772 183.261 37.8575 183.389 38.0913C183.517 38.325 183.431 38.619 183.198 38.7472C182.486 39.1389 181.791 39.5797 181.132 40.0575C181.072 40.1009 181.006 40.1282 180.938 40.1409ZM185.322 37.728C185.1 37.7696 184.873 37.6495 184.786 37.4315C184.688 37.1834 184.809 36.9025 185.056 36.8039C185.847 36.4892 186.668 36.2203 187.496 36.0041C187.755 35.9411 188.017 36.0922 188.084 36.3504C188.151 36.6085 187.996 36.8723 187.739 36.9397C186.949 37.1453 186.166 37.402 185.412 37.702C185.383 37.7139 185.353 37.7223 185.322 37.728ZM192.669 36.2891C192.641 36.2942 192.613 36.2972 192.584 36.2972C191.881 36.3037 191.166 36.3488 190.459 36.4313C190.352 36.4432 190.247 36.4562 190.142 36.4705C189.878 36.5056 189.636 36.3202 189.601 36.0555C189.565 35.7905 189.751 35.5397 190.014 35.5123C190.126 35.4977 190.238 35.4835 190.35 35.471C191.089 35.3849 191.838 35.3376 192.575 35.3311C192.842 35.3287 193.059 35.5428 193.062 35.8098C193.064 36.0475 192.894 36.2468 192.669 36.2891Z" fill="#4D1435"/>
</g>
<g opacity="0.3">
<path d="M196.859 76.66C196.6 76.7085 196.349 76.5394 196.297 76.2798C196.245 76.0184 196.414 75.7635 196.675 75.7112C197.461 75.5534 198.244 75.3462 199.003 75.0952C199.255 75.0143 199.528 75.1488 199.612 75.4025C199.695 75.6561 199.558 75.9291 199.305 76.0129C198.51 76.2757 197.689 76.4933 196.865 76.6588C196.863 76.6592 196.861 76.6596 196.859 76.66ZM194.415 76.9992C194.398 77.0024 194.381 77.0045 194.364 77.0059C193.527 77.0716 192.678 77.0866 191.84 77.0512C191.573 77.0396 191.367 76.8147 191.378 76.5481C191.389 76.281 191.616 76.075 191.88 76.0854C192.68 76.1194 193.49 76.1048 194.289 76.0426C194.554 76.0217 194.786 76.2206 194.807 76.4865C194.826 76.7355 194.654 76.9545 194.415 76.9992ZM201.532 75.1121C201.322 75.1514 201.104 75.0464 201.008 74.8436C200.895 74.6028 200.997 74.3147 201.238 74.2005C201.963 73.8563 202.673 73.4656 203.348 73.0379C203.575 72.8962 203.871 72.963 204.013 73.1889C204.155 73.4143 204.088 73.713 203.863 73.8555C203.155 74.3036 202.41 74.7134 201.65 75.0737C201.612 75.092 201.572 75.1046 201.532 75.1121ZM189.495 76.7874C189.441 76.7976 189.384 76.7986 189.327 76.7891C188.498 76.651 187.67 76.4602 186.865 76.2216C186.61 76.1461 186.464 75.8773 186.539 75.6211C186.615 75.366 186.883 75.2198 187.138 75.2948C187.906 75.5221 188.695 75.7039 189.485 75.8358C189.748 75.8797 189.925 76.1286 189.882 76.3917C189.847 76.5975 189.688 76.7511 189.495 76.7874ZM205.694 72.4779C205.526 72.5093 205.347 72.4503 205.232 72.3087C205.063 72.1017 205.094 71.7973 205.3 71.6286C205.92 71.1218 206.515 70.5714 207.069 69.9923C207.254 69.7994 207.559 69.7935 207.751 69.9784C207.943 70.1632 207.95 70.4693 207.765 70.6618C207.184 71.2685 206.56 71.8458 205.91 72.3775C205.845 72.4304 205.771 72.4636 205.694 72.4779ZM209.104 68.9198C208.976 68.9439 208.838 68.9159 208.726 68.8313C208.513 68.6711 208.47 68.3681 208.63 68.1547C209.111 67.5119 209.558 66.8344 209.958 66.1412C210.091 65.9098 210.386 65.831 210.617 65.9645C210.847 66.098 210.926 66.3933 210.793 66.6242C210.374 67.3513 209.906 68.0616 209.401 68.7351C209.325 68.8356 209.218 68.8985 209.104 68.9198ZM211.565 64.6452C211.475 64.6621 211.379 64.6536 211.288 64.6146C211.043 64.5102 210.929 64.2263 211.034 63.9807C211.348 63.2415 211.62 62.4763 211.841 61.7067C211.915 61.4509 212.182 61.3024 212.437 61.3765C212.693 61.4505 212.841 61.718 212.767 61.9747C212.535 62.7815 212.25 63.5841 211.921 64.3596C211.855 64.5142 211.719 64.6165 211.565 64.6452Z" fill="#4D1435"/>
<path d="M184.75 75.3816C184.659 75.3988 184.561 75.3896 184.47 75.3497C184.091 75.185 183.716 75.0081 183.354 74.8243C183.117 74.7036 183.022 74.4128 183.142 74.1747C183.263 73.9375 183.552 73.842 183.79 73.962C184.135 74.1374 184.493 74.306 184.854 74.4635C185.098 74.5699 185.21 74.8547 185.104 75.0992C185.038 75.2519 184.902 75.3531 184.75 75.3816Z" fill="#91B3FA"/>
</g>
<path d="M184.001 69.1719C184.081 69.2392 184.194 69.2487 184.283 69.1952L186.836 67.6713C188.072 68.3028 189.418 68.7415 190.831 68.95L192.03 71.6722C192.072 71.7676 192.17 71.8259 192.274 71.8171L195.825 71.5179C195.929 71.5091 196.016 71.4354 196.042 71.3342L196.771 68.4495C198.129 68.0074 199.383 67.35 200.496 66.5202L203.267 67.5956C203.364 67.6332 203.474 67.6051 203.542 67.5253L205.842 64.7968C205.909 64.7171 205.918 64.6034 205.865 64.5137L204.344 61.9554C204.975 60.7165 205.412 59.3678 205.62 57.9519L208.336 56.7495C208.432 56.7073 208.49 56.6092 208.481 56.5052L208.182 52.9458C208.174 52.8418 208.1 52.7548 207.999 52.7292L205.121 51.9981C204.68 50.6369 204.024 49.3805 203.196 48.2644L204.269 45.4874C204.307 45.3901 204.279 45.2796 204.199 45.2122L201.477 42.907C201.397 42.8396 201.284 42.8303 201.194 42.8837L198.642 44.4077C197.406 43.776 196.06 43.3374 194.647 43.1289L193.448 40.4067C193.406 40.3112 193.308 40.253 193.204 40.2617L189.652 40.5609C189.549 40.5697 189.462 40.6434 189.436 40.7446L188.707 43.6294C187.349 44.0713 186.095 44.729 184.982 45.5586L182.211 44.4833C182.114 44.4456 182.003 44.4738 181.936 44.5535L179.636 47.2819C179.569 47.3617 179.56 47.4754 179.613 47.5651L181.133 50.1234C180.503 51.3623 180.066 52.711 179.858 54.1269L177.142 55.3293C177.046 55.3714 176.988 55.4695 176.997 55.5736L177.295 59.1329C177.304 59.2369 177.378 59.324 177.479 59.3496L180.357 60.0806C180.798 61.4417 181.454 62.6982 182.282 63.8143L181.209 66.5913C181.171 66.6886 181.199 66.7991 181.279 66.8665L184.001 69.1719Z" fill="#FFC3A2"/>
<path d="M193.403 59.6337C192.639 59.777 191.852 59.6715 191.14 59.3233C190.265 58.8949 189.609 58.1505 189.292 57.2272C188.638 55.322 189.653 53.2385 191.555 52.5827C193.46 51.93 195.535 52.9452 196.189 54.8509C196.506 55.7741 196.445 56.7658 196.017 57.6428C195.59 58.5201 194.847 59.1783 193.926 59.4954C193.754 59.5545 193.579 59.6007 193.403 59.6337ZM192.249 53.3959C192.122 53.4197 191.994 53.4532 191.868 53.4965C190.47 53.9789 189.723 55.5114 190.204 56.9132C190.437 57.592 190.92 58.14 191.563 58.4548C192.207 58.7699 192.935 58.8141 193.613 58.5815C194.29 58.348 194.837 57.864 195.151 57.2189C195.466 56.5733 195.51 55.844 195.277 55.1647C194.84 53.8896 193.534 53.155 192.249 53.3959Z" fill="#4D1435"/>
<path d="M194.458 64.9237C194.158 64.9799 193.853 65.0212 193.542 65.0477C192.926 65.0998 192.304 65.0891 191.692 65.0156C191.665 65.0121 191.637 65.0086 191.61 65.0051C191.397 64.9777 191.235 64.8157 191.197 64.6153C191.188 64.5666 191.187 64.5156 191.193 64.4639C191.227 64.1993 191.47 64.0137 191.733 64.0469C192.304 64.1209 192.885 64.1334 193.461 64.0846H193.461C193.493 64.082 193.525 64.0789 193.556 64.0759C194.918 63.9481 196.196 63.4848 197.301 62.7401C197.901 62.3357 198.451 61.8478 198.935 61.2843C198.939 61.2798 198.942 61.2752 198.946 61.2706C198.958 61.2563 198.97 61.2425 198.982 61.2283C200.381 59.5683 201.052 57.4615 200.87 55.296C200.847 55.0158 200.81 54.739 200.759 54.4663C200.416 52.6315 199.462 50.9842 198.02 49.7629C196.364 48.3605 194.262 47.6887 192.102 47.8708C189.943 48.0535 187.981 49.0673 186.581 50.727C185.182 52.3871 184.511 54.4939 184.693 56.6593C184.716 56.9348 184.753 57.2083 184.803 57.4782C185.022 58.6488 185.493 59.7582 186.188 60.7254C186.231 60.7851 186.258 60.8509 186.271 60.9187C186.304 61.0968 186.235 61.2868 186.079 61.3998C185.862 61.555 185.561 61.5067 185.405 61.2897C184.628 60.2075 184.1 58.9661 183.856 57.6568C183.799 57.3545 183.758 57.0488 183.732 56.7406C183.529 54.3175 184.279 51.9605 185.845 50.1032C187.41 48.2464 189.602 47.1098 192.021 46.9077C194.438 46.7038 196.79 47.4556 198.643 49.0252C200.256 50.391 201.323 52.2341 201.706 54.287C201.763 54.5917 201.805 54.9017 201.831 55.215C202.225 59.9055 198.979 64.0766 194.458 64.9237Z" fill="#4D1435"/>
<path d="M114.544 129.545C114.544 129.545 113.093 125.716 111.398 126.067C109.703 126.418 107.848 127.723 107.848 127.723L105.125 131.414C105.125 131.414 112.77 134.432 115.458 132.703C115.458 132.703 123.267 134.055 133.127 132.433C131.7 129.413 130.849 126.389 130.35 124.042C125.355 126.875 119.976 128.991 114.544 129.545Z" fill="url(#paint2_linear_1730_4771)"/>
<path d="M155.904 101.772C155.904 101.772 144.725 115.885 130.348 124.042C130.847 126.389 131.698 129.413 133.125 132.433C140.584 131.207 149.215 128.279 156.533 121.775L155.904 101.772Z" fill="url(#paint3_linear_1730_4771)"/>
<path d="M169.847 164.324C167.661 153.916 165.474 147.89 158.154 128.161C155.85 121.952 153.758 115.67 154.769 109.124L155.905 101.772C155.905 101.772 170.132 96.9473 185.902 101.569C185.902 101.569 207.417 110.937 192.803 157.203C186.216 164.589 178.507 166.694 169.847 164.324Z" fill="url(#paint4_linear_1730_4771)"/>
<path d="M158.328 92.3899L162.017 101.273C162.25 101.834 162.754 102.233 163.352 102.336C165.478 102.702 170.623 103.273 174.001 101.046C174.404 100.781 174.506 100.233 174.231 99.8363L167.415 90.0293L158.328 92.3899Z" fill="url(#paint5_linear_1730_4771)"/>
<path d="M162.144 78.7991C161.989 78.9453 155.605 91.5099 155.605 91.5099L162.841 95.0106L170.657 84.003C170.657 84.003 164.738 76.3521 162.144 78.7991Z" fill="url(#paint6_linear_1730_4771)"/>
<path d="M167.367 85.3238L163.758 91.353C163.703 91.4444 163.638 91.5272 163.56 91.5998C163.131 92.0005 161.661 93.1661 160.524 91.5792C159.556 90.2266 158.647 88.9969 157.674 88.4897C157.105 88.1936 156.405 88.4301 156.117 89.0034C155.522 90.1845 154.371 92.592 153.647 94.8751C153.466 95.4474 153.76 96.0616 154.316 96.287C155.781 96.8819 158.676 97.9579 161.246 98.3133C161.668 98.3717 162.086 98.1932 162.337 97.8483C163.442 96.3304 166.558 92.0885 167.622 91.0268C168.61 90.0404 170.433 90.4123 171.255 90.649C171.567 90.7388 171.899 90.6956 172.177 90.5278C173.01 90.0244 174.465 88.7713 173.134 86.6496C172.803 86.122 172.972 85.4194 173.491 85.077C174.422 84.4633 175.432 83.3115 174.47 81.4463C173.496 79.5582 171.756 79.3886 170.572 79.5338C170.047 79.598 169.515 79.3224 169.314 78.833C169.225 78.6155 169.048 78.4298 168.719 78.3629C168.098 78.2366 167.69 77.6675 167.812 77.0443C168.021 75.9758 167.864 74.5878 166.161 73.6498C163.039 71.9295 160.305 74.7325 159.61 77.0988C158.914 79.4651 162.405 81.1373 164.6 81.4164C166.213 81.6215 167.097 83.3856 167.453 84.3078C167.583 84.6425 167.551 85.016 167.367 85.3238Z" fill="url(#paint7_linear_1730_4771)"/>
<path d="M166.102 92.8323C166.102 92.8323 167.654 89.1704 169.431 89.3199C171.208 89.4693 172.607 91.2436 170.405 93.238C167.665 95.7189 166.102 92.8323 166.102 92.8323Z" fill="url(#paint8_linear_1730_4771)"/>
<path d="M168.449 256.056C171.885 256.353 177.849 256.837 182.55 257.044C185.376 257.169 187.003 256.892 187.94 256.516C187.939 256.622 187.936 256.722 187.932 256.815C187.909 257.31 187.507 257.707 187.008 257.735C178.124 258.232 171.059 257.907 168.544 257.754C168.024 257.722 167.714 257.155 167.98 256.711C168.113 256.489 168.274 256.271 168.449 256.056Z" fill="url(#paint9_linear_1730_4771)"/>
<path d="M182.55 257.044C177.849 256.837 171.885 256.353 168.449 256.056C171.827 251.902 182.55 249.102 182.55 249.102H185.579C187.662 252.111 187.963 254.976 187.94 256.516C187.003 256.892 185.376 257.169 182.55 257.044Z" fill="url(#paint10_linear_1730_4771)"/>
<path d="M186.087 244.147L185.804 249.767C185.773 250.376 185.319 250.888 184.71 250.975C184.105 251.061 183.295 251.073 182.436 250.786C181.907 250.609 181.514 250.163 181.417 249.618L180.438 244.147H186.087Z" fill="url(#paint11_linear_1730_4771)"/>
<path d="M225.422 257.002C226.912 256.794 227.586 256.018 227.869 255.188C227.871 255.196 227.872 255.204 227.874 255.211C228.093 256.086 227.585 256.993 226.569 257.424C225.341 257.945 223.998 258.034 222.956 257.991C221.838 257.945 220.811 257.481 220.247 256.738L220.238 256.727C221.361 257.284 222.937 257.35 225.422 257.002Z" fill="url(#paint12_linear_1730_4771)"/>
<path d="M218.395 244.11H220.893C224.697 244.032 227.086 252.074 227.868 255.188C227.585 256.018 226.911 256.793 225.421 257.002C222.936 257.349 221.36 257.283 220.238 256.727C218.182 254.016 217.163 250.046 216.674 247.729C216.117 245.094 218.395 244.11 218.395 244.11Z" fill="url(#paint13_linear_1730_4771)"/>
<path d="M220.574 238.894L221.961 244.422C222.131 245.1 221.807 245.801 221.182 246.122C220.406 246.521 219.314 246.941 218.31 246.819C217.838 246.762 217.446 246.429 217.29 245.983L215.254 240.167L220.574 238.894Z" fill="url(#paint14_linear_1730_4771)"/>
<path d="M222.226 240.491C220.501 242.025 214.889 242.228 214.889 242.228C194.673 193.598 186.245 180.211 186.245 180.211C189.164 198.566 186.874 245.68 186.874 245.68C183.538 247.156 179.237 245.68 179.237 245.68C178.966 215.631 174.745 183.341 169.301 162.681C182.964 162.373 190.39 159.388 192.762 157.507C204.152 175.91 222.226 240.491 222.226 240.491Z" fill="url(#paint15_linear_1730_4771)"/>
<path d="M165.859 176.27L168.374 191.943C168.812 194.676 171.338 196.572 174.092 196.235L211.722 191.635C213.563 191.41 214.959 189.869 214.995 188.019C215.076 183.97 214.917 176.763 213.222 170.196L165.859 176.27Z" fill="url(#paint16_linear_1730_4771)"/>
<path d="M175.146 195.194C175.093 195.194 175.047 195.154 175.04 195.1C175.033 195.041 175.075 194.987 175.133 194.98L175.985 194.875C176.046 194.866 176.098 194.91 176.105 194.969C176.112 195.028 176.07 195.082 176.011 195.089L175.159 195.193C175.155 195.194 175.151 195.194 175.146 195.194ZM173.156 195.144C173.149 195.144 173.14 195.143 173.132 195.142C172.849 195.077 172.568 194.987 172.299 194.873C172.244 194.85 172.219 194.787 172.242 194.732C172.265 194.677 172.329 194.651 172.383 194.675C172.64 194.783 172.908 194.87 173.18 194.932C173.238 194.945 173.274 195.002 173.261 195.061C173.25 195.11 173.205 195.144 173.156 195.144ZM177.986 194.847C177.932 194.847 177.886 194.807 177.88 194.752C177.872 194.693 177.914 194.639 177.973 194.632L178.825 194.528C178.882 194.521 178.938 194.563 178.945 194.622C178.952 194.681 178.91 194.735 178.851 194.742L177.999 194.846C177.995 194.846 177.99 194.847 177.986 194.847ZM180.826 194.5C180.772 194.5 180.726 194.46 180.72 194.405C180.712 194.346 180.754 194.292 180.813 194.285L181.665 194.181C181.726 194.173 181.777 194.216 181.784 194.274C181.792 194.333 181.75 194.387 181.691 194.394L180.839 194.499C180.835 194.499 180.83 194.5 180.826 194.5ZM183.666 194.152C183.612 194.152 183.566 194.112 183.559 194.057C183.552 193.999 183.594 193.945 183.653 193.938L184.505 193.834C184.565 193.824 184.617 193.869 184.624 193.928C184.632 193.987 184.59 194.04 184.531 194.047L183.679 194.151C183.674 194.152 183.67 194.152 183.666 194.152ZM186.506 193.805C186.452 193.805 186.406 193.765 186.399 193.711C186.392 193.652 186.434 193.598 186.493 193.591L187.345 193.487C187.405 193.48 187.457 193.522 187.464 193.58C187.472 193.639 187.429 193.693 187.371 193.7L186.519 193.805C186.514 193.805 186.51 193.805 186.506 193.805ZM170.702 193.753C170.674 193.753 170.646 193.742 170.625 193.72C170.422 193.509 170.238 193.278 170.076 193.036C170.043 192.986 170.056 192.92 170.105 192.887C170.154 192.853 170.221 192.866 170.254 192.916C170.409 193.148 170.586 193.368 170.779 193.57C170.82 193.614 170.819 193.681 170.776 193.723C170.755 193.743 170.729 193.753 170.702 193.753ZM189.346 193.458C189.292 193.458 189.246 193.418 189.239 193.364C189.232 193.305 189.274 193.251 189.332 193.244L190.184 193.139C190.245 193.132 190.297 193.174 190.304 193.233C190.311 193.292 190.269 193.346 190.211 193.353L189.359 193.457C189.354 193.458 189.35 193.458 189.346 193.458ZM192.185 193.111C192.132 193.111 192.086 193.071 192.079 193.016C192.072 192.957 192.114 192.903 192.173 192.896L193.025 192.792C193.081 192.783 193.137 192.827 193.144 192.886C193.151 192.945 193.109 192.999 193.05 193.006L192.198 193.11C192.194 193.11 192.19 193.111 192.185 193.111ZM195.026 192.764C194.972 192.764 194.926 192.724 194.919 192.669C194.912 192.61 194.954 192.557 195.012 192.549L195.864 192.445C195.925 192.439 195.977 192.48 195.984 192.539C195.991 192.598 195.949 192.652 195.891 192.659L195.039 192.763C195.034 192.763 195.03 192.764 195.026 192.764ZM197.865 192.416C197.812 192.416 197.766 192.376 197.759 192.322C197.752 192.263 197.794 192.209 197.852 192.202L198.704 192.098C198.765 192.09 198.817 192.133 198.824 192.192C198.831 192.251 198.789 192.305 198.731 192.312L197.879 192.416C197.874 192.416 197.87 192.416 197.865 192.416ZM200.705 192.069C200.652 192.069 200.606 192.029 200.599 191.975C200.591 191.916 200.634 191.862 200.692 191.855L201.544 191.751C201.605 191.742 201.657 191.786 201.664 191.844C201.671 191.903 201.629 191.957 201.57 191.964L200.718 192.069C200.714 192.069 200.71 192.069 200.705 192.069ZM203.545 191.722C203.491 191.722 203.445 191.682 203.439 191.628C203.431 191.569 203.473 191.515 203.532 191.508L204.384 191.403C204.444 191.397 204.497 191.438 204.504 191.497C204.511 191.556 204.469 191.61 204.41 191.617L203.558 191.721C203.554 191.722 203.549 191.722 203.545 191.722ZM206.385 191.375C206.331 191.375 206.285 191.335 206.278 191.28C206.271 191.221 206.313 191.168 206.372 191.161L207.224 191.057C207.284 191.049 207.336 191.091 207.343 191.151C207.351 191.209 207.309 191.263 207.25 191.27L206.398 191.374C206.393 191.375 206.389 191.375 206.385 191.375ZM169.422 191.235C169.371 191.235 169.326 191.198 169.317 191.146L169.179 190.295C169.169 190.237 169.209 190.182 169.268 190.172C169.327 190.162 169.381 190.203 169.391 190.261L169.528 191.109C169.538 191.167 169.499 191.223 169.441 191.233C169.434 191.234 169.428 191.235 169.422 191.235ZM209.225 191.028C209.171 191.028 209.125 190.988 209.118 190.933C209.111 190.874 209.153 190.821 209.212 190.814L210.064 190.709C210.124 190.7 210.176 190.744 210.183 190.803C210.191 190.862 210.149 190.916 210.09 190.923L209.238 191.027C209.233 191.028 209.229 191.028 209.225 191.028ZM211.994 190.41C211.957 190.41 211.921 190.39 211.901 190.355C211.872 190.304 211.89 190.238 211.941 190.209C212.182 190.071 212.406 189.904 212.607 189.712C212.65 189.671 212.718 189.673 212.759 189.715C212.8 189.758 212.798 189.827 212.755 189.868C212.541 190.072 212.303 190.249 212.047 190.395C212.031 190.405 212.012 190.41 211.994 190.41ZM168.967 188.404C168.915 188.404 168.87 188.367 168.861 188.314L168.725 187.464C168.715 187.406 168.755 187.351 168.814 187.341C168.875 187.33 168.927 187.372 168.937 187.43L169.073 188.279C169.082 188.338 169.043 188.393 168.984 188.403C168.978 188.404 168.972 188.404 168.967 188.404ZM213.674 188.186C213.666 188.186 213.657 188.185 213.649 188.183C213.591 188.168 213.556 188.11 213.57 188.053C213.63 187.808 213.663 187.555 213.668 187.302L213.67 187.225C213.671 187.166 213.719 187.119 213.777 187.119C213.777 187.119 213.778 187.119 213.778 187.119C213.837 187.12 213.885 187.168 213.885 187.228L213.883 187.306C213.878 187.575 213.842 187.844 213.778 188.104C213.766 188.153 213.723 188.186 213.674 188.186ZM168.513 185.573C168.461 185.573 168.415 185.536 168.407 185.483L168.271 184.633C168.261 184.575 168.301 184.52 168.36 184.51C168.419 184.501 168.473 184.54 168.483 184.599L168.619 185.448C168.628 185.507 168.588 185.562 168.53 185.572C168.524 185.573 168.518 185.573 168.513 185.573ZM213.79 185.327C213.731 185.327 213.683 185.279 213.682 185.22C213.68 184.942 213.677 184.655 213.672 184.361C213.671 184.301 213.718 184.253 213.778 184.251C213.834 184.241 213.886 184.298 213.887 184.357C213.892 184.652 213.895 184.939 213.897 185.219C213.897 185.278 213.85 185.326 213.79 185.327C213.79 185.327 213.79 185.327 213.79 185.327ZM168.059 182.742C168.007 182.742 167.961 182.704 167.953 182.651L167.817 181.802C167.807 181.743 167.847 181.688 167.905 181.679C167.967 181.669 168.019 181.709 168.028 181.768L168.165 182.617C168.174 182.676 168.134 182.731 168.076 182.74C168.07 182.741 168.064 182.742 168.059 182.742ZM213.721 182.459C213.664 182.459 213.617 182.414 213.614 182.356C213.602 182.074 213.589 181.788 213.573 181.498C213.57 181.439 213.615 181.388 213.675 181.385C213.741 181.378 213.784 181.427 213.787 181.486C213.803 181.777 213.816 182.064 213.828 182.347C213.831 182.406 213.785 182.456 213.726 182.459C213.724 182.459 213.723 182.459 213.721 182.459ZM167.605 179.911C167.553 179.911 167.507 179.873 167.499 179.82L167.363 178.971C167.353 178.912 167.393 178.857 167.451 178.848C167.511 178.84 167.565 178.878 167.574 178.937L167.711 179.786C167.72 179.845 167.68 179.9 167.622 179.909C167.616 179.91 167.61 179.911 167.605 179.911ZM213.547 179.596C213.491 179.596 213.444 179.554 213.44 179.497C213.417 179.214 213.392 178.929 213.366 178.641C213.36 178.582 213.404 178.53 213.463 178.524C213.526 178.518 213.574 178.562 213.579 178.622C213.606 178.91 213.631 179.196 213.654 179.48C213.658 179.539 213.614 179.591 213.555 179.596C213.553 179.596 213.55 179.596 213.547 179.596ZM167.151 177.08C167.099 177.08 167.053 177.042 167.045 176.989L166.891 176.03L167.332 175.974C167.399 175.967 167.445 176.008 167.453 176.067C167.46 176.126 167.418 176.18 167.36 176.187L167.138 176.216L167.256 176.955C167.266 177.014 167.226 177.069 167.168 177.078C167.162 177.079 167.156 177.08 167.151 177.08ZM213.256 176.743C213.203 176.743 213.156 176.704 213.15 176.649C213.114 176.366 213.077 176.083 213.038 175.797C213.029 175.739 213.07 175.684 213.129 175.676C213.185 175.664 213.242 175.709 213.25 175.768C213.29 176.054 213.327 176.339 213.363 176.622C213.37 176.681 213.328 176.735 213.27 176.742C213.265 176.743 213.26 176.743 213.256 176.743ZM169.333 175.933C169.279 175.933 169.233 175.893 169.226 175.839C169.219 175.78 169.26 175.727 169.319 175.719L170.17 175.61C170.236 175.6 170.283 175.644 170.29 175.703C170.298 175.762 170.256 175.816 170.197 175.823L169.346 175.932C169.342 175.933 169.337 175.933 169.333 175.933ZM172.17 175.569C172.117 175.569 172.071 175.53 172.064 175.476C172.056 175.417 172.098 175.363 172.157 175.355L173.008 175.246C173.073 175.237 173.121 175.281 173.128 175.339C173.136 175.398 173.094 175.452 173.035 175.459L172.184 175.569C172.179 175.569 172.175 175.569 172.17 175.569ZM175.008 175.205C174.955 175.205 174.909 175.166 174.902 175.111C174.894 175.052 174.936 174.999 174.994 174.991L175.846 174.882C175.91 174.874 175.959 174.917 175.966 174.975C175.974 175.034 175.932 175.088 175.873 175.095L175.022 175.204C175.017 175.205 175.012 175.205 175.008 175.205ZM177.846 174.841C177.792 174.841 177.746 174.802 177.739 174.748C177.732 174.689 177.774 174.635 177.832 174.627L178.683 174.518C178.752 174.511 178.796 174.553 178.804 174.611C178.811 174.67 178.769 174.724 178.711 174.731L177.86 174.841C177.855 174.841 177.85 174.841 177.846 174.841ZM180.684 174.477C180.63 174.477 180.584 174.438 180.577 174.384C180.569 174.325 180.611 174.271 180.67 174.263L181.521 174.154C181.589 174.148 181.634 174.189 181.641 174.247C181.649 174.306 181.607 174.36 181.549 174.367L180.697 174.477C180.692 174.477 180.688 174.477 180.684 174.477ZM183.522 174.113C183.468 174.113 183.422 174.074 183.415 174.02C183.407 173.961 183.449 173.907 183.508 173.899L184.359 173.79C184.426 173.784 184.472 173.825 184.479 173.883C184.487 173.942 184.445 173.996 184.387 174.004L183.535 174.113C183.53 174.113 183.526 174.113 183.522 174.113ZM212.832 173.908C212.781 173.908 212.735 173.871 212.726 173.819C212.677 173.537 212.624 173.256 212.57 172.975C212.558 172.917 212.596 172.86 212.655 172.849C212.712 172.836 212.769 172.875 212.78 172.934C212.835 173.216 212.888 173.499 212.937 173.781C212.948 173.84 212.909 173.896 212.85 173.906C212.844 173.907 212.838 173.908 212.832 173.908ZM186.359 173.749C186.306 173.749 186.26 173.71 186.253 173.656C186.245 173.597 186.287 173.543 186.346 173.535L187.197 173.426C187.264 173.417 187.309 173.461 187.317 173.519C187.325 173.578 187.283 173.632 187.224 173.639L186.373 173.749C186.368 173.749 186.364 173.749 186.359 173.749ZM189.197 173.386C189.144 173.386 189.098 173.346 189.091 173.292C189.083 173.233 189.125 173.179 189.183 173.171L190.035 173.062C190.101 173.054 190.147 173.097 190.155 173.155C190.162 173.214 190.121 173.268 190.062 173.276L189.211 173.385C189.206 173.385 189.201 173.386 189.197 173.386ZM192.035 173.022C191.981 173.022 191.935 172.982 191.928 172.928C191.921 172.869 191.962 172.815 192.021 172.807L192.872 172.698C192.938 172.69 192.985 172.733 192.993 172.791C193 172.85 192.958 172.904 192.9 172.911L192.048 173.021C192.044 173.021 192.039 173.022 192.035 173.022ZM194.873 172.658C194.819 172.658 194.773 172.618 194.766 172.564C194.759 172.505 194.8 172.451 194.859 172.443L195.71 172.334C195.775 172.327 195.823 172.369 195.831 172.427C195.838 172.486 195.796 172.54 195.738 172.548L194.886 172.657C194.882 172.657 194.877 172.658 194.873 172.658ZM197.71 172.294C197.657 172.294 197.611 172.254 197.604 172.2C197.596 172.141 197.638 172.087 197.697 172.079L198.548 171.97C198.613 171.964 198.661 172.005 198.668 172.063C198.676 172.122 198.634 172.176 198.575 172.184L197.724 172.293C197.719 172.293 197.715 172.294 197.71 172.294ZM200.548 171.93C200.495 171.93 200.449 171.89 200.442 171.836C200.434 171.777 200.476 171.723 200.534 171.715L201.386 171.606C201.454 171.597 201.498 171.641 201.506 171.699C201.514 171.758 201.472 171.812 201.413 171.82L200.562 171.929C200.557 171.929 200.552 171.93 200.548 171.93ZM203.386 171.566C203.332 171.566 203.286 171.526 203.279 171.472C203.272 171.413 203.314 171.359 203.372 171.351L204.223 171.242C204.291 171.234 204.336 171.277 204.344 171.335C204.351 171.394 204.309 171.448 204.251 171.456L203.4 171.565C203.395 171.565 203.39 171.566 203.386 171.566ZM206.224 171.202C206.17 171.202 206.124 171.162 206.117 171.108C206.11 171.049 206.151 170.995 206.21 170.988L207.061 170.878C207.129 170.87 207.174 170.913 207.181 170.971C207.189 171.03 207.147 171.084 207.089 171.092L206.237 171.201C206.232 171.202 206.228 171.202 206.224 171.202ZM212.249 171.1C212.201 171.1 212.157 171.067 212.145 171.018C212.1 170.832 212.054 170.646 212.007 170.461L211.913 170.473C211.852 170.483 211.8 170.439 211.793 170.38C211.785 170.321 211.827 170.267 211.886 170.26L212.167 170.224L212.191 170.315C212.247 170.532 212.301 170.749 212.354 170.967C212.368 171.025 212.332 171.083 212.275 171.097C212.266 171.099 212.258 171.1 212.249 171.1ZM209.062 170.838C209.008 170.838 208.962 170.798 208.955 170.744C208.948 170.685 208.989 170.631 209.048 170.623L209.899 170.514C209.966 170.507 210.012 170.549 210.019 170.607C210.027 170.666 209.985 170.72 209.927 170.728L209.075 170.837C209.07 170.837 209.066 170.838 209.062 170.838Z" fill="white"/>
<path d="M175.421 163.433L175.379 162.205C175.47 161.899 175.709 161.659 176.015 161.569C177.163 161.232 180.026 160.531 181.559 161.399L181.948 162.783L175.421 163.433Z" fill="url(#paint17_linear_1730_4771)"/>
<path d="M178.93 161.795C178.668 161.896 178.398 161.93 178.119 161.898C177.781 161.86 177.513 161.596 177.47 161.259L176.984 157.458L178.914 157.211L179.399 161.009C179.442 161.347 179.248 161.673 178.93 161.795Z" fill="url(#paint18_linear_1730_4771)"/>
<path d="M194.112 161.035L194.07 159.807C194.161 159.501 194.4 159.262 194.707 159.172C195.854 158.835 198.718 158.133 200.25 159.002L200.639 160.385L194.112 161.035Z" fill="url(#paint19_linear_1730_4771)"/>
<path d="M197.621 159.398C197.36 159.498 197.09 159.533 196.811 159.501C196.473 159.462 196.204 159.198 196.161 158.862L195.625 154.661L197.555 154.413L198.091 158.611C198.134 158.949 197.94 159.275 197.621 159.398Z" fill="url(#paint20_linear_1730_4771)"/>
<path d="M176.908 158.415L197.573 155.065C198.044 154.989 198.402 154.595 198.424 154.119C198.454 153.454 198.43 152.466 198.152 151.475C197.835 150.347 196.74 149.62 195.572 149.742C191.689 150.146 181.833 151.413 176.676 154.263C176.131 154.565 175.768 155.111 175.699 155.729C175.633 156.319 175.638 157.094 175.919 157.848C176.068 158.248 176.485 158.484 176.908 158.415Z" fill="url(#paint21_linear_1730_4771)"/>
<path opacity="0.58" d="M176.397 157.576C176.267 157.576 176.15 157.486 176.119 157.354C176.111 157.32 175.928 156.514 176.04 155.7C176.13 155.042 176.567 154.466 177.18 154.197C178.301 153.705 180.453 152.837 182.274 152.551C182.431 152.528 182.577 152.634 182.601 152.79C182.626 152.947 182.519 153.093 182.363 153.118C180.54 153.404 178.291 154.335 177.409 154.722C176.978 154.911 176.67 155.316 176.607 155.778C176.509 156.488 176.675 157.217 176.676 157.224C176.712 157.379 176.616 157.533 176.462 157.568C176.441 157.573 176.419 157.576 176.397 157.576Z" fill="white"/>
<path d="M165.731 164.195C172.425 163.249 201.39 159.224 209.945 159.162C210.681 159.157 211.341 159.613 211.589 160.305C212.375 162.496 214.045 167.608 214.59 172.817C214.664 173.526 214.223 174.189 213.544 174.41L194.778 180.523L187.946 181.4L166.934 179.945C166.193 179.894 165.582 179.349 165.451 178.62C164.984 176.024 163.993 169.919 164.195 165.882C164.237 165.024 164.878 164.315 165.731 164.195Z" fill="url(#paint22_linear_1730_4771)"/>
<path d="M187.897 179.825C187.894 179.825 187.892 179.825 187.889 179.825L187.033 179.766C186.974 179.762 186.93 179.71 186.933 179.651C186.938 179.592 186.99 179.556 187.048 179.551L187.904 179.611C187.963 179.615 188.008 179.666 188.004 179.725C188 179.782 187.953 179.825 187.897 179.825ZM188.679 179.725C188.626 179.725 188.58 179.685 188.572 179.631C188.565 179.572 188.607 179.518 188.665 179.511L189.517 179.402C189.584 179.393 189.629 179.436 189.637 179.495C189.644 179.554 189.603 179.608 189.544 179.615L188.693 179.724C188.688 179.725 188.683 179.725 188.679 179.725ZM185.043 179.628C185.04 179.628 185.038 179.628 185.035 179.628L184.179 179.568C184.12 179.564 184.075 179.513 184.079 179.454C184.084 179.394 184.135 179.358 184.194 179.354L185.05 179.413C185.109 179.417 185.154 179.468 185.15 179.528C185.146 179.585 185.099 179.628 185.043 179.628ZM182.189 179.43C182.186 179.43 182.184 179.43 182.181 179.43L181.325 179.371C181.266 179.367 181.221 179.316 181.225 179.256C181.229 179.197 181.287 179.16 181.34 179.156L182.196 179.215C182.255 179.219 182.299 179.271 182.296 179.33C182.292 179.387 182.245 179.43 182.189 179.43ZM191.517 179.361C191.464 179.361 191.418 179.321 191.41 179.267C191.403 179.208 191.445 179.154 191.503 179.147L192.355 179.038C192.421 179.03 192.467 179.072 192.475 179.131C192.482 179.19 192.441 179.243 192.382 179.251L191.531 179.36C191.526 179.361 191.521 179.361 191.517 179.361ZM179.335 179.233C179.332 179.233 179.33 179.232 179.327 179.232L178.471 179.173C178.412 179.169 178.367 179.118 178.371 179.058C178.376 178.999 178.432 178.962 178.486 178.958L179.342 179.018C179.401 179.022 179.446 179.073 179.442 179.132C179.438 179.189 179.391 179.233 179.335 179.233ZM176.48 179.035C176.478 179.035 176.475 179.035 176.473 179.035L175.617 178.976C175.558 178.971 175.513 178.92 175.517 178.861C175.521 178.802 175.577 178.764 175.632 178.761L176.488 178.82C176.547 178.825 176.591 178.876 176.587 178.935C176.583 178.992 176.537 179.035 176.48 179.035ZM194.355 178.997C194.301 178.997 194.255 178.957 194.248 178.903C194.241 178.844 194.282 178.79 194.341 178.783L194.396 178.776L195.14 178.532C195.196 178.514 195.257 178.544 195.275 178.6C195.294 178.657 195.262 178.718 195.206 178.736L194.368 178.996C194.364 178.997 194.359 178.997 194.355 178.997ZM173.626 178.838C173.624 178.838 173.621 178.837 173.619 178.837L172.763 178.778C172.703 178.774 172.659 178.723 172.663 178.663C172.667 178.605 172.722 178.566 172.777 178.563L173.634 178.623C173.693 178.627 173.737 178.678 173.733 178.737C173.729 178.794 173.682 178.838 173.626 178.838ZM170.772 178.64C170.77 178.64 170.767 178.64 170.765 178.64L169.908 178.581C169.849 178.577 169.805 178.525 169.809 178.466C169.813 178.407 169.866 178.368 169.923 178.366L170.779 178.425C170.839 178.429 170.883 178.48 170.879 178.54C170.875 178.596 170.828 178.64 170.772 178.64ZM167.918 178.442C167.915 178.442 167.913 178.442 167.91 178.442L166.997 178.379L166.981 178.297C166.971 178.238 167.007 178.17 167.065 178.159C167.097 178.152 167.127 178.158 167.15 178.174L167.925 178.227C167.984 178.231 168.029 178.283 168.025 178.342C168.021 178.399 167.974 178.442 167.918 178.442ZM197.078 178.121C197.033 178.121 196.99 178.092 196.975 178.046C196.957 177.99 196.988 177.929 197.044 177.911L197.861 177.645C197.917 177.628 197.978 177.658 197.996 177.714C198.015 177.771 197.983 177.832 197.927 177.85L197.111 178.116C197.1 178.119 197.089 178.121 197.078 178.121ZM199.799 177.234C199.753 177.234 199.711 177.205 199.696 177.16C199.678 177.104 199.709 177.043 199.765 177.024L200.582 176.759C200.639 176.742 200.699 176.772 200.717 176.828C200.735 176.884 200.704 176.945 200.648 176.964L199.832 177.229C199.821 177.233 199.81 177.234 199.799 177.234ZM166.747 176.379C166.695 176.379 166.65 176.341 166.642 176.288C166.598 176.016 166.554 175.732 166.509 175.437C166.5 175.378 166.541 175.323 166.599 175.314C166.66 175.308 166.713 175.346 166.721 175.404C166.766 175.699 166.81 175.983 166.853 176.255C166.863 176.313 166.823 176.368 166.764 176.377C166.759 176.378 166.753 176.379 166.747 176.379ZM202.519 176.348C202.474 176.348 202.432 176.319 202.418 176.274C202.399 176.217 202.43 176.157 202.486 176.138L203.302 175.873C203.359 175.855 203.42 175.885 203.438 175.941C203.456 175.998 203.425 176.058 203.369 176.077L202.553 176.343C202.542 176.346 202.53 176.348 202.519 176.348ZM205.24 175.462C205.195 175.462 205.153 175.433 205.138 175.388C205.12 175.331 205.151 175.27 205.207 175.252L206.023 174.986C206.08 174.969 206.14 174.999 206.158 175.055C206.177 175.112 206.146 175.172 206.09 175.19L205.273 175.456C205.262 175.46 205.251 175.462 205.24 175.462ZM207.961 174.576C207.916 174.576 207.874 174.547 207.859 174.501C207.84 174.445 207.872 174.384 207.928 174.366L208.744 174.1C208.8 174.081 208.861 174.113 208.879 174.169C208.898 174.225 208.867 174.286 208.81 174.304L207.994 174.57C207.983 174.574 207.972 174.576 207.961 174.576ZM210.682 173.689C210.637 173.689 210.595 173.66 210.58 173.615C210.561 173.558 210.592 173.498 210.649 173.48L211.465 173.214C211.521 173.195 211.582 173.226 211.6 173.282C211.619 173.339 211.587 173.4 211.531 173.418L210.715 173.684C210.704 173.688 210.693 173.689 210.682 173.689ZM166.335 173.539C166.282 173.539 166.236 173.5 166.229 173.446C166.192 173.164 166.156 172.879 166.122 172.591C166.115 172.532 166.157 172.478 166.216 172.471C166.274 172.465 166.328 172.506 166.335 172.565C166.369 172.853 166.405 173.138 166.442 173.418C166.449 173.477 166.408 173.531 166.349 173.539C166.344 173.539 166.34 173.539 166.335 173.539ZM212.854 172.45C212.801 172.45 212.754 172.41 212.747 172.356C212.712 172.072 212.674 171.788 212.633 171.506C212.625 171.447 212.665 171.392 212.724 171.384C212.783 171.372 212.837 171.416 212.845 171.474C212.887 171.759 212.925 172.044 212.96 172.33C212.968 172.389 212.926 172.442 212.867 172.449C212.862 172.45 212.858 172.45 212.854 172.45ZM166.019 170.687C165.964 170.687 165.917 170.645 165.912 170.589C165.886 170.302 165.863 170.015 165.841 169.73C165.837 169.671 165.881 169.619 165.94 169.615C166.007 169.62 166.051 169.655 166.055 169.714C166.077 169.998 166.1 170.284 166.125 170.57C166.131 170.629 166.087 170.682 166.028 170.687C166.025 170.687 166.022 170.687 166.019 170.687ZM212.403 169.619C212.353 169.619 212.308 169.583 212.298 169.532C212.243 169.248 212.186 168.967 212.128 168.69C212.116 168.632 212.153 168.575 212.211 168.562C212.271 168.551 212.326 168.587 212.338 168.645C212.397 168.924 212.453 169.206 212.509 169.491C212.52 169.549 212.482 169.605 212.424 169.617C212.417 169.618 212.41 169.619 212.403 169.619ZM165.846 167.824C165.788 167.824 165.741 167.778 165.739 167.719C165.734 167.486 165.731 167.257 165.73 167.032L165.731 166.855C165.731 166.796 165.78 166.748 165.839 166.748C165.839 166.748 165.839 166.748 165.839 166.748C165.898 166.748 165.946 166.797 165.946 166.856L165.945 167.032C165.946 167.255 165.948 167.482 165.954 167.714C165.955 167.773 165.908 167.822 165.849 167.824C165.848 167.824 165.847 167.824 165.846 167.824ZM211.782 166.819C211.734 166.819 211.69 166.786 211.678 166.737C211.608 166.454 211.536 166.177 211.464 165.905C211.449 165.848 211.483 165.789 211.54 165.774C211.598 165.76 211.656 165.792 211.672 165.85C211.744 166.122 211.816 166.401 211.886 166.685C211.9 166.742 211.866 166.801 211.808 166.815C211.799 166.817 211.791 166.819 211.782 166.819ZM166.905 165.828C166.852 165.828 166.806 165.789 166.799 165.735C166.791 165.676 166.832 165.622 166.89 165.614L167.741 165.495C167.797 165.483 167.854 165.527 167.862 165.586C167.87 165.645 167.829 165.7 167.77 165.707L166.92 165.826C166.915 165.827 166.91 165.828 166.905 165.828ZM169.74 165.433C169.687 165.433 169.641 165.394 169.634 165.34C169.626 165.281 169.667 165.227 169.725 165.219L170.576 165.102C170.633 165.09 170.688 165.134 170.697 165.193C170.705 165.252 170.664 165.306 170.605 165.314L169.755 165.432C169.75 165.433 169.745 165.433 169.74 165.433ZM172.576 165.044C172.523 165.044 172.477 165.005 172.47 164.951C172.462 164.892 172.503 164.838 172.562 164.83L173.413 164.714C173.473 164.707 173.526 164.747 173.534 164.806C173.542 164.865 173.5 164.919 173.442 164.927L172.591 165.043C172.586 165.043 172.581 165.044 172.576 165.044ZM175.412 164.66C175.359 164.66 175.313 164.621 175.306 164.567C175.298 164.508 175.339 164.454 175.398 164.446L176.249 164.332C176.309 164.322 176.361 164.366 176.37 164.424C176.377 164.483 176.336 164.538 176.277 164.546L175.426 164.66C175.422 164.66 175.417 164.66 175.412 164.66ZM178.249 164.283C178.196 164.283 178.15 164.243 178.143 164.189C178.135 164.13 178.176 164.076 178.235 164.068L179.086 163.956C179.146 163.949 179.199 163.99 179.207 164.049C179.215 164.108 179.173 164.162 179.114 164.17L178.263 164.282C178.258 164.282 178.254 164.283 178.249 164.283ZM211.023 164.052C210.977 164.052 210.935 164.022 210.921 163.976C210.835 163.69 210.751 163.415 210.669 163.154C210.651 163.098 210.682 163.037 210.739 163.02C210.797 163 210.856 163.033 210.873 163.09C210.956 163.352 211.04 163.627 211.126 163.914C211.143 163.971 211.111 164.031 211.054 164.048C211.044 164.051 211.034 164.052 211.023 164.052ZM181.087 163.911C181.034 163.911 180.988 163.871 180.981 163.817C180.973 163.758 181.015 163.704 181.074 163.696L181.925 163.586C181.983 163.578 182.038 163.62 182.045 163.679C182.053 163.738 182.012 163.792 181.953 163.799L181.101 163.91C181.096 163.91 181.092 163.911 181.087 163.911ZM183.925 163.546C183.872 163.546 183.826 163.506 183.819 163.452C183.812 163.393 183.853 163.339 183.912 163.331L184.764 163.224C184.824 163.214 184.876 163.258 184.883 163.317C184.891 163.376 184.849 163.43 184.79 163.437L183.939 163.545C183.934 163.545 183.93 163.546 183.925 163.546ZM186.764 163.188C186.711 163.188 186.664 163.148 186.657 163.094C186.65 163.035 186.692 162.982 186.751 162.974L187.602 162.869C187.665 162.859 187.715 162.904 187.722 162.962C187.729 163.021 187.688 163.075 187.629 163.082L186.777 163.188C186.773 163.188 186.768 163.188 186.764 163.188ZM189.603 162.84C189.55 162.84 189.504 162.8 189.497 162.745C189.49 162.686 189.532 162.632 189.591 162.625L190.443 162.522C190.506 162.514 190.555 162.558 190.562 162.616C190.569 162.675 190.527 162.729 190.468 162.736L189.616 162.839C189.612 162.839 189.608 162.84 189.603 162.84ZM192.445 162.501C192.391 162.501 192.345 162.461 192.338 162.406C192.331 162.347 192.373 162.293 192.432 162.287L193.285 162.187C193.346 162.178 193.397 162.223 193.404 162.281C193.411 162.34 193.369 162.394 193.31 162.401L192.457 162.5C192.453 162.501 192.449 162.501 192.445 162.501ZM195.287 162.175C195.233 162.175 195.187 162.134 195.18 162.079C195.174 162.02 195.216 161.967 195.275 161.96L196.128 161.865C196.193 161.862 196.24 161.902 196.247 161.96C196.253 162.019 196.21 162.072 196.152 162.079L195.299 162.174C195.295 162.174 195.291 162.175 195.287 162.175ZM198.131 161.863C198.077 161.863 198.03 161.822 198.025 161.767C198.018 161.708 198.061 161.655 198.12 161.649L198.974 161.559C199.038 161.557 199.086 161.596 199.092 161.654C199.098 161.714 199.055 161.766 198.996 161.773L198.143 161.863C198.139 161.863 198.135 161.863 198.131 161.863ZM200.978 161.572C200.923 161.572 200.877 161.53 200.871 161.475C200.865 161.416 200.908 161.363 200.967 161.357L201.822 161.275C201.883 161.267 201.933 161.312 201.939 161.372C201.945 161.43 201.901 161.483 201.842 161.489L200.988 161.571C200.985 161.571 200.981 161.572 200.978 161.572ZM210.139 161.324C210.095 161.324 210.053 161.296 210.038 161.252L209.929 160.944C209.804 160.945 209.674 160.947 209.539 160.95C209.538 160.95 209.537 160.95 209.537 160.95C209.478 160.95 209.431 160.903 209.429 160.844C209.428 160.785 209.475 160.736 209.535 160.734C209.681 160.731 209.821 160.729 209.956 160.729C210.03 160.729 210.095 160.771 210.118 160.834L210.24 161.18C210.26 161.236 210.231 161.298 210.175 161.317C210.163 161.321 210.151 161.324 210.139 161.324ZM203.827 161.308C203.772 161.308 203.725 161.265 203.72 161.209C203.715 161.15 203.758 161.098 203.818 161.093C204.11 161.068 204.396 161.044 204.674 161.021C204.732 161.018 204.784 161.06 204.789 161.12C204.794 161.179 204.75 161.231 204.691 161.235C204.413 161.258 204.129 161.282 203.836 161.307C203.833 161.307 203.83 161.308 203.827 161.308ZM206.679 161.087C206.623 161.087 206.576 161.043 206.572 160.986C206.568 160.927 206.613 160.876 206.672 160.872C206.97 160.852 207.256 160.834 207.53 160.819C207.594 160.81 207.64 160.861 207.643 160.92C207.646 160.979 207.601 161.03 207.542 161.033C207.268 161.049 206.983 161.066 206.686 161.086C206.684 161.086 206.682 161.087 206.679 161.087Z" fill="white"/>
<path d="M194.5 183.48L188.516 184.247C187.731 184.348 186.996 183.848 186.804 183.083L185.376 177.4C185.148 176.494 185.765 175.593 186.693 175.474L193.882 174.552C194.792 174.435 195.605 175.122 195.64 176.036L195.863 181.874C195.894 182.68 195.303 183.377 194.5 183.48Z" fill="url(#paint23_linear_1730_4771)"/>
<path d="M193.63 182.513L189.075 183.097C188.478 183.174 187.918 182.793 187.772 182.211L186.684 177.885C186.511 177.196 186.981 176.51 187.687 176.42L193.159 175.718C193.851 175.629 194.47 176.152 194.497 176.847L194.667 181.29C194.69 181.904 194.24 182.435 193.63 182.513Z" fill="url(#paint24_linear_1730_4771)"/>
<path d="M190.072 136.516C191.484 142.363 191.521 148.082 191.306 150.165C191.225 150.95 190.596 151.563 189.81 151.618C188.918 151.681 187.703 151.763 186.618 151.825C185.425 151.894 184.101 151.138 183.215 150.507C182.763 150.184 182.178 150.687 182.431 151.182C182.866 152.035 183.621 152.707 184.371 153.278C184.822 153.621 186.322 154.232 186.217 154.908C186.184 155.122 186.056 155.307 185.918 155.473C185.085 156.475 183.824 157.011 182.58 157.393C182.423 157.441 182.259 157.493 182.149 157.614C182.118 158.42 184.593 159.316 185.232 159.529C186.189 159.847 187.204 159.982 188.209 159.876C190.7 159.613 193 157.89 194.341 155.812C197.927 150.259 199.781 143.553 200.459 138.424C197.123 135.081 192.086 135.928 190.072 136.516Z" fill="url(#paint25_linear_1730_4771)"/>
<path d="M200.455 138.952C203.116 118.809 187.629 103.321 187.629 103.321L178.414 114.088C185.41 122.828 188.735 130.836 190.255 137.126C192.269 136.538 197.12 135.609 200.455 138.952Z" fill="url(#paint26_linear_1730_4771)"/>
<path d="M190.035 137.028C189.778 137.028 189.544 136.852 189.481 136.59C187.609 128.836 183.662 121.16 177.751 113.775C177.553 113.529 177.593 113.169 177.838 112.971C178.084 112.774 178.444 112.813 178.641 113.059C184.658 120.576 188.678 128.403 190.591 136.321C190.665 136.628 190.477 136.937 190.17 137.011C190.125 137.023 190.08 137.028 190.035 137.028Z" fill="url(#paint27_linear_1730_4771)"/>
<path d="M65.2358 256.435C65.2374 256.337 65.2308 256.238 65.2057 256.137C63.7238 250.249 56.3683 246.581 56.3683 246.581L53.4536 246.81C51.7777 252 51.9931 255.183 52.2622 256.601C52.2697 256.641 52.2817 256.679 52.2922 256.717C54.6966 256.933 59.6453 257.073 65.2358 256.435Z" fill="url(#paint28_linear_1730_4771)"/>
<path d="M52.293 256.717C52.4228 257.191 52.7715 257.56 53.2179 257.654C56.638 258.374 62.0741 257.794 64.3565 257.495C64.8601 257.429 65.2281 256.962 65.2365 256.436C59.6461 257.073 54.6974 256.933 52.293 256.717Z" fill="url(#paint29_linear_1730_4771)"/>
<path d="M52.2812 242.459L53.5157 248.415C53.6061 248.852 53.9407 249.178 54.346 249.216C54.8421 249.263 55.5483 249.29 56.2585 249.186C56.8953 249.092 57.3389 248.444 57.2259 247.747L56.3678 242.459H52.2812Z" fill="url(#paint30_linear_1730_4771)"/>
<path d="M77.8588 256.642C74.6398 256.552 72.9747 256.172 72.114 255.819C72.112 256.14 72.1138 256.467 72.1242 256.805C72.1353 257.166 72.4022 257.455 72.7307 257.453L90.4054 257.338C90.9695 257.335 91.299 256.679 91.0546 256.16C88.7372 256.352 82.835 256.782 77.8588 256.642Z" fill="url(#paint31_linear_1730_4771)"/>
<path d="M91.0538 256.16C91.0325 256.115 91.0142 256.069 90.9839 256.027C89.423 253.84 85.4474 249.488 77.5916 247.6L73.8231 247.481C73.8231 247.481 72.145 250.404 72.1133 255.819C72.9741 256.171 74.6391 256.551 77.8581 256.642C82.8341 256.781 88.7363 256.352 91.0538 256.16Z" fill="url(#paint32_linear_1730_4771)"/>
<path d="M72.957 241.932C73.0165 242.21 73.8007 246.448 74.1044 248.092C74.1766 248.482 74.4801 248.769 74.8413 248.789C75.4865 248.825 76.5273 248.829 77.4224 248.586C77.9052 248.454 78.2296 247.961 78.1951 247.413L77.7735 240.71L72.957 241.932Z" fill="url(#paint33_linear_1730_4771)"/>
<path d="M70.1024 163.68C70.1024 163.68 75.2866 199.384 79.0278 241.871C79.0975 242.662 78.4684 243.351 77.6929 243.514C76.5499 243.756 74.8699 244.042 73.4792 244.003C72.7367 243.982 72.1161 243.43 71.9912 242.696C70.7167 235.205 61.6221 195.001 59.2352 186.153C59.2352 186.153 56.4935 223.739 57.3699 243.239C57.3918 243.724 57.0375 244.145 56.5565 244.2C55.8267 244.285 54.6594 244.349 53.1736 244.191C52.6096 244.131 52.1547 243.704 52.0741 243.141C51.1662 236.801 45.941 199.063 46.1631 171.879C46.1757 170.346 47.9578 157.75 47.9578 157.75L70.1024 163.68Z" fill="url(#paint34_linear_1730_4771)"/>
<path d="M47.1804 165.739C46.6473 165.549 46.2758 165.064 46.2178 164.5C45.5284 157.797 42.1904 116.233 63.2638 99.1348C63.2638 99.1348 64.4723 95.9657 74.4058 103.756C84.3393 111.546 79.021 119.711 76.6428 130.973C73.7649 144.601 68.7155 155.741 70.9496 164.127C71.1038 164.706 70.8002 165.314 70.2394 165.521C62.523 168.371 54.8363 168.465 47.1804 165.739Z" fill="url(#paint35_linear_1730_4771)"/>
<path d="M71.484 86.6816C71.4773 87.2731 63.0625 99.2523 63.0625 99.2523C63.0625 99.2523 64.5729 102.234 71.7835 104.654L78.0077 91.8282L71.484 86.6816Z" fill="url(#paint36_linear_1730_4771)"/>
<path d="M78.1063 79.8174C78.1063 79.8174 81.1005 86.711 81.3015 90.3292C81.5026 93.9474 82.2805 96.2952 78.1063 97.0238C73.9322 97.7524 70.4157 95.6683 68.5108 92.0641C68.5108 92.0641 65.526 86.5105 66.1955 84.2362C66.8651 81.9618 78.1063 79.8174 78.1063 79.8174Z" fill="url(#paint37_linear_1730_4771)"/>
<path d="M69.938 89.4723L70.1756 89.3674C70.478 89.2337 70.6076 88.8729 70.4556 88.5786C69.8671 87.4387 68.7195 84.8267 70.2019 84.2173C72.1123 83.432 79.6797 81.8854 81.3124 79.1941C82.8816 76.6076 81.4913 73.2688 79.4018 72.3192C79.262 72.2557 79.097 72.3061 79.0253 72.4422L78.8512 72.7724C78.732 72.9985 78.3988 72.9641 78.328 72.7185C78.2599 72.4827 77.947 72.437 77.8172 72.6452C77.3153 73.4503 75.9604 74.7557 72.337 75.4258C67.1874 76.3784 63.7828 78.467 63.6981 82.0335C63.6927 82.26 63.4522 82.386 63.2591 82.2681C62.8789 82.0358 62.2704 81.9269 61.4572 82.6122C60.0429 83.8041 60.6216 86.8957 63.7219 89.4389C63.8692 89.5597 63.868 89.7902 63.7085 89.8942C63.1465 90.2608 62.3086 91.1334 64.4796 92.2965C66.7251 93.4996 68.4019 93.4009 69.0476 93.2941C69.2083 93.2675 69.3118 93.1117 69.2767 92.9523L68.5876 89.8178C68.5486 89.6403 68.6833 89.4723 68.8645 89.4723H69.938Z" fill="url(#paint38_linear_1730_4771)"/>
<path d="M70.0662 90.1334C70.0662 90.1334 68.9239 85.7298 66.9541 86.9645C64.9842 88.1991 67.9763 91.8985 69.5599 92.0632L70.0662 90.1334Z" fill="url(#paint39_linear_1730_4771)"/>
<path d="M77.6016 107.37L78.1818 122.987C79.8296 123.556 81.3985 123.998 82.8925 124.328C83.827 121.313 85.8846 117.612 87.5695 114.86C81.3789 112.667 77.6016 107.37 77.6016 107.37Z" fill="url(#paint40_linear_1730_4771)"/>
<path d="M108.507 107.104C100.015 116.294 93.1416 116.835 87.5677 114.86C85.8827 117.612 83.8251 121.312 82.8906 124.328C105.568 129.339 110.908 108.444 110.908 108.444L108.507 107.104Z" fill="url(#paint41_linear_1730_4771)"/>
<path d="M110.23 106.129C110.23 106.129 111.209 105.076 113.019 105.407C114.83 105.738 116.441 106.368 117.569 105.407C118.697 104.445 119.094 105.736 119.094 105.736L115.716 108.309L110.23 106.129Z" fill="url(#paint42_linear_1730_4771)"/>
<path d="M108.211 107.929C108.211 107.929 108.881 105.12 110.901 105.505C112.921 105.89 117.507 108.389 118.688 107.929C119.87 107.469 121.381 106.367 122.156 106.756L120.791 108.458C120.791 108.458 124.301 106.428 124.906 107.675L119.064 110.97C119.064 110.97 110.518 110.112 108.211 107.929Z" fill="url(#paint43_linear_1730_4771)"/>
<path d="M68.1758 127.81C68.1758 127.81 84.1409 141.211 101.38 135.364C102.45 135.001 103.619 135.08 104.617 135.608L109.573 138.231C111.654 139.333 114.23 138.61 115.437 136.586C116.125 135.431 116.713 134.113 116.83 132.85L107.132 128.915L107.847 127.723C107.847 127.723 103.112 127.321 101.873 130.722C101.873 130.722 92.8539 134.482 77.6443 117.715C77.6443 117.715 70.7425 123.597 68.1758 127.81Z" fill="url(#paint44_linear_1730_4771)"/>
<path d="M67.3167 127.671C67.2642 127.671 67.2107 127.656 67.164 127.624C60.4417 123.072 57.2794 115.724 57.2482 115.651C57.1895 115.511 57.2543 115.35 57.393 115.292C57.5323 115.232 57.6922 115.297 57.7514 115.436C57.7819 115.509 60.8855 122.711 67.4698 127.17C67.595 127.255 67.6278 127.425 67.5432 127.55C67.4907 127.629 67.4045 127.671 67.3167 127.671Z" fill="url(#paint45_linear_1730_4771)"/>
<path d="M77.3296 117.487C77.2399 117.487 77.1519 117.443 77.0996 117.361C77.0793 117.33 75.0256 114.126 71.1142 107.106C69.9113 104.947 68.3305 103.581 66.4157 103.043C63.2447 102.155 60.1885 103.859 60.1583 103.876C60.0267 103.949 59.8605 103.905 59.7857 103.774C59.7112 103.642 59.7569 103.475 59.8882 103.4C60.0201 103.325 63.1634 101.563 66.5579 102.515C68.6204 103.092 70.3141 104.546 71.5913 106.839C75.4931 113.841 77.5389 117.033 77.5592 117.065C77.6409 117.192 77.6043 117.361 77.4776 117.443C77.4315 117.473 77.3804 117.487 77.3296 117.487Z" fill="url(#paint46_linear_1730_4771)"/>
<defs>
<linearGradient id="paint0_linear_1730_4771" x1="314.415" y1="544.182" x2="96.8607" y2="-189.344" gradientUnits="userSpaceOnUse">
<stop stop-color="#F6E2D7"/>
<stop offset="1" stop-color="#F6E2D7"/>
</linearGradient>
<linearGradient id="paint1_linear_1730_4771" x1="164.649" y1="394.839" x2="-50.3295" y2="-330.001" gradientUnits="userSpaceOnUse">
<stop stop-color="#F6E2D7"/>
<stop offset="1" stop-color="#F6E2D7"/>
</linearGradient>
<linearGradient id="paint2_linear_1730_4771" x1="105.789" y1="134.948" x2="108.808" y2="133.904" gradientUnits="userSpaceOnUse">
<stop stop-color="#FEBBBA"/>
<stop offset="1" stop-color="#FF928E"/>
</linearGradient>
<linearGradient id="paint3_linear_1730_4771" x1="127.264" y1="140.582" x2="171.309" y2="92.6782" gradientUnits="userSpaceOnUse">
<stop stop-color="#09005D"/>
<stop offset="1" stop-color="#1A0F91"/>
</linearGradient>
<linearGradient id="paint4_linear_1730_4771" x1="147.321" y1="159.023" x2="191.366" y2="111.12" gradientUnits="userSpaceOnUse">
<stop stop-color="#09005D"/>
<stop offset="1" stop-color="#1A0F91"/>
</linearGradient>
<linearGradient id="paint5_linear_1730_4771" x1="169.946" y1="107.081" x2="165.437" y2="93.5854" gradientUnits="userSpaceOnUse">
<stop stop-color="#FEBBBA"/>
<stop offset="1" stop-color="#FF928E"/>
</linearGradient>
<linearGradient id="paint6_linear_1730_4771" x1="157.292" y1="84" x2="173.443" y2="91.0062" gradientUnits="userSpaceOnUse">
<stop stop-color="#FEBBBA"/>
<stop offset="1" stop-color="#FF928E"/>
</linearGradient>
<linearGradient id="paint7_linear_1730_4771" x1="168.96" y1="93.692" x2="155.715" y2="79.6529" gradientUnits="userSpaceOnUse">
<stop stop-color="#09005D"/>
<stop offset="1" stop-color="#1A0F91"/>
</linearGradient>
<linearGradient id="paint8_linear_1730_4771" x1="156.284" y1="86.3188" x2="172.435" y2="93.325" gradientUnits="userSpaceOnUse">
<stop stop-color="#FEBBBA"/>
<stop offset="1" stop-color="#FF928E"/>
</linearGradient>
<linearGradient id="paint9_linear_1730_4771" x1="187.94" y1="257.028" x2="167.883" y2="257.028" gradientUnits="userSpaceOnUse">
<stop stop-color="#4F52FF"/>
<stop offset="1" stop-color="#4042E2"/>
</linearGradient>
<linearGradient id="paint10_linear_1730_4771" x1="236.353" y1="238.22" x2="163.702" y2="258.881" gradientUnits="userSpaceOnUse">
<stop stop-color="#09005D"/>
<stop offset="1" stop-color="#1A0F91"/>
</linearGradient>
<linearGradient id="paint11_linear_1730_4771" x1="186.087" y1="247.588" x2="180.438" y2="247.588" gradientUnits="userSpaceOnUse">
<stop stop-color="#FEBBBA"/>
<stop offset="1" stop-color="#FF928E"/>
</linearGradient>
<linearGradient id="paint12_linear_1730_4771" x1="227.925" y1="256.594" x2="220.238" y2="256.594" gradientUnits="userSpaceOnUse">
<stop stop-color="#4F52FF"/>
<stop offset="1" stop-color="#4042E2"/>
</linearGradient>
<linearGradient id="paint13_linear_1730_4771" x1="195.862" y1="234.003" x2="241.183" y2="263.447" gradientUnits="userSpaceOnUse">
<stop stop-color="#09005D"/>
<stop offset="1" stop-color="#1A0F91"/>
</linearGradient>
<linearGradient id="paint14_linear_1730_4771" x1="222.006" y1="242.867" x2="215.254" y2="242.867" gradientUnits="userSpaceOnUse">
<stop stop-color="#FEBBBA"/>
<stop offset="1" stop-color="#FF928E"/>
</linearGradient>
<linearGradient id="paint15_linear_1730_4771" x1="222.956" y1="252.803" x2="119.621" y2="110.259" gradientUnits="userSpaceOnUse">
<stop stop-color="#09005D"/>
<stop offset="1" stop-color="#1A0F91"/>
</linearGradient>
<linearGradient id="paint16_linear_1730_4771" x1="187.666" y1="158.437" x2="190.176" y2="176.593" gradientUnits="userSpaceOnUse">
<stop stop-color="#E1473D"/>
<stop offset="1" stop-color="#E9605A"/>
</linearGradient>
<linearGradient id="paint17_linear_1730_4771" x1="179.2" y1="166.147" x2="178.062" y2="159.47" gradientUnits="userSpaceOnUse">
<stop stop-color="#E1473D"/>
<stop offset="1" stop-color="#E9605A"/>
</linearGradient>
<linearGradient id="paint18_linear_1730_4771" x1="177.562" y1="156.113" x2="181.417" y2="175.171" gradientUnits="userSpaceOnUse">
<stop stop-color="#E1473D"/>
<stop offset="1" stop-color="#E9605A"/>
</linearGradient>
<linearGradient id="paint19_linear_1730_4771" x1="197.762" y1="162.983" x2="196.623" y2="156.306" gradientUnits="userSpaceOnUse">
<stop stop-color="#E1473D"/>
<stop offset="1" stop-color="#E9605A"/>
</linearGradient>
<linearGradient id="paint20_linear_1730_4771" x1="196.001" y1="152.384" x2="199.856" y2="171.442" gradientUnits="userSpaceOnUse">
<stop stop-color="#E1473D"/>
<stop offset="1" stop-color="#E9605A"/>
</linearGradient>
<linearGradient id="paint21_linear_1730_4771" x1="187.139" y1="144.001" x2="187.025" y2="157.94" gradientUnits="userSpaceOnUse">
<stop stop-color="#FF928E"/>
<stop offset="1" stop-color="#FE7062"/>
</linearGradient>
<linearGradient id="paint22_linear_1730_4771" x1="189.594" y1="194.416" x2="189.385" y2="170.414" gradientUnits="userSpaceOnUse">
<stop stop-color="#FF928E"/>
<stop offset="1" stop-color="#FE7062"/>
</linearGradient>
<linearGradient id="paint23_linear_1730_4771" x1="189.181" y1="186.055" x2="191.481" y2="175.414" gradientUnits="userSpaceOnUse">
<stop stop-color="#E1473D"/>
<stop offset="1" stop-color="#E9605A"/>
</linearGradient>
<linearGradient id="paint24_linear_1730_4771" x1="186.939" y1="179.944" x2="194.769" y2="178.943" gradientUnits="userSpaceOnUse">
<stop stop-color="#FF928E"/>
<stop offset="1" stop-color="#FE7062"/>
</linearGradient>
<linearGradient id="paint25_linear_1730_4771" x1="195.458" y1="139.785" x2="180.114" y2="169.226" gradientUnits="userSpaceOnUse">
<stop stop-color="#FEBBBA"/>
<stop offset="1" stop-color="#FF928E"/>
</linearGradient>
<linearGradient id="paint26_linear_1730_4771" x1="153.859" y1="165.036" x2="197.905" y2="117.133" gradientUnits="userSpaceOnUse">
<stop stop-color="#09005D"/>
<stop offset="1" stop-color="#1A0F91"/>
</linearGradient>
<linearGradient id="paint27_linear_1730_4771" x1="185.791" y1="118.323" x2="196.038" y2="78.0543" gradientUnits="userSpaceOnUse">
<stop stop-color="#09005D"/>
<stop offset="1" stop-color="#1A0F91"/>
</linearGradient>
<linearGradient id="paint28_linear_1730_4771" x1="52.0781" y1="251.74" x2="65.236" y2="251.74" gradientUnits="userSpaceOnUse">
<stop stop-color="#09005D"/>
<stop offset="1" stop-color="#1A0F91"/>
</linearGradient>
<linearGradient id="paint29_linear_1730_4771" x1="85.019" y1="236.182" x2="37.0674" y2="273.749" gradientUnits="userSpaceOnUse">
<stop stop-color="#4F52FF"/>
<stop offset="1" stop-color="#4042E2"/>
</linearGradient>
<linearGradient id="paint30_linear_1730_4771" x1="55.7369" y1="236.726" x2="53.2123" y2="258.71" gradientUnits="userSpaceOnUse">
<stop stop-color="#FEBBBA"/>
<stop offset="1" stop-color="#FF928E"/>
</linearGradient>
<linearGradient id="paint31_linear_1730_4771" x1="93.5218" y1="247.021" x2="45.5702" y2="284.588" gradientUnits="userSpaceOnUse">
<stop stop-color="#4F52FF"/>
<stop offset="1" stop-color="#4042E2"/>
</linearGradient>
<linearGradient id="paint32_linear_1730_4771" x1="72.1131" y1="252.075" x2="91.0538" y2="252.075" gradientUnits="userSpaceOnUse">
<stop stop-color="#09005D"/>
<stop offset="1" stop-color="#1A0F91"/>
</linearGradient>
<linearGradient id="paint33_linear_1730_4771" x1="75.8675" y1="239.048" x2="74.7337" y2="261.147" gradientUnits="userSpaceOnUse">
<stop stop-color="#FEBBBA"/>
<stop offset="1" stop-color="#FF928E"/>
</linearGradient>
<linearGradient id="paint34_linear_1730_4771" x1="77.2317" y1="156.403" x2="35.0918" y2="289.473" gradientUnits="userSpaceOnUse">
<stop stop-color="#09005D"/>
<stop offset="1" stop-color="#1A0F91"/>
</linearGradient>
<linearGradient id="paint35_linear_1730_4771" x1="38.393" y1="166.767" x2="86.2081" y2="108.227" gradientUnits="userSpaceOnUse">
<stop stop-color="#FF928E"/>
<stop offset="1" stop-color="#FE7062"/>
</linearGradient>
<linearGradient id="paint36_linear_1730_4771" x1="60.5194" y1="102.299" x2="78.0318" y2="91.898" gradientUnits="userSpaceOnUse">
<stop stop-color="#FEBBBA"/>
<stop offset="1" stop-color="#FF928E"/>
</linearGradient>
<linearGradient id="paint37_linear_1730_4771" x1="79.5977" y1="95.2644" x2="69.3573" y2="80.2512" gradientUnits="userSpaceOnUse">
<stop stop-color="#FEBBBA"/>
<stop offset="1" stop-color="#FF928E"/>
</linearGradient>
<linearGradient id="paint38_linear_1730_4771" x1="60.6809" y1="69.0705" x2="75.1511" y2="85.9803" gradientUnits="userSpaceOnUse">
<stop stop-color="#09005D"/>
<stop offset="1" stop-color="#1A0F91"/>
</linearGradient>
<linearGradient id="paint39_linear_1730_4771" x1="74.6439" y1="98.6421" x2="64.4088" y2="83.6368" gradientUnits="userSpaceOnUse">
<stop stop-color="#FEBBBA"/>
<stop offset="1" stop-color="#FF928E"/>
</linearGradient>
<linearGradient id="paint40_linear_1730_4771" x1="61.7422" y1="141.219" x2="83.88" y2="111.005" gradientUnits="userSpaceOnUse">
<stop stop-color="#FF928E"/>
<stop offset="1" stop-color="#FE7062"/>
</linearGradient>
<linearGradient id="paint41_linear_1730_4771" x1="119.718" y1="105.792" x2="82.964" y2="124.034" gradientUnits="userSpaceOnUse">
<stop stop-color="#FEBBBA"/>
<stop offset="1" stop-color="#FF928E"/>
</linearGradient>
<linearGradient id="paint42_linear_1730_4771" x1="119.182" y1="101.201" x2="106.592" y2="114.321" gradientUnits="userSpaceOnUse">
<stop stop-color="#FEBBBA"/>
<stop offset="1" stop-color="#FF928E"/>
</linearGradient>
<linearGradient id="paint43_linear_1730_4771" x1="119.895" y1="105.576" x2="83.1411" y2="123.818" gradientUnits="userSpaceOnUse">
<stop stop-color="#FEBBBA"/>
<stop offset="1" stop-color="#FF928E"/>
</linearGradient>
<linearGradient id="paint44_linear_1730_4771" x1="135.24" y1="136.639" x2="28.6578" y2="117.41" gradientUnits="userSpaceOnUse">
<stop stop-color="#FEBBBA"/>
<stop offset="1" stop-color="#FF928E"/>
</linearGradient>
<linearGradient id="paint45_linear_1730_4771" x1="83.0268" y1="89.7962" x2="36.2773" y2="161.29" gradientUnits="userSpaceOnUse">
<stop stop-color="#E1473D"/>
<stop offset="1" stop-color="#E9605A"/>
</linearGradient>
<linearGradient id="paint46_linear_1730_4771" x1="82.3803" y1="89.3736" x2="35.6306" y2="160.868" gradientUnits="userSpaceOnUse">
<stop stop-color="#E1473D"/>
<stop offset="1" stop-color="#E9605A"/>
</linearGradient>
</defs>
</svg>
