<svg width="335" height="282" viewBox="0 0 335 282" fill="none" xmlns="http://www.w3.org/2000/svg">
<g opacity="0.4">
<path d="M298.471 205.246C303.155 186.288 306.515 167.001 308.503 147.575C309.97 133.23 307.478 119.479 300.833 106.521C292.514 90.302 279.257 78.9761 265.733 68.9867C254.904 60.9863 243.647 53.5756 231.36 48.723C219.9 44.1974 207.705 41.9587 195.57 39.7388C175.538 36.0726 155.16 32.4029 134.371 35.9313C112.822 39.5883 93.5304 50.9933 77.4523 65.4682C59.5314 81.6005 41.9317 101.204 29.5931 121.881C22.3215 134.067 15.4138 146.753 12.4306 160.626C9.44744 174.5 10.8287 189.884 19.0611 201.444C20.0296 202.805 21.1442 204.149 22.6622 204.847C26.2071 206.476 34.3049 203.434 37.8716 202.142C43.7837 200 46.2671 196.474 46.3565 189.532C47.373 110.45 129.514 70.0766 198.334 85.6654C230.328 92.9112 264.583 111.313 271.255 146.546C274.485 163.602 272.144 181.204 269.321 198.187C267.883 206.85 267.106 216.488 264.161 224.873C260.104 236.422 251.963 251.131 251.972 263.462C251.978 269.308 255.255 275.587 260.898 277.112C265.498 278.354 270.482 276.128 273.771 272.68C277.059 269.231 278.974 264.73 280.746 260.308C287.92 242.394 293.844 223.981 298.471 205.246Z" fill="#F64E33"/>
<path d="M264.736 252.71C271.106 203.845 299.117 145.715 272.618 103.663C261.983 86.7868 245.786 76.1243 228.605 69.5715C211.424 63.0187 193.089 60.2385 175.019 56.7242C144.705 50.8291 107.505 58.427 80.8131 84.7621C65.8321 99.5436 54.1295 118.612 43.9881 138.275C38.9979 147.949 34.2202 158.222 33.1511 169.034C31.8386 182.31 39.109 197.531 48.9832 202.199C57.2497 206.108 70.6591 203.171 73.5271 190.231C79.8848 161.538 87.2517 130.691 116.341 117.588C139.724 107.054 170.924 104.833 196.075 105.73C278.531 108.674 237.531 196.83 231.069 246.392C228.197 268.428 261.838 274.938 264.736 252.71Z" fill="#FFCB0F"/>
<path d="M204.709 84.3812C196.809 82.4895 188.632 81.234 180.182 79.9854C161.405 77.2076 144.935 74.1208 125.972 80.3501C80.5571 95.2687 59.1601 146.762 47.9483 187.134C41.39 210.743 81.3667 218.508 87.9009 194.987C92.6721 177.805 99.0683 150.796 114.039 138.848C130.224 125.934 165.3 125.639 186.024 124.252C197.302 123.496 205.921 128.633 213.544 138.412C219.159 145.617 224.793 149.928 224.909 158.432C225.253 183.215 219.05 208.889 211.218 232.104C208.728 239.48 210.988 247.127 216.28 252.649C218.899 255.382 222.531 256.306 225.197 258.632C228.369 261.401 228.663 264.727 233.541 264.235C236.367 263.949 241.248 259.887 243.206 257.757C250.8 249.499 253.119 235.36 255.573 224.848C259.895 206.321 265.43 187.598 267.615 168.71C270.745 141.657 261.037 116.382 238.961 99.7524C228.197 91.6432 216.775 87.2694 204.709 84.3812Z" fill="#57B4F7"/>
<path d="M198.284 107.414C196.173 106.67 194.056 105.939 191.943 105.212C181.74 101.696 171.381 98.1486 160.607 97.5139C134.659 95.9858 111.944 113.641 94.5856 131.157C76.6191 149.287 62.9389 171.757 55.7934 196.302C53.6488 203.668 63.1744 206.734 68.0727 209.823C71.7507 212.142 73.9365 214.572 78.5812 215.271C87.8323 216.663 96.6194 211.276 99.1601 202.207C103.539 186.56 109.489 161.987 122.399 150.875C136.355 138.864 166.055 137.902 183.624 136.236C193.187 135.329 200.381 139.808 206.64 148.508C211.253 154.92 215.934 158.709 215.865 166.406C215.665 188.832 209.907 212.193 202.816 233.362C199.874 242.148 207.624 262.655 219.863 256.069C223.309 254.214 225.427 250.645 227.318 247.216C240.115 224.022 250.602 198.895 252.31 172.458C252.884 163.565 252.416 154.433 249.21 146.119C244.846 134.796 235.685 125.84 225.336 119.503C216.898 114.334 207.637 110.718 198.284 107.414Z" fill="#FF7C69"/>
<path d="M183.236 126.801C175.312 124.083 167.154 122.352 158.821 122.721C139.224 123.592 125.291 135.43 112.104 148.541C96.5707 163.987 85.3831 180.893 78.0539 201.792C77.384 203.705 76.7417 205.68 76.8082 207.703C76.9436 211.877 80.1359 215.457 83.8909 217.289C86.7005 218.66 92.8972 220.763 95.9933 220.234C100.605 219.447 101.132 216.347 103.726 211.635C112.86 195.037 123.326 178.525 136.872 165.146C147.058 155.086 161.161 145.225 176.246 148.892C184.242 150.834 191.442 156.236 195.214 163.584C199.437 171.811 199.436 181.462 198.001 190.391C196.355 200.647 192.734 210.543 188.469 219.978C185.739 226.019 182.677 231.92 179.329 237.651C182.975 245.078 202.234 258.099 209.41 250.242C212.587 246.765 213.447 241.839 214.547 237.26C218.071 222.614 225.299 209.106 229.385 194.605C233.471 180.106 233.942 163.31 224.954 151.22C218.98 143.182 209.706 138.372 200.649 134.097C194.996 131.431 189.182 128.84 183.236 126.801Z" fill="#77E6AC"/>
<path d="M211.433 167.282C211.285 165.998 210.118 165.007 208.817 165.135C207.544 165.262 206.521 166.462 206.671 167.752C207.309 173.275 207.468 178.841 207.087 184.389C206.998 185.677 207.715 186.914 209.073 187.129C210.262 187.319 211.725 186.439 211.813 185.143C212.225 179.188 212.118 173.213 211.433 167.282Z" fill="black"/>
<path d="M221.659 182.237C220.534 181.797 218.94 182.187 218.5 183.454L214.418 195.186C214.007 196.366 214.36 197.845 215.634 198.345C216.759 198.786 218.353 198.395 218.793 197.129L222.875 185.396C223.283 184.218 222.931 182.738 221.659 182.237Z" fill="#1D6FAB"/>
<path d="M110.038 103.237C109.653 102.742 109.102 102.327 108.459 102.255C107.874 102.188 107.164 102.261 106.702 102.663C104.45 104.615 102.201 106.567 99.9493 108.519C99.4504 108.953 99.0731 109.422 98.9668 110.098C98.8751 110.666 99.0155 111.392 99.3745 111.855C99.7594 112.351 100.311 112.765 100.953 112.838C101.538 112.904 102.248 112.831 102.711 112.43C104.962 110.478 107.211 108.526 109.463 106.574C109.961 106.142 110.339 105.67 110.445 104.995C110.535 104.426 110.397 103.701 110.038 103.237Z" fill="black"/>
<path d="M115.495 127.02C115.11 126.524 114.559 126.11 113.916 126.037C113.331 125.971 112.621 126.043 112.159 126.445C109.907 128.397 107.658 130.349 105.406 132.301C104.907 132.735 104.53 133.204 104.424 133.88C104.334 134.449 104.473 135.174 104.832 135.637C105.216 136.133 105.768 136.548 106.41 136.62C106.995 136.686 107.705 136.614 108.168 136.212C110.419 134.26 112.668 132.308 114.92 130.356C115.418 129.924 115.796 129.453 115.902 128.777C115.994 128.209 115.854 127.481 115.495 127.02Z" fill="black"/>
<path d="M300.846 163.554C301.061 150.064 299.061 136.631 295.019 123.759C294.094 120.812 289.61 122.49 290.529 125.421C294.451 137.91 296.289 150.938 296.082 164.021C296.061 165.324 297.515 166.272 298.698 166.168C300.109 166.047 300.825 164.839 300.846 163.554Z" fill="black"/>
<path d="M48.5277 110.373C44.111 116.048 40.1245 122.045 36.5589 128.288C35.918 129.41 36.6783 130.959 37.7751 131.447C39.0529 132.017 40.2914 131.357 40.9337 130.231C44.2863 124.355 48.0722 118.745 52.2273 113.408C54.1172 110.984 50.4236 107.936 48.5277 110.373Z" fill="black"/>
</g>
</svg>
