<svg width="71" height="64" viewBox="0 0 71 64" fill="none" xmlns="http://www.w3.org/2000/svg">
<path d="M31.7311 3.60174C32.992 0.0548778 38.008 0.0548859 39.2689 3.60175L44.9942 19.7066C45.5612 21.3014 47.0705 22.3668 48.7631 22.3668H66.4696C70.431 22.3668 71.9824 27.5076 68.6824 29.699L54.9948 38.7881C53.4653 39.8038 52.8236 41.7303 53.4386 43.4602L58.8094 58.5679C60.0973 62.1907 56.0308 65.3669 52.8277 63.2399L37.7127 53.2029C36.3719 52.3126 34.6281 52.3126 33.2873 53.2029L18.1723 63.2399C14.9692 65.3669 10.9027 62.1907 12.1906 58.5678L17.5614 43.4602C18.1764 41.7303 17.5347 39.8038 16.0052 38.7881L2.31765 29.699C-0.982411 27.5076 0.569003 22.3668 4.53039 22.3668H22.2369C23.9294 22.3668 25.4388 21.3014 26.0058 19.7066L31.7311 3.60174Z" fill="#CDE7CB" fill-opacity="0.6"/>
</svg>
