<svg width="261" height="207" viewBox="0 0 261 207" fill="none" xmlns="http://www.w3.org/2000/svg">
<path d="M109.23 10.6269C110.49 7.07667 115.51 7.07667 116.77 10.6269L137.426 68.8541C137.992 70.4502 139.502 71.5167 141.195 71.5167H207.238C211.198 71.5167 212.751 76.6533 209.454 78.8468L156.646 113.989C155.12 115.004 154.479 116.928 155.092 118.656L175.403 175.909C176.688 179.534 172.618 182.707 169.417 180.577L115.216 144.508C113.874 143.615 112.126 143.615 110.784 144.508L56.5832 180.577C53.3817 182.707 49.3117 179.534 50.5974 175.909L70.9076 118.656C71.5206 116.928 70.8802 115.004 69.3538 113.989L16.5456 78.8468C13.2494 76.6533 14.8023 71.5167 18.7616 71.5167H84.8047C86.4982 71.5167 88.0083 70.4502 88.5745 68.8541L109.23 10.6269Z" fill="#CDE7CB" fill-opacity="0.6"/>
<path d="M217.238 98.4213C218.509 94.899 223.491 94.899 224.762 98.4213L229.027 110.234C229.599 111.819 231.104 112.875 232.789 112.875H245.616C249.592 112.875 251.133 118.047 247.805 120.223L238.178 126.518C236.627 127.533 235.975 129.481 236.605 131.224L240.448 141.87C241.752 145.482 237.711 148.678 234.497 146.576L223.189 139.182C221.859 138.313 220.141 138.313 218.811 139.182L207.503 146.576C204.289 148.678 200.248 145.482 201.552 141.87L205.395 131.224C206.025 129.481 205.373 127.533 203.822 126.518L194.195 120.223C190.867 118.047 192.408 112.875 196.384 112.875H209.211C210.896 112.875 212.401 111.819 212.973 110.234L217.238 98.4213Z" fill="#CDE7CB" fill-opacity="0.6"/>
</svg>
