<svg width="130" height="130" viewBox="0 0 130 130" fill="none" xmlns="http://www.w3.org/2000/svg">
<g clip-path="url(#clip0_1101_42693)">
<path d="M66.1901 123.791C53.0248 133.611 34.7415 131.122 19.778 116.158C7.46816 103.849 0.771634 92.9992 2.82269 81.9944C4.52386 72.8677 12.3025 70.1306 19.1656 67.8028C27.9203 64.8334 27.264 55.7852 36.9126 53.1164C46.5192 50.4592 57.4874 55.5036 68.9602 66.9763C91.1199 89.1365 80.8532 112.855 66.1901 123.791Z" fill="#00CE8E"/>
<path d="M66.1901 123.791C67.3979 122.89 68.575 121.901 69.7075 120.835C28.1679 122.058 28.4875 73.0453 38.6877 52.7163C38.091 52.8214 37.4992 52.954 36.9124 53.1162C27.2637 55.785 27.9201 64.8332 19.1654 67.8027C12.3023 70.1305 4.52362 72.8676 2.8227 81.9942C0.771389 92.999 7.46817 103.848 19.778 116.158C34.7418 131.122 53.0248 133.611 66.1901 123.791Z" fill="#00C172"/>
<path d="M47.0503 24.5848L58.2575 5.17371C60.924 0.555153 66.8296 -1.02719 71.4479 1.63933C76.069 4.30586 77.6488 10.212 74.9823 14.8298L63.7751 34.2409C61.1086 38.8595 55.203 40.4418 50.5847 37.7753C45.9461 35.0983 44.3955 29.1831 47.0503 24.5848Z" fill="#FFBBD5"/>
<path d="M92.51 78.0762C89.8435 73.4577 91.4261 67.5523 96.0444 64.8858L115.514 53.6449C120.132 50.9786 126.038 52.5594 128.705 57.1792C131.371 61.7978 129.789 67.7032 125.17 70.3697L105.7 81.6106C101.103 84.2649 95.1877 82.7154 92.51 78.0762Z" fill="#827CD1"/>
<path d="M109.697 57.0037L96.0444 64.8859C91.4261 67.5525 89.8435 73.4581 92.51 78.0764C95.188 82.7152 101.104 84.2651 105.7 81.6107L116.241 75.5249C107.921 72.5641 108.481 61.9911 109.697 57.0037Z" fill="#625AC4"/>
<path d="M94.6428 105.847C94.1781 100.535 98.1083 95.8513 103.421 95.3862L116.988 94.1992C122.301 93.7345 126.985 97.6645 127.449 102.977C127.914 108.29 123.984 112.973 118.671 113.438L105.104 114.625C99.8171 115.088 95.1097 111.184 94.6428 105.847Z" fill="#FFB25A"/>
<path d="M74.7348 54.1705C70.9637 50.3994 70.9637 44.2854 74.7348 40.5144L94.9221 20.327C98.6931 16.556 104.807 16.556 108.578 20.327C112.349 24.0981 112.349 30.2121 108.578 33.9831L88.3906 54.1705C84.6198 57.9415 78.5055 57.9415 74.7348 54.1705Z" fill="#FF6E80"/>
<path d="M4.47209e-08 42.9026V28.5884C4.47209e-08 23.2554 4.32301 18.9324 9.65605 18.9324C14.9891 18.9319 19.3126 23.2554 19.3121 28.5884V42.9026C19.3121 48.2357 14.9891 52.5587 9.65605 52.5587C4.32377 52.5592 -0.000507768 48.2359 4.47209e-08 42.9026Z" fill="#59D5FF"/>
<path d="M33.3277 86.2423C35.6798 83.8901 35.1922 79.589 32.2386 76.6354C29.285 73.6817 24.9838 73.1941 22.6317 75.5463C20.2795 77.8984 20.7671 82.1996 23.7208 85.1532C26.6744 88.1068 30.9755 88.5944 33.3277 86.2423Z" fill="white"/>
<path d="M62.3143 115.235C64.6664 112.883 64.1788 108.582 61.2252 105.629C58.2715 102.675 53.9704 102.187 51.6182 104.539C49.2661 106.892 49.7537 111.193 52.7073 114.146C55.661 117.1 59.9621 117.588 62.3143 115.235Z" fill="white"/>
<path d="M38.2898 83.8326C37.8026 83.8326 37.3151 83.6467 36.9431 83.275C36.1994 82.5311 36.1994 81.3255 36.9431 80.5818C37.2638 80.2614 37.44 79.8356 37.44 79.3824C37.44 78.9294 37.2638 78.5034 36.9431 78.1829C36.6227 77.8622 36.1971 77.686 35.7439 77.686C35.291 77.686 34.8649 77.8622 34.5445 78.1829C33.8005 78.9264 32.595 78.9264 31.8513 78.1829C31.1076 77.439 31.1076 76.2334 31.8513 75.4897C32.8913 74.45 34.2736 73.8774 35.7439 73.8774C37.2143 73.8774 38.5966 74.45 39.6363 75.49C40.6761 76.5297 41.2486 77.912 41.2486 79.3824C41.2486 80.8528 40.6761 82.235 39.6363 83.275C39.2646 83.6465 38.7771 83.8326 38.2898 83.8326Z" fill="#425460"/>
<path d="M61.0482 106.591C60.561 106.591 60.0737 106.405 59.7017 106.033C58.9578 105.289 58.9578 104.084 59.7015 103.34C60.3627 102.679 60.3627 101.602 59.7012 100.941C59.3808 100.621 58.955 100.444 58.502 100.444C58.0491 100.444 57.623 100.621 57.3026 100.941C56.5586 101.685 55.3531 101.685 54.6094 100.941C53.8657 100.197 53.8657 98.9917 54.6094 98.248C55.6494 97.2083 57.0317 96.6357 58.502 96.6357C59.9724 96.6357 61.3547 97.2083 62.3944 98.2483C64.5404 100.394 64.5407 103.887 62.3947 106.033C62.023 106.405 61.5355 106.591 61.0482 106.591Z" fill="#425460"/>
<path d="M46.4994 98.3536C44.6555 98.3536 42.8812 97.6247 41.5703 96.3138C40.1462 94.8896 39.4086 92.9183 39.5469 90.9056C39.6193 89.8562 40.5242 89.0647 41.5774 89.1363C42.6266 89.2084 43.4188 90.1174 43.3467 91.1668C43.2839 92.0806 43.6178 92.9749 44.2635 93.6203C44.9087 94.2658 45.8032 94.5989 46.7178 94.5374C47.7598 94.4689 48.6759 95.2578 48.7477 96.3072C48.8196 97.3563 48.0274 98.2653 46.978 98.3371C46.8183 98.3483 46.6586 98.3536 46.4994 98.3536Z" fill="#425460"/>
<path d="M57.8615 5.85986L47.0504 24.5849C44.3953 29.1832 45.9461 35.0982 50.5848 37.7754C55.2033 40.4419 61.1087 38.8593 63.7752 34.241L68.69 25.7283C59.4192 23.078 56.0034 12.6849 57.8615 5.85986Z" fill="#FF96C0"/>
<path d="M9.65605 52.5587C14.9891 52.5587 19.3121 48.2357 19.3121 42.9026V37.5455C7.07891 37.7209 2.47762 27.5964 2.66729 21.9292C1.01588 23.6619 4.47209e-08 26.0057 4.47209e-08 28.5884V42.9026C-0.000507768 48.2359 4.32377 52.5592 9.65605 52.5587Z" fill="#00C4FC"/>
<path d="M90.4541 24.7954L74.7348 40.5147C70.9637 44.2858 70.9637 50.3998 74.7348 54.1708C78.5058 57.9419 84.6198 57.9419 88.3906 54.1708L97.7265 44.835C89.5741 42.5785 88.2245 31.2337 90.4541 24.7954Z" fill="#F8475E"/>
<path d="M115.186 113.743C105.814 108.592 107.665 98.8702 109.904 94.8188L103.421 95.3858C98.1086 95.8507 94.1784 100.534 94.643 105.847C95.1099 111.184 99.8174 115.088 105.104 114.625L115.186 113.743Z" fill="#FF8B43"/>
</g>
<defs>
<clipPath id="clip0_1101_42693">
<rect width="130" height="130" fill="white"/>
</clipPath>
</defs>
</svg>
