<svg width="130" height="130" viewBox="0 0 130 130" fill="none" xmlns="http://www.w3.org/2000/svg">
<g clip-path="url(#clip0_1101_42982)">
<path d="M7.52903 98.8696C6.60069 98.8696 5.83997 99.6234 5.83997 100.544V128.327C5.83997 129.247 6.60069 130 7.52903 130H35.5688C36.4981 130 37.2578 129.247 37.2578 128.327V98.8696H7.52903Z" fill="#FB8276"/>
<path d="M62.3022 87.4952C62.3022 82.9993 63.6114 78.9081 66.0652 75.5359C61.9333 77.4749 57.3154 78.074 52.881 77.336V88.6249C56.0161 88.9671 59.1899 88.8699 62.3022 88.3373V87.4952Z" fill="#A2F9F9"/>
<path d="M100.687 70.2288C97.2143 71.8782 93.3502 72.7936 89.3174 72.7936H81.4493C77.5237 72.7936 73.8103 72.1083 70.4857 70.8159C65.3273 74.5204 62.0483 80.2769 62.0483 87.4953V91.0679L63.0967 91.173L62.9648 90.7912L62.7704 90.2764C62.5899 89.8003 62.6067 89.2816 62.816 88.8184C63.0253 88.3543 63.4042 87.9992 63.8802 87.8187L64.4307 87.6114C64.6479 87.5291 64.875 87.4874 65.1041 87.4874C65.8926 87.4874 66.6097 87.9833 66.8884 88.7212L68.9881 94.211L69.0069 94.2367C69.237 94.565 69.4404 94.9151 69.611 95.2772L69.6625 95.3863L69.7786 95.415C71.4607 95.8405 73.1954 96.0557 74.935 96.0557C82.9549 96.0557 90.4134 91.4497 93.9373 84.3215C94.7972 82.5809 96.5448 81.5008 98.4977 81.5008C99.2664 81.5008 100.008 81.6704 100.704 82.0066C101.917 82.5938 102.825 83.6144 103.26 84.8819C103.694 86.1445 103.606 87.5013 103.012 88.7024C100.39 94.0086 96.3207 98.4371 91.2445 101.509C86.3033 104.499 80.643 106.08 74.8765 106.08C74.8765 106.08 74.8765 106.08 74.8755 106.08C72.6985 106.08 70.5363 105.848 68.4188 105.4V115.672H72.9038L72.9296 115.447C73.2341 112.788 75.5034 110.783 78.2061 110.783C80.1957 110.783 82.0037 111.871 82.9232 113.623L83.1473 114.051L83.3725 113.623C84.2919 111.871 86.099 110.783 88.0895 110.783C90.7923 110.783 93.0605 112.789 93.366 115.447L93.3928 115.672H109.826V87.2335C109.826 79.6917 106.249 73.832 100.687 70.2288Z" fill="#48E5E1"/>
<path d="M63.0967 91.173L62.9648 90.7912L62.7704 90.2764C62.5899 89.8003 62.6067 89.2816 62.816 88.8184C63.0253 88.3543 63.4042 87.9992 63.8802 87.8187L64.4307 87.6114C64.6479 87.5291 64.875 87.4874 65.1041 87.4874C65.8926 87.4874 66.6097 87.9833 66.8884 88.7212L68.9881 94.211L69.0069 94.2367C69.237 94.565 69.4404 94.9151 69.611 95.2772L69.6625 95.3863L69.7786 95.415C69.8807 95.4418 69.9849 95.4636 70.087 95.4884V87.4953C70.087 81.2479 72.5448 76.0954 76.5497 72.4207C74.4223 72.0954 72.39 71.5558 70.4857 70.8159C65.3273 74.5204 62.0483 80.2779 62.0483 87.4953V91.0679L63.0967 91.173Z" fill="#41CECA"/>
<path d="M82.7754 116.046C82.7754 115.241 82.9638 114.482 83.2911 113.799C82.4223 111.872 80.4734 110.529 78.2061 110.529C75.3457 110.529 72.9931 112.668 72.6777 115.417H68.4188V128.326C68.4188 129.247 67.6581 130 66.7297 130H78.5859V129.981C80.6906 129.84 82.4709 128.54 83.2892 126.721C82.9628 126.039 82.7754 125.282 82.7754 124.483V116.046Z" fill="#A2F9F9"/>
<path d="M87.7097 129.981V130H110.277C114.34 130 117.635 126.736 117.635 122.708C117.635 118.682 114.34 115.417 110.277 115.417H93.619C93.3026 112.668 90.95 110.529 88.0896 110.529C85.0149 110.529 82.5215 112.999 82.5215 116.046V124.483C82.5215 127.403 84.8126 129.786 87.7097 129.981Z" fill="#A2F9F9"/>
<path d="M90.4898 124.483V116.046C90.4898 114.549 91.0948 113.192 92.0717 112.199C91.061 111.171 89.6527 110.529 88.0896 110.529C85.0149 110.529 82.5215 113 82.5215 116.046V124.483C82.5215 127.403 84.8126 129.787 87.7097 129.981V130H95.679V129.981C92.7819 129.786 90.4898 127.403 90.4898 124.483Z" fill="#91E0E0"/>
<path d="M89.3174 72.7937H81.4493C80.2214 72.7937 79.0174 72.7213 77.8361 72.5903V72.8125C77.8361 76.2948 80.6856 79.1185 84.1996 79.1185C87.7146 79.1185 90.5641 76.2948 90.5641 72.8125V72.7619C90.1496 72.7818 89.735 72.7937 89.3174 72.7937Z" fill="#FFC987"/>
<path d="M116.118 32.258C116.083 32.258 116.047 32.261 116.011 32.261V28.5407C116.011 28.257 116.005 27.9743 115.996 27.6927C115.429 28.1429 114.785 28.501 114.066 28.7559C112.476 29.3183 110.923 29.6029 109.451 29.6029C109.451 29.6029 109.451 29.6029 109.45 29.6029C101.456 29.6029 97.8391 21.1913 97.8034 21.106L97.5634 20.5327L97.3333 21.11C97.2897 21.2191 92.9048 32.017 85.5822 32.017C84.7789 32.017 83.9556 31.8851 83.1374 31.6272C79.665 30.5332 78.5175 27.892 79.7255 23.7779L79.2633 23.5756C77.0129 27.3316 73.5604 31.8097 69.8956 31.8097C69.4671 31.8097 69.0397 31.7482 68.6231 31.6262C67.2594 31.2275 66.2824 30.4321 65.721 29.2617C64.8056 27.3544 65.0268 24.4524 66.328 21.3004L65.8649 21.0941C62.8319 27.4546 59.6035 30.5461 55.9963 30.5461C55.5896 30.5461 55.175 30.5045 54.7565 30.4221V46.4509C54.7565 63.7225 66.7069 73.0476 81.4483 73.0476H89.3164C101.695 73.0476 112.101 64.6528 115.123 53.2677C115.449 53.3173 115.781 53.3461 116.118 53.3461C120.69 53.3461 124.395 48.625 124.395 42.802C124.395 36.9791 120.69 32.258 116.118 32.258Z" fill="#FFD5B3"/>
<path d="M62.7634 46.4509V28.5407C62.7634 27.7621 62.7991 26.9915 62.8646 26.2297C60.7114 29.1239 58.4411 30.5461 55.9963 30.5461C55.5896 30.5461 55.175 30.5045 54.7565 30.4222V46.4509C54.7565 63.7225 66.7069 73.0476 81.4493 73.0476H89.3174C89.3323 73.0476 89.3462 73.0466 89.3611 73.0466C74.6633 73.0069 62.7634 63.6858 62.7634 46.4509Z" fill="#E5BFA1"/>
<path d="M95.3427 46.0829C94.2904 46.0829 93.4384 45.231 93.4384 44.1787V40.9602C93.4384 39.9089 94.2904 39.0559 95.3427 39.0559C96.3941 39.0559 97.247 39.9089 97.247 40.9602V44.1787C97.247 45.231 96.3941 46.0829 95.3427 46.0829Z" fill="#775436"/>
<path d="M66.3558 46.0829C65.3045 46.0829 64.4515 45.231 64.4515 44.1787V40.9602C64.4515 39.9089 65.3045 39.0559 66.3558 39.0559C67.4081 39.0559 68.2601 39.9089 68.2601 40.9602V44.1787C68.2601 45.231 67.4081 46.0829 66.3558 46.0829Z" fill="#775436"/>
<path d="M82.1208 48.9065H80.8483C79.0977 48.9065 77.6725 47.4654 77.6725 45.695V43.2214C77.6725 42.1691 78.5244 41.3171 79.5768 41.3171C80.6291 41.3171 81.4811 42.1691 81.4811 43.2214V45.098H82.1208C83.1721 45.098 84.0251 45.9509 84.0251 47.0022C84.0251 48.0546 83.1721 48.9065 82.1208 48.9065Z" fill="#775436"/>
<path d="M81.2916 64.606C76.3385 64.606 72.3087 60.613 72.3087 55.7054C72.3087 54.7811 73.0655 54.0312 73.9978 54.0312H88.5855C89.5188 54.0312 90.2745 54.7811 90.2745 55.7054C90.2745 60.614 86.2448 64.606 81.2916 64.606Z" fill="#FB8276"/>
<path d="M80.3712 55.7054C80.3712 54.7811 81.127 54.0322 82.0603 54.0322H73.9978C73.0645 54.0322 72.3087 54.7811 72.3087 55.7054C72.3087 60.6139 76.3385 64.606 81.2916 64.606C82.7407 64.606 84.1094 64.2628 85.3224 63.6568C82.3896 62.1899 80.3712 59.1778 80.3712 55.7054Z" fill="#E1756A"/>
<path d="M88.7967 0H80.2859C64.3384 0 51.4111 12.8808 51.4111 28.7697V29.2002C51.9427 29.6078 52.5675 29.9648 53.3035 30.2554C59.422 32.6814 63.5569 26.5252 66.094 21.2041C64.2045 25.7794 64.267 30.6185 68.5527 31.8701C72.6866 33.0772 76.6558 28.4216 79.4815 23.7065C78.5135 27.0033 78.7268 30.5034 83.061 31.8701C92.1808 34.7454 97.5703 21.2041 97.5703 21.2041C97.5703 21.2041 102.544 33.102 114.152 28.9948C115.654 28.4622 116.765 27.5498 117.565 26.3675C116.339 11.6033 103.932 0 88.7967 0Z" fill="#F7931E"/>
<path d="M59.3863 29.2002V28.7697C59.3863 12.8808 72.3137 0 88.2611 0H80.2859C64.3384 0 51.4111 12.8808 51.4111 28.7697V29.2002C51.9427 29.6078 52.5675 29.9648 53.3035 30.2554C55.8227 31.2542 58.0047 30.796 59.8782 29.5423C59.7076 29.4322 59.541 29.3192 59.3863 29.2002Z" fill="#DE841B"/>
<path d="M46.5482 67.9932V65.8291C46.5482 63.7959 44.8839 62.1475 42.8319 62.1475H32.022C29.9689 62.1475 28.3057 63.7959 28.3057 65.8291V67.9932H46.5482Z" fill="#89C947"/>
<path d="M36.4128 67.9932V65.8291C36.4128 63.7959 38.0761 62.1475 40.1282 62.1475H32.021C29.9689 62.1475 28.3047 63.7959 28.3047 65.8291V67.9932H36.4128Z" fill="#7BB540"/>
<path d="M53.1358 97.1963C53.1358 98.1167 52.3751 98.8695 51.4468 98.8695H23.4071C22.4777 98.8695 21.718 98.1167 21.718 97.1963V69.4134C21.718 68.493 22.4777 67.7393 23.4071 67.7393H51.4468C52.3751 67.7393 53.1358 68.493 53.1358 69.4134V97.1963Z" fill="#D5E962"/>
<path d="M41.8589 90.9757C41.7061 90.9757 41.5524 90.94 41.4116 90.8656L37.4264 88.8017L33.4413 90.8656C33.3005 90.94 33.1467 90.9757 32.994 90.9757C32.7946 90.9757 32.5973 90.9152 32.4286 90.7942C32.1321 90.583 31.9843 90.2229 32.0468 89.8669L32.8075 85.4939L29.5831 82.3965C29.3213 82.1456 29.2271 81.7677 29.3401 81.4255C29.4532 81.0823 29.7537 80.8314 30.1157 80.7788L34.572 80.1421L36.5645 76.1629C36.7262 75.8396 37.0614 75.6353 37.4264 75.6353C37.7924 75.6353 38.1266 75.8396 38.2893 76.1629L40.2819 80.1421L44.7371 80.7788C45.0991 80.8314 45.3997 81.0823 45.5127 81.4255C45.6268 81.7687 45.5326 82.1456 45.2697 82.3965L42.0463 85.4939L42.807 89.8669C42.8695 90.2229 42.7208 90.583 42.4252 90.7942C42.2576 90.9152 42.0582 90.9757 41.8589 90.9757Z" fill="#89C947"/>
<path d="M12.0517 128.326V100.543C12.0517 99.6224 12.8115 98.8696 13.7408 98.8696H7.52903C6.60069 98.8696 5.83997 99.6224 5.83997 100.543V128.326C5.83997 129.247 6.60069 130 7.52903 130H13.7408C12.8115 130 12.0517 129.247 12.0517 128.326Z" fill="#E1756A"/>
<path d="M21.5484 121.625C21.3381 121.625 21.1368 121.543 20.988 121.398L13.9659 114.53C12.264 112.865 12.264 110.158 13.9659 108.494C14.7901 107.689 15.8861 107.244 17.0515 107.244C18.2169 107.244 19.3128 107.689 20.137 108.495L21.5484 109.876L22.9607 108.495C23.785 107.689 24.8809 107.244 26.0463 107.244C27.2117 107.244 28.3076 107.689 29.1318 108.494C30.8338 110.158 30.8338 112.866 29.1318 114.53L22.1098 121.397C21.961 121.542 21.7597 121.625 21.5484 121.625Z" fill="#EF5050"/>
<path d="M65.6615 104.688L65.5832 104.663L65.5048 104.69C64.7649 104.939 63.9933 105.065 63.2117 105.065C62.9687 105.065 62.7228 105.053 62.4808 105.028L55.9804 104.374C55.0213 104.277 54.3191 103.418 54.4153 102.459L54.4698 101.916C54.5601 101.019 55.3069 100.342 56.2075 100.342C56.266 100.342 56.3255 100.345 56.385 100.351L61.3332 100.849L61.4195 99.9944L55.4359 99.3923C55.0213 99.3507 54.6434 99.1662 54.3568 98.8696H37.2578V128.326C37.2578 129.247 38.0175 130 38.9469 130H66.9866C67.9149 130 68.6747 129.247 68.6747 128.326V105.453C67.66 105.247 66.6534 104.995 65.6615 104.688Z" fill="#FFC502"/>
<path d="M44.2402 128.326V98.8696H37.2578V128.327C37.2578 129.247 38.0175 130 38.9469 130H45.9293C45 130 44.2402 129.247 44.2402 128.326Z" fill="#E5B102"/>
<path d="M50.5185 121.535C49.5891 121.535 48.4495 120.883 47.9853 120.086L45.5365 115.884C45.0724 115.087 45.0724 113.783 45.5365 112.985L47.9853 108.784C48.4495 107.986 49.5891 107.335 50.5185 107.335H55.4141C56.3434 107.335 57.484 107.986 57.9482 108.784L60.396 112.985C60.8611 113.783 60.8611 115.087 60.396 115.884L57.9482 120.086C57.484 120.883 56.3434 121.535 55.4141 121.535H50.5185Z" fill="#FCDB67"/>
<path d="M28.4267 97.1963V69.4134C28.4267 68.493 29.1864 67.7393 30.1157 67.7393H23.4071C22.4777 67.7393 21.718 68.493 21.718 69.4134V97.1963C21.718 98.1167 22.4777 98.8695 23.4071 98.8695H30.1157C29.1864 98.8695 28.4267 98.1167 28.4267 97.1963Z" fill="#BFD158"/>
<path d="M115.952 48.8908C115.274 48.8908 114.619 48.5288 114.275 47.8911C113.775 46.9657 114.119 45.8112 115.044 45.3104C117.2 44.145 115.946 41.1735 115.891 41.0475C115.474 40.0825 115.918 38.9617 116.883 38.5442C117.848 38.1266 118.97 38.5709 119.386 39.536C119.454 39.6897 120.04 41.0921 120.091 42.8298C120.168 45.4214 119.018 47.4924 116.854 48.6617C116.568 48.8174 116.257 48.8908 115.952 48.8908Z" fill="#FFB98A"/>
<path d="M100.815 81.7776C98.1823 80.5061 95.0015 81.5941 93.7092 84.2085C89.2381 93.2539 78.9519 97.6368 69.5108 95.0878C70.0989 96.2482 70.3548 97.5515 70.2249 98.8488C69.9343 101.734 67.8842 104.041 65.1676 104.799C79.8297 109.566 96.2453 102.965 103.24 88.8145C104.532 86.2001 103.446 83.0501 100.815 81.7776Z" fill="#A2F9F9"/>
<path d="M54.1624 102.434L54.2179 101.891C54.328 100.791 55.3099 99.9882 56.4108 100.098L61.1061 100.57L61.1418 100.221L55.4101 99.6441C54.3102 99.534 53.5078 98.5521 53.6189 97.4521L53.6734 96.9086C53.7835 95.8087 54.7654 95.0063 55.8663 95.1164L61.5971 95.6937L61.6328 95.3435L56.9365 94.8714C55.8356 94.7613 55.0332 93.7794 55.1443 92.6785L55.1988 92.135C55.3099 91.0351 56.2918 90.2327 57.3918 90.3428L62.7139 90.8794L62.7267 90.8804L62.5324 90.3656C62.1108 89.2488 62.6742 88.0021 63.79 87.5806L64.3414 87.3723C65.4582 86.9508 66.7039 87.5141 67.1265 88.6309L69.2142 94.0899C70.1654 95.4437 70.6534 97.1169 70.4778 98.8734C70.0801 102.818 66.4887 105.686 62.455 105.28L55.9546 104.626C54.8547 104.516 54.0523 103.534 54.1624 102.434Z" fill="#FFD5B3"/>
</g>
<defs>
<clipPath id="clip0_1101_42982">
<rect width="130" height="130" fill="white"/>
</clipPath>
</defs>
</svg>
