<svg width="130" height="130" viewBox="0 0 130 130" fill="none" xmlns="http://www.w3.org/2000/svg">
<g clip-path="url(#clip0_1101_42716)">
<path d="M69.1353 129.884C35.7525 131.985 9.56304 105.117 2.21471 77.383C1.51054 74.7255 -5.70363 45.7658 10.4092 21.7274C13.3522 17.3366 21.3125 5.81326 35.675 1.6552C50.5797 -2.6598 70.108 1.61409 74.5983 12.6994C77.7544 20.4916 71.8069 27.5191 75.0536 30.7555C80.6283 36.3124 98.1417 15.5724 112.156 20.2846C125.606 24.8074 132.404 51.6224 129.227 72.3021C124.997 99.8374 101.336 127.858 69.1353 129.884Z" fill="#E6EDFF"/>
<mask id="mask0_1101_42716" style="mask-type:luminance" maskUnits="userSpaceOnUse" x="0" y="0" width="131" height="130">
<path d="M69.1353 129.884C35.7525 131.985 9.56304 105.117 2.21471 77.383C1.51054 74.7255 -5.70363 45.7658 10.4092 21.7274C13.3522 17.3366 21.3125 5.81326 35.675 1.6552C50.5797 -2.6598 70.108 1.61409 74.5983 12.6994C77.7544 20.4916 71.8069 27.5191 75.0536 30.7555C80.6283 36.3124 98.1417 15.5724 112.156 20.2846C125.606 24.8074 132.404 51.6224 129.227 72.3021C124.997 99.8374 101.336 127.858 69.1353 129.884Z" fill="white"/>
</mask>
<g mask="url(#mask0_1101_42716)">
<path d="M0.0552778 62.5926L32.5281 62.3704C54.1731 62.2593 75.8294 61.9471 97.4736 62.0926C108.298 62.194 119.122 62.2743 129.946 62.5926C129.977 62.5935 130.001 62.619 130 62.6499C129.999 62.6793 129.976 62.7029 129.946 62.7038C119.122 63.0221 108.298 63.1024 97.4736 63.2038C75.8294 63.3493 54.1731 63.0371 32.5281 62.926L0.0552778 62.7038C0.0247222 62.7035 0 62.6785 0 62.6479C0.000277778 62.6174 0.025 62.5929 0.0552778 62.5926Z" fill="white"/>
<path d="M0.0552778 65.5712L32.5281 65.3489C54.1731 65.2378 75.8294 64.9256 97.4736 65.0712C108.298 65.1725 119.122 65.2528 129.946 65.5712C129.977 65.572 130.001 65.5975 130 65.6284C129.999 65.6578 129.976 65.6814 129.946 65.6823C119.122 66.0006 108.298 66.0809 97.4736 66.1823C75.8294 66.3278 54.1731 66.0156 32.5281 65.9045L0.0552778 65.6823C0.0247222 65.682 0 65.657 0 65.6264C0.000277778 65.5959 0.025 65.5714 0.0552778 65.5712Z" fill="white"/>
<path d="M0.0552778 68.5497L32.5281 68.3275C54.1731 68.2163 75.8294 67.9041 97.4736 68.0497C108.298 68.1511 119.122 68.2313 129.946 68.5497C129.977 68.5505 130.001 68.5761 130 68.6069C129.999 68.6363 129.976 68.66 129.946 68.6608C119.122 68.9791 108.298 69.0594 97.4736 69.1608C75.8294 69.3063 54.1731 68.9941 32.5281 68.883L0.0552778 68.6608C0.0247222 68.6605 0 68.6355 0 68.605C0.000277778 68.5747 0.025 68.55 0.0552778 68.5497Z" fill="white"/>
<path d="M0.0552778 71.5282L32.5281 71.306C54.1731 71.1949 75.8294 70.8826 97.4736 71.0282C108.298 71.1296 119.122 71.2099 129.946 71.5282C129.977 71.529 130.001 71.5546 130 71.5854C129.999 71.6149 129.976 71.6385 129.946 71.6393C119.122 71.9576 108.298 72.0379 97.4736 72.1393C75.8294 72.2849 54.1731 71.9726 32.5281 71.8615L0.0552778 71.6393C0.0247222 71.639 0 71.614 0 71.5835C0.000277778 71.5529 0.025 71.5285 0.0552778 71.5282Z" fill="white"/>
<path d="M0.0552778 74.5067L32.5281 74.2845C54.1731 74.1734 75.8294 73.8612 97.4736 74.0067C108.298 74.1081 119.122 74.1884 129.946 74.5067C129.977 74.5075 130.001 74.5331 130 74.5639C129.999 74.5934 129.976 74.617 129.946 74.6178C119.122 74.9362 108.298 75.0164 97.4736 75.1178C75.8294 75.2634 54.1731 74.9512 32.5281 74.84L0.0552778 74.6178C0.0247222 74.6175 0 74.5925 0 74.562C0.000277778 74.5314 0.025 74.507 0.0552778 74.5067Z" fill="white"/>
<path d="M0.0552778 77.4855L32.5281 77.2632C54.1731 77.1521 75.8294 76.8399 97.4736 76.9855C108.298 77.0869 119.122 77.1671 129.946 77.4855C129.977 77.4863 130.001 77.5118 130 77.5427C129.999 77.5721 129.976 77.5957 129.946 77.5966C119.122 77.9149 108.298 77.9952 97.4736 78.0966C75.8294 78.2421 54.1731 77.9299 32.5281 77.8188L0.0552778 77.5966C0.0247222 77.5963 0 77.5713 0 77.5407C0.000277778 77.5102 0.025 77.4855 0.0552778 77.4855Z" fill="white"/>
<path d="M0.0552778 80.4637L32.5281 80.2415C54.1731 80.1304 75.8294 79.8182 97.4736 79.9637C108.298 80.0651 119.122 80.1454 129.946 80.4637C129.977 80.4646 130.001 80.4901 130 80.521C129.999 80.5504 129.976 80.574 129.946 80.5749C119.122 80.8932 108.298 80.9735 97.4736 81.0748C75.8294 81.2204 54.1731 80.9082 32.5281 80.7971L0.0552778 80.5749C0.0247222 80.5746 0 80.5496 0 80.519C0.000277778 80.4885 0.025 80.464 0.0552778 80.4637Z" fill="white"/>
<path d="M0.0552778 83.4423L32.5281 83.22C54.1731 83.1089 75.8294 82.7967 97.4736 82.9423C108.298 83.0436 119.122 83.1239 129.946 83.4423C129.977 83.4431 130.001 83.4686 130 83.4995C129.999 83.5289 129.976 83.5525 129.946 83.5534C119.122 83.8717 108.298 83.952 97.4736 84.0534C75.8294 84.1989 54.1731 83.8867 32.5281 83.7756L0.0552778 83.5534C0.0247222 83.5531 0 83.5281 0 83.4975C0.000277778 83.467 0.025 83.4425 0.0552778 83.4423Z" fill="white"/>
<path d="M0.0552778 86.421L32.5281 86.1988C54.1731 86.0877 75.8294 85.7755 97.4736 85.921C108.298 86.0224 119.122 86.1027 129.946 86.421C129.977 86.4218 130.001 86.4474 130 86.4782C129.999 86.5077 129.976 86.5313 129.946 86.5321C119.122 86.8505 108.298 86.9307 97.4736 87.0321C75.8294 87.1777 54.1731 86.8655 32.5281 86.7543L0.0552778 86.5321C0.0247222 86.5318 0 86.5068 0 86.4763C0.000277778 86.4457 0.025 86.421 0.0552778 86.421Z" fill="white"/>
<path d="M0.0552778 89.3993L32.5281 89.1771C54.1731 89.066 75.8294 88.7537 97.4736 88.8993C108.298 89.0007 119.122 89.081 129.946 89.3993C129.977 89.4001 130.001 89.4257 130 89.4565C129.999 89.486 129.976 89.5096 129.946 89.5104C119.122 89.8287 108.298 89.909 97.4736 90.0104C75.8294 90.156 54.1731 89.8437 32.5281 89.7326L0.0552778 89.5104C0.0247222 89.5101 0 89.4851 0 89.4546C0.000277778 89.424 0.025 89.3996 0.0552778 89.3993Z" fill="white"/>
<path d="M0.0552801 92.3778L32.5281 92.1556C54.1731 92.0445 75.8294 91.7322 97.4736 91.8778C108.298 91.9792 119.122 92.0595 129.946 92.3778C129.977 92.3786 130.001 92.4042 130 92.435C129.999 92.4645 129.976 92.4881 129.946 92.4889C119.122 92.8072 108.298 92.8875 97.4736 92.9889C75.8294 93.1345 54.1731 92.8222 32.5281 92.7111L0.0552801 92.4889C0.0244468 92.4886 -0.00027546 92.4636 2.31806e-06 92.4331C0.000280096 92.4025 0.0250023 92.3781 0.0552801 92.3778Z" fill="white"/>
<path d="M0.0552778 95.3566L32.5281 95.1343C54.1731 95.0232 75.8294 94.711 97.4736 94.8566C108.298 94.9579 119.122 95.0382 129.946 95.3566C129.977 95.3574 130.001 95.3829 130 95.4138C129.999 95.4432 129.976 95.4668 129.946 95.4677C119.122 95.786 108.298 95.8663 97.4736 95.9677C75.8294 96.1132 54.1731 95.801 32.5281 95.6899L0.0552778 95.4677C0.0247222 95.4674 0 95.4424 0 95.4118C0.000277778 95.3813 0.025 95.3568 0.0552778 95.3566Z" fill="white"/>
<path d="M0.0552778 98.3348L32.5281 98.1126C54.1731 98.0015 75.8294 97.6893 97.4736 97.8348C108.298 97.9362 119.122 98.0165 129.946 98.3348C129.977 98.3357 130.001 98.3612 130 98.3921C129.999 98.4215 129.976 98.4451 129.946 98.4459C119.122 98.7643 108.298 98.8446 97.4736 98.9459C75.8294 99.0915 54.1731 98.7793 32.5281 98.6682L0.0552778 98.4459C0.0247222 98.4457 0 98.4207 0 98.3901C0.000277778 98.3598 0.025 98.3351 0.0552778 98.3348Z" fill="white"/>
<path d="M0.0552778 101.313L32.5281 101.091C54.1731 100.98 75.8294 100.668 97.4736 100.813C108.298 100.915 119.122 100.995 129.946 101.313C129.977 101.314 130.001 101.34 130 101.371C129.999 101.4 129.976 101.424 129.946 101.424C119.122 101.743 108.298 101.823 97.4736 101.924C75.8294 102.07 54.1731 101.758 32.5281 101.647L0.0552778 101.424C0.0247222 101.424 0 101.399 0 101.369C0.000277778 101.338 0.025 101.314 0.0552778 101.313Z" fill="white"/>
<path d="M0.0552778 104.292L32.5281 104.07C54.1731 103.959 75.8294 103.647 97.4736 103.792C108.298 103.893 119.122 103.974 129.946 104.292C129.977 104.293 130.001 104.318 130 104.349C129.999 104.379 129.976 104.402 129.946 104.403C119.122 104.722 108.298 104.802 97.4736 104.903C75.8294 105.049 54.1731 104.737 32.5281 104.625L0.0552778 104.403C0.0247222 104.403 0 104.378 0 104.347C0.000277778 104.317 0.025 104.292 0.0552778 104.292Z" fill="white"/>
<path d="M0.0552778 107.27L32.5281 107.048C54.1731 106.937 75.8294 106.625 97.4736 106.77C108.298 106.872 119.122 106.952 129.946 107.27C129.977 107.271 130.001 107.297 130 107.328C129.999 107.357 129.976 107.381 129.946 107.381C119.122 107.7 108.298 107.78 97.4736 107.881C75.8294 108.027 54.1731 107.715 32.5281 107.604L0.0552778 107.381C0.0247222 107.381 0 107.356 0 107.326C0.000277778 107.295 0.025 107.271 0.0552778 107.27Z" fill="white"/>
<path d="M0.0552778 110.11L32.5281 109.888C54.1731 109.777 75.8294 109.465 97.4736 109.61C108.298 109.712 119.122 109.792 129.946 110.11C129.977 110.111 130.001 110.137 130 110.168C129.999 110.197 129.976 110.221 129.946 110.222C119.122 110.54 108.298 110.62 97.4736 110.722C75.8294 110.867 54.1731 110.555 32.5281 110.444L0.0552778 110.222C0.0247222 110.221 0 110.196 0 110.166C0.000277778 110.135 0.025 110.111 0.0552778 110.11Z" fill="white"/>
<path d="M0.0552778 112.95L32.5281 112.728C54.1731 112.617 75.8294 112.305 97.4736 112.45C108.298 112.552 119.122 112.632 129.946 112.95C129.977 112.951 130.001 112.977 130 113.008C129.999 113.037 129.976 113.061 129.946 113.061C119.122 113.38 108.298 113.46 97.4736 113.561C75.8294 113.707 54.1731 113.395 32.5281 113.284L0.0552778 113.061C0.0247222 113.061 0 113.036 0 113.006C0.000277778 112.975 0.025 112.951 0.0552778 112.95Z" fill="white"/>
<path d="M0.0552778 115.79L32.5281 115.568C54.1731 115.457 75.8294 115.145 97.4736 115.29C108.298 115.392 119.122 115.472 129.946 115.79C129.977 115.791 130.001 115.817 130 115.848C129.999 115.877 129.976 115.901 129.946 115.902C119.122 116.22 108.298 116.3 97.4736 116.402C75.8294 116.547 54.1731 116.235 32.5281 116.124L0.0552778 115.902C0.0247222 115.901 0 115.876 0 115.846C0.000277778 115.815 0.025 115.791 0.0552778 115.79Z" fill="white"/>
<path d="M0.0552778 118.63L32.5281 118.408C54.1731 118.297 75.8294 117.985 97.4736 118.13C108.298 118.232 119.122 118.312 129.946 118.63C129.977 118.631 130.001 118.657 130 118.688C129.999 118.717 129.976 118.741 129.946 118.742C119.122 119.06 108.298 119.14 97.4736 119.242C75.8294 119.387 54.1731 119.075 32.5281 118.964L0.0552778 118.742C0.0247222 118.741 0 118.716 0 118.686C0.000277778 118.655 0.025 118.631 0.0552778 118.63Z" fill="white"/>
<path d="M0.0552778 121.47L32.5281 121.248C54.1731 121.137 75.8294 120.825 97.4736 120.97C108.298 121.072 119.122 121.152 129.946 121.47C129.977 121.471 130.001 121.497 130 121.528C129.999 121.557 129.976 121.581 129.946 121.581C119.122 121.9 108.298 121.98 97.4736 122.081C75.8294 122.227 54.1731 121.915 32.5281 121.804L0.0552778 121.581C0.0247222 121.581 0 121.556 0 121.526C0.000277778 121.495 0.025 121.471 0.0552778 121.47Z" fill="white"/>
<path d="M0.0552778 124.026L32.5281 123.804C54.1731 123.693 75.8294 123.381 97.4736 123.526C108.298 123.628 119.122 123.708 129.946 124.026C129.977 124.027 130.001 124.053 130 124.084C129.999 124.113 129.976 124.137 129.946 124.138C119.122 124.456 108.298 124.536 97.4736 124.638C75.8294 124.783 54.1731 124.471 32.5281 124.36L0.0552778 124.138C0.0247222 124.137 0 124.112 0 124.082C0.000277778 124.051 0.025 124.027 0.0552778 124.026Z" fill="white"/>
<path d="M0.0552778 126.867L32.5281 126.644C54.1731 126.533 75.8294 126.221 97.4736 126.367C108.298 126.468 119.122 126.548 129.946 126.867C129.977 126.867 130.001 126.893 130 126.924C129.999 126.953 129.976 126.977 129.946 126.978C119.122 127.296 108.298 127.376 97.4736 127.478C86.6495 127.55 75.825 127.427 65.0008 127.367L32.5281 127.2L0.0552778 126.978C0.0247222 126.977 0 126.952 0 126.922C0.000277778 126.891 0.025 126.867 0.0552778 126.867Z" fill="white"/>
<path d="M0.0552778 59.6141L32.5281 59.3919C54.1731 59.2808 75.8294 58.9686 97.4736 59.1141C108.298 59.2155 119.122 59.2958 129.946 59.6141C129.977 59.615 130.001 59.6405 130 59.6713C129.999 59.7008 129.976 59.7244 129.946 59.7252C119.122 60.0436 108.298 60.1239 97.4736 60.2252C75.8294 60.3708 54.1731 60.0586 32.5281 59.9475L0.0552778 59.7252C0.0247222 59.725 0 59.7 0 59.6694C0.000277778 59.6391 0.025 59.6144 0.0552778 59.6141Z" fill="white"/>
<path d="M0.0552778 56.6356L32.5281 56.4134C54.1731 56.3023 75.8294 55.9901 97.4736 56.1356C108.298 56.237 119.122 56.3173 129.946 56.6356C129.977 56.6364 130.001 56.662 130 56.6928C129.999 56.7223 129.976 56.7459 129.946 56.7467C119.122 57.0651 108.298 57.1453 97.4736 57.2467C75.8294 57.3923 54.1731 57.0801 32.5281 56.9689L0.0552778 56.7467C0.0247222 56.7464 0 56.7214 0 56.6909C0.000277778 56.6603 0.025 56.6356 0.0552778 56.6356Z" fill="white"/>
<path d="M0.0552778 53.6571L32.5281 53.4349C54.1731 53.3238 75.8294 53.0115 97.4736 53.1571C108.298 53.2585 119.122 53.3388 129.946 53.6571C129.977 53.6579 130.001 53.6835 130 53.7143C129.999 53.7438 129.976 53.7674 129.946 53.7682C119.122 54.0865 108.298 54.1668 97.4736 54.2682C75.8294 54.4138 54.1731 54.1015 32.5281 53.9904L0.0552778 53.7682C0.0247222 53.7679 0 53.7429 0 53.7124C0.000277778 53.6818 0.025 53.6574 0.0552778 53.6571Z" fill="white"/>
<path d="M0.0552778 50.6786L32.5281 50.4564C54.1731 50.3452 75.8294 50.033 97.4736 50.1786C108.298 50.28 119.122 50.3602 129.946 50.6786C129.977 50.6794 130.001 50.705 130 50.7358C129.999 50.7652 129.976 50.7889 129.946 50.7897C119.122 51.108 108.298 51.1883 97.4736 51.2897C75.8294 51.4352 54.1731 51.123 32.5281 51.0119L0.0552778 50.7897C0.0247222 50.7894 0 50.7644 0 50.7339C0.000277778 50.7033 0.025 50.6789 0.0552778 50.6786Z" fill="white"/>
<path d="M0.0552778 47.7001L32.5281 47.4778C54.1731 47.3667 75.8294 47.0545 97.4736 47.2001C108.298 47.3015 119.122 47.3817 129.946 47.7001C129.977 47.7009 130.001 47.7265 130 47.7573C129.999 47.7867 129.976 47.8103 129.946 47.8112C119.122 48.1295 108.298 48.2098 97.4736 48.3112C75.8294 48.4567 54.1731 48.1445 32.5281 48.0334L0.0552778 47.8112C0.0247222 47.8109 0 47.7859 0 47.7553C0.000277778 47.7248 0.025 47.7001 0.0552778 47.7001Z" fill="white"/>
<path d="M0.0552778 44.7216L32.5281 44.4993C54.1731 44.3882 75.8294 44.076 97.4736 44.2216C108.298 44.3229 119.122 44.4032 129.946 44.7216C129.977 44.7224 130.001 44.7479 130 44.7788C129.999 44.8082 129.976 44.8318 129.946 44.8327C119.122 45.151 108.298 45.2313 97.4736 45.3327C75.8294 45.4782 54.1731 45.166 32.5281 45.0549L0.0552778 44.8327C0.0247222 44.8324 0 44.8074 0 44.7768C0.000277778 44.7463 0.025 44.7218 0.0552778 44.7216Z" fill="white"/>
<path d="M0.0552778 41.743L32.5281 41.5208C54.1731 41.4097 75.8294 41.0975 97.4736 41.243C108.298 41.3444 119.122 41.4247 129.946 41.743C129.977 41.7439 130.001 41.7694 130 41.8003C129.999 41.8297 129.976 41.8533 129.946 41.8541C119.122 42.1725 108.298 42.2528 97.4736 42.3541C75.8294 42.4997 54.1731 42.1875 32.5281 42.0764L0.0552778 41.8541C0.0247222 41.8539 0 41.8289 0 41.7983C0.000277778 41.7678 0.025 41.7433 0.0552778 41.743Z" fill="white"/>
<path d="M0.0552778 38.7643L32.5281 38.5421C54.1731 38.4309 75.8294 38.1187 97.4736 38.2643C108.298 38.3657 119.122 38.4459 129.946 38.7643C129.977 38.7651 130.001 38.7907 130 38.8215C129.999 38.8509 129.976 38.8746 129.946 38.8754C119.122 39.1937 108.298 39.274 97.4736 39.3754C75.8294 39.5209 54.1731 39.2087 32.5281 39.0976L0.0552778 38.8754C0.0247222 38.8751 0 38.8501 0 38.8196C0.000277778 38.7893 0.025 38.7646 0.0552778 38.7643Z" fill="white"/>
<path d="M0.0552778 35.786L32.5281 35.5638C54.1731 35.4527 75.8294 35.1404 97.4736 35.286C108.298 35.3874 119.122 35.4677 129.946 35.786C129.977 35.7868 130.001 35.8124 130 35.8432C129.999 35.8727 129.976 35.8963 129.946 35.8971C119.122 36.2154 108.298 36.2957 97.4736 36.3971C75.8294 36.5427 54.1731 36.2304 32.5281 36.1193L0.0552778 35.8971C0.0247222 35.8968 0 35.8718 0 35.8413C0.000277778 35.8107 0.025 35.7863 0.0552778 35.786Z" fill="white"/>
<path d="M0.0552778 32.8075L32.5281 32.5853C54.1731 32.4742 75.8294 32.1619 97.4736 32.3075C108.298 32.4089 119.122 32.4892 129.946 32.8075C129.977 32.8083 130.001 32.8339 130 32.8647C129.999 32.8942 129.976 32.9178 129.946 32.9186C119.122 33.2369 108.298 33.3172 97.4736 33.4186C75.8294 33.5642 54.1731 33.2519 32.5281 33.1408L0.0552778 32.9186C0.0247222 32.9183 0 32.8933 0 32.8628C0.000277778 32.8322 0.025 32.8078 0.0552778 32.8075Z" fill="white"/>
<path d="M0.0552778 29.8287L32.5281 29.6065C54.1731 29.4954 75.8294 29.1832 97.4736 29.3287C108.298 29.4301 119.122 29.5104 129.946 29.8287C129.977 29.8296 130.001 29.8551 130 29.8859C129.999 29.9154 129.976 29.939 129.946 29.9398C119.122 30.2582 108.298 30.3385 97.4736 30.4398C75.8294 30.5854 54.1731 30.2732 32.5281 30.1621L0.0552778 29.9398C0.0247222 29.9396 0 29.9146 0 29.884C0.000277778 29.8537 0.025 29.829 0.0552778 29.8287Z" fill="white"/>
<path d="M0.0552801 26.8505L32.5281 26.6282C54.1731 26.5171 75.8294 26.2049 97.4736 26.3505C108.298 26.4518 119.122 26.5321 129.946 26.8505C129.977 26.8513 130.001 26.8768 130 26.9077C129.999 26.9371 129.976 26.9607 129.946 26.9616C119.122 27.2799 108.298 27.3602 97.4736 27.4616C75.8294 27.6071 54.1731 27.2949 32.5281 27.1838L0.0552801 26.9616C0.0244468 26.9613 -0.00027546 26.9363 2.31806e-06 26.9055C0.000280096 26.8752 0.0250023 26.8507 0.0552801 26.8505Z" fill="white"/>
<path d="M0.0552801 23.8717L32.5281 23.6495C54.1731 23.5384 75.8294 23.2261 97.4736 23.3717C108.298 23.4731 119.122 23.5534 129.946 23.8717C129.977 23.8725 130.001 23.8981 130 23.9289C129.999 23.9584 129.976 23.982 129.946 23.9828C119.122 24.3011 108.298 24.3814 97.4736 24.4828C75.8294 24.6284 54.1731 24.3161 32.5281 24.205L0.0552801 23.9828C0.0244468 23.9825 -0.00027546 23.9575 2.31806e-06 23.927C0.000280096 23.8964 0.0250023 23.872 0.0552801 23.8717Z" fill="white"/>
<path d="M0.0552801 20.8932L32.5281 20.671C54.1731 20.5598 75.8294 20.2476 97.4736 20.3932C108.298 20.4946 119.122 20.5748 129.946 20.8932C129.977 20.894 130.001 20.9196 130 20.9504C129.999 20.9798 129.976 21.0035 129.946 21.0043C119.122 21.3226 108.298 21.4029 97.4736 21.5043C75.8294 21.6498 54.1731 21.3376 32.5281 21.2265L0.0552801 21.0043C0.0244468 21.0043 -0.00027546 20.979 2.31806e-06 20.9485C0.000280096 20.9179 0.0250023 20.8935 0.0552801 20.8932Z" fill="white"/>
<path d="M0.0552801 17.9149L32.5281 17.6927C54.1731 17.5816 75.8294 17.2694 97.4736 17.4149C108.298 17.5163 119.122 17.5966 129.946 17.9149C129.977 17.9157 130.001 17.9413 130 17.9721C129.999 18.0016 129.976 18.0252 129.946 18.026C119.122 18.3444 108.298 18.4246 97.4736 18.526C75.8294 18.6716 54.1731 18.3594 32.5281 18.2482L0.0552801 18.026C0.0244468 18.0257 -0.00027546 18.0007 2.31806e-06 17.9699C0.000280096 17.9396 0.0250023 17.9149 0.0552801 17.9149Z" fill="white"/>
<path d="M0.0552801 14.9361L32.5281 14.7139C54.1731 14.6028 75.8294 14.2906 97.4736 14.4361C108.298 14.5375 119.122 14.6178 129.946 14.9361C129.977 14.937 130.001 14.9625 130 14.9934C129.999 15.0228 129.976 15.0464 129.946 15.0473C119.122 15.3656 108.298 15.4459 97.4736 15.5473C75.8294 15.6928 54.1731 15.3806 32.5281 15.2695L0.0552801 15.0473C0.0244468 15.047 -0.00027546 15.022 2.31806e-06 14.9914C0.000280096 14.9609 0.0250023 14.9364 0.0552801 14.9361Z" fill="white"/>
<path d="M0.0552801 11.9576L32.5281 11.7354C54.1731 11.6243 75.8294 11.3121 97.4736 11.4576C108.298 11.559 119.122 11.6393 129.946 11.9576C129.977 11.9585 130.001 11.984 130 12.0149C129.999 12.0443 129.976 12.0679 129.946 12.0687C119.122 12.3871 108.298 12.4674 97.4736 12.5687C75.8294 12.7143 54.1731 12.4021 32.5281 12.291L0.0552801 12.0687C0.0244468 12.0685 -0.00027546 12.0435 2.31806e-06 12.0129C0.000280096 11.9824 0.0250023 11.9579 0.0552801 11.9576Z" fill="white"/>
<path d="M0.0552801 8.97936L32.5281 8.75714C54.1731 8.64603 75.8294 8.33381 97.4736 8.47936C108.298 8.58075 119.122 8.66103 129.946 8.97936C129.977 8.9802 130.001 9.00575 130 9.03659C129.999 9.06603 129.976 9.08964 129.946 9.09047C119.122 9.40881 108.298 9.48909 97.4736 9.59047C75.8294 9.73603 54.1731 9.42381 32.5281 9.3127L0.0552801 9.09047C0.0244468 9.0902 -0.00027546 9.0652 2.31806e-06 9.03436C0.000280096 9.00408 0.0250023 8.97936 0.0552801 8.97936Z" fill="white"/>
<path d="M0.0552801 6.0006L32.5281 5.77838C54.1731 5.66727 75.8294 5.35505 97.4736 5.5006C108.298 5.60199 119.122 5.68227 129.946 6.0006C129.977 6.00144 130.001 6.02699 130 6.05783C129.999 6.08727 129.976 6.11088 129.946 6.11171C119.122 6.43005 108.298 6.51033 97.4736 6.61171C75.8294 6.75727 54.1731 6.44505 32.5281 6.33394L0.0552801 6.11171C0.0244468 6.11144 -0.00027546 6.08644 2.31806e-06 6.0556C0.000280096 6.02533 0.0250023 6.00088 0.0552801 6.0006Z" fill="white"/>
<path d="M0.0552801 3.02209L32.5281 2.79987C54.1731 2.68875 75.8294 2.37653 97.4736 2.52209C108.298 2.62348 119.122 2.70375 129.946 3.02209C129.977 3.02292 130.001 3.04848 130 3.07931C129.999 3.10875 129.976 3.13237 129.946 3.1332C119.122 3.45153 108.298 3.53181 97.4736 3.6332C75.8294 3.77875 54.1731 3.46653 32.5281 3.35542L0.0552801 3.1332C0.0244468 3.13292 -0.00027546 3.10792 2.31806e-06 3.07737C0.000280096 3.04681 0.0250023 3.02237 0.0552801 3.02209Z" fill="white"/>
</g>
<path d="M102.044 129.444H66.2892C64.755 129.444 63.5114 128.201 63.5114 126.667V121.667C63.5114 120.133 64.755 118.889 66.2892 118.889H102.044V129.444Z" fill="#16DBA2"/>
<path d="M66.2892 126.667V121.667C66.2892 120.133 67.5328 118.889 69.067 118.889H66.2892C64.755 118.889 63.5114 120.133 63.5114 121.667V126.667C63.5114 128.201 64.755 129.444 66.2892 129.444H69.067C67.5328 129.444 66.2892 128.201 66.2892 126.667Z" fill="#14C679"/>
<path d="M96.1111 126.667H77.2222C76.9153 126.667 76.6667 126.418 76.6667 126.111V122.222C76.6667 121.915 76.9153 121.667 77.2222 121.667H96.1111V126.667Z" fill="white"/>
<path d="M69.4444 126.222C70.5183 126.222 71.3889 125.351 71.3889 124.277C71.3889 123.204 70.5183 122.333 69.4444 122.333C68.3706 122.333 67.5 123.204 67.5 124.277C67.5 125.351 68.3706 126.222 69.4444 126.222Z" fill="white"/>
<path d="M96.4886 118.889H60.7336C59.1994 118.889 57.9558 117.645 57.9558 116.111V111.111C57.9558 109.577 59.1994 108.333 60.7336 108.333H96.4886V118.889Z" fill="#FFD54F"/>
<path d="M90.5555 116.111H71.6666C71.3597 116.111 71.1111 115.862 71.1111 115.556V111.667C71.1111 111.36 71.3597 111.111 71.6666 111.111H90.5555V116.111Z" fill="white"/>
<path d="M63.8888 115.666C64.9627 115.666 65.8333 114.796 65.8333 113.722C65.8333 112.648 64.9627 111.777 63.8888 111.777C62.815 111.777 61.9444 112.648 61.9444 113.722C61.9444 114.796 62.815 115.666 63.8888 115.666Z" fill="white"/>
<path d="M126.111 86.3363H9.4444V15.2252C9.4444 12.1569 11.9316 9.66968 15 9.66968H120.556C123.624 9.66968 126.111 12.1569 126.111 15.2252V86.3363Z" fill="#B0BEC5"/>
<path d="M13.3333 86.3364V15.2253C13.3333 14.3061 14.0808 13.5586 15 13.5586H120.556C121.475 13.5586 122.222 14.3061 122.222 15.2253V86.3364H13.3333Z" fill="white"/>
<path d="M123.889 97.7253H11.6666C8.59831 97.7253 6.11108 95.2381 6.11108 92.1698V86.3364H129.444V92.1698C129.444 95.2378 126.957 97.7253 123.889 97.7253Z" fill="#78909C"/>
<path d="M114.398 72.3633L118.056 86.3363H107.222L104.722 75.4188L114.398 72.3633Z" fill="#FFC1B0"/>
<path d="M120 73.0577C120 73.0577 118.351 51.8794 113.177 45.2133C109.72 41.9194 105.074 40.3219 100.324 40.3724L92.6564 39.6058C84.5827 38.7986 73.6627 41.7372 68.8575 48.8433L58.8425 63.6541L68.2869 75.0486L74.9811 65.3855C75.2133 66.6361 75.4519 67.8886 75.6944 69.1227C77.8241 79.9561 73.1944 86.3363 73.1944 86.3363H107.731C107.3 84.9561 107.019 83.4191 106.857 81.7763L120 73.0577Z" fill="#FF6666"/>
<path d="M88.3333 39.5239C81.0444 39.9214 72.8456 42.9459 68.8578 48.8437L58.8428 63.6545L60.4353 65.5756L70.2467 51.0659C73.9831 45.5403 81.4158 42.5359 88.3333 41.8514V39.5239Z" fill="#E55C5C"/>
<path d="M91.5278 43.3354C98.1245 43.3354 103.472 37.9877 103.472 31.391C103.472 24.7942 98.1245 19.4465 91.5278 19.4465C84.931 19.4465 79.5833 24.7942 79.5833 31.391C79.5833 37.9877 84.931 43.3354 91.5278 43.3354Z" fill="#4C4C4C"/>
<path d="M108.119 67.5228C108.166 67.2195 107.958 66.9361 107.654 66.8898C107.352 66.8445 107.068 67.0514 107.021 67.3548C105.754 75.6212 105.764 81.8975 107.15 86.3364H108.345C107.009 82.0606 106.879 75.6206 108.119 67.5228Z" fill="#E55C5C"/>
<path d="M100.324 40.0948L99.1144 39.9739C95.9933 36.8417 95.0616 31.597 95.3241 26.7153L85.6944 29.3078C85.6944 29.3078 88.0597 34.6614 86.59 39.2126C84.6491 39.4578 82.9975 39.6353 80.5833 40.5939C81.1433 44.1103 82.5669 48.8006 90.2314 48.0117C96.1855 47.3987 100.505 44.1706 103.819 40.4864C101.649 40.1137 100.324 40.0948 100.324 40.0948Z" fill="#FFC1B0"/>
<path d="M85.6944 29.3078C85.6944 29.3078 88.0597 34.6614 86.59 39.2126C84.6491 39.4578 82.9975 39.6353 80.5833 40.5939C81.0061 43.2484 81.9228 46.5703 85.643 47.7006C83.9533 46.1639 83.3886 43.8998 83.0833 41.9828C85.4972 41.0242 87.1489 40.8467 89.09 40.6014C90.56 36.0506 88.1944 30.6967 88.1944 30.6967L95.2897 28.7864C95.2766 28.0934 95.2872 27.4009 95.3239 26.7153L85.6944 29.3078Z" fill="#FFAC99"/>
<path d="M92.4536 35.3264C92.4536 35.3264 85.0461 37.3634 82.4536 27.9189C79.8611 18.4745 82.12 13.7 83.5647 12.4559C86.8981 9.58559 96.9906 10.0484 98.6572 22.4559C100.313 34.7806 92.4536 35.3264 92.4536 35.3264Z" fill="#FFD7CC"/>
<path d="M83.5647 12.4558C83.5647 12.4558 96.6666 12.6411 96.3888 20.6966C96.1111 28.7522 96.2305 38.1652 99.7222 42.0855C102.239 44.9108 99.3247 56.5755 97.5005 62.8719C96.8516 65.1116 98.6375 67.3033 100.962 67.1263C105.241 66.8011 111.066 64.9588 112.302 57.5544C114.306 45.5577 104.306 40.4188 104.167 30.8355C104.028 21.2522 98.3333 6.25217 88.4722 6.11328C78.6111 5.9744 83.5647 12.4558 83.5647 12.4558Z" fill="#4C4C4C"/>
<path d="M83.4722 8.47451C83.4722 8.47451 76.0647 5.97451 76.9908 25.9745C77.9167 45.9745 66.25 53.2237 74.1667 64.7379C75.9953 66.7473 78.8214 67.9703 81.142 68.6853C83.1903 69.3165 85.2956 67.8784 85.4475 65.7403C85.8833 59.5984 86.2533 47.297 83.3336 37.7798C82.3545 34.5884 82.4539 27.9187 82.2225 25.6965C81.6764 20.4537 87.6225 21.1131 84.4447 13.3353L83.4722 8.47451Z" fill="#4C4C4C"/>
<path d="M76.9445 64.7379C69.0278 53.2234 80.6945 45.9745 79.7686 25.9745C79.225 14.2334 81.5533 10.2481 83.5689 8.95757L83.4722 8.47451C83.4722 8.47451 76.0647 5.97451 76.9908 25.9745C77.9167 45.9745 66.25 53.2237 74.1667 64.7379C75.9953 66.7473 78.8214 67.9703 81.142 68.6853C81.9525 68.9351 82.77 68.8567 83.4739 68.5434C81.2456 67.8126 78.6575 66.6203 76.9445 64.7379Z" fill="#3F3F3F"/>
<path d="M88.9167 83.1774C89.6837 83.1774 90.3055 82.5556 90.3055 81.7885C90.3055 81.0215 89.6837 80.3997 88.9167 80.3997C88.1496 80.3997 87.5278 81.0215 87.5278 81.7885C87.5278 82.5556 88.1496 83.1774 88.9167 83.1774Z" fill="white"/>
<path d="M100.028 77.6218C100.795 77.6218 101.417 76.9999 101.417 76.2329C101.417 75.4658 100.795 74.844 100.028 74.844C99.2607 74.844 98.6389 75.4658 98.6389 76.2329C98.6389 76.9999 99.2607 77.6218 100.028 77.6218Z" fill="white"/>
<path d="M91.6944 66.5107C92.4615 66.5107 93.0833 65.8889 93.0833 65.1218C93.0833 64.3547 92.4615 63.7329 91.6944 63.7329C90.9274 63.7329 90.3055 64.3547 90.3055 65.1218C90.3055 65.8889 90.9274 66.5107 91.6944 66.5107Z" fill="white"/>
<path d="M80.5833 74.8439C81.3504 74.8439 81.9722 74.2221 81.9722 73.4551C81.9722 72.688 81.3504 72.0662 80.5833 72.0662C79.8163 72.0662 79.1945 72.688 79.1945 73.4551C79.1945 74.2221 79.8163 74.8439 80.5833 74.8439Z" fill="white"/>
<path d="M68.0833 65.1218C68.8504 65.1218 69.4722 64.4999 69.4722 63.7329C69.4722 62.9658 68.8504 62.344 68.0833 62.344C67.3163 62.344 66.6945 62.9658 66.6945 63.7329C66.6945 64.4999 67.3163 65.1218 68.0833 65.1218Z" fill="white"/>
<path d="M93.0833 54.0107C93.8504 54.0107 94.4722 53.3889 94.4722 52.6218C94.4722 51.8547 93.8504 51.2329 93.0833 51.2329C92.3163 51.2329 91.6945 51.8547 91.6945 52.6218C91.6945 53.3889 92.3163 54.0107 93.0833 54.0107Z" fill="white"/>
<path d="M112.528 70.6774C113.295 70.6774 113.917 70.0556 113.917 69.2885C113.917 68.5215 113.295 67.8997 112.528 67.8997C111.761 67.8997 111.139 68.5215 111.139 69.2885C111.139 70.0556 111.761 70.6774 112.528 70.6774Z" fill="white"/>
<path d="M62.8647 35.4167C63.615 36.6825 64.2011 38.4253 64.1667 40.7661L64.48 40.1133C64.97 39.093 66.4044 39.0433 66.9636 40.0275C67.183 40.4136 67.2067 40.8805 67.0272 41.2869C66.4375 42.6208 65.1389 45.5578 65.1389 45.5578L63.1944 48.8447C63.5353 55.8694 64.0853 62.9233 64.0758 69.9586L68.2867 75.0389C68.2867 75.0389 60.0075 84.7705 55.4167 79.678C51.5564 75.3958 56.0647 48.1967 56.0647 48.1967C54.2355 44.36 54.033 39.3014 56.1161 35.5444C57.573 32.9169 61.3328 32.8319 62.8647 35.4167Z" fill="#FFC1B0"/>
<path d="M27.8725 71.8038C27.8725 71.8038 22.1383 63.7513 19.3567 67.3705C16.442 71.1633 27.8725 76.2369 27.8725 76.2369V71.8038Z" fill="#FFD7CC"/>
<path d="M40.5475 71.8038C40.5475 71.8038 46.2817 63.7513 49.0633 67.3705C51.978 71.1633 40.5475 76.2369 40.5475 76.2369V71.8038Z" fill="#FFD7CC"/>
<path d="M56.573 117.316L51.2653 105.762L59.8786 103.585C59.8786 103.585 61.8464 107.752 62.4939 109.059C70.4825 125.184 61.0139 125.37 57.643 124.778C55.2422 124.357 44.358 120.658 44.358 120.658V115.717L56.573 117.316Z" fill="#FFC1B0"/>
<path d="M5.34166 71.5308C5.34166 71.5308 5.71916 81.0097 6.47971 89.0428L13.3055 89.3664C13.1817 88.5128 13.5325 86.8119 13.1753 84.9347L11.785 71.215L13.1078 68.038L14.2572 63.9908C14.3667 63.6055 14.2869 63.1914 14.0428 62.8742C13.4203 62.0661 12.1464 62.2903 11.8372 63.2622L11.6394 63.8842C10.9325 58.2544 6.96971 58.5353 6.96971 58.5353C4.9411 58.7889 3.02805 61.3642 3.1961 64.9575C3.39305 69.1703 5.34166 71.5308 5.34166 71.5308Z" fill="#FFC1B0"/>
<path d="M48.7983 87.8353C40.9914 82.5225 26.7642 82.74 18.7319 89.2667C17.1667 90.5386 16.0194 92.2519 15.3853 94.1667L13.5161 82.5142L5.875 85.0136L6.55778 99.1775C6.72639 102.676 10.0506 105.147 13.4492 104.301L18.0472 103.156V126.667H50.1545V104.095L53.8183 111.319L61.0145 105.792C57.7678 99.2592 54.8975 91.9858 48.7983 87.8353Z" fill="#6184F2"/>
<path d="M9.33556 99.1772L8.59694 84.123L5.875 85.0133L6.55778 99.1772C6.72639 102.676 10.0506 105.147 13.4492 104.301L13.4931 104.29C11.2331 103.702 9.4575 101.709 9.33556 99.1772Z" fill="#6262EF"/>
<path d="M18.0472 103.847V126.667H20.825V103.156L18.0472 103.847Z" fill="#6262EF"/>
<path d="M50.1542 126.667H27.8725L50.1542 107.848V126.667Z" fill="#85A6F9"/>
<path d="M29.043 83.3576V70.2778H39.2702V83.0223C39.2702 83.8287 39.8491 84.5103 40.6411 84.662C41.5961 84.8451 42.5291 85.0742 43.4294 85.3517C41.5494 88.5084 38.1077 90.6267 34.1669 90.6267C30.3944 90.6267 27.0808 88.6845 25.155 85.7498C26.0002 85.4503 26.8686 85.1956 27.7516 84.9812C28.5058 84.7984 29.043 84.1334 29.043 83.3576Z" fill="#FFCDBD"/>
<path d="M46.9208 56.351C46.9208 54.2033 45.1797 52.4622 43.032 52.4622H30.4056C26.1153 52.4622 22.6372 55.9402 22.6372 60.2305C22.6372 60.8047 22.7014 61.3638 22.8197 61.9027C22.0592 63.7041 21.632 65.7155 21.632 67.8385C21.632 75.5427 27.2308 81.7883 34.1378 81.7883C41.0445 81.7883 46.6436 75.5427 46.6436 67.8385C46.6436 65.7391 46.2253 63.7497 45.4806 61.9638C46.3978 60.2991 46.9208 58.3866 46.9208 56.351Z" fill="#4C4C4C"/>
<path d="M24.4094 67.8385C24.4094 65.7152 24.8367 63.7041 25.5972 61.9027C25.4789 61.3638 25.4147 60.8049 25.4147 60.2305C25.4147 55.9402 28.8928 52.4622 33.183 52.4622H30.4053C26.115 52.4622 22.6369 55.9402 22.6369 60.2305C22.6369 60.8047 22.7011 61.3638 22.8194 61.9027C22.0589 63.7041 21.6317 65.7155 21.6317 67.8385C21.6317 75.5427 27.2305 81.7883 34.1375 81.7883C34.6072 81.7883 35.0703 81.7569 35.5264 81.7005C29.2736 80.9297 24.4094 75.0191 24.4094 67.8385Z" fill="#3F3F3F"/>
<path d="M55 0H17.7778C16.8572 0 16.1111 0.746111 16.1111 1.66667V19.0119C16.1111 19.9325 16.8572 20.6786 17.7778 20.6786H44.7591L50.6583 25.4239L50.68 20.6786H55C55.9205 20.6786 56.6666 19.9325 56.6666 19.0119V1.66667C56.6666 0.746111 55.9205 0 55 0Z" fill="#16DBA2"/>
<path d="M20.5555 0H17.7778C16.8572 0 16.1111 0.746111 16.1111 1.66667V19.0119C16.1111 19.9325 16.8572 20.6786 17.7778 20.6786H20.5555C19.635 20.6786 18.8889 19.9325 18.8889 19.0119V1.66667C18.8889 0.746111 19.635 0 20.5555 0Z" fill="#14C679"/>
<path d="M49.6389 6.69241H23.1389C22.8322 6.69241 22.5833 6.44352 22.5833 6.13685C22.5833 5.83019 22.8322 5.5813 23.1389 5.5813H49.6389C49.9455 5.5813 50.1944 5.83019 50.1944 6.13685C50.1944 6.44352 49.9455 6.69241 49.6389 6.69241Z" fill="white"/>
<path d="M40.8225 14.5305H23.1389C22.8322 14.5305 22.5833 14.2817 22.5833 13.975C22.5833 13.6683 22.8322 13.4194 23.1389 13.4194H40.8225C41.1291 13.4194 41.378 13.6683 41.378 13.975C41.378 14.2817 41.1291 14.5305 40.8225 14.5305Z" fill="white"/>
<path d="M33.3333 27.7778H1.66667C0.746111 27.7778 0 28.5239 0 29.4445V44.5676C0 45.4881 0.746111 46.2342 1.66667 46.2342H23.0925L28.9917 50.9795L29.0133 46.2342H33.3333C34.2539 46.2342 35 45.4881 35 44.5676V29.4445C35 28.5239 34.2539 27.7778 33.3333 27.7778Z" fill="#FFD54F"/>
<path d="M4.44444 27.7778H1.66667C0.746111 27.7778 0 28.5239 0 29.4445V44.5676C0 45.4881 0.746111 46.2342 1.66667 46.2342H4.44444C3.52389 46.2342 2.77778 45.4881 2.77778 44.5676V29.4445C2.77778 28.5239 3.52389 27.7778 4.44444 27.7778Z" fill="#FF9852"/>
<path d="M26.5028 33.9148H5.55836C5.2517 33.9148 5.00281 33.6659 5.00281 33.3593C5.00281 33.0526 5.2517 32.8037 5.55836 32.8037H26.5028C26.8095 32.8037 27.0584 33.0526 27.0584 33.3593C27.0584 33.6659 26.8098 33.9148 26.5028 33.9148Z" fill="white"/>
<path d="M17.6864 40.6416H5.55836C5.2517 40.6416 5.00281 40.3927 5.00281 40.0861C5.00281 39.7794 5.2517 39.5305 5.55836 39.5305H17.6864C17.9931 39.5305 18.242 39.7794 18.242 40.0861C18.242 40.3927 17.9931 40.6416 17.6864 40.6416Z" fill="white"/>
<path d="M111.861 118.445L118.391 124.833L116.124 115.983C114.256 108.694 110.486 102.015 105.127 96.7331C103.119 94.7537 101.331 93.4103 100.52 93.8787C99.7086 94.347 99.9778 96.567 100.688 99.2962C102.583 106.578 106.482 113.183 111.861 118.445Z" fill="#BCBCBC"/>
<path d="M116.361 121.871C116.169 121.871 115.982 121.772 115.879 121.594L103.624 100.368C103.471 100.102 103.562 99.762 103.828 99.6087C104.093 99.4554 104.433 99.5462 104.586 99.812L116.841 121.038C116.995 121.304 116.904 121.644 116.638 121.797C116.551 121.848 116.455 121.871 116.361 121.871Z" fill="#AAAAAA"/>
<path d="M118.161 118.445L111.631 124.833L113.898 115.983C115.765 108.694 119.536 102.015 124.894 96.7331C126.902 94.7537 128.691 93.4103 129.502 93.8787C130.313 94.347 130.044 96.567 129.334 99.2962C127.439 106.578 123.54 113.183 118.161 118.445Z" fill="#BCBCBC"/>
<path d="M113.661 121.871C113.566 121.871 113.471 121.848 113.383 121.797C113.117 121.643 113.027 121.304 113.18 121.038L125.435 99.812C125.588 99.5462 125.928 99.4554 126.194 99.6087C126.46 99.7623 126.551 100.102 126.397 100.368L114.142 121.594C114.039 121.772 113.852 121.871 113.661 121.871Z" fill="#AAAAAA"/>
<path d="M112.549 115.652L115.011 124.449L117.472 115.652C119.499 108.406 119.574 100.736 117.574 93.4824C116.825 90.7638 115.948 88.7065 115.011 88.7065C114.074 88.7065 113.197 90.7638 112.448 93.4824C110.447 100.736 110.522 108.406 112.549 115.652Z" fill="#D6D6D6"/>
<path d="M115.011 120.944C114.704 120.944 114.455 120.695 114.455 120.389V95.8788C114.455 95.5721 114.704 95.3232 115.011 95.3232C115.317 95.3232 115.566 95.5721 115.566 95.8788V120.389C115.566 120.695 115.317 120.944 115.011 120.944Z" fill="#BCBCBC"/>
<path d="M111.454 130H118.567C119.891 130 121.031 129.066 121.291 127.767L123.622 116.121H106.399L108.73 127.767C108.99 129.066 110.13 130 111.454 130Z" fill="#FF669D"/>
<path d="M111.508 127.767L109.177 116.121H106.4L108.731 127.767C108.99 129.066 110.13 130 111.454 130H114.232C112.908 130 111.768 129.066 111.508 127.767Z" fill="#EF508D"/>
<path d="M125.011 116.677H105.011C104.704 116.677 104.455 116.428 104.455 116.121C104.455 115.814 104.704 115.565 105.011 115.565H125.011C125.317 115.565 125.566 115.814 125.566 116.121C125.566 116.428 125.317 116.677 125.011 116.677Z" fill="#F47DB3"/>
</g>
<defs>
<clipPath id="clip0_1101_42716">
<rect width="130" height="130" fill="white"/>
</clipPath>
</defs>
</svg>
