<svg width="136" height="211" viewBox="0 0 136 211" fill="none" xmlns="http://www.w3.org/2000/svg">
<g id="Group">
<path id="Vector" d="M55.5508 103.03C49.3939 108.329 41.5557 119.031 48.0166 127.479C48.7585 128.45 49.7112 129.234 50.6583 130.005C56.6323 134.867 62.7742 139.547 69.3435 143.568C72.2817 145.366 75.5106 147.084 78.951 146.925C87.3126 146.54 97.5055 123.406 101.073 116.622C106.236 106.802 109.966 96.8778 113.371 86.5347C116.626 76.6491 123.272 67.8711 128.317 58.811C133.62 49.2871 138.139 38.9741 138.581 28.083C111.829 54.2964 83.8886 78.6459 55.5508 103.03Z" fill="#DE9569"/>
<path id="Vector_2" d="M58.7535 119.344C65.0276 113.327 71.5465 107.542 77.708 101.409C89.8407 89.3328 133.698 38.7229 133.345 39.5136C130.436 46.0544 108.875 78.7921 105.48 85.0931C99.4041 96.3721 93.1611 107.55 87.2127 118.899C84.1791 124.689 81.1139 130.47 77.795 136.105C76.5762 138.174 72.3843 142.739 72.2629 145.022C72.1418 147.312 73.7101 147.563 74.6804 149.787C79.7687 161.451 89.7638 172.716 98.0692 182.204C99.5529 183.901 101.111 185.608 103.109 186.647C105.109 187.685 107.668 187.935 109.557 186.705C110.764 185.921 111.556 184.648 112.237 183.38C114.814 178.58 116.355 173.307 117.878 168.076C132.09 119.27 147.824 71.0372 154.994 20.5388C155.441 17.3883 156.429 12.2283 153.571 9.99272C150.817 7.83781 146.998 9.60891 144.433 11.2287C111.608 31.9727 79.4764 53.8162 46.3162 74.0183C37.7995 79.2069 30.0496 84.839 22.1579 90.8768C15.1596 96.2305 7.50208 100.351 1.59276 107.234C8.07272 112.853 16.1463 116.23 24.069 119.514C30.0978 122.013 38.634 127.666 45.0807 128.236C51.3443 128.79 54.0107 123.892 58.7535 119.344Z" fill="#F4B690"/>
<path id="Vector_3" d="M52.2961 129.144C60.8822 121.974 69.0259 114.3 76.6926 106.157C78.3146 104.433 75.8508 101.663 74.2099 103.406C66.5432 111.548 58.3979 119.223 49.8133 126.392C47.9817 127.92 50.4655 130.673 52.2961 129.144Z" fill="#69654D"/>
<path id="Vector_4" d="M43.9642 105.307C47.378 103.113 50.7918 100.919 54.2056 98.7245C55.0466 98.1832 55.4967 97.1813 55.008 96.2294C54.5861 95.4052 53.3584 94.8824 52.5129 95.4269C49.099 97.6212 45.6852 99.8155 42.2713 102.01C41.4304 102.551 40.9792 103.552 41.469 104.505C41.8909 105.329 43.1187 105.852 43.9642 105.307Z" fill="#69654D"/>
<path id="Vector_5" d="M34.3148 102.026C37.0048 99.0769 40.1385 96.8011 43.7742 95.1754C44.6879 94.7668 45.0157 93.5378 44.5766 92.6803C44.1005 91.749 42.998 91.4671 42.0814 91.8779C38.2108 93.6087 34.6898 96.1426 31.8321 99.2745C31.1581 100.013 30.98 101.098 31.6975 101.892C32.3182 102.58 33.6374 102.77 34.3148 102.026Z" fill="#69654D"/>
<path id="Vector_6" d="M103.562 150.223C104.548 150.242 105.486 149.528 105.53 148.491L106.01 137.11C106.051 136.142 105.295 135.161 104.278 135.142C103.292 135.123 102.354 135.837 102.31 136.873C102.151 140.668 101.989 144.462 101.83 148.257C101.789 149.222 102.546 150.205 103.562 150.223Z" fill="#69654D"/>
</g>
</svg>
