<svg width="276" height="183" viewBox="0 0 276 183" fill="none" xmlns="http://www.w3.org/2000/svg">
<path d="M7.85039 181.164C5.85624 179.047 6.26264 176.299 5.88637 173.423C4.80995 165.197 3.15959 157.145 2.33931 148.846C1.7134 142.513 1.12684 133.712 3.95698 127.714C10.7409 113.337 19.3628 109.643 35.9674 104.91C36.6705 104.71 58.1768 96.2667 55.5956 103.575C54.842 105.709 53.6478 107.502 52.4588 109.407C49.1059 114.781 47.1349 120.314 41.7578 124.178C36.0352 128.289 15.5312 106.14 13.5735 103.31C8.53199 96.0227 12.003 88.8962 18.4477 83.3729C28.6376 74.6397 40.4632 68.7844 52.5226 63.0994C60.5741 59.3038 78.71 49.4881 89.3388 50.2602C94.6252 50.6442 96.0976 58.4274 93.4974 61.6873C90.6 65.3197 81.2635 77.1633 75.4234 75.3048C71.8425 74.1652 67.6177 64.0017 67.293 60.906C65.712 45.8339 69.2982 35.0244 87.1199 30.8251C104.888 26.6382 121.902 27.5418 140.072 28.8921C161.034 30.45 183.533 33.1058 203.426 40.6027C212.325 43.9562 219.5 41.3369 235 40.6027C300.5 37.5 288.261 1.19688 298.428 1.5C311.605 1.89286 287.661 47.9702 298.428 41.6793" stroke="#EF816C" stroke-opacity="0.71" stroke-width="3" stroke-linecap="round" stroke-dasharray="7 7"/>
</svg>
