<svg width="284" height="207" viewBox="0 0 284 207" fill="none" xmlns="http://www.w3.org/2000/svg">
<path id="Vector 2" d="M281.637 1.82129C273.958 6.35708 266.975 11.5568 259.305 16.0867C248.268 22.606 236.809 28.5342 225.392 34.5053C217.935 38.4055 206.967 46.8818 197.275 46.7524C192.206 46.6847 186.82 44.9189 181.855 43.9141C169.702 41.4546 165.592 37.7226 164.464 26.4115C163.294 14.6959 175.955 8.22521 187.618 9.62909C199.461 11.0547 202.88 14.3366 199.594 25.6118C197.648 32.2888 193.48 35.1406 188.007 39.0858C170.942 51.3863 146.377 53.9276 124.889 54.9835C103.437 56.0376 80.5222 53.7856 65.3184 69.6218C57.9064 77.3421 52.6064 85.5356 48.3296 95.0672C46.0048 100.248 44.749 105.398 43.6308 110.924C41.7862 120.038 40.928 125.408 37.6885 134.862C35.7526 140.512 33.7621 146.178 31.0239 151.521C11.3542 189.908 27.0005 177 2.00049 205.5" stroke="#EF816C" stroke-opacity="0.71" stroke-width="3" stroke-linecap="round" stroke-dasharray="7 7"/>
</svg>
