<svg width="32" height="32" viewBox="0 0 32 32" fill="none" xmlns="http://www.w3.org/2000/svg">
<g id="Instagram">
<path id="Vector" d="M13.3369 16.041C13.3369 14.567 14.5312 13.3718 16.0048 13.3718C17.4784 13.3718 18.6733 14.567 18.6733 16.041C18.6733 17.5151 17.4784 18.7103 16.0048 18.7103C14.5312 18.7103 13.3369 17.5151 13.3369 16.041ZM11.8944 16.041C11.8944 18.3119 13.7347 20.1526 16.0048 20.1526C18.2749 20.1526 20.1152 18.3119 20.1152 16.041C20.1152 13.7702 18.2749 11.9295 16.0048 11.9295C13.7347 11.9295 11.8944 13.7702 11.8944 16.041ZM19.3173 11.7665C19.3173 11.9565 19.3735 12.1423 19.479 12.3003C19.5845 12.4584 19.7345 12.5816 19.9099 12.6544C20.0854 12.7272 20.2785 12.7463 20.4649 12.7093C20.6513 12.6723 20.8225 12.5809 20.9569 12.4465C21.0913 12.3122 21.1828 12.1411 21.2199 11.9547C21.2571 11.7683 21.2381 11.5751 21.1655 11.3995C21.0929 11.2239 20.9698 11.0738 20.8119 10.9681C20.6539 10.8625 20.4683 10.8061 20.2783 10.806C20.0237 10.8061 19.7791 10.9073 19.5989 11.0874C19.4188 11.2675 19.3175 11.5117 19.3173 11.7665ZM12.7709 22.5586C11.9904 22.5231 11.5663 22.3931 11.2843 22.2832C10.9106 22.1377 10.6439 21.9643 10.3636 21.6843C10.0832 21.4042 9.90967 21.1377 9.76487 20.7639C9.65493 20.482 9.52493 20.0576 9.48947 19.2769C9.45067 18.4329 9.44293 18.1794 9.44293 16.0411C9.44293 13.9028 9.45133 13.65 9.48947 12.8053C9.525 12.0246 9.656 11.601 9.76487 11.3183C9.91033 10.9445 10.0836 10.6777 10.3636 10.3973C10.6436 10.1169 10.91 9.94327 11.2843 9.7984C11.5661 9.68847 11.9904 9.5584 12.7709 9.52294C13.6146 9.48414 13.8681 9.47634 16.0048 9.47634C18.1415 9.47634 18.3952 9.48474 19.2397 9.52294C20.0201 9.55847 20.4436 9.68947 20.7262 9.7984C21.0999 9.94327 21.3666 10.1173 21.647 10.3973C21.9273 10.6773 22.1002 10.9445 22.2457 11.3183C22.3556 11.6001 22.4856 12.0246 22.5211 12.8053C22.5599 13.65 22.5677 13.9028 22.5677 16.0411C22.5677 18.1794 22.5599 18.4322 22.5211 19.2769C22.4855 20.0576 22.3549 20.4819 22.2457 20.7639C22.1002 21.1377 21.9269 21.4045 21.647 21.6843C21.367 21.9641 21.0999 22.1377 20.7262 22.2832C20.4445 22.3931 20.0201 22.5231 19.2397 22.5586C18.3959 22.5975 18.1425 22.6052 16.0048 22.6052C13.8671 22.6052 13.6144 22.5975 12.7709 22.5586ZM12.7046 8.0824C11.8524 8.1212 11.2701 8.2564 10.7616 8.45434C10.2349 8.65874 9.78913 8.93294 9.3436 9.37787C8.89807 9.82287 8.6246 10.2695 8.42027 10.7963C8.2224 11.3053 8.08727 11.8875 8.04847 12.7399C8.009 13.5936 8 13.8665 8 16.041C8 18.2155 8.009 18.4885 8.04847 19.3422C8.08727 20.1947 8.2224 20.7767 8.42027 21.2857C8.6246 21.8123 8.89813 22.2594 9.3436 22.7041C9.78907 23.1489 10.2349 23.4227 10.7616 23.6277C11.2711 23.8257 11.8524 23.9608 12.7046 23.9997C13.5585 24.0385 13.8309 24.0481 16.0048 24.0481C18.1787 24.0481 18.4515 24.0391 19.305 23.9997C20.1573 23.9608 20.7391 23.8257 21.248 23.6277C21.7743 23.4227 22.2205 23.1491 22.666 22.7041C23.1115 22.2592 23.3844 21.8123 23.5893 21.2857C23.7872 20.7767 23.9229 20.1946 23.9611 19.3422C23.9999 18.4878 24.0089 18.2155 24.0089 16.041C24.0089 13.8665 23.9999 13.5936 23.9611 12.7399C23.9223 11.8874 23.7872 11.305 23.5893 10.7963C23.3844 10.2698 23.1108 9.82354 22.666 9.37787C22.2212 8.93227 21.7743 8.65874 21.2487 8.45434C20.7391 8.2564 20.1572 8.1206 19.3057 8.0824C18.4521 8.0436 18.1793 8.03394 16.0055 8.03394C13.8316 8.03394 13.5585 8.04294 12.7046 8.0824Z" fill="#4D1435"/>
<path id="Vector_2" d="M13.3369 16.041C13.3369 14.567 14.5312 13.3718 16.0048 13.3718C17.4784 13.3718 18.6733 14.567 18.6733 16.041C18.6733 17.5151 17.4784 18.7103 16.0048 18.7103C14.5312 18.7103 13.3369 17.5151 13.3369 16.041ZM11.8944 16.041C11.8944 18.3119 13.7347 20.1526 16.0048 20.1526C18.2749 20.1526 20.1152 18.3119 20.1152 16.041C20.1152 13.7702 18.2749 11.9295 16.0048 11.9295C13.7347 11.9295 11.8944 13.7702 11.8944 16.041ZM19.3173 11.7665C19.3173 11.9565 19.3735 12.1423 19.479 12.3003C19.5845 12.4584 19.7345 12.5816 19.9099 12.6544C20.0854 12.7272 20.2785 12.7463 20.4649 12.7093C20.6513 12.6723 20.8225 12.5809 20.9569 12.4465C21.0913 12.3122 21.1828 12.1411 21.2199 11.9547C21.2571 11.7683 21.2381 11.5751 21.1655 11.3995C21.0929 11.2239 20.9698 11.0738 20.8119 10.9681C20.6539 10.8625 20.4683 10.8061 20.2783 10.806C20.0237 10.8061 19.7791 10.9073 19.5989 11.0874C19.4188 11.2675 19.3175 11.5117 19.3173 11.7665ZM12.7709 22.5586C11.9904 22.5231 11.5663 22.3931 11.2843 22.2832C10.9106 22.1377 10.6439 21.9643 10.3636 21.6843C10.0832 21.4042 9.90967 21.1377 9.76487 20.7639C9.65493 20.482 9.52493 20.0576 9.48947 19.2769C9.45067 18.4329 9.44293 18.1794 9.44293 16.0411C9.44293 13.9028 9.45133 13.65 9.48947 12.8053C9.525 12.0246 9.656 11.601 9.76487 11.3183C9.91033 10.9445 10.0836 10.6777 10.3636 10.3973C10.6436 10.1169 10.91 9.94327 11.2843 9.7984C11.5661 9.68847 11.9904 9.5584 12.7709 9.52294C13.6146 9.48414 13.8681 9.47634 16.0048 9.47634C18.1415 9.47634 18.3952 9.48474 19.2397 9.52294C20.0201 9.55847 20.4436 9.68947 20.7262 9.7984C21.0999 9.94327 21.3666 10.1173 21.647 10.3973C21.9273 10.6773 22.1002 10.9445 22.2457 11.3183C22.3556 11.6001 22.4856 12.0246 22.5211 12.8053C22.5599 13.65 22.5677 13.9028 22.5677 16.0411C22.5677 18.1794 22.5599 18.4322 22.5211 19.2769C22.4855 20.0576 22.3549 20.4819 22.2457 20.7639C22.1002 21.1377 21.9269 21.4045 21.647 21.6843C21.367 21.9641 21.0999 22.1377 20.7262 22.2832C20.4445 22.3931 20.0201 22.5231 19.2397 22.5586C18.3959 22.5975 18.1425 22.6052 16.0048 22.6052C13.8671 22.6052 13.6144 22.5975 12.7709 22.5586ZM12.7046 8.0824C11.8524 8.1212 11.2701 8.2564 10.7616 8.45434C10.2349 8.65874 9.78913 8.93294 9.3436 9.37787C8.89807 9.82287 8.6246 10.2695 8.42027 10.7963C8.2224 11.3053 8.08727 11.8875 8.04847 12.7399C8.009 13.5936 8 13.8665 8 16.041C8 18.2155 8.009 18.4885 8.04847 19.3422C8.08727 20.1947 8.2224 20.7767 8.42027 21.2857C8.6246 21.8123 8.89813 22.2594 9.3436 22.7041C9.78907 23.1489 10.2349 23.4227 10.7616 23.6277C11.2711 23.8257 11.8524 23.9608 12.7046 23.9997C13.5585 24.0385 13.8309 24.0481 16.0048 24.0481C18.1787 24.0481 18.4515 24.0391 19.305 23.9997C20.1573 23.9608 20.7391 23.8257 21.248 23.6277C21.7743 23.4227 22.2205 23.1491 22.666 22.7041C23.1115 22.2592 23.3844 21.8123 23.5893 21.2857C23.7872 20.7767 23.9229 20.1946 23.9611 19.3422C23.9999 18.4878 24.0089 18.2155 24.0089 16.041C24.0089 13.8665 23.9999 13.5936 23.9611 12.7399C23.9223 11.8874 23.7872 11.305 23.5893 10.7963C23.3844 10.2698 23.1108 9.82354 22.666 9.37787C22.2212 8.93227 21.7743 8.65874 21.2487 8.45434C20.7391 8.2564 20.1572 8.1206 19.3057 8.0824C18.4521 8.0436 18.1793 8.03394 16.0055 8.03394C13.8316 8.03394 13.5585 8.04294 12.7046 8.0824Z" fill="#4D1435"/>
</g>
</svg>
