<svg width="79" height="51" viewBox="0 0 79 51" fill="none" xmlns="http://www.w3.org/2000/svg">
<g clip-path="url(#clip0_1655_197057)">
<mask id="mask0_1655_197057" style="mask-type:luminance" maskUnits="userSpaceOnUse" x="0" y="-1" width="79" height="52">
<path d="M0 -0.000324249H79V50.5479H0V-0.000324249Z" fill="white"/>
</mask>
<g mask="url(#mask0_1655_197057)">
<path d="M21.9426 41.7934L21.8899 41.7941L21.8373 41.7799C21.8724 41.7845 21.9075 41.7891 21.9426 41.7934ZM30.5289 40.6141L30.431 40.6738L30.2675 40.7176C30.3543 40.6825 30.4427 40.6504 30.5289 40.6141ZM37.406 35.2129L37.2862 35.4207L37.0895 35.6175C37.196 35.4832 37.3038 35.3502 37.406 35.2129ZM39.4872 31.5154L39.4509 31.6715L39.353 31.8405C39.3995 31.7331 39.4429 31.6241 39.4872 31.5154ZM41.3723 22.9558L48.0881 18.4756L40.1059 18.5569L44.6908 13.385L37.7949 14.6921L40.8766 8.54267L34.4263 11.8537L36.0989 4.6093L30.6 9.62809L30.3799 2.2999L26.4173 8.33976L24.1895 1.64927L21.9401 8.35453L18.1878 2.44555L17.6412 9.45597L12.4038 4.75833L13.7882 11.8026L7.48233 8.39857L10.5785 14.7719L3.70846 13.2274L8.39623 18.7077L1.31869 19.0566L7.28403 23.0309L1.02832 25.2412L7.27017 27.4465L1.2568 31.366L8.40301 31.7288L3.72416 37.1266L10.6019 35.5685L7.4851 41.8944L13.7023 38.8399L12.4334 45.6594L17.5636 41.1299L18.0258 48.2792L21.8976 42.295L24.167 48.8975L26.413 42.3332L30.3503 48.1825L30.7959 41.1887L36.0792 45.7912L34.6865 38.9088L41.0158 42.0265L37.7275 35.6855L44.9193 37.2984L39.8669 31.79L46.7917 31.3537L41.6313 27.4022L47.8694 25.1802L41.3723 22.9558Z" fill="#F0F03C"/>
</g>
<path d="M23.4552 8.854C14.3867 9.29309 7.39104 17.0003 7.83014 26.0689C8.26892 35.1375 15.9762 42.1331 25.045 41.6943C34.1133 41.2552 41.1092 33.548 40.6701 24.4794C40.2443 15.6809 32.9783 8.83368 24.2635 8.83461C23.9959 8.83461 23.7253 8.84107 23.4552 8.854Z" fill="url(#paint0_radial_1655_197057)"/>
<mask id="mask1_1655_197057" style="mask-type:luminance" maskUnits="userSpaceOnUse" x="0" y="-1" width="79" height="52">
<path d="M0 -0.000324249H79V50.5479H0V-0.000324249Z" fill="white"/>
</mask>
<g mask="url(#mask1_1655_197057)">
<path d="M53.733 33.6285V31.9793L54.5936 31.1898L56.035 33.9725L57.3987 34.1748L55.3194 30.5321L57.2922 28.6904L55.8708 28.4779L53.733 30.593V28.1642L52.6789 28.0025V33.4767L53.733 33.6285ZM57.3987 27.7999C57.6309 27.8338 57.8292 27.9502 57.9936 28.1491C58.1581 28.3483 58.24 28.5688 58.24 28.8117V34.3269C58.24 34.5695 58.1581 34.765 57.9936 34.9135C57.8292 35.0619 57.6309 35.1192 57.3987 35.0853L52.1275 34.2964C51.8956 34.2628 51.6958 34.1464 51.5279 33.9472C51.3601 33.7483 51.2764 33.5272 51.2764 33.2846V27.7697C51.2764 27.5268 51.3601 27.3312 51.5279 27.1825C51.6958 27.0344 51.8956 26.9768 52.1275 27.0107L57.3987 27.7999Z" fill="#C4161D"/>
<path d="M62.8436 28.0814L61.7443 28.2434V33.996L62.8436 33.8337V28.0814ZM65.5139 27.1826C65.6842 27.331 65.7692 27.5266 65.7692 27.7695V33.2844C65.7692 33.5276 65.6842 33.7484 65.5139 33.9473C65.3436 34.1462 65.1407 34.2626 64.9055 34.2965L59.555 35.0854C59.3195 35.119 59.1181 35.062 58.9512 34.9136C58.7843 34.7652 58.7012 34.5693 58.7012 34.3267V28.8115C58.7012 28.5689 58.7843 28.3478 58.9512 28.1489C59.1181 27.95 59.3195 27.8336 59.555 27.7997L64.9055 27.0105C65.1407 26.9769 65.3436 27.0345 65.5139 27.1826Z" fill="#C4161D"/>
<path d="M68.8085 32.7379L69.8166 32.8845C69.8745 32.8947 69.9296 32.8996 69.9813 32.8996C70.5686 32.8996 70.8623 32.459 70.8623 31.5768V30.8796C70.8623 30.395 70.7798 29.9959 70.6147 29.6824C70.45 29.3696 70.18 29.1861 69.8052 29.1319L68.8085 28.9872V32.7379ZM67.704 27.785V33.6094L69.8357 33.9188C69.9518 33.941 70.0648 33.9521 70.1747 33.9521C70.7493 33.9521 71.2047 33.7264 71.5403 33.2743C71.8436 32.8633 71.9958 32.3506 71.9958 31.7369V31.0391C71.9958 30.2977 71.8147 29.6606 71.4532 29.1276C71.0655 28.5481 70.5291 28.2072 69.8446 28.1062L67.704 27.785ZM66.9483 26.9296L72.2476 27.6988C72.4798 27.7324 72.6803 27.8469 72.8481 28.0428C73.0159 28.2386 73.1 28.4609 73.1 28.7107V34.2354C73.1 34.4851 73.0159 34.684 72.8481 34.8324C72.6803 34.9808 72.4798 35.0381 72.2476 35.0042L66.9483 34.2354C66.7159 34.2018 66.5157 34.0872 66.3476 33.8914C66.1798 33.6956 66.0957 33.4733 66.0957 33.2235V27.6988C66.0957 27.4491 66.1798 27.2502 66.3476 27.1015C66.5157 26.9534 66.7159 26.8958 66.9483 26.9296Z" fill="#C4161D"/>
<path d="M46.0274 40.191L46.7413 35.6767H48.2856C48.6441 35.6767 48.9271 35.7407 49.1345 35.8685C49.3436 35.9949 49.4862 36.1661 49.5621 36.3821C49.638 36.5981 49.655 36.8391 49.6129 37.1051C49.5709 37.3711 49.4776 37.6128 49.3331 37.8303C49.1901 38.0478 48.9946 38.2212 48.7465 38.3505C48.4987 38.4783 48.1969 38.5422 47.8414 38.5422H46.7345L46.8112 38.0573H47.9002C48.1457 38.0573 48.3494 38.0154 48.5114 37.9317C48.6735 37.8479 48.7992 37.7348 48.8887 37.5922C48.9799 37.4482 49.0398 37.2858 49.0684 37.1051C49.097 36.9243 49.0883 36.7627 49.0424 36.6201C48.998 36.4776 48.9071 36.3659 48.7696 36.2851C48.6323 36.2028 48.4395 36.1617 48.191 36.1617H47.218L46.5809 40.191H46.0274ZM50.0165 40.191L50.7303 35.6767H52.2746C52.6317 35.6767 52.9152 35.737 53.1253 35.8575C53.3356 35.9765 53.4793 36.1404 53.5564 36.349C53.6335 36.5577 53.651 36.795 53.6089 37.061C53.5669 37.327 53.4745 37.5628 53.3319 37.7686C53.1893 37.9743 52.9948 38.1359 52.7486 38.2535C52.5026 38.3696 52.2026 38.4276 51.8485 38.4276H50.5988L50.6769 37.9339H51.9087C52.1527 37.9339 52.3547 37.8986 52.5146 37.8281C52.676 37.7575 52.8005 37.6576 52.8878 37.5283C52.977 37.3975 53.0358 37.2417 53.0644 37.061C53.093 36.8802 53.0837 36.7223 53.0367 36.5871C52.9896 36.4519 52.8968 36.3476 52.7581 36.2741C52.6197 36.1991 52.427 36.1617 52.1801 36.1617H51.2071L50.5699 40.191H50.0165ZM52.4884 38.1631L53.2925 40.191H52.6498L51.8636 38.1631H52.4884ZM58.2494 37.9339C58.1741 38.41 58.022 38.8214 57.7931 39.1682C57.5642 39.515 57.2831 39.7825 56.9498 39.9706C56.6166 40.1587 56.2551 40.2527 55.8653 40.2527C55.4755 40.2527 55.1437 40.1587 54.87 39.9706C54.5962 39.7825 54.3997 39.515 54.2805 39.1682C54.1613 38.8214 54.1393 38.41 54.2146 37.9339C54.2899 37.4578 54.442 37.0463 54.6709 36.6995C54.8998 36.3527 55.1808 36.0853 55.5141 35.8972C55.8473 35.7091 56.2089 35.615 56.5986 35.615C56.9884 35.615 57.3202 35.7091 57.594 35.8972C57.8677 36.0853 58.0642 36.3527 58.1834 36.6995C58.3027 37.0463 58.3246 37.4578 58.2494 37.9339ZM57.7138 37.9339C57.7756 37.543 57.7615 37.2131 57.6716 36.9442C57.5833 36.6753 57.4376 36.4717 57.2348 36.3336C57.0335 36.1955 56.7945 36.1264 56.5178 36.1264C56.2411 36.1264 55.9794 36.1955 55.733 36.3336C55.488 36.4717 55.278 36.6753 55.103 36.9442C54.9296 37.2131 54.812 37.543 54.7502 37.9339C54.6884 38.3248 54.7016 38.6547 54.79 38.9236C54.8799 39.1925 55.0255 39.396 55.2269 39.5341C55.4297 39.6723 55.6694 39.7413 55.9461 39.7413C56.2229 39.7413 56.4837 39.6723 56.7287 39.5341C56.9752 39.396 57.1852 39.1925 57.3586 38.9236C57.5336 38.6547 57.652 38.3248 57.7138 37.9339ZM62.4381 37.0874C62.4124 36.939 62.3687 36.806 62.307 36.6885C62.247 36.5695 62.1685 36.4681 62.0717 36.3843C61.9763 36.3005 61.8629 36.2366 61.7316 36.1925C61.6002 36.1484 61.4519 36.1264 61.2868 36.1264C61.016 36.1264 60.7588 36.1955 60.5153 36.3336C60.2718 36.4717 60.0633 36.6753 59.8899 36.9442C59.7164 37.2131 59.5988 37.543 59.537 37.9339C59.4752 38.3248 59.4892 38.6547 59.5791 38.9236C59.669 39.1925 59.8161 39.396 60.0204 39.5341C60.2247 39.6723 60.4682 39.7413 60.7508 39.7413C61.0127 39.7413 61.252 39.6862 61.4688 39.576C61.6873 39.4643 61.8684 39.3071 62.012 39.1043C62.1574 38.9001 62.2519 38.6598 62.2956 38.3835L62.4596 38.4188H61.0849L61.1616 37.9339H62.9023L62.8256 38.4188C62.7668 38.7906 62.6354 39.1139 62.4312 39.3887C62.2286 39.6635 61.9747 39.8765 61.6696 40.0279C61.3662 40.1778 61.033 40.2527 60.67 40.2527C60.2653 40.2527 59.9246 40.1587 59.6479 39.9706C59.3726 39.7825 59.1769 39.515 59.0606 39.1682C58.9459 38.8214 58.9261 38.41 59.0014 37.9339C59.0579 37.5768 59.157 37.2557 59.2988 36.9706C59.4423 36.6841 59.6192 36.4401 59.8296 36.2388C60.04 36.0375 60.2756 35.8832 60.5366 35.7759C60.7975 35.6687 61.0745 35.615 61.3676 35.615C61.6086 35.615 61.8276 35.651 62.0245 35.723C62.2231 35.7936 62.3939 35.8942 62.5369 36.025C62.6816 36.1543 62.7947 36.3094 62.8762 36.4901C62.9579 36.6694 63.0023 36.8685 63.0094 37.0874H62.4381ZM63.4932 40.191L64.2071 35.6767H65.7514C66.1084 35.6767 66.392 35.737 66.6021 35.8575C66.8123 35.9765 66.956 36.1404 67.0331 36.349C67.1102 36.5577 67.1278 36.795 67.0857 37.061C67.0436 37.327 66.9513 37.5628 66.8087 37.7686C66.666 37.9743 66.4716 38.1359 66.2254 38.2535C65.9794 38.3696 65.6794 38.4276 65.3253 38.4276H64.0756L64.1537 37.9339H65.3855C65.6295 37.9339 65.8315 37.8986 65.9914 37.8281C66.1528 37.7575 66.2772 37.6576 66.3646 37.5283C66.4537 37.3975 66.5126 37.2417 66.5412 37.061C66.5698 36.8802 66.5605 36.7223 66.5135 36.5871C66.4664 36.4519 66.3736 36.3476 66.2349 36.2741C66.0965 36.1991 65.9038 36.1617 65.6568 36.1617H64.6839L64.0467 40.191H63.4932ZM65.9652 38.1631L66.7693 40.191H66.1266L65.3404 38.1631H65.9652ZM67.7004 40.191H67.1202L69.5122 35.6767H70.0835L71.0479 40.191H70.4676L69.7028 36.3909H69.6671L67.7004 40.191ZM68.1935 38.4276H70.5322L70.4556 38.9126H68.1168L68.1935 38.4276ZM72.4736 35.6767H73.1341L74.0948 39.4239H74.1484L76.2941 35.6767H76.9547L76.2408 40.191H75.7231L76.2655 36.7612H76.2208L74.2502 40.191H73.7504L72.8645 36.7612H72.8198L72.2775 40.191H71.7597L72.4736 35.6767Z" fill="#1F1917"/>
<path d="M20.2216 26.7676C20.2031 26.6365 20.1668 26.5206 20.1128 26.42C20.0591 26.3177 19.9875 26.2314 19.8981 26.1614C19.8108 26.0895 19.7063 26.0348 19.5849 25.997C19.4652 25.9593 19.3291 25.9404 19.1765 25.9404C18.8914 25.9404 18.6303 26.0104 18.3933 26.1505C18.1581 26.2906 17.9606 26.4944 17.8008 26.762C17.6413 27.0279 17.5328 27.353 17.4754 27.7373C17.4181 28.1217 17.4283 28.4486 17.5061 28.718C17.5839 28.9874 17.7203 29.1931 17.9152 29.335C18.1104 29.4751 18.3551 29.5452 18.6493 29.5452C18.9162 29.5452 19.1511 29.4985 19.3539 29.4051C19.5588 29.31 19.7241 29.1762 19.8497 29.0037C19.9771 28.8313 20.0584 28.6275 20.0935 28.3922L20.328 28.4272L18.8897 28.4271L19.0209 27.5488L21.3553 27.549L21.2516 28.2441C21.1792 28.729 21.0135 29.1457 20.7544 29.4941C20.4956 29.8408 20.1706 30.1084 19.7792 30.2969C19.3881 30.4837 18.9583 30.5771 18.4898 30.5771C17.9668 30.577 17.5244 30.4629 17.1625 30.2348C16.801 30.0049 16.5409 29.6789 16.3824 29.2568C16.2259 28.8329 16.1911 28.3299 16.278 27.748C16.3447 27.3008 16.4697 26.9021 16.6527 26.5518C16.8378 26.1998 17.0676 25.9017 17.3419 25.6574C17.6163 25.4131 17.921 25.2273 18.256 25.0998C18.591 24.9723 18.9428 24.9085 19.3115 24.9086C19.6275 24.9086 19.9148 24.9544 20.1736 25.046C20.4326 25.1358 20.655 25.2634 20.841 25.4286C21.0288 25.5939 21.1729 25.7906 21.2732 26.0187C21.3738 26.245 21.4228 26.4947 21.4202 26.7677L20.2216 26.7676ZM21.8005 30.5018L22.6242 24.9842L26.3833 24.9845L26.2397 25.9463L23.6601 25.9461L23.4638 27.2609L25.8501 27.261L25.7065 28.2228L23.3203 28.2227L23.1236 29.5401L25.7141 29.5403L25.5705 30.5021L21.8005 30.5018ZM31.9873 24.9849L31.1636 30.5025L30.1448 30.5024L28.2362 27.0295L28.1953 27.0295L27.6769 30.5023L26.4974 30.5022L27.3211 24.9845L28.3562 24.9846L30.2462 28.4549L30.2952 28.4549L30.8132 24.9848L31.9873 24.9849ZM34.1413 24.985L33.3176 30.5026L32.1381 30.5026L32.9618 24.9849L34.1413 24.985ZM38.5576 24.9853L39.7371 24.9854L39.2022 28.5686C39.1421 28.971 38.9924 29.323 38.753 29.6247C38.5155 29.9265 38.2107 30.1617 37.8386 30.3305C37.4668 30.4975 37.0503 30.581 36.589 30.581C36.126 30.581 35.7335 30.4974 35.4115 30.3304C35.0899 30.1615 34.8553 29.9262 34.7079 29.6244C34.5604 29.3227 34.5167 28.9706 34.5768 28.5683L35.1117 24.9851L36.2912 24.9852L35.7712 28.4687C35.7398 28.6789 35.7582 28.8657 35.8265 29.0291C35.8965 29.1926 36.0099 29.321 36.1666 29.4144C36.3234 29.5078 36.5153 29.5545 36.7423 29.5545C36.9711 29.5545 37.1769 29.5079 37.3598 29.4145C37.5444 29.3211 37.6952 29.1927 37.8123 29.0292C37.9311 28.8658 38.0062 28.679 38.0376 28.4689L38.5576 24.9853ZM43.497 26.5725C43.5076 26.3552 43.4393 26.1864 43.292 26.066C43.1447 25.9457 42.9294 25.8855 42.6462 25.8855C42.4537 25.8855 42.2871 25.9124 42.1465 25.9663C42.0061 26.0183 41.8936 26.0911 41.8088 26.1845C41.7259 26.2779 41.6755 26.3838 41.6579 26.5024C41.6395 26.6012 41.6475 26.6874 41.6819 26.761C41.7181 26.8347 41.7731 26.8984 41.8467 26.9523C41.9207 27.0044 42.0083 27.0502 42.1095 27.0897C42.211 27.1275 42.3206 27.1598 42.4383 27.1867L42.9218 27.3053C43.1571 27.3592 43.3697 27.4311 43.5597 27.5209C43.7497 27.6107 43.9094 27.7212 44.0387 27.8523C44.168 27.9834 44.2603 28.1379 44.3155 28.3157C44.3725 28.4936 44.3847 28.6974 44.3522 28.9273C44.3 29.265 44.1691 29.5577 43.9596 29.8056C43.7522 30.0516 43.4766 30.2429 43.133 30.3794C42.7914 30.5141 42.3937 30.5814 41.9397 30.5814C41.4893 30.5813 41.1072 30.5131 40.7935 30.3765C40.4815 30.24 40.252 30.0379 40.1049 29.7703C39.9599 29.5009 39.9125 29.1677 39.9626 28.7707L41.104 28.7708C41.0891 28.9558 41.1196 29.1103 41.1955 29.2342C41.2736 29.3564 41.3878 29.4489 41.5382 29.5118C41.6907 29.5728 41.8687 29.6034 42.0721 29.6034C42.2718 29.6034 42.4495 29.5747 42.6052 29.5172C42.7627 29.4598 42.8899 29.3798 42.987 29.2775C43.084 29.1751 43.1424 29.0575 43.1622 28.9245C43.1807 28.8006 43.159 28.6964 43.0972 28.612C43.0372 28.5276 42.9407 28.4557 42.8079 28.3965C42.677 28.3372 42.5134 28.2833 42.3172 28.2348L41.7323 28.0839C41.2788 27.9707 40.9339 27.7937 40.6974 27.553C40.4609 27.3123 40.374 26.9881 40.4367 26.5804C40.4848 26.2463 40.6182 25.9545 40.8371 25.7048C41.0578 25.4552 41.3384 25.2603 41.6789 25.1203C42.0195 24.9802 42.3931 24.9102 42.7999 24.9102C43.214 24.9102 43.5649 24.9803 43.8527 25.1204C44.1423 25.2605 44.3548 25.4554 44.49 25.7051C44.6253 25.9548 44.6711 26.2439 44.6275 26.5726L43.497 26.5725Z" fill="#231F20"/>
<path d="M18.3094 24.5055L19.4682 17.9065L20.2795 17.907L19.7046 21.1807L19.7831 21.1807L23.3677 17.9088L24.4277 17.9094L21.0914 20.885L23.2688 24.5083L22.2874 24.5078L20.4968 21.439L19.4964 22.3664L19.1207 24.5059L18.3094 24.5055ZM24.5938 24.5091L23.7432 24.5086L27.3621 17.9111L28.1996 17.9116L29.5009 24.5119L28.6503 24.5115L27.6237 18.9554L27.5714 18.9553L24.5938 24.5091ZM25.3605 21.9316L28.7889 21.9336L28.6645 22.6424L25.236 22.6405L25.3605 21.9316ZM36.1001 17.9162L36.9114 17.9167L36.1441 22.2859C36.0649 22.737 35.8862 23.1397 35.6081 23.494C35.3325 23.8461 34.9816 24.1241 34.5554 24.328C34.1295 24.5297 33.6538 24.6304 33.1282 24.6301C32.6026 24.6298 32.1623 24.5285 31.8074 24.3264C31.4528 24.1221 31.1985 23.8437 31.0445 23.4913C30.893 23.1368 30.8568 22.7339 30.936 22.2828L31.7033 17.9136L32.5146 17.9141L31.7587 22.2189C31.7021 22.5411 31.7237 22.8279 31.8235 23.0793C31.9237 23.3286 32.0942 23.5252 32.335 23.6693C32.5783 23.8112 32.8865 23.8823 33.2594 23.8825C33.6324 23.8827 33.9654 23.812 34.2586 23.6704C34.5521 23.5267 34.7916 23.3302 34.9772 23.0811C35.1652 22.8299 35.2876 22.5432 35.3441 22.221L36.1001 17.9162ZM41.9059 19.5695C41.924 19.2429 41.8093 18.9894 41.5618 18.8088C41.3143 18.6282 40.9877 18.5377 40.5821 18.5375C40.2855 18.5373 40.0176 18.5844 39.7786 18.6788C39.5417 18.7732 39.3466 18.9031 39.1932 19.0684C39.0421 19.2337 38.948 19.4217 38.911 19.6322C38.8801 19.8083 38.896 19.9598 38.9588 20.0866C39.0242 20.2112 39.1171 20.3155 39.2376 20.3993C39.3585 20.481 39.4884 20.5488 39.6273 20.6025C39.7665 20.6542 39.8955 20.6962 40.0141 20.7284L40.6629 20.9093C40.8294 20.9545 41.0126 21.0169 41.2124 21.0965C41.4143 21.1761 41.6014 21.2847 41.7735 21.4223C41.9482 21.5577 42.0813 21.7318 42.1726 21.9446C42.2639 22.1573 42.2824 22.4183 42.2281 22.7276C42.1655 23.0842 42.014 23.4064 41.7737 23.6941C41.5356 23.9819 41.2207 24.2105 40.8288 24.38C40.4392 24.5494 39.987 24.634 39.4723 24.6337C38.9925 24.6335 38.5904 24.557 38.266 24.4042C37.9439 24.2515 37.7064 24.0387 37.5537 23.7658C37.4031 23.4929 37.3464 23.176 37.3836 22.8151L38.2211 22.8156C38.1992 23.0647 38.248 23.271 38.3677 23.4343C38.4898 23.5955 38.6585 23.7159 38.8735 23.7956C39.0911 23.873 39.3329 23.9118 39.599 23.912C39.9087 23.9122 40.1955 23.8629 40.4593 23.7643C40.7234 23.6634 40.9432 23.5239 41.1184 23.3457C41.294 23.1654 41.403 22.9549 41.4452 22.7143C41.4837 22.4952 41.4529 22.3169 41.3527 22.1793C41.2525 22.0418 41.1086 21.93 40.9208 21.8439C40.7331 21.7579 40.5271 21.6826 40.3029 21.618L39.5192 21.3855C39.0218 21.237 38.6446 21.0252 38.3875 20.7501C38.1305 20.4749 38.041 20.115 38.1191 19.6704C38.184 19.3009 38.342 18.9788 38.5931 18.7039C38.8467 18.4269 39.1593 18.2123 39.5306 18.06C39.9046 17.9055 40.3053 17.8284 40.7327 17.8287C41.1646 17.8289 41.535 17.9054 41.8441 18.0581C42.1536 18.2087 42.3834 18.415 42.5337 18.6772C42.6861 18.9394 42.7386 19.237 42.691 19.5699L41.9059 19.5695ZM43.2474 24.5199L44.4062 17.921L45.2176 17.9215L44.7015 20.8601L48.2739 20.8621L48.79 17.9236L49.6013 17.924L48.4424 24.5229L47.6311 24.5225L48.1494 21.571L44.577 21.5689L44.0587 24.5204L43.2474 24.5199ZM50.3415 24.524L49.4909 24.5235L53.1099 17.9261L53.9474 17.9266L55.2486 24.5269L54.3981 24.5264L53.3715 18.9703L53.3191 18.9703L50.3415 24.524ZM51.1082 21.9465L54.5367 21.9485L54.4122 22.6574L50.9837 22.6554L51.1082 21.9465ZM56.2922 24.5275L57.4511 17.9286L58.2624 17.9291L57.228 23.8191L60.3424 23.8209L60.2179 24.5298L56.2922 24.5275ZM61.7423 17.9311L62.6714 17.9316L63.9887 21.013L64.0672 21.0131L66.4663 17.9338L67.3954 17.9344L64.2933 21.8124L63.8157 24.5319L63.0044 24.5314L63.4819 21.8119L61.7423 17.9311ZM66.8769 24.5336L66.0264 24.5331L69.6453 17.9357L70.4828 17.9361L71.7841 24.5365L70.9335 24.536L69.9069 18.9799L69.8545 18.9799L66.8769 24.5336ZM67.6436 21.9561L71.0721 21.9581L70.9476 22.667L67.5192 22.665L67.6436 21.9561Z" fill="#231F20"/>
</g>
</g>
<defs>
<radialGradient id="paint0_radial_1655_197057" cx="0" cy="0" r="1" gradientUnits="userSpaceOnUse" gradientTransform="translate(24.2501 25.2742) rotate(-2.77101) scale(16.4394)">
<stop stop-color="#F0EF3A"/>
<stop offset="1" stop-color="#ECD618"/>
</radialGradient>
<clipPath id="clip0_1655_197057">
<rect width="79" height="50.5482" fill="white"/>
</clipPath>
</defs>
</svg>
