<svg width="32" height="32" viewBox="0 0 32 32" fill="none" xmlns="http://www.w3.org/2000/svg">
<g id="Youtube">
<path id="Vector" d="M24.9005 11.5975C24.6915 10.812 24.0735 10.1923 23.2871 9.98001C21.8653 9.59888 16.1605 9.59888 16.1605 9.59888C16.1605 9.59888 10.4587 9.59888 9.03399 9.98001C8.25059 10.1895 7.63253 10.8091 7.42066 11.5975C7.04053 13.0229 7.04053 15.9989 7.04053 15.9989C7.04053 15.9989 7.04053 18.9749 7.42066 20.4003C7.62959 21.1858 8.24766 21.8055 9.03399 22.0178C10.4587 22.3989 16.1605 22.3989 16.1605 22.3989C16.1605 22.3989 21.8653 22.3989 23.2871 22.0178C24.0705 21.8083 24.6886 21.1887 24.9005 20.4003C25.2805 18.9749 25.2805 15.9989 25.2805 15.9989C25.2805 15.9989 25.2805 13.0229 24.9005 11.5975Z" fill="#4D1435"/>
<path id="Vector_2" d="M14.3384 18.7417L19.0768 15.9984L14.3384 13.2551V18.7417Z" fill="#EF816C"/>
</g>
</svg>
