<svg width="60" height="60" viewBox="0 0 60 60" fill="none" xmlns="http://www.w3.org/2000/svg">
<g id="chat 1" clip-path="url(#clip0_1762_2744)">
<g id="Group">
<g id="Group_2">
<path id="Vector" d="M41.25 0H7.5C3.36375 0 0 3.36375 0 7.5V30C0 34.1362 3.36375 37.5 7.5 37.5V46.875C7.5 47.6063 7.9275 48.2738 8.59125 48.5775C8.8425 48.6938 9.10875 48.75 9.375 48.75C9.81375 48.75 10.2487 48.5962 10.5938 48.2962L23.1938 37.5H41.25C45.3862 37.5 48.75 34.1362 48.75 30V7.5C48.75 3.36375 45.3862 0 41.25 0ZM45 30C45 32.0662 43.3162 33.75 41.25 33.75H22.5C22.0537 33.75 21.6188 33.9075 21.2812 34.2038L11.25 42.7988V35.625C11.25 34.59 10.41 33.75 9.375 33.75H7.5C5.43375 33.75 3.75 32.0662 3.75 30V7.5C3.75 5.43375 5.43375 3.75 7.5 3.75H41.25C43.3162 3.75 45 5.43375 45 7.5V30Z" fill="#3C4553"/>
</g>
</g>
<g id="Group_3">
<g id="Group_4">
<path id="Vector_2" d="M54.9855 11.6886C54.003 11.3511 52.9417 11.8686 52.6005 12.8511C52.263 13.8298 52.7805 14.8948 53.763 15.2361C55.248 15.7461 56.2492 17.1598 56.2492 18.7498V41.2498C56.2492 43.3161 54.5655 44.9998 52.4992 44.9998H50.6242C49.5892 44.9998 48.7492 45.8398 48.7492 46.8748V54.0486L38.718 45.4536C38.3805 45.1573 37.9455 44.9998 37.4992 44.9998H20.8867C19.8517 44.9998 19.0117 45.8398 19.0117 46.8748C19.0117 47.9098 19.848 48.7498 20.8867 48.7498H36.8055L49.4055 59.5461C49.7505 59.8461 50.1855 59.9998 50.6242 59.9998C50.8905 59.9998 51.1567 59.9436 51.408 59.8273C52.0717 59.5236 52.4992 58.8561 52.4992 58.1248V48.7498C56.6355 48.7498 59.9992 45.3861 59.9992 41.2498V18.7498C59.9992 15.5623 57.9855 12.7236 54.9855 11.6886Z" fill="#3C4553"/>
</g>
</g>
<g id="Group_5">
<g id="Group_6">
<path id="Vector_3" d="M35.625 11.25H13.125C12.09 11.25 11.25 12.09 11.25 13.125C11.25 14.16 12.09 15 13.125 15H35.625C36.66 15 37.5 14.16 37.5 13.125C37.5 12.09 36.66 11.25 35.625 11.25Z" fill="#3C4553"/>
</g>
</g>
<g id="Group_7">
<g id="Group_8">
<path id="Vector_4" d="M28.125 18.75H13.125C12.09 18.75 11.25 19.59 11.25 20.625C11.25 21.66 12.09 22.5 13.125 22.5H28.125C29.16 22.5 30 21.66 30 20.625C30 19.59 29.16 18.75 28.125 18.75Z" fill="#3C4553"/>
</g>
</g>
</g>
<defs>
<clipPath id="clip0_1762_2744">
<rect width="60" height="60" fill="white"/>
</clipPath>
</defs>
</svg>
