<svg width="61" height="60" viewBox="0 0 61 60" fill="none" xmlns="http://www.w3.org/2000/svg">
<g id="content-marketing 1" clip-path="url(#clip0_1762_2739)">
<path id="Vector" d="M36.8281 60H14.5625C6.80844 60 0.5 53.6916 0.5 45.9375V14.0625C0.5 6.30844 6.80844 0 14.5625 0H46.4375C54.1916 0 60.5 6.30844 60.5 14.0625V36.5039C60.5 37.7984 59.4507 38.8477 58.1562 38.8477C56.8618 38.8477 55.8125 37.7984 55.8125 36.5039V14.0625C55.8125 8.89313 51.6069 4.6875 46.4375 4.6875H14.5625C9.39313 4.6875 5.1875 8.89313 5.1875 14.0625V45.9375C5.1875 51.1069 9.39313 55.3125 14.5625 55.3125H36.8281C38.1226 55.3125 39.1719 56.3618 39.1719 57.6562C39.1719 58.9507 38.1226 60 36.8281 60ZM48.7812 14.7656C48.7812 13.4712 47.732 12.4219 46.4375 12.4219H24.9922C23.6977 12.4219 22.6484 13.4712 22.6484 14.7656C22.6484 16.0601 23.6977 17.1094 24.9922 17.1094H46.4375C47.732 17.1094 48.7812 16.0601 48.7812 14.7656ZM48.7812 24.1406C48.7812 22.8462 47.732 21.7969 46.4375 21.7969H14.5625C13.268 21.7969 12.2188 22.8462 12.2188 24.1406C12.2188 25.4351 13.268 26.4844 14.5625 26.4844H46.4375C47.732 26.4844 48.7812 25.4351 48.7812 24.1406ZM25.3438 33.5156C25.3438 32.2212 24.2945 31.1719 23 31.1719H14.5625C13.268 31.1719 12.2188 32.2212 12.2188 33.5156C12.2188 34.8101 13.268 35.8594 14.5625 35.8594H23C24.2945 35.8594 25.3438 34.8101 25.3438 33.5156ZM12.2188 14.5312C12.2188 16.1493 13.5304 17.4609 15.1484 17.4609C16.7664 17.4609 18.0781 16.1493 18.0781 14.5312C18.0781 12.9132 16.7664 11.6016 15.1484 11.6016C13.5304 11.6016 12.2188 12.9132 12.2188 14.5312ZM57.9944 57.4943C61.3298 54.1589 61.3298 48.7317 57.9944 45.3962L49.7785 37.1804C47.4039 34.8057 44.4082 33.2029 41.1153 32.5446L34.475 31.2173C33.707 31.0635 32.9124 31.3043 32.3584 31.8584C31.8043 32.4125 31.5638 33.2067 31.7173 33.9751L33.0446 40.6154C33.7029 43.9084 35.3059 46.9039 37.6803 49.2786L45.8962 57.4944C47.512 59.1101 49.6603 60 51.9453 60C54.2304 60 56.3786 59.1101 57.9944 57.4943ZM40.1966 37.1412C42.5789 37.6173 44.746 38.7769 46.4639 40.4948L54.6798 48.7106C56.1876 50.2185 56.1876 52.6719 54.6798 54.1798C53.9495 54.9102 52.9782 55.3125 51.9453 55.3125C50.9124 55.3125 49.9412 54.9102 49.2109 54.1798L40.995 45.964C39.2771 44.246 38.1174 42.0789 37.6413 39.6967L37.003 36.503L40.1966 37.1412Z" fill="#3C4553"/>
</g>
<defs>
<clipPath id="clip0_1762_2739">
<rect width="60" height="60" fill="white" transform="translate(0.5)"/>
</clipPath>
</defs>
</svg>
