<svg width="60" height="60" viewBox="0 0 60 60" fill="none" xmlns="http://www.w3.org/2000/svg">
<g id="credit-card 1">
<g id="Group">
<g id="Group_2">
<path id="Vector" d="M58.125 37.4995C57.09 37.4995 56.25 38.3395 56.25 39.3745V52.4995H3.75V29.9995H24.375C25.41 29.9995 26.25 29.1595 26.25 28.1245C26.25 27.0895 25.41 26.2495 24.375 26.2495H3.75V18.7495H24.375C25.41 18.7495 26.25 17.9095 26.25 16.8745C26.25 15.8395 25.41 14.9995 24.375 14.9995H3.75C1.68 14.9995 0 16.6795 0 18.7495V52.4995C0 54.5695 1.68 56.2495 3.75 56.2495H56.25C58.32 56.2495 60 54.5695 60 52.4995V39.3745C60 38.3395 59.16 37.4995 58.125 37.4995Z" fill="#3C4553"/>
</g>
</g>
<g id="Group_3">
<g id="Group_4">
<path id="Vector_2" d="M16.875 37.4995H9.375C8.34 37.4995 7.5 38.3395 7.5 39.3745C7.5 40.4095 8.34 41.2495 9.375 41.2495H16.875C17.91 41.2495 18.75 40.4095 18.75 39.3745C18.75 38.3395 17.91 37.4995 16.875 37.4995Z" fill="#3C4553"/>
</g>
</g>
<g id="Group_5">
<g id="Group_6">
<path id="Vector_3" d="M58.8637 9.52455L45.7387 3.89955C45.2625 3.7008 44.7338 3.7008 44.2575 3.89955L31.1325 9.52455C30.4463 9.8208 30 10.4996 30 11.2496V18.7496C30 29.0658 33.8138 35.0958 44.0663 41.002C44.355 41.167 44.6775 41.2495 45 41.2495C45.3225 41.2495 45.645 41.167 45.9337 41.002C56.1862 35.1108 60 29.0808 60 18.7496V11.2496C60 10.4996 59.5537 9.8208 58.8637 9.52455ZM56.25 18.7496C56.25 27.4083 53.385 32.1745 45 37.1996C36.615 32.1633 33.75 27.397 33.75 18.7496V12.4871L45 7.66455L56.25 12.4871V18.7496Z" fill="#3C4553"/>
</g>
</g>
<g id="Group_7">
<g id="Group_8">
<path id="Vector_4" d="M51.7994 15.4083C50.9931 14.7708 49.8156 14.8946 49.1631 15.7008L43.2681 23.0733L40.9356 19.5858C40.3544 18.7233 39.1881 18.4946 38.3369 19.0646C37.4781 19.6383 37.2419 20.8046 37.8156 21.6633L41.5656 27.2883C41.8994 27.7871 42.4469 28.0946 43.0469 28.1246C43.0731 28.1246 43.1031 28.1246 43.1256 28.1246C43.6919 28.1246 44.2319 27.8696 44.5919 27.4196L52.0919 18.0446C52.7369 17.2346 52.6094 16.0571 51.7994 15.4083Z" fill="#3C4553"/>
</g>
</g>
</g>
</svg>
