<svg width="24" height="24" viewBox="0 0 24 24" fill="none" xmlns="http://www.w3.org/2000/svg">
<g id="about-us 2" clip-path="url(#clip0_1762_2787)">
<g id="Layer 2">
<path id="Vector" d="M20.4523 24H12C5.38286 24 0 18.6166 0 12C0 5.38337 5.38286 0 12 0C18.6171 0 24 5.38337 24 12C23.9976 14.8622 22.9851 17.6223 21.1577 19.7483L21.8434 20.4674C22.1191 20.7566 22.3068 21.125 22.3827 21.526C22.4587 21.9271 22.4196 22.3428 22.2704 22.7205C22.1211 23.0982 21.8684 23.421 21.5441 23.6482C21.2199 23.8753 20.8388 23.9965 20.4489 23.9964L20.4523 24ZM12 1.79775C6.32829 1.79775 1.71429 6.37483 1.71429 12C1.71429 17.6252 6.32829 22.2022 12 22.2022H20.4523C20.5032 22.2024 20.553 22.1867 20.5954 22.1571C20.6377 22.1275 20.6708 22.0854 20.6903 22.0362C20.7099 21.9869 20.715 21.9326 20.7052 21.8803C20.6953 21.8279 20.6708 21.7798 20.6349 21.742L19.3491 20.3937C19.2688 20.3094 19.2052 20.2092 19.1621 20.0989C19.119 19.9886 19.0973 19.8704 19.0981 19.7512C19.099 19.632 19.1225 19.5142 19.1672 19.4046C19.2119 19.295 19.277 19.1958 19.3586 19.1128C20.2788 18.1956 21.0125 17.0926 21.5156 15.8702C22.0186 14.6478 22.2806 13.3314 22.2857 12C22.2857 6.37483 17.6717 1.79775 12 1.79775Z" fill="#4D1435"/>
<path id="Vector_2" d="M13.125 18.0001H10.875C10.6761 18.0001 10.4853 17.9139 10.3447 17.7605C10.204 17.6071 10.125 17.3989 10.125 17.182C10.125 16.965 10.204 16.7568 10.3447 16.6034C10.4853 16.45 10.6761 16.3638 10.875 16.3638H13.125C13.3239 16.3638 13.5147 16.45 13.6553 16.6034C13.796 16.7568 13.875 16.965 13.875 17.182C13.875 17.3989 13.796 17.6071 13.6553 17.7605C13.5147 17.9139 13.3239 18.0001 13.125 18.0001Z" fill="#4D1435"/>
<path id="Vector_3" d="M12 17.9999C11.8011 17.9999 11.6103 17.9137 11.4696 17.7602C11.329 17.6068 11.25 17.3987 11.25 17.1817V12.163C11.107 12.0729 10.9953 11.9339 10.9321 11.7675C10.8689 11.6011 10.8578 11.4166 10.9006 11.2426C10.9433 11.0687 11.0374 10.915 11.1684 10.8053C11.2994 10.6957 11.4599 10.6362 11.625 10.6362H12C12.1989 10.6362 12.3896 10.7224 12.5303 10.8759C12.671 11.0293 12.75 11.2374 12.75 11.4544V17.1817C12.75 17.3987 12.671 17.6068 12.5303 17.7602C12.3896 17.9137 12.1989 17.9999 12 17.9999Z" fill="#4D1435"/>
<path id="Vector_4" d="M12 9.40914C12.6213 9.40914 13.125 8.85967 13.125 8.18186C13.125 7.50406 12.6213 6.95459 12 6.95459C11.3787 6.95459 10.875 7.50406 10.875 8.18186C10.875 8.85967 11.3787 9.40914 12 9.40914Z" fill="#4D1435"/>
</g>
</g>
<defs>
<clipPath id="clip0_1762_2787">
<rect width="24" height="24" fill="white"/>
</clipPath>
</defs>
</svg>
