<svg width="16" height="16" viewBox="0 0 16 16" fill="none" xmlns="http://www.w3.org/2000/svg">
<g id="magnifying-glass 1">
<g id="_x32_-Magnifying_Glass">
<path id="Vector" d="M13.429 12.4867L11.2669 10.3246C11.9221 9.4668 12.2815 8.42635 12.2817 7.32845C12.2817 6.00537 11.7664 4.76139 10.8306 3.82585C9.8951 2.8903 8.65129 2.375 7.32804 2.375C6.00496 2.375 4.76099 2.8903 3.82544 3.82585C1.89412 5.75732 1.89412 8.8999 3.82544 10.8311C4.76099 11.7668 6.00496 12.2821 7.32804 12.2821C8.42594 12.2819 9.46639 11.9225 10.3242 11.2673L12.4862 13.4294C12.6163 13.5596 12.787 13.6247 12.9576 13.6247C13.1282 13.6247 13.2989 13.5596 13.429 13.4294C13.6894 13.1691 13.6894 12.7469 13.429 12.4867ZM4.76815 9.88835C3.35669 8.47689 3.35685 6.18018 4.76815 4.76855C5.4519 4.08496 6.36108 3.70833 7.32804 3.70833C8.29517 3.70833 9.20418 4.08496 9.88794 4.76855C10.5717 5.45231 10.9483 6.36149 10.9483 7.32845C10.9483 8.29557 10.5717 9.20459 9.88794 9.88835C9.20418 10.5721 8.29517 10.9487 7.32804 10.9487C6.36108 10.9487 5.4519 10.5721 4.76815 9.88835Z" fill="#97989A"/>
</g>
</g>
</svg>
