<svg width="201" height="263" viewBox="0 0 201 263" fill="none" xmlns="http://www.w3.org/2000/svg">
<g id="question-mark 1" clip-path="url(#clip0_2226_2019)">
<g id="Group">
<g id="Group_2">
<g id="Group_3">
<g id="Group_4">
<path id="Vector" d="M55.4643 188.137C51.7977 192.589 45.2158 193.226 40.7637 189.559L37.3442 186.743C29.3873 180.19 26.3964 169.318 29.9016 159.688C32.5378 152.445 29.9677 144.261 23.6501 139.788C16.7325 134.889 7.13788 135.854 1.33176 142.032C-4.81363 148.564 -4.89341 158.827 1.13921 165.391C1.67858 165.978 2.26747 166.535 2.88958 167.048C7.3415 170.714 7.97857 177.296 4.31161 181.748C0.64499 186.2 -5.93691 186.837 -10.389 183.17C-11.754 182.046 -13.0495 180.82 -14.2399 179.524C-27.6371 164.945 -27.4853 142.193 -13.8891 127.729C-0.983709 113.996 20.344 111.852 35.721 122.742C49.6971 132.64 55.3746 150.77 49.528 166.833C49.0441 168.161 49.4839 169.683 50.6219 170.621L54.0414 173.437C58.4942 177.103 59.1313 183.685 55.4643 188.137Z" fill="#FFD15B"/>
</g>
<path id="Vector_2" d="M79.4508 207.892C75.7842 212.344 69.2023 212.981 64.7502 209.314L64.6834 209.259C60.2315 205.593 59.5944 199.011 63.2614 194.559C66.928 190.107 73.5099 189.47 77.962 193.137L78.0288 193.192C82.4809 196.858 83.1174 203.44 79.4508 207.892Z" fill="#FFD15B"/>
</g>
<g id="Group_5">
<g id="Group_6">
<path id="Vector_3" d="M-8.36964 172.399C-7.18073 173.696 -5.88387 174.919 -4.51891 176.043C-1.34616 178.656 2.90898 179.086 6.41702 177.502C6.06313 179.014 5.36609 180.468 4.31183 181.748C0.647407 186.198 -5.93498 186.838 -10.3883 183.17C-11.7534 182.046 -13.0467 180.819 -14.236 179.522C-27.6379 164.943 -27.4824 142.189 -13.8882 127.727C-13.4011 127.209 -12.9009 126.708 -12.3882 126.225C-21.4551 140.484 -20.1366 159.593 -8.36964 172.399Z" fill="#FFC344"/>
<path id="Vector_4" d="M35.7699 152.561C32.2655 162.19 35.2557 173.066 43.2124 179.619L46.6309 182.435C49.8038 185.048 54.0622 185.474 57.5702 183.889C57.2163 185.402 56.5193 186.855 55.465 188.136C51.7974 192.589 45.2182 193.226 40.7649 189.558L37.3464 186.742C29.3901 180.189 26.3965 169.317 29.9039 159.684C32.5381 152.44 29.9682 144.262 23.6508 139.789C17.7109 135.579 9.79549 135.697 4.00501 139.733C4.77038 137.991 5.8387 136.357 7.20303 134.906C13.0086 128.727 22.6023 127.761 29.5207 132.662C35.8378 137.135 38.4046 145.317 35.7699 152.561Z" fill="#FFC344"/>
</g>
<path id="Vector_5" d="M81.5564 203.644C81.2025 205.157 80.5054 206.61 79.4512 207.891C75.7835 212.344 69.2044 212.98 64.7511 209.313L64.6826 209.256C60.2331 205.592 59.5927 199.009 63.2604 194.556C64.315 193.276 65.6078 192.313 67.0247 191.676C66.1461 195.426 67.3801 199.524 70.5487 202.134L70.6172 202.19C73.7901 204.803 78.0487 205.228 81.5564 203.644Z" fill="#FFC344"/>
</g>
</g>
<g id="Group_7">
<g id="Group_8">
<g id="Group_9">
<path id="Vector_6" d="M129.251 149.462C123.609 150.657 118.065 147.052 116.87 141.41L115.952 137.076C113.816 126.992 118.255 116.626 126.999 111.282C133.575 107.262 136.667 99.2605 134.516 91.8243C132.161 83.6816 124.057 78.4551 115.666 79.6666C106.789 80.9427 100.329 88.9175 100.954 97.811C101.01 98.6057 101.123 99.4089 101.29 100.197C102.485 105.84 98.8804 111.383 93.2381 112.578C87.5958 113.774 82.0523 110.169 80.8569 104.526C80.4905 102.797 80.2422 101.03 80.1191 99.2746C78.7319 79.5237 93.0344 61.8278 112.682 58.9942C131.334 56.3017 149.346 67.9209 154.582 86.0215C159.339 102.473 152.476 120.189 137.892 129.104C136.685 129.841 136.08 131.305 136.386 132.747L137.304 137.081C138.499 142.723 134.893 148.266 129.251 149.462Z" fill="#6FD7A3"/>
</g>
<path id="Vector_7" d="M135.691 179.861C130.049 181.057 124.505 177.452 123.31 171.809L123.292 171.724C122.097 166.082 125.702 160.539 131.344 159.343C136.986 158.148 142.53 161.753 143.725 167.395L143.743 167.48C144.939 173.123 141.334 178.666 135.691 179.861Z" fill="#6FD7A3"/>
</g>
<g id="Group_10">
<g id="Group_11">
<path id="Vector_8" d="M89.1502 97.3622C89.2716 99.1175 89.5227 100.882 89.8894 102.612C90.7415 106.634 93.8005 109.622 97.5313 110.57C96.3113 111.532 94.8605 112.235 93.2378 112.578C87.599 113.773 82.0529 110.17 80.857 104.526C80.4904 102.796 80.2442 101.03 80.1232 99.2747C78.7323 79.5206 93.0382 61.8263 112.684 58.9921C113.388 58.8908 114.091 58.8112 114.793 58.753C98.8142 64.25 87.9328 80.0135 89.1502 97.3622Z" fill="#3EC3A4"/>
<path id="Vector_9" d="M136.03 109.367C127.288 114.712 122.845 125.08 124.982 135.164L125.899 139.496C126.751 143.517 129.816 146.505 133.546 147.452C132.326 148.415 130.875 149.117 129.253 149.461C123.609 150.656 118.068 147.052 116.872 141.408L115.954 137.076C113.818 126.992 118.255 116.625 127.003 111.279C133.578 107.257 136.667 99.2607 134.516 91.825C132.496 84.8306 126.233 79.9881 119.19 79.5342C120.874 78.6498 122.728 78.0381 124.699 77.7537C133.091 76.5411 141.194 81.7669 143.548 89.9115C145.7 97.3475 142.606 105.345 136.03 109.367Z" fill="#3EC3A4"/>
</g>
<path id="Vector_10" d="M139.986 177.852C138.766 178.814 137.315 179.516 135.693 179.86C130.049 181.056 124.508 177.452 123.312 171.808L123.294 171.722C122.099 166.083 125.702 160.537 131.346 159.341C132.968 158.997 134.579 159.05 136.084 159.435C133.06 161.82 131.47 165.793 132.321 169.809L132.339 169.896C133.191 173.917 136.256 176.904 139.986 177.852Z" fill="#3EC3A4"/>
</g>
</g>
<g id="Group_12">
<g id="Group_13">
<g id="Group_14">
<path id="Vector_11" d="M86.6233 155.577C80.8516 158.513 73.7923 156.214 70.8563 150.442L68.6013 146.009C63.354 135.694 65.156 123.162 73.0855 114.826C79.0497 108.555 80.0778 98.9794 75.5841 91.5402C70.6638 83.3941 60.3565 80.0808 51.6085 83.8329C42.3526 87.7967 37.6639 98.3222 40.926 107.786C41.2174 108.631 41.5736 109.469 41.9839 110.276C44.9199 116.048 42.621 123.107 36.8493 126.043C31.0776 128.979 24.0184 126.68 21.0824 120.908C20.1824 119.139 19.3997 117.295 18.7559 115.427C11.5121 94.4103 21.8807 71.0633 42.3644 62.2807C61.8094 53.9407 84.7205 61.307 95.6579 79.4158C105.598 95.8747 103.304 117.081 90.0776 130.988C88.9836 132.138 88.7527 133.901 89.5032 135.377L91.7582 139.81C94.6938 145.582 92.395 152.641 86.6233 155.577Z" fill="#F8AC19"/>
</g>
<path id="Vector_12" d="M102.441 186.673C96.6696 189.609 89.6104 187.31 86.6744 181.539L86.6304 181.452C83.6944 175.68 85.9933 168.621 91.765 165.685C97.5367 162.749 104.596 165.048 107.532 170.82L107.576 170.906C110.512 176.678 108.213 183.737 102.441 186.673Z" fill="#F8AC19"/>
</g>
<g id="Group_15">
<g id="Group_16">
<path id="Vector_13" d="M27.9941 110.729C28.6356 112.597 29.421 114.439 30.3212 116.208C32.4136 120.322 36.5995 122.673 40.9209 122.617C39.8779 124.015 38.5083 125.198 36.8483 126.043C31.08 128.977 24.0187 126.682 21.0819 120.908C20.1817 119.138 19.4014 117.295 18.7598 115.426C11.511 94.4076 21.8837 71.061 42.3654 62.2786C43.0991 61.9644 43.8385 61.6737 44.583 61.4069C28.8523 72.011 21.6327 92.2685 27.9941 110.729Z" fill="#FFB31F"/>
<path id="Vector_14" d="M82.3236 110.125C74.3953 118.462 72.5911 130.997 77.8381 141.312L80.0924 145.744C82.1848 149.857 86.3763 152.206 90.6977 152.15C89.6547 153.548 88.2851 154.731 86.6251 155.575C80.8517 158.512 73.7953 156.214 70.8585 150.441L68.6042 146.009C63.357 135.694 65.1563 123.162 73.0897 114.822C79.0521 108.55 80.0781 98.98 75.5842 91.5413C71.3606 84.5431 63.1624 81.1111 55.3913 82.6658C56.9608 81.2169 58.7935 80.0151 60.8488 79.1341C69.5974 75.3804 79.9034 78.6931 84.8236 86.8414C89.3171 94.2802 88.2859 103.852 82.3236 110.125Z" fill="#FFB31F"/>
</g>
<path id="Vector_15" d="M106.515 183.246C105.472 184.644 104.103 185.827 102.443 186.671C96.6692 189.608 89.613 187.31 86.6762 181.537L86.6309 181.448C83.6967 175.68 85.992 168.618 91.7654 165.682C93.4254 164.837 95.1878 164.427 96.9321 164.407C94.3445 167.872 93.7752 172.643 95.8648 176.751L95.9101 176.84C98.0025 180.953 102.194 183.302 106.515 183.246Z" fill="#FFB31F"/>
</g>
</g>
</g>
</g>
<defs>
<clipPath id="clip0_2226_2019">
<rect width="194.925" height="194.925" fill="white" transform="translate(-62 88.6982) rotate(-26.9618)"/>
</clipPath>
</defs>
</svg>
