<svg width="42" height="42" viewBox="0 0 42 42" fill="none" xmlns="http://www.w3.org/2000/svg">
<g id="brain 1" clip-path="url(#clip0_1655_196999)">
<g id="Group">
<path id="Vector" d="M14.2422 26.8816C15.2266 26.8816 16.1617 26.4633 16.818 25.7496C17.0148 25.7824 17.2117 25.7906 17.4086 25.7906C17.9336 25.7906 18.4668 25.684 18.9754 25.4625L18.4504 24.2566C17.1379 24.8309 15.6039 24.232 15.0297 22.9277L13.832 23.4527C14.1684 24.2238 14.7262 24.8309 15.407 25.2328C15.0625 25.4461 14.6687 25.5609 14.2586 25.5609V26.8816H14.2422Z" fill="#1A2434"/>
<path id="Vector_2" d="M16.6043 31.0977C16.1777 30.5234 15.5953 30.0559 14.8898 29.7852L14.4141 31.0074C15.743 31.5242 16.3992 33.0254 15.8824 34.3625L17.1047 34.8383C17.4082 34.0508 17.441 33.2305 17.2441 32.4676C17.6379 32.5578 18.007 32.7629 18.2941 33.05L19.2211 32.123C18.5402 31.4176 17.5805 31.0566 16.6043 31.0977Z" fill="#1A2434"/>
<path id="Vector_3" d="M31.0832 22.2883C31.116 22.0914 31.1324 21.8863 31.1324 21.6895C31.1324 19.5566 29.3934 17.8176 27.2605 17.8176C27.1293 17.8176 26.998 17.8258 26.8668 17.834C26.1859 16.9809 25.1605 16.4805 24.0449 16.4805C22.8227 16.4805 21.748 17.0875 21.0918 18.0145C20.4355 17.0875 19.3609 16.4805 18.1387 16.4805C17.023 16.4805 15.9977 16.9809 15.3168 17.834C15.1855 17.8176 15.0543 17.8176 14.9148 17.8176C12.782 17.8176 11.043 19.5566 11.043 21.6895C11.043 21.8945 11.0594 22.0914 11.0922 22.2883C9.50898 22.8461 8.41797 24.3391 8.41797 26.0699C8.41797 27.1445 8.84453 28.1535 9.58281 28.9C8.84453 29.6465 8.41797 30.6555 8.41797 31.7301C8.41797 33.4691 9.50898 34.9621 11.1004 35.5199C11.0676 35.7168 11.0512 35.9137 11.0512 36.1105C11.0512 38.2434 12.7902 39.9824 14.923 39.9824C15.0543 39.9824 15.1855 39.9742 15.3168 39.966C15.9977 40.8191 17.023 41.3195 18.1387 41.3195C19.3609 41.3195 20.4355 40.7125 21.0918 39.7855C21.748 40.7125 22.8227 41.3195 24.0449 41.3195C25.1605 41.3195 26.1859 40.8191 26.8668 39.966C26.998 39.9824 27.1293 39.9824 27.2605 39.9824C29.3934 39.9824 31.1324 38.2434 31.1324 36.1105C31.1324 35.9055 31.116 35.7086 31.0832 35.5117C32.6746 34.9539 33.7656 33.4609 33.7656 31.7219C33.7656 30.6473 33.3473 29.6465 32.609 28.9C33.3391 28.1617 33.7656 27.1527 33.7656 26.0863C33.7656 24.3391 32.6746 22.8461 31.0832 22.2883ZM18.1387 39.9988C17.6219 39.9988 17.1297 39.8266 16.7359 39.523C17.0805 39.3344 17.4004 39.1047 17.6793 38.8176L16.7441 37.8988C16.3996 38.2516 15.9566 38.4977 15.4809 38.6043C15.3086 38.6453 15.1199 38.6617 14.923 38.6617C13.5121 38.6617 12.3637 37.5133 12.3637 36.1023C12.3637 35.4379 12.618 34.8145 13.0773 34.3305L12.1258 33.4199C11.8797 33.6742 11.6746 33.9531 11.5105 34.2566C10.4523 33.8793 9.72227 32.8785 9.72227 31.7137C9.72227 30.7949 10.1816 29.95 10.9527 29.4414C11.3957 29.1543 11.9043 29.0066 12.4293 29.0066V27.6941C11.8141 27.6941 11.207 27.8336 10.6574 28.1043C10.0668 27.5957 9.72227 26.8492 9.72227 26.0617C9.72227 24.9051 10.4441 23.9043 11.5023 23.5188C11.6664 23.8223 11.8715 24.1012 12.1094 24.3555L13.0609 23.4449C12.6016 22.9691 12.3473 22.3375 12.3473 21.673C12.3473 20.2621 13.4957 19.1137 14.9066 19.1137C15.0953 19.1137 15.2922 19.1301 15.4562 19.1711C15.9402 19.2777 16.3832 19.5238 16.7277 19.8766L17.6629 18.9578C17.384 18.6789 17.0723 18.441 16.7277 18.2523C17.1215 17.9488 17.6137 17.7766 18.1305 17.7766C19.3938 17.7766 20.4273 18.8102 20.4273 20.0734V37.6855C20.4355 38.9652 19.402 39.9988 18.1387 39.9988ZM30.6648 34.2566C30.5008 33.9613 30.2957 33.6742 30.0578 33.4281L29.1062 34.3387C29.5656 34.8145 29.8199 35.4461 29.8199 36.1105C29.8199 37.5215 28.6715 38.6699 27.2605 38.6699C27.0719 38.6699 26.875 38.6535 26.7109 38.6125C26.227 38.5059 25.784 38.2598 25.4395 37.907L24.5043 38.8258C24.7832 39.1129 25.1031 39.3426 25.4477 39.5312C25.0539 39.8348 24.5617 40.007 24.0449 40.007C22.7816 40.007 21.748 38.9734 21.748 37.7102V20.0898C21.748 18.8266 22.7816 17.793 24.0449 17.793C24.5617 17.793 25.0539 17.9652 25.4477 18.2688C25.1031 18.4574 24.7832 18.6871 24.5043 18.9742L25.4395 19.893C25.784 19.5402 26.227 19.2941 26.7027 19.1875C26.875 19.1465 27.0637 19.1301 27.2605 19.1301C28.6715 19.1301 29.8199 20.2785 29.8199 21.6895C29.8199 22.3539 29.5656 22.9773 29.1062 23.4613L30.0578 24.3719C30.2957 24.1176 30.5008 23.8387 30.6648 23.5434C31.7148 23.9289 32.4531 24.9461 32.4531 26.0863C32.4531 26.8738 32.1168 27.6121 31.5344 28.1207C30.9848 27.85 30.3777 27.7023 29.7461 27.7023V29.0148C30.2711 29.0148 30.7797 29.1625 31.2227 29.4496C31.9937 29.95 32.4531 30.7949 32.4531 31.7219C32.4531 32.8539 31.7066 33.8711 30.6648 34.2566Z" fill="#1A2434"/>
<path id="Vector_4" d="M28.3504 23.4605L27.1527 22.9355C26.5785 24.2398 25.0445 24.8387 23.732 24.2645L23.207 25.4703C23.7156 25.6918 24.2488 25.7984 24.7738 25.7984C24.9707 25.7984 25.1676 25.782 25.3645 25.7492C26.0289 26.4629 26.9559 26.8813 27.932 26.8813V25.5688C27.5219 25.5688 27.1281 25.4539 26.7836 25.2406C27.4563 24.8387 28.0141 24.2316 28.3504 23.4605Z" fill="#1A2434"/>
<path id="Vector_5" d="M25.5703 31.1063C24.6023 31.0652 23.6426 31.4344 22.9453 32.1316L23.8723 33.0586C24.1676 32.7633 24.5367 32.5582 24.9223 32.468C24.7336 33.2227 24.7664 34.0512 25.0699 34.8305L26.2922 34.3547C25.7754 33.0258 26.4398 31.5164 27.7605 30.9996L27.2848 29.7773C26.5793 30.0563 25.9969 30.5238 25.5703 31.1063Z" fill="#1A2434"/>
<path id="Vector_6" d="M10.0905 19.3516V12.0016L11.4276 11.9934C11.6901 11.9934 11.928 11.8293 12.0264 11.5832C12.1249 11.3371 12.0674 11.0582 11.887 10.8695L6.85845 5.84102C6.7354 5.71797 6.57134 5.65234 6.39087 5.65234C6.2104 5.65234 6.04634 5.71797 5.92329 5.84102L0.812743 10.9516C0.624071 11.1402 0.566649 11.4273 0.67329 11.6652C0.77993 11.9113 1.01782 12.0754 1.28032 12.0672L2.60102 12.059V19.3434C2.60102 19.7043 2.89634 19.9996 3.25727 19.9996H9.43423C9.79517 20.0078 10.0905 19.7125 10.0905 19.3516ZM8.77798 11.3535V18.6953H3.92173V11.4027C3.92173 11.2305 3.8479 11.0582 3.72485 10.9352C3.60181 10.8121 3.43774 10.7465 3.26548 10.7465C3.26548 10.7465 3.26548 10.7465 3.25727 10.7465H2.87173L6.38267 7.23555L9.83618 10.6891H9.41782C9.06509 10.6973 8.77798 10.9926 8.77798 11.3535Z" fill="#1A2434"/>
<path id="Vector_7" d="M16.0288 7.1126L17.3495 7.10439V14.3888C17.3495 14.7497 17.6448 15.045 18.0057 15.045H24.1745C24.5354 15.045 24.8307 14.7497 24.8307 14.3888V7.03877L26.1678 7.03057C26.4303 7.03057 26.6682 6.8665 26.7666 6.62041C26.8651 6.37432 26.8077 6.09541 26.6272 5.90674L21.5987 0.878223C21.3444 0.623926 20.926 0.623926 20.6717 0.878223L15.553 5.98877C15.3643 6.17744 15.3069 6.46455 15.4135 6.70244C15.5202 6.95674 15.7581 7.1208 16.0288 7.1126ZM21.1311 2.27275L24.5846 5.72627H24.1663C23.8053 5.72627 23.5182 6.02158 23.5182 6.38252V13.7243H18.662V6.43994C18.662 6.26768 18.5881 6.09541 18.4651 5.97236C18.342 5.84932 18.1698 5.77549 17.9975 5.78369H17.612L21.1311 2.27275Z" fill="#1A2434"/>
<path id="Vector_8" d="M41.1893 10.8696L36.1608 5.84111C35.9065 5.58682 35.4881 5.58682 35.2338 5.84111L30.1233 10.9517C29.9346 11.1403 29.8772 11.4274 29.9838 11.6653C30.0823 11.9114 30.3284 12.0673 30.5909 12.0673H30.5991L31.9198 12.0591V19.3435C31.9198 19.7044 32.2151 19.9997 32.576 19.9997H38.7448C39.1057 19.9997 39.401 19.7044 39.401 19.3435V11.9935L40.7381 11.9853C41.0006 11.9853 41.2385 11.8212 41.337 11.5751C41.4272 11.3372 41.3698 11.0583 41.1893 10.8696ZM38.7284 10.6974C38.3674 10.6974 38.0803 10.9927 38.0803 11.3536V18.6954H33.2241V11.4028C33.2241 11.2306 33.1502 11.0583 33.0272 10.9353C32.9041 10.8122 32.7401 10.7466 32.5678 10.7466C32.5678 10.7466 32.5678 10.7466 32.5596 10.7466H32.1741L35.685 7.23564L39.1385 10.6892L38.7284 10.6974Z" fill="#1A2434"/>
</g>
</g>
<defs>
<clipPath id="clip0_1655_196999">
<rect width="42" height="42" fill="white"/>
</clipPath>
</defs>
</svg>
