<svg className="w-[211px] h-[177px] mx-auto lg:h-[300px] lg:w-full lg:self-end " viewBox="0 0 365 365" fill="none" xmlns="http://www.w3.org/2000/svg">
<path d="M365 182.5C365 158.534 360.279 134.802 351.108 112.66C341.937 90.5184 328.494 70.3997 311.547 53.453C294.6 36.5063 274.482 23.0635 252.34 13.892C230.198 4.7205 206.466 -1.0476e-06 182.5 0C158.534 1.0476e-06 134.802 4.7205 112.66 13.892C90.5183 23.0635 70.3997 36.5063 53.453 53.453C36.5063 70.3997 23.0635 90.5184 13.892 112.66C4.7205 134.802 -2.09519e-06 158.534 0 182.5L182.5 182.5H365Z" fill="#75C0B1"/>
<circle cx="238" cy="171" r="126.5" fill="white" stroke="#4D1435"/>
<path fill-rule="evenodd" clip-rule="evenodd" d="M202.484 206.137H256.388V194.474C262.747 195.447 276.256 191.651 275.778 188.087C275.778 188.087 275.262 181.437 274.232 168.136C280.42 167.067 283.954 167.879 287.19 166.981C291.279 165.846 291.757 162.904 290.128 160.252C286.846 154.908 280.393 146.266 280.502 138.49C280.642 128.436 277.85 118.514 272.406 109.966C259.973 89.8623 233.892 85.5325 212.908 93.8841C195.662 100.748 181.951 115.978 185.589 139.139C187.142 149.025 192.273 160.852 202.695 174.935L202.484 206.137Z" fill="#FFD2A7"/>
<path fill-rule="evenodd" clip-rule="evenodd" d="M232.926 206.137H256.388V194.474C262.747 195.447 276.256 191.651 275.778 188.087C275.778 188.087 275.262 181.437 274.232 168.135C280.419 167.067 283.954 167.879 287.19 166.981C291.279 165.846 291.757 162.904 290.128 160.252C286.846 154.908 280.393 146.265 280.501 138.489C280.641 128.436 277.85 118.513 272.406 109.965C263.752 95.9719 248.484 89.6237 232.926 89.8728V206.137Z" fill="#FFC186"/>
<path fill-rule="evenodd" clip-rule="evenodd" d="M203.951 159.31C203.167 159.31 202.533 158.675 202.533 157.892C202.533 157.108 203.167 156.474 203.951 156.474H262.685C263.468 156.474 264.103 157.108 264.103 157.892C264.103 158.675 263.468 159.31 262.685 159.31H203.951ZM212.113 150.059V141.118C212.113 140.335 212.748 139.701 213.531 139.701C214.315 139.701 214.949 140.335 214.949 141.118V150.059H231.9V130.679C231.9 129.896 232.535 129.261 233.318 129.261C234.101 129.261 234.736 129.896 234.736 130.679V150.059H251.686V141.118C251.686 140.335 252.321 139.701 253.104 139.701C253.887 139.701 254.522 140.335 254.522 141.118V150.059H262.685C263.468 150.059 264.103 150.694 264.103 151.477C264.103 152.26 263.468 152.895 262.685 152.895H203.951C203.167 152.895 202.533 152.26 202.533 151.477C202.533 150.694 203.167 150.059 203.951 150.059H212.113ZM251.686 106.343V131.166C251.686 131.949 252.321 132.584 253.104 132.584C253.887 132.584 254.522 131.949 254.522 131.166V106.343C254.522 105.56 253.887 104.926 253.104 104.926C252.321 104.926 251.686 105.56 251.686 106.343ZM231.9 106.343C231.9 105.56 232.535 104.926 233.318 104.926C234.101 104.926 234.736 105.56 234.736 106.343V120.727C234.736 121.51 234.101 122.145 233.318 122.145C232.535 122.145 231.9 121.51 231.9 120.727V106.343ZM214.949 131.166V106.343C214.949 105.56 214.315 104.925 213.531 104.925C212.748 104.925 212.113 105.56 212.113 106.343V131.166C212.113 131.949 212.748 132.584 213.531 132.584C214.315 132.584 214.949 131.949 214.949 131.166Z" fill="#4F4F4F"/>
<path d="M233.531 130.693C236.276 130.569 238.402 128.243 238.278 125.498C238.154 122.752 235.828 120.627 233.083 120.751C230.337 120.874 228.212 123.2 228.336 125.946C228.459 128.691 230.785 130.817 233.531 130.693Z" fill="#FF9E22"/>
<path d="M258.102 136.383C258.217 133.638 256.085 131.319 253.34 131.203C250.594 131.088 248.275 133.22 248.16 135.965C248.044 138.711 250.176 141.03 252.922 141.146C255.667 141.261 257.987 139.129 258.102 136.383Z" fill="#75C0B1"/>
<path d="M213.747 141.136C216.493 141.007 218.614 138.677 218.485 135.931C218.356 133.186 216.025 131.065 213.28 131.194C210.534 131.323 208.413 133.653 208.542 136.399C208.672 139.144 211.002 141.265 213.747 141.136Z" fill="#A8D32A"/>
<path d="M218.17 247.5V224.227H233.307V227.761H222.386V234.08H232.523V237.614H222.386V243.966H233.398V247.5H218.17ZM246.278 239.682H250.097L252.358 242.614L253.972 244.523L257.847 249.5H253.756L251.119 246.159L249.994 244.568L246.278 239.682ZM258.403 235.864C258.403 238.371 257.934 240.519 256.994 242.307C256.063 244.087 254.79 245.451 253.176 246.398C251.57 247.345 249.748 247.818 247.71 247.818C245.672 247.818 243.847 247.345 242.233 246.398C240.627 245.443 239.354 244.076 238.415 242.295C237.483 240.508 237.017 238.364 237.017 235.864C237.017 233.356 237.483 231.212 238.415 229.432C239.354 227.644 240.627 226.277 242.233 225.33C243.847 224.383 245.672 223.909 247.71 223.909C249.748 223.909 251.57 224.383 253.176 225.33C254.79 226.277 256.063 227.644 256.994 229.432C257.934 231.212 258.403 233.356 258.403 235.864ZM254.165 235.864C254.165 234.098 253.888 232.61 253.335 231.398C252.79 230.178 252.032 229.258 251.062 228.636C250.093 228.008 248.975 227.693 247.71 227.693C246.445 227.693 245.328 228.008 244.358 228.636C243.388 229.258 242.627 230.178 242.074 231.398C241.528 232.61 241.256 234.098 241.256 235.864C241.256 237.629 241.528 239.121 242.074 240.341C242.627 241.553 243.388 242.473 244.358 243.102C245.328 243.723 246.445 244.034 247.71 244.034C248.975 244.034 250.093 243.723 251.062 243.102C252.032 242.473 252.79 241.553 253.335 240.341C253.888 239.121 254.165 237.629 254.165 235.864Z" fill="#4D1435"/>
</svg>
