<svg width="42" height="42" viewBox="0 0 42 42" fill="none" xmlns="http://www.w3.org/2000/svg">
<g id="idea 1" clip-path="url(#clip0_1655_197011)">
<g id="Group">
<path id="Vector" d="M16.0781 18.8671V23.789C16.0781 24.0065 16.1646 24.2152 16.3184 24.369L17.959 26.0096C18.1129 26.1634 18.3215 26.2499 18.539 26.2499H23.4609C23.6784 26.2499 23.887 26.1634 24.0409 26.0096L25.6816 24.369C25.8354 24.2152 25.9218 24.0065 25.9218 23.789V18.8671C25.9218 17.6114 26.0055 17.3413 28.1798 14.4894C29.3858 12.9075 30.0234 11.0173 30.0234 9.0234C30.0234 4.0479 25.9755 0 21 0C16.0245 0 11.9766 4.0479 11.9766 9.0234C11.9766 11.0173 12.614 12.9075 13.8201 14.4894C15.9944 17.3412 16.0781 17.6113 16.0781 18.8671ZM24.2812 19.6874V21.328H17.7187V19.6874H24.2812ZM23.121 24.6093H18.8788L17.7186 23.4492V22.9687H24.2811V23.4492L23.121 24.6093ZM21 1.64062C25.0708 1.64062 28.3827 4.95254 28.3827 9.0234C28.3827 10.6548 27.8614 12.201 26.8752 13.4947C25.0351 15.9081 24.459 16.7656 24.3193 18.0468H21.8203V11.0039L23.2206 9.60353C23.541 9.28319 23.541 8.76377 23.2206 8.44336C22.9002 8.12303 22.381 8.12303 22.0605 8.44336L20.9999 9.50394L19.9393 8.44336C19.6189 8.12303 19.0996 8.12303 18.7791 8.44336C18.4588 8.76369 18.4588 9.28311 18.7791 9.60353L20.1795 11.0039V18.0468H17.6805C17.5408 16.7655 16.9647 15.908 15.1246 13.4947C14.1384 12.201 13.617 10.6548 13.617 9.0234C13.6172 4.95254 16.9291 1.64062 21 1.64062Z" fill="#1A2434"/>
<path id="Vector_2" d="M7.46484 9.84375H9.10547C9.55845 9.84375 9.92578 9.4765 9.92578 9.02344C9.92578 8.57038 9.55845 8.20312 9.10547 8.20312H7.46484C7.01187 8.20312 6.64453 8.57038 6.64453 9.02344C6.64453 9.4765 7.01187 9.84375 7.46484 9.84375Z" fill="#1A2434"/>
<path id="Vector_3" d="M8.8673 2.96638L10.2881 3.78669C10.4172 3.86125 10.5583 3.89677 10.6974 3.89677C10.9809 3.89677 11.2566 3.74961 11.4086 3.48654C11.6352 3.09418 11.5007 2.59248 11.1084 2.36591L9.68761 1.54559C9.29533 1.31902 8.79363 1.45356 8.56706 1.84583C8.34057 2.2381 8.47494 2.73981 8.8673 2.96638Z" fill="#1A2434"/>
<path id="Vector_4" d="M10.2881 14.2604L8.86733 15.0807C8.47498 15.3073 8.34053 15.8089 8.5671 16.2013C8.7191 16.4644 8.99473 16.6115 9.27831 16.6115C9.41743 16.6115 9.55853 16.5761 9.68764 16.5015L11.1084 15.6812C11.5008 15.4546 11.6352 14.953 11.4087 14.5606C11.1821 14.1683 10.6805 14.0339 10.2881 14.2604Z" fill="#1A2434"/>
<path id="Vector_5" d="M32.0742 9.02344C32.0742 9.4765 32.4416 9.84375 32.8945 9.84375H34.5352C34.9882 9.84375 35.3556 9.4765 35.3556 9.02344C35.3556 8.57038 34.9882 8.20312 34.5352 8.20312H32.8945C32.4416 8.20312 32.0742 8.57038 32.0742 9.02344Z" fill="#1A2434"/>
<path id="Vector_6" d="M31.3017 3.89674C31.4409 3.89674 31.582 3.86122 31.7111 3.78665L33.1319 2.96634C33.5242 2.73977 33.6587 2.23815 33.4321 1.84579C33.2055 1.45352 32.704 1.31907 32.3115 1.54556L30.8908 2.36587C30.4984 2.59244 30.364 3.09406 30.5905 3.4865C30.7425 3.74957 31.0182 3.89674 31.3017 3.89674Z" fill="#1A2434"/>
<path id="Vector_7" d="M30.8908 15.6812L32.3115 16.5015C32.4407 16.5761 32.5818 16.6115 32.7209 16.6115C33.0044 16.6115 33.2801 16.4645 33.4321 16.2013C33.6587 15.8089 33.5242 15.3073 33.1319 15.0808L31.7111 14.2604C31.3188 14.0339 30.8172 14.1684 30.5905 14.5607C30.364 14.953 30.4984 15.4546 30.8908 15.6812Z" fill="#1A2434"/>
<path id="Vector_8" d="M41.1796 34.6175V32.0949C41.1796 31.6419 40.8123 31.2746 40.3593 31.2746C37.0585 31.2746 34.9974 30.3269 33.179 29.4907C32.6477 29.2464 32.146 29.0156 31.6437 28.8236C29.2311 27.9008 27.0362 27.8103 25.1202 28.5544C23.5578 29.1611 22.1759 30.3273 20.9999 32.0288C19.8239 30.3273 18.442 29.1611 16.8797 28.5544C14.9637 27.8104 12.7687 27.9008 10.3562 28.8236C9.85388 29.0157 9.35218 29.2464 8.82095 29.4907C7.00249 30.3269 4.94138 31.2746 1.64054 31.2746C1.18756 31.2746 0.820227 31.6419 0.820227 32.0949V34.6175C0.367252 34.6175 0 34.9847 0 35.4378V39.1292C0 39.5822 0.367335 39.9495 0.820309 39.9495H17.6934C18.3091 41.1821 19.5919 42.0002 20.9999 42.0002C22.408 42.0002 23.6908 41.1821 24.3064 39.9495H41.1795C41.6325 39.9495 41.9998 39.5822 41.9998 39.1292V35.4378C41.9998 34.9848 41.6326 34.6175 41.1796 34.6175ZM31.0576 30.356C31.5096 30.5289 31.9875 30.7486 32.4935 30.9813C34.2234 31.7768 36.3439 32.7517 39.539 32.8969V34.6176H23.8006C23.0472 34.6176 22.386 34.7623 21.8202 35.0497V33.7953C24.0606 29.9613 27.0843 28.8364 31.0576 30.356ZM9.5064 30.9813C10.0124 30.7486 10.4904 30.5288 10.9423 30.356C14.9156 28.8364 17.9392 29.9614 20.1796 33.7953V35.0496C19.6139 34.7622 18.9527 34.6175 18.1992 34.6175H2.46085V32.8969C5.65595 32.7517 7.77661 31.7767 9.5064 30.9813ZM40.3592 38.3089H23.7519C23.389 38.3089 23.0692 38.5474 22.9657 38.8951C22.709 39.7574 21.9007 40.3597 20.9999 40.3597C20.0991 40.3597 19.2909 39.7575 19.0341 38.8951C18.9306 38.5473 18.6108 38.3089 18.2479 38.3089H1.64062V36.2582H18.1992C19.1911 36.2582 19.8553 36.6084 20.2894 37.3605C20.436 37.6143 20.7068 37.7706 20.9998 37.7706C21.2929 37.7706 21.5637 37.6143 21.7102 37.3605C22.1444 36.6085 22.8086 36.2582 23.8005 36.2582H40.3591V38.3089H40.3592Z" fill="#1A2434"/>
</g>
</g>
<defs>
<clipPath id="clip0_1655_197011">
<rect width="42" height="42" fill="white"/>
</clipPath>
</defs>
</svg>
