<svg width="365" height="365" viewBox="0 0 365 365" fill="none" xmlns="http://www.w3.org/2000/svg">
<path d="M365 182.5C365 206.466 360.279 230.198 351.108 252.34C341.937 274.482 328.494 294.6 311.547 311.547C294.6 328.494 274.482 341.937 252.34 351.108C230.198 360.28 206.466 365 182.5 365C158.534 365 134.802 360.279 112.66 351.108C90.5183 341.937 70.3997 328.494 53.453 311.547C36.5063 294.6 23.0635 274.482 13.892 252.34C4.7205 230.198 -2.09519e-06 206.466 0 182.5L182.5 182.5H365Z" fill="#4D1435"/>
<circle cx="238" cy="186" r="126.5" fill="white" stroke="#4D1435"/>
<g clip-path="url(#clip0_2551_3554)" id="idea-svg">
<path d="M224.824 205.823V219H238L241.294 212.412L238 205.823L231.412 202.529L224.824 205.823Z" fill="#5A5F64"/>
<path d="M251.176 205.823L244.588 202.529L238 205.823V219H251.176C251.176 217.406 251.176 207.428 251.176 205.823Z" fill="#4B5055"/>
<path d="M280.824 153.118L284.001 156.412H294C294 154.108 294 152.128 294 149.824C290.819 149.824 287.181 149.824 283.999 149.824L280.824 153.118Z" fill="#FF9E22"/>
<path d="M268.198 118.261V122.92L272.856 122.92C275.106 120.67 277.677 118.099 279.927 115.849C278.298 114.22 276.898 112.82 275.269 111.19C273.019 113.44 270.448 116.011 268.198 118.261Z" fill="#FF9E22"/>
<path d="M207.802 118.261C205.552 116.011 202.981 113.44 200.731 111.19C199.102 112.819 197.702 114.219 196.073 115.849C198.323 118.099 200.894 120.67 203.144 122.919H208.207L207.802 118.261Z" fill="#FFCC00"/>
<path d="M192.001 149.823C188.819 149.823 185.182 149.823 182 149.823V156.411H191.999L195.176 153.117L192.001 149.823Z" fill="#FFCC00"/>
<path d="M203.145 183.314C200.896 185.564 198.323 188.137 196.073 190.386C197.702 192.016 199.102 193.416 200.731 195.045C202.981 192.795 205.555 190.222 207.805 187.972V182.984L203.145 183.314Z" fill="#FFCC00"/>
<path d="M268.195 187.972L275.269 195.045L279.927 190.386C277.677 188.137 275.104 185.564 272.855 183.314L268.855 183.698L268.195 187.972Z" fill="#FF9E22"/>
<path d="M191.882 153.118C191.882 171.4 202.549 187.342 218.235 194.795V205.824H234.706L238 156.412L241.294 130.059L238 107C212.531 107 191.882 127.647 191.882 153.118Z" fill="#FFEF4A"/>
<path d="M257.765 194.795C273.443 187.346 284.118 171.409 284.118 153.118C284.118 127.648 263.471 107 238 107V156.412L241.294 205.824H257.765C257.765 195.673 257.765 198.196 257.765 194.795Z" fill="#FFCC00"/>
<path d="M238 156.412C236.848 156.412 235.858 156.412 234.706 156.412V173.653C231.411 171.676 228.119 169.7 224.824 167.723C224.824 165.849 224.824 154.121 224.824 152.234C226.793 151.095 228.118 148.968 228.118 146.53C228.118 142.891 225.168 139.941 221.53 139.941C217.891 139.941 214.941 142.891 214.941 146.53C214.941 148.968 216.267 151.095 218.236 152.234V171.454C220.228 172.649 232.7 180.133 234.706 181.336V205.824H238L241.294 177.824L238 156.412Z" fill="#FFCC00"/>
<path d="M261.059 146.53C261.059 142.891 258.109 139.941 254.471 139.941C250.832 139.941 247.882 142.891 247.882 146.53C247.882 148.968 249.208 151.095 251.176 152.234V167.723C247.882 169.7 244.589 171.676 241.294 173.653C241.294 171.568 241.294 158.511 241.294 156.412C240.142 156.412 239.152 156.412 238 156.412V205.824H241.294C241.294 205.15 241.294 182.076 241.294 181.336C243.287 180.14 255.759 172.657 257.765 171.454C257.765 169.129 257.765 154.575 257.765 152.234C259.733 151.095 261.059 148.968 261.059 146.53Z" fill="#FF9E22"/>
</g>
<path d="M227.714 234.727V258H223.499V234.727H227.714ZM240.95 250.182H244.768L247.03 253.114L248.643 255.023L252.518 260H248.428L245.791 256.659L244.666 255.068L240.95 250.182ZM253.075 246.364C253.075 248.871 252.606 251.019 251.666 252.807C250.734 254.587 249.462 255.951 247.848 256.898C246.242 257.845 244.42 258.318 242.382 258.318C240.344 258.318 238.518 257.845 236.905 256.898C235.299 255.943 234.026 254.576 233.087 252.795C232.155 251.008 231.689 248.864 231.689 246.364C231.689 243.856 232.155 241.712 233.087 239.932C234.026 238.144 235.299 236.777 236.905 235.83C238.518 234.883 240.344 234.409 242.382 234.409C244.42 234.409 246.242 234.883 247.848 235.83C249.462 236.777 250.734 238.144 251.666 239.932C252.606 241.712 253.075 243.856 253.075 246.364ZM248.837 246.364C248.837 244.598 248.56 243.11 248.007 241.898C247.462 240.678 246.704 239.758 245.734 239.136C244.765 238.508 243.647 238.193 242.382 238.193C241.117 238.193 240 238.508 239.03 239.136C238.06 239.758 237.299 240.678 236.746 241.898C236.2 243.11 235.928 244.598 235.928 246.364C235.928 248.129 236.2 249.621 236.746 250.841C237.299 252.053 238.06 252.973 239.03 253.602C240 254.223 241.117 254.534 242.382 254.534C243.647 254.534 244.765 254.223 245.734 253.602C246.704 252.973 247.462 252.053 248.007 250.841C248.56 249.621 248.837 248.129 248.837 246.364Z" fill="#4D1435"/>
<defs>
<clipPath id="clip0_2551_3554">
<rect width="112" height="112" fill="white" transform="translate(182 107)"/>
</clipPath>
</defs>
</svg>
