<svg width="42" height="42" viewBox="0 0 42 42" fill="none" xmlns="http://www.w3.org/2000/svg">
<g id="motivation 1" clip-path="url(#clip0_1655_196995)">
<path id="Vector" d="M28.0909 24.069H21.687C21.3698 24.069 21.1127 24.3262 21.1127 24.6433V40.6879C21.1127 41.0051 21.3699 41.2622 21.687 41.2622H28.0909C28.4081 41.2622 28.6652 41.005 28.6652 40.6879V24.6433C28.6652 24.3261 28.408 24.069 28.0909 24.069ZM27.5166 40.1136H22.2614V25.2177H27.5166V40.1136ZM17.4713 32.0913H13.0125C12.9603 31.2524 12.8709 30.3454 12.7439 29.3713V26.9339C12.7439 26.0954 12.0617 25.4131 11.2231 25.4131C10.9946 25.4131 10.7787 25.4652 10.584 25.5558C10.31 25.1569 9.85154 24.8946 9.33261 24.8946C9.18742 24.8946 9.04739 24.9163 8.91425 24.9545C8.74986 24.2923 8.1521 23.7994 7.43982 23.7994C6.95371 23.7994 6.52124 24.0295 6.24266 24.3856C6.03397 24.2776 5.7978 24.2156 5.54712 24.2156C4.70859 24.2156 4.02634 24.8978 4.02634 25.7363V27.4528C2.49925 27.4576 1.48714 27.8877 1.01907 28.732C0.0260859 30.523 1.88598 33.5006 3.38051 35.8932C3.64596 36.3182 3.89977 36.7247 4.10862 37.081C4.05579 37.2039 4.02642 37.3392 4.02642 37.4813V40.2437C4.02642 40.8053 4.48325 41.2622 5.04492 41.2622H17.4713C17.7885 41.2622 18.0456 41.005 18.0456 40.6879V32.6656C18.0456 32.3484 17.7884 32.0913 17.4713 32.0913ZM11.2232 26.5618C11.4283 26.5618 11.5953 26.7287 11.5953 26.9339V29.408C11.5953 29.6084 11.4249 29.7777 11.2232 29.7777C11.0215 29.7777 10.8511 29.6084 10.8511 29.408V26.9339C10.8511 26.7322 11.0215 26.5618 11.2232 26.5618ZM9.33278 26.0433C9.53318 26.0433 9.70249 26.2136 9.70249 26.4154V29.408C9.70249 29.6084 9.53318 29.7777 9.33278 29.7777C9.13114 29.7777 8.96068 29.6084 8.96068 29.408V26.4154C8.96068 26.2137 9.13106 26.0433 9.33278 26.0433ZM7.06789 25.3202C7.06789 25.1185 7.23827 24.9481 7.43999 24.9481C7.6417 24.9481 7.81208 25.1184 7.81208 25.3202V27.5578C7.62735 27.4909 7.429 27.4525 7.22146 27.4525H7.06798L7.06789 25.3202ZM5.5472 25.3644C5.75228 25.3644 5.91921 25.5313 5.91921 25.7364V27.4525H5.17511V25.7364C5.17511 25.5347 5.34548 25.3644 5.5472 25.3644ZM2.02379 29.2891C2.27686 28.8327 2.95928 28.6012 4.05202 28.6012H7.22137C7.54187 28.6012 7.80298 28.8569 7.81126 29.1741C7.78706 29.4762 7.52694 29.7197 7.22375 29.7197H4.03815C3.72094 29.7197 3.46385 29.9768 3.46385 30.294C3.46385 30.6111 3.72102 30.8683 4.03815 30.8683H5.04673C6.16465 31.8377 5.97803 32.6448 5.68493 33.2432C5.54539 33.528 5.66319 33.8722 5.94809 34.0117C6.02938 34.0516 6.11551 34.0703 6.20033 34.0703C6.41271 34.0703 6.61689 33.9521 6.71655 33.7485C7.08512 32.9962 7.29274 31.9548 6.57653 30.8683H7.22384C7.62251 30.8683 7.99075 30.733 8.28499 30.5056C8.55807 30.7656 8.92664 30.9264 9.33286 30.9264C9.68986 30.9264 10.0178 30.8018 10.2774 30.5948C10.5372 30.8018 10.8658 30.9264 11.2233 30.9264C11.4109 30.9264 11.5899 30.8907 11.7561 30.8284C11.9953 33.223 11.9678 35.1408 11.6745 36.463H5.07773C4.86527 36.1023 4.61549 35.7022 4.35471 35.2847C3.16173 33.3748 1.35877 30.4885 2.02363 29.2891H2.02379ZM11.0698 40.1138H5.17502V37.6117H11.5952V40.1138H11.0697H11.0698ZM16.897 40.1138H12.744V37.4815C12.744 37.3639 12.723 37.2514 12.6861 37.1461C12.9713 36.1489 13.0967 34.8428 13.0618 33.2402H16.897V40.1138ZM38.7081 16.0468H32.3042C31.987 16.0468 31.7299 16.3039 31.7299 16.6211V40.6879C31.7299 41.0051 31.9871 41.2622 32.3042 41.2622H38.7081C39.0253 41.2622 39.2824 41.005 39.2824 40.6879V16.6211C39.2824 16.3039 39.0252 16.0468 38.7081 16.0468ZM38.1338 40.1136H32.8786V17.1955H38.1338V40.1136ZM25.3325 9.84315C25.2235 9.71059 25.0608 9.63373 24.8891 9.63365H24.8889C24.7173 9.63365 24.5547 9.71043 24.4456 9.84283L20.932 14.1098C20.7907 14.2814 20.7611 14.5191 20.856 14.7201C20.9509 14.9211 21.1532 15.0493 21.3755 15.0493H22.7544V20.5579C22.7544 20.8751 23.0116 21.1322 23.3287 21.1322H26.447C26.7642 21.1322 27.0213 20.875 27.0213 20.5579V15.0493H28.4002C28.6224 15.0493 28.8247 14.9211 28.9196 14.7201C29.0145 14.5191 28.9849 14.2815 28.8437 14.1099L25.3326 9.84324L25.3325 9.84315ZM26.4469 13.9006C26.1297 13.9006 25.8726 14.1578 25.8726 14.4749V19.9835H23.903V14.4749C23.903 14.1577 23.6458 13.9006 23.3287 13.9006H22.5923L24.8887 11.1118L27.1834 13.9006H26.447H26.4469ZM35.5504 0.73703C35.5395 0.735553 35.5216 0.736866 35.5071 0.736866C32.3524 0.736866 29.7742 3.29132 29.7512 6.45067C29.728 9.62364 32.2901 12.2239 35.4621 12.2472C35.4781 12.2473 35.4941 12.2474 35.5101 12.2474C37.0301 12.2474 38.4615 11.6611 39.5455 10.5936C40.6407 9.51487 41.2501 8.07374 41.2613 6.53582C41.2845 3.36408 38.7226 0.762788 35.5504 0.73703ZM38.7393 9.77523C37.8628 10.6385 36.7055 11.1114 35.4709 11.0986C32.9318 11.0799 30.8812 8.99872 30.8998 6.45912C30.9183 3.93001 32.9818 1.88563 35.5072 1.88563C35.5184 1.88563 35.5299 1.88563 35.541 1.88571C38.0804 1.9063 40.1312 3.98858 40.1125 6.52745C40.1035 7.75841 39.6158 8.91185 38.7393 9.77523H38.7393ZM38.7701 4.84269L34.6566 8.95615C34.5489 9.06386 34.4028 9.1244 34.2505 9.1244C34.0982 9.1244 33.9521 9.06386 33.8444 8.95615L32.2422 7.354C32.0179 7.12972 32.0179 6.76608 32.2422 6.54181C32.4665 6.31753 32.8301 6.31753 33.0544 6.54181L34.2504 7.73782L37.9577 4.0305C38.1819 3.80623 38.5457 3.80623 38.7699 4.0305C38.9942 4.25478 38.9942 4.61842 38.7699 4.84269H38.7701ZM16.6899 7.15491H16.071C15.9871 6.91636 15.8896 6.6811 15.779 6.45042L16.2171 6.01238C16.8084 5.42101 16.8089 4.45641 16.2167 3.86037L15.0883 2.73433C14.8026 2.44681 14.4213 2.28816 14.0145 2.2875C14.0136 2.2875 14.0128 2.2875 14.012 2.2875C13.605 2.2875 13.2227 2.44574 12.9353 2.7331L12.4987 3.16967C12.2695 3.05901 12.0345 2.96123 11.7951 2.8769V2.25789C11.7951 1.41937 11.1119 0.737112 10.272 0.737112H8.67456C7.83604 0.737112 7.15378 1.41928 7.15378 2.25789V2.8769C6.91417 2.96123 6.6789 3.05917 6.44954 3.16999L6.01248 2.73433C5.72619 2.44615 5.34409 2.2875 4.93656 2.2875C4.52903 2.2875 4.14701 2.44615 3.86236 2.7326L2.73057 3.86209C2.13995 4.45641 2.14052 5.42101 2.73189 6.01238L3.16928 6.44985C3.05936 6.67888 2.96198 6.91439 2.87766 7.15499H2.25906C1.42054 7.15499 0.738281 7.83716 0.738281 8.67577V10.2732C0.738281 11.1118 1.42045 11.794 2.25906 11.794H2.87766C2.96198 12.0346 3.05936 12.2701 3.16928 12.4992L2.73189 12.9366C2.14061 13.5279 2.13995 14.4925 2.7323 15.0886L3.86072 16.2148C4.14709 16.5029 4.52911 16.6615 4.93664 16.6615C5.34417 16.6615 5.72627 16.5029 6.01068 16.2167L6.44987 15.7789C6.67743 15.8884 6.91253 15.9861 7.15386 16.0712V16.6912C7.15386 17.5297 7.83604 18.212 8.67464 18.212H10.2721C11.112 18.212 11.7952 17.5298 11.7952 16.6912V16.0722C12.0346 15.9879 12.2696 15.8901 12.4988 15.7794L12.9354 16.2161C13.2228 16.5034 13.605 16.6616 14.0121 16.6616H14.0145C14.4213 16.6609 14.8026 16.5023 15.0867 16.2165L16.2185 15.087C16.8091 14.4926 16.8084 13.528 16.2172 12.9367L15.7791 12.4987C15.8896 12.268 15.9872 12.0327 16.0711 11.7942H16.69C17.5285 11.7942 18.2108 11.112 18.2108 10.2734V8.67593C18.2108 7.83741 17.5286 7.15516 16.69 7.15516L16.6899 7.15491ZM17.062 10.2731C17.062 10.4782 16.8951 10.6452 16.6899 10.6452H15.6505C15.3931 10.6452 15.1672 10.8164 15.0975 11.0642C14.9757 11.4979 14.7996 11.9233 14.5742 12.3285C14.4496 12.5527 14.4887 12.8325 14.6701 13.0138L15.4049 13.7487C15.5473 13.8911 15.5467 14.1331 15.4053 14.2754L14.2735 15.4049C14.2046 15.4743 14.112 15.5125 14.0127 15.5127H14.0121C13.9119 15.5127 13.818 15.4739 13.7476 15.4036L13.0128 14.6688C12.8305 14.4864 12.5489 14.4479 12.3243 14.5748C11.9261 14.7996 11.5025 14.9758 11.0654 15.0986C10.8176 15.1683 10.6464 15.3942 10.6464 15.6516V16.691C10.6464 16.8927 10.475 17.0631 10.272 17.0631H8.67456C8.47293 17.0631 8.30246 16.8928 8.30246 16.691V15.6516C8.30246 15.3952 8.1325 15.1698 7.88591 15.0994C7.43974 14.9719 7.01539 14.7955 6.6246 14.5748C6.53617 14.5249 6.43896 14.5006 6.34249 14.5006C6.1941 14.5006 6.04734 14.558 5.93685 14.6682L5.19783 15.4048C5.12876 15.4744 5.03598 15.5126 4.93664 15.5126C4.8373 15.5126 4.74461 15.4744 4.67381 15.4032L3.54547 14.2771C3.40233 14.1331 3.40175 13.8911 3.54416 13.7487L4.279 13.0138C4.46102 12.8319 4.49966 12.5509 4.37366 12.3266C4.15111 11.9302 3.97548 11.5054 3.85145 11.0642C3.7818 10.8164 3.55589 10.6452 3.29848 10.6452H2.25906C2.0539 10.6452 1.88696 10.4782 1.88696 10.2731V8.6756C1.88696 8.47044 2.0539 8.30351 2.25906 8.30351H3.29848C3.55589 8.30351 3.7818 8.13231 3.85145 7.88449C3.9754 7.44325 4.15111 7.01857 4.37366 6.62212C4.49966 6.39768 4.46094 6.1168 4.279 5.93486L3.54424 5.20002C3.40184 5.05762 3.40241 4.81562 3.54383 4.6733L4.67562 3.54381C4.74469 3.47433 4.83746 3.43602 4.93672 3.43602C5.03598 3.43602 5.12876 3.47433 5.1998 3.5457L5.93693 4.28053C6.11937 4.4624 6.40057 4.50062 6.62476 4.37397C7.02294 4.14912 7.44655 3.97292 7.88361 3.85012C8.13143 3.78047 8.30263 3.55456 8.30263 3.29714V2.25773C8.30263 2.05609 8.47301 1.88563 8.67472 1.88563H10.2722C10.4751 1.88563 10.6466 2.05601 10.6466 2.25773V3.29714C10.6466 3.55456 10.8178 3.78047 11.0656 3.85012C11.5027 3.97292 11.9263 4.1492 12.3245 4.37397C12.5491 4.50079 12.8307 4.46231 13.0129 4.27996L13.7478 3.54512C13.8182 3.47466 13.9132 3.43684 14.0128 3.43602C14.1121 3.43619 14.2047 3.47449 14.2753 3.54553L15.4037 4.67158C15.5468 4.81562 15.5474 5.05762 15.4051 5.20002L14.6702 5.93486C14.4889 6.11623 14.4497 6.39596 14.5744 6.62015C14.7998 7.02546 14.976 7.4508 15.0977 7.88449C15.1673 8.13231 15.3932 8.30351 15.6507 8.30351H16.6901C16.8952 8.30351 17.0622 8.47044 17.0622 8.6756V10.2731H17.062ZM9.47453 4.33197C6.63961 4.33197 4.3333 6.63828 4.3333 9.47319C4.3333 12.3081 6.63961 14.6167 9.47453 14.6167C12.3094 14.6167 14.6158 12.3093 14.6158 9.47319C14.6158 6.63705 12.3094 4.33197 9.47453 4.33197ZM10.0488 13.4261V12.8635C10.0488 12.5462 9.79166 12.2892 9.47453 12.2892C9.15739 12.2892 8.90023 12.5463 8.90023 12.8635V13.4261C7.15755 13.1737 5.77598 11.7913 5.5239 10.0475H6.08434C6.40155 10.0475 6.65864 9.79033 6.65864 9.47319C6.65864 9.15606 6.40147 8.89889 6.08434 8.89889H5.52398C5.77623 7.1563 7.15772 5.77482 8.90031 5.52257V6.08522C8.90031 6.40244 9.15748 6.65952 9.47461 6.65952C9.79174 6.65952 10.0489 6.40235 10.0489 6.08522V5.52257C11.7915 5.77482 13.173 7.1563 13.4252 8.89889H12.8626C12.5454 8.89889 12.2883 9.15606 12.2883 9.47319C12.2883 9.79033 12.5454 10.0475 12.8626 10.0475H13.4253C13.1732 11.7913 11.7917 13.1737 10.049 13.4261H10.0488ZM11.1463 9.47319C11.1463 9.79041 10.8892 10.0475 10.572 10.0475H9.47453C9.15731 10.0475 8.90023 9.79033 8.90023 9.47319C8.90023 9.45769 8.90137 9.44243 8.90252 9.42717V7.606C8.90252 7.28878 9.15969 7.0317 9.47682 7.0317C9.79396 7.0317 10.0511 7.28887 10.0511 7.606V8.89889H10.572C10.8892 8.89889 11.1463 9.15606 11.1463 9.47319Z" fill="#1A2434"/>
</g>
<defs>
<clipPath id="clip0_1655_196995">
<rect width="42" height="42" fill="white"/>
</clipPath>
</defs>
</svg>
