<svg width="908" height="486" viewBox="0 0 908 486" fill="none" xmlns="http://www.w3.org/2000/svg">
<path d="M269 355.399V363.542C269 398.628 289.77 430.387 321.915 444.45L360.814 461.468C375.996 468.111 392.155 472.246 408.661 473.714L528.072 484.332C548.049 486.108 568.132 486.379 588.15 485.143L787.008 472.866C801.672 471.96 816.077 468.577 829.61 462.86L858.245 450.763C886.974 438.627 906.161 411.049 907.552 379.893C908.481 359.09 901.348 338.73 887.638 323.056L876.998 310.892C872.539 305.795 869.014 299.952 866.583 293.63L862.236 282.323C856.296 266.874 841.454 256.679 824.902 256.679C814.787 256.679 805.047 252.847 797.644 245.954L769.755 219.986C755.017 206.262 737.197 196.28 717.797 190.878L685.265 181.821C667.582 176.898 648.613 180.596 634.074 191.8L620.319 202.4C606.61 212.965 587.386 212.532 574.166 201.36C572.387 199.856 570.469 198.525 568.437 197.384L549.851 186.949C534.73 178.459 517.68 174 500.339 174H498.179C482.254 174 466.596 178.095 452.71 185.891L443.536 191.042C434.163 196.305 426.481 204.125 421.386 213.59L416.896 221.931C409.782 235.149 395.983 243.392 380.973 243.392H377.246C361.607 243.392 347.786 253.561 343.133 268.491L341.754 272.915C337.921 285.213 326.535 293.59 313.654 293.59C303.898 293.59 294.777 298.423 289.299 306.495L279.665 320.69C272.715 330.931 269 343.022 269 355.399Z" fill="#F0F0FD"/>
<mask id="mask0_1951_3078" style="mask-type:luminance" maskUnits="userSpaceOnUse" x="0" y="0" width="858" height="483">
<path d="M857.996 0H0.619141V482.274H857.996V0Z" fill="white"/>
</mask>
<g mask="url(#mask0_1951_3078)">
<path d="M829.494 476.892V2.06445" stroke="#E4E4FD" stroke-width="0.646024" stroke-miterlimit="10" stroke-dasharray="6.64 6.64"/>
<path d="M799.514 476.892V2.06396" stroke="#E4E4FD" stroke-width="0.646024" stroke-miterlimit="10" stroke-dasharray="6.64 6.64"/>
<path d="M769.537 476.892V2.06445" stroke="#E4E4FD" stroke-width="0.646024" stroke-miterlimit="10" stroke-dasharray="6.64 6.64"/>
<path d="M739.561 476.892V2.06445" stroke="#E4E4FD" stroke-width="0.646024" stroke-miterlimit="10" stroke-dasharray="6.64 6.64"/>
<path d="M709.578 476.892V2.06445" stroke="#E4E4FD" stroke-width="0.646024" stroke-miterlimit="10" stroke-dasharray="6.64 6.64"/>
<path d="M679.6 476.892V2.06445" stroke="#E4E4FD" stroke-width="0.646024" stroke-miterlimit="10" stroke-dasharray="6.64 6.64"/>
<path d="M649.621 476.892V2.06396" stroke="#E4E4FD" stroke-width="0.646024" stroke-miterlimit="10" stroke-dasharray="6.64 6.64"/>
<path d="M619.643 476.892V2.06396" stroke="#E4E4FD" stroke-width="0.646024" stroke-miterlimit="10" stroke-dasharray="6.64 6.64"/>
<path d="M589.662 476.892V2.06445" stroke="#E4E4FD" stroke-width="0.646024" stroke-miterlimit="10" stroke-dasharray="6.64 6.64"/>
<path d="M559.686 476.892V2.06396" stroke="#E4E4FD" stroke-width="0.646024" stroke-miterlimit="10" stroke-dasharray="6.64 6.64"/>
<path d="M529.703 476.892V2.06396" stroke="#E4E4FD" stroke-width="0.646024" stroke-miterlimit="10" stroke-dasharray="6.64 6.64"/>
<path d="M499.727 476.892V2.06445" stroke="#E4E4FD" stroke-width="0.646024" stroke-miterlimit="10" stroke-dasharray="6.64 6.64"/>
<path d="M469.748 476.892V2.06445" stroke="#E4E4FD" stroke-width="0.646024" stroke-miterlimit="10" stroke-dasharray="6.64 6.64"/>
<path d="M439.771 476.892V2.06396" stroke="#E4E4FD" stroke-width="0.646024" stroke-miterlimit="10" stroke-dasharray="6.64 6.64"/>
<path d="M418.849 465.979H422.208" stroke="#E4E4FD" stroke-width="0.646024" stroke-miterlimit="10"/>
<path d="M428.849 465.979H903.687" stroke="#E4E4FD" stroke-width="0.646024" stroke-miterlimit="10" stroke-dasharray="6.64 6.64"/>
<path d="M418.849 436H422.208" stroke="#E4E4FD" stroke-width="0.646024" stroke-miterlimit="10"/>
<path d="M428.849 436H903.687" stroke="#E4E4FD" stroke-width="0.646024" stroke-miterlimit="10" stroke-dasharray="6.64 6.64"/>
<path d="M418.849 406.021H422.208" stroke="#E4E4FD" stroke-width="0.646024" stroke-miterlimit="10"/>
<path d="M428.849 406.021H903.687" stroke="#E4E4FD" stroke-width="0.646024" stroke-miterlimit="10" stroke-dasharray="6.64 6.64"/>
<path d="M418.849 376.042H422.208" stroke="#E4E4FD" stroke-width="0.646024" stroke-miterlimit="10"/>
<path d="M428.849 376.042H903.687" stroke="#E4E4FD" stroke-width="0.646024" stroke-miterlimit="10" stroke-dasharray="6.64 6.64"/>
<path d="M418.849 346.063H422.208" stroke="#E4E4FD" stroke-width="0.646024" stroke-miterlimit="10"/>
<path d="M428.849 346.063H903.687" stroke="#E4E4FD" stroke-width="0.646024" stroke-miterlimit="10" stroke-dasharray="6.64 6.64"/>
<path d="M418.849 316.084H422.208" stroke="#E4E4FD" stroke-width="0.646024" stroke-miterlimit="10"/>
<path d="M428.849 316.084H903.687" stroke="#E4E4FD" stroke-width="0.646024" stroke-miterlimit="10" stroke-dasharray="6.64 6.64"/>
<path d="M418.849 286.105H422.208" stroke="#E4E4FD" stroke-width="0.646024" stroke-miterlimit="10"/>
<path d="M428.849 286.105H903.687" stroke="#E4E4FD" stroke-width="0.646024" stroke-miterlimit="10" stroke-dasharray="6.64 6.64"/>
<path d="M418.849 256.127H422.208" stroke="#E4E4FD" stroke-width="0.646024" stroke-miterlimit="10"/>
<path d="M428.849 256.127H903.687" stroke="#E4E4FD" stroke-width="0.646024" stroke-miterlimit="10" stroke-dasharray="6.64 6.64"/>
<path d="M418.849 226.148H422.208" stroke="#E4E4FD" stroke-width="0.646024" stroke-miterlimit="10"/>
<path d="M428.849 226.148H903.687" stroke="#E4E4FD" stroke-width="0.646024" stroke-miterlimit="10" stroke-dasharray="6.64 6.64"/>
<path d="M418.849 196.169H422.208" stroke="#E4E4FD" stroke-width="0.646024" stroke-miterlimit="10"/>
<path d="M428.849 196.169H903.687" stroke="#E4E4FD" stroke-width="0.646024" stroke-miterlimit="10" stroke-dasharray="6.64 6.64"/>
<path d="M418.849 166.19H422.208" stroke="#E4E4FD" stroke-width="0.646024" stroke-miterlimit="10"/>
<path d="M428.849 166.19H903.687" stroke="#E4E4FD" stroke-width="0.646024" stroke-miterlimit="10" stroke-dasharray="6.64 6.64"/>
<path d="M418.849 136.211H422.208" stroke="#E4E4FD" stroke-width="0.646024" stroke-miterlimit="10"/>
<path d="M428.849 136.211H903.687" stroke="#E4E4FD" stroke-width="0.646024" stroke-miterlimit="10" stroke-dasharray="6.64 6.64"/>
<path d="M418.849 106.232H422.208" stroke="#E4E4FD" stroke-width="0.646024" stroke-miterlimit="10"/>
<path d="M428.849 106.232H903.687" stroke="#E4E4FD" stroke-width="0.646024" stroke-miterlimit="10" stroke-dasharray="6.64 6.64"/>
<path d="M418.849 76.2534H422.208" stroke="#E4E4FD" stroke-width="0.646024" stroke-miterlimit="10"/>
<path d="M428.849 76.2534H903.687" stroke="#E4E4FD" stroke-width="0.646024" stroke-miterlimit="10" stroke-dasharray="6.64 6.64"/>
<path d="M418.849 46.2749H422.208" stroke="#E4E4FD" stroke-width="0.646024" stroke-miterlimit="10"/>
<path d="M428.849 46.2749H903.687" stroke="#E4E4FD" stroke-width="0.646024" stroke-miterlimit="10" stroke-dasharray="6.64 6.64"/>
<path d="M418.85 16.2959H422.208" stroke="#E4E4FD" stroke-width="0.646024" stroke-miterlimit="10"/>
<path d="M428.85 16.2959H903.688" stroke="#E4E4FD" stroke-width="0.646024" stroke-miterlimit="10" stroke-dasharray="6.64 6.64"/>
<path d="M418.847 476.891V2.06348" stroke="#E4E4FD" stroke-width="0.646024" stroke-miterlimit="10" stroke-dasharray="6.64 6.64"/>
<path d="M388.871 476.892V2.06396" stroke="#E4E4FD" stroke-width="0.646024" stroke-miterlimit="10" stroke-dasharray="6.64 6.64"/>
<path d="M358.891 476.892V2.06396" stroke="#E4E4FD" stroke-width="0.646024" stroke-miterlimit="10" stroke-dasharray="6.64 6.64"/>
<path d="M328.916 476.891V2.06348" stroke="#E4E4FD" stroke-width="0.646024" stroke-miterlimit="10" stroke-dasharray="6.64 6.64"/>
<path d="M298.936 476.892V2.06396" stroke="#E4E4FD" stroke-width="0.646024" stroke-miterlimit="10" stroke-dasharray="6.64 6.64"/>
<path d="M268.955 476.892V2.06396" stroke="#E4E4FD" stroke-width="0.646024" stroke-miterlimit="10" stroke-dasharray="6.64 6.64"/>
<path d="M238.977 476.892V2.06396" stroke="#E4E4FD" stroke-width="0.646024" stroke-miterlimit="10" stroke-dasharray="6.64 6.64"/>
<path d="M208.998 476.892V2.06396" stroke="#E4E4FD" stroke-width="0.646024" stroke-miterlimit="10" stroke-dasharray="6.64 6.64"/>
<path d="M179.018 476.891V2.06348" stroke="#E4E4FD" stroke-width="0.646024" stroke-miterlimit="10" stroke-dasharray="6.64 6.64"/>
<path d="M149.039 476.892V2.06396" stroke="#E4E4FD" stroke-width="0.646024" stroke-miterlimit="10" stroke-dasharray="6.64 6.64"/>
<path d="M119.061 476.891V2.06348" stroke="#E4E4FD" stroke-width="0.646024" stroke-miterlimit="10" stroke-dasharray="6.64 6.64"/>
<path d="M89.0818 476.891V2.06348" stroke="#E4E4FD" stroke-width="0.646024" stroke-miterlimit="10" stroke-dasharray="6.64 6.64"/>
<path d="M59.1038 476.891V2.06348" stroke="#E4E4FD" stroke-width="0.646024" stroke-miterlimit="10" stroke-dasharray="6.64 6.64"/>
<path d="M29.123 476.892V2.06396" stroke="#E4E4FD" stroke-width="0.646024" stroke-miterlimit="10" stroke-dasharray="6.64 6.64"/>
<path d="M-41.7498 465.979H433.088" stroke="#E4E4FD" stroke-width="0.646024" stroke-miterlimit="10" stroke-dasharray="6.64 6.64"/>
<path d="M436.408 465.979H439.767" stroke="#E4E4FD" stroke-width="0.646024" stroke-miterlimit="10"/>
<path d="M-41.75 436H433.088" stroke="#E4E4FD" stroke-width="0.646024" stroke-miterlimit="10" stroke-dasharray="6.64 6.64"/>
<path d="M436.408 436H439.767" stroke="#E4E4FD" stroke-width="0.646024" stroke-miterlimit="10"/>
<path d="M-41.7498 406.021H433.088" stroke="#E4E4FD" stroke-width="0.646024" stroke-miterlimit="10" stroke-dasharray="6.64 6.64"/>
<path d="M436.408 406.021H439.767" stroke="#E4E4FD" stroke-width="0.646024" stroke-miterlimit="10"/>
<path d="M-41.7498 376.043H433.088" stroke="#E4E4FD" stroke-width="0.646024" stroke-miterlimit="10" stroke-dasharray="6.64 6.64"/>
<path d="M436.408 376.043H439.767" stroke="#E4E4FD" stroke-width="0.646024" stroke-miterlimit="10"/>
<path d="M-41.7498 346.063H433.088" stroke="#E4E4FD" stroke-width="0.646024" stroke-miterlimit="10" stroke-dasharray="6.64 6.64"/>
<path d="M436.408 346.063H439.767" stroke="#E4E4FD" stroke-width="0.646024" stroke-miterlimit="10"/>
<path d="M-41.75 316.085H433.088" stroke="#E4E4FD" stroke-width="0.646024" stroke-miterlimit="10" stroke-dasharray="6.64 6.64"/>
<path d="M436.408 316.085H439.767" stroke="#E4E4FD" stroke-width="0.646024" stroke-miterlimit="10"/>
<path d="M-41.7498 286.106H433.088" stroke="#E4E4FD" stroke-width="0.646024" stroke-miterlimit="10" stroke-dasharray="6.64 6.64"/>
<path d="M436.408 286.106H439.767" stroke="#E4E4FD" stroke-width="0.646024" stroke-miterlimit="10"/>
<path d="M-41.7498 256.127H433.088" stroke="#E4E4FD" stroke-width="0.646024" stroke-miterlimit="10" stroke-dasharray="6.64 6.64"/>
<path d="M436.408 256.127H439.767" stroke="#E4E4FD" stroke-width="0.646024" stroke-miterlimit="10"/>
<path d="M-41.7498 226.148H433.088" stroke="#E4E4FD" stroke-width="0.646024" stroke-miterlimit="10" stroke-dasharray="6.64 6.64"/>
<path d="M436.408 226.148H439.767" stroke="#E4E4FD" stroke-width="0.646024" stroke-miterlimit="10"/>
<path d="M-41.7498 196.169H433.088" stroke="#E4E4FD" stroke-width="0.646024" stroke-miterlimit="10" stroke-dasharray="6.64 6.64"/>
<path d="M436.408 196.169H439.767" stroke="#E4E4FD" stroke-width="0.646024" stroke-miterlimit="10"/>
<path d="M-41.7498 166.19H433.088" stroke="#E4E4FD" stroke-width="0.646024" stroke-miterlimit="10" stroke-dasharray="6.64 6.64"/>
<path d="M436.408 166.19H439.767" stroke="#E4E4FD" stroke-width="0.646024" stroke-miterlimit="10"/>
<path d="M-41.7498 136.212H433.088" stroke="#E4E4FD" stroke-width="0.646024" stroke-miterlimit="10" stroke-dasharray="6.64 6.64"/>
<path d="M436.408 136.212H439.767" stroke="#E4E4FD" stroke-width="0.646024" stroke-miterlimit="10"/>
<path d="M-41.7498 106.232H433.088" stroke="#E4E4FD" stroke-width="0.646024" stroke-miterlimit="10" stroke-dasharray="6.64 6.64"/>
<path d="M436.408 106.232H439.767" stroke="#E4E4FD" stroke-width="0.646024" stroke-miterlimit="10"/>
<path d="M-41.7498 76.2544H433.088" stroke="#E4E4FD" stroke-width="0.646024" stroke-miterlimit="10" stroke-dasharray="6.64 6.64"/>
<path d="M436.408 76.2544H439.767" stroke="#E4E4FD" stroke-width="0.646024" stroke-miterlimit="10"/>
<path d="M-41.7498 46.2749H433.088" stroke="#E4E4FD" stroke-width="0.646024" stroke-miterlimit="10" stroke-dasharray="6.64 6.64"/>
<path d="M436.408 46.2749H439.767" stroke="#E4E4FD" stroke-width="0.646024" stroke-miterlimit="10"/>
<path d="M-41.75 16.2959H433.088" stroke="#E4E4FD" stroke-width="0.646024" stroke-miterlimit="10" stroke-dasharray="6.64 6.64"/>
<path d="M436.408 16.2959H439.767" stroke="#E4E4FD" stroke-width="0.646024" stroke-miterlimit="10"/>
</g>
<path d="M773.887 206.051C796.089 204.472 812.809 185.194 811.231 162.992C809.653 140.789 790.375 124.07 768.172 125.648C745.969 127.226 729.25 146.504 730.828 168.707C732.406 190.909 751.684 207.629 773.887 206.051Z" fill="#8BA026"/>
<path d="M807.075 170.643C809.743 150.718 795.753 132.403 775.827 129.735C755.902 127.068 737.587 141.058 734.92 160.983C732.252 180.908 746.242 199.223 766.167 201.891C786.093 204.558 804.407 190.568 807.075 170.643Z" fill="#A7B82C"/>
<path d="M776.393 198.897C794.648 195.934 807.044 178.734 804.082 160.479C801.119 142.225 783.919 129.828 765.664 132.79C747.41 135.753 735.013 152.953 737.976 171.208C740.938 189.463 758.138 201.859 776.393 198.897Z" fill="white"/>
<path d="M771.018 135.854V142.965" stroke="#302017" stroke-width="0.870416" stroke-miterlimit="10" stroke-linecap="round" stroke-linejoin="round"/>
<path d="M792.232 144.641L787.203 149.67" stroke="#302017" stroke-width="0.870416" stroke-miterlimit="10" stroke-linecap="round" stroke-linejoin="round"/>
<path d="M801.019 165.855H793.908" stroke="#302017" stroke-width="0.870416" stroke-miterlimit="10" stroke-linecap="round" stroke-linejoin="round"/>
<path d="M792.232 187.07L787.203 182.042" stroke="#302017" stroke-width="0.870416" stroke-miterlimit="10" stroke-linecap="round" stroke-linejoin="round"/>
<path d="M771.018 195.857V188.745" stroke="#302017" stroke-width="0.870416" stroke-miterlimit="10" stroke-linecap="round" stroke-linejoin="round"/>
<path d="M749.803 187.07L754.831 182.042" stroke="#302017" stroke-width="0.870416" stroke-miterlimit="10" stroke-linecap="round" stroke-linejoin="round"/>
<path d="M741.016 165.855H748.127" stroke="#302017" stroke-width="0.870416" stroke-miterlimit="10" stroke-linecap="round" stroke-linejoin="round"/>
<path d="M749.803 144.641L754.831 149.67" stroke="#302017" stroke-width="0.870416" stroke-miterlimit="10" stroke-linecap="round" stroke-linejoin="round"/>
<path d="M775.271 124.224C775.271 126.192 773.675 127.788 771.706 127.788C769.738 127.788 768.143 126.192 768.143 124.224C768.143 122.255 769.739 120.659 771.706 120.659C773.675 120.659 775.271 122.255 775.271 124.224Z" stroke="#8BA026" stroke-width="1.74083" stroke-miterlimit="10"/>
<path d="M771.016 166.744H781.264" stroke="#F7478F" stroke-width="1.74083" stroke-miterlimit="10" stroke-linecap="round" stroke-linejoin="round"/>
<path d="M771.016 152.077V166.745" stroke="#F7478F" stroke-width="3.48171" stroke-miterlimit="10" stroke-linecap="round" stroke-linejoin="round"/>
<path d="M774.216 167.539C774.63 165.787 773.545 164.032 771.793 163.618C770.041 163.204 768.286 164.289 767.872 166.041C767.458 167.793 768.543 169.548 770.295 169.962C772.047 170.376 773.802 169.291 774.216 167.539Z" fill="#EEBC33"/>
<path d="M599.602 67.2788C599.602 67.2788 628.679 72.1408 658.462 64.6606C658.462 64.6606 653.082 130.862 656.638 139.09C656.638 139.09 616.433 136.846 597.732 139.09C597.732 139.09 597.359 72.515 599.602 67.2788Z" fill="#C6C6DB"/>
<path d="M598.106 64.6606C598.106 64.6606 628.679 72.1408 658.462 64.6606C658.462 64.6606 651.586 128.244 655.142 136.472C655.142 136.472 614.937 134.228 596.236 136.472C596.236 136.472 595.862 69.8969 598.106 64.6606Z" fill="#E4E4FD"/>
<path d="M628.384 103.944C628.384 103.944 633.388 122.177 620.75 123.439" stroke="#A7B82C" stroke-width="1.03095" stroke-miterlimit="10" stroke-linecap="round" stroke-linejoin="round"/>
<path d="M625.437 89.923C625.437 89.923 625.373 89.7542 625.269 89.4626C624.715 87.9028 623.036 82.8336 624.09 81.3774C625.341 79.6492 630.243 79.7452 631.393 82.0494C632.542 84.3541 627.741 89.9225 627.741 89.9225" fill="#CF3B78"/>
<path d="M627.801 90.3801C627.801 90.3801 627.875 90.2153 628.008 89.9358C628.718 88.4407 631.116 83.6698 632.891 83.3853C634.998 83.0477 638.396 86.5817 637.579 89.0239C636.763 91.4661 629.431 92.0095 629.431 92.0095" fill="#F7478F"/>
<path d="M629.148 92.3738C629.148 92.3738 629.317 92.3095 629.609 92.2059C631.169 91.6513 636.237 89.9732 637.694 91.027C639.422 92.2778 639.326 97.18 637.022 98.3295C634.718 99.4789 629.149 94.6785 629.149 94.6785" fill="#CF3B78"/>
<path d="M628.69 94.7368C628.69 94.7368 628.855 94.8105 629.134 94.9436C630.629 95.654 635.4 98.052 635.685 99.827C636.022 101.933 632.488 105.332 630.046 104.515C627.604 103.699 627.061 96.3663 627.061 96.3663" fill="#F7478F"/>
<path d="M626.698 96.084C626.698 96.084 626.762 96.2528 626.866 96.5444C627.42 98.1042 629.099 103.173 628.045 104.63C626.794 106.358 621.892 106.262 620.742 103.958C619.593 101.653 624.394 96.0844 624.394 96.0844" fill="#CF3B78"/>
<path d="M624.334 95.6275C624.334 95.6275 624.26 95.7923 624.128 96.0718C623.417 97.5669 621.019 102.338 619.244 102.623C617.138 102.96 613.739 99.4259 614.556 96.9837C615.372 94.5415 622.705 93.998 622.705 93.998" fill="#F7478F"/>
<path d="M622.987 93.6335C622.987 93.6335 622.818 93.6982 622.527 93.8014C620.967 94.356 615.898 96.0346 614.442 94.9807C612.714 93.7299 612.81 88.8277 615.114 87.6783C617.419 86.5288 622.987 91.3293 622.987 91.3293" fill="#CF3B78"/>
<path d="M623.445 91.2705C623.445 91.2705 623.28 91.1968 623.001 91.0637C621.507 90.3528 616.735 87.9553 616.45 86.1803C616.113 84.0734 619.647 80.6752 622.089 81.4919C624.531 82.3087 625.074 89.641 625.074 89.641" fill="#F7478F"/>
<path d="M629.434 92.7671C629.434 94.5939 627.953 96.0747 626.126 96.0747C624.299 96.0747 622.818 94.5939 622.818 92.7671C622.818 90.9402 624.299 89.4595 626.126 89.4595C627.953 89.4595 629.434 90.9402 629.434 92.7671Z" fill="#EEBC33" stroke="#EEBC33" stroke-width="0.681391" stroke-miterlimit="10"/>
<path d="M629 115.536C637.405 116.001 637.703 106.842 637.703 106.842C630.781 107.123 629.197 114.322 629.197 114.322C629.197 114.322 632.002 114.042 634.714 109.741" stroke="#A7B82C" stroke-width="1.03095" stroke-miterlimit="10" stroke-linecap="round" stroke-linejoin="round"/>
<path d="M625.049 61.9601C625.049 61.9601 628.276 61.539 629.749 61.9601C631.22 62.3808 629.257 73.5436 627.994 73.0113C626.732 72.479 626.732 72.479 626.732 72.479L625.049 61.9601Z" fill="#D98B47"/>
<path d="M514.04 69.0796C514.04 69.0796 542.254 74.0519 571.259 67.0366C571.259 67.0366 565.468 131.322 568.852 139.348C568.852 139.348 529.802 136.825 511.611 138.847C511.611 138.847 511.815 74.1484 514.04 69.0796Z" fill="#C6C6DB"/>
<path d="M512.608 66.5229C512.608 66.5229 542.254 74.0522 571.259 67.0369C571.259 67.0369 564.036 128.765 567.421 136.792C567.421 136.792 528.371 134.269 510.18 136.29C510.18 136.29 510.383 71.5922 512.608 66.5229Z" fill="#E4E4FD"/>
<path d="M517.701 110.366C516.997 110.36 516.4 109.841 516.312 109.143C516.073 107.266 516.138 103.761 519.643 102.699C524.509 101.225 526.023 101.542 527.362 98.7226C528.701 95.9031 526.413 91.6367 534.011 89.8836C541.61 88.1304 549.787 89.5982 550.767 93.1046C551.747 96.6109 551.922 99.747 553.33 100.568C554.738 101.389 559.084 101.63 560.17 104.572C560.855 106.426 560.655 108.393 560.414 109.593C560.28 110.26 559.694 110.735 559.015 110.729L517.701 110.366Z" fill="#CF3B78"/>
<path d="M560.429 107.704C560.296 108.37 559.71 108.845 559.03 108.839L517.717 108.477C517.014 108.471 516.417 107.952 516.328 107.254C516.314 107.143 516.301 107.025 516.29 106.904C516.191 107.73 516.233 108.525 516.312 109.143C516.4 109.842 516.997 110.36 517.701 110.367L559.014 110.729C559.694 110.735 560.279 110.259 560.413 109.593C560.568 108.821 560.703 107.73 560.599 106.557C560.557 106.984 560.496 107.374 560.429 107.704Z" fill="#45437E"/>
<path d="M534.415 110.665C534.389 113.569 532.015 115.902 529.111 115.876C526.208 115.851 523.875 113.477 523.901 110.573C523.926 107.67 526.3 105.337 529.204 105.362C532.107 105.387 534.44 107.762 534.415 110.665Z" fill="#302017"/>
<path d="M531.545 110.986C531.533 112.305 530.454 113.366 529.135 113.354C527.816 113.342 526.756 112.264 526.767 110.945C526.779 109.626 527.857 108.566 529.177 108.577C530.496 108.588 531.556 109.667 531.545 110.986Z" fill="#45437E"/>
<path d="M523.519 110.916C523.85 110.919 524.141 110.694 524.216 110.371C524.739 108.107 526.776 106.428 529.195 106.449C531.608 106.47 533.615 108.185 534.098 110.457C534.167 110.781 534.454 111.012 534.785 111.015H534.792C535.243 111.019 535.597 110.605 535.503 110.164C534.886 107.246 532.308 105.044 529.208 105.017C526.1 104.99 523.489 107.146 522.822 110.054C522.721 110.493 523.067 110.912 523.519 110.916Z" fill="#45437E"/>
<path d="M552.917 110.828C552.892 113.731 550.517 116.064 547.614 116.039C544.71 116.013 542.377 113.639 542.403 110.735C542.428 107.832 544.802 105.499 547.706 105.524C550.609 105.55 552.942 107.924 552.917 110.828Z" fill="#302017"/>
<path d="M550.046 111.148C550.035 112.467 548.956 113.527 547.637 113.516C546.318 113.504 545.258 112.426 545.27 111.106C545.281 109.787 546.36 108.727 547.679 108.738C548.998 108.75 550.058 109.829 550.046 111.148Z" fill="#45437E"/>
<path d="M542.021 111.078C542.352 111.081 542.643 110.856 542.717 110.533C543.24 108.269 545.278 106.59 547.697 106.611C550.11 106.633 552.116 108.347 552.6 110.619C552.668 110.944 552.956 111.174 553.286 111.177H553.294C553.745 111.181 554.099 110.768 554.005 110.326C553.387 107.408 550.81 105.207 547.709 105.179C544.602 105.152 541.991 107.308 541.324 110.216C541.223 110.655 541.57 111.074 542.021 111.078Z" fill="#45437E"/>
<path d="M550.146 99.0429C550.142 96.8838 549.422 94.3287 548.99 92.9904C548.805 92.4156 548.338 91.9686 547.753 91.8168C537.786 89.2268 531.739 91.4252 530.771 92.6679C530.019 93.6347 529.537 97.1812 529.345 98.8607L550.146 99.0429Z" fill="#45437E"/>
<path d="M543.217 90.1043L542.605 90.0991L542.522 99.8531L543.134 99.8583L543.217 90.1043Z" fill="#CF3B78"/>
<path d="M542.497 99.8711L542.443 105.99" stroke="#BD366D" stroke-width="0.593957" stroke-miterlimit="10"/>
<path d="M540.875 65.0429C540.875 65.0429 544.015 64.6616 545.441 65.0831C546.868 65.5047 544.865 76.3353 543.643 75.8075C542.421 75.2797 542.421 75.2797 542.421 75.2797L540.875 65.0429Z" fill="#D98B47"/>
<path d="M442.025 40.6498L441.867 45.4123C441.842 46.1799 442.313 46.8765 443.035 47.1378L447.516 48.7596C449.131 49.3437 449.054 51.6533 447.404 52.1293L442.826 53.4511C442.088 53.6641 441.572 54.3281 441.546 55.0953L441.389 59.8578C441.332 61.5738 439.112 62.2151 438.149 60.7928L435.478 56.8471C435.047 56.2112 434.256 55.925 433.518 56.138L428.94 57.4598C427.29 57.9362 425.995 56.0232 427.05 54.6679L429.977 50.9075C430.448 50.3016 430.476 49.4607 430.045 48.8248L427.373 44.8791C426.411 43.4573 427.83 41.634 429.444 42.2186L433.926 43.8404C434.648 44.1017 435.456 43.8686 435.927 43.2626L438.855 39.5022C439.909 38.1474 442.082 38.9333 442.025 40.6498Z" fill="#EEBC33"/>
<path d="M665.245 206.5L665.088 211.263C665.062 212.031 665.534 212.727 666.256 212.988L670.737 214.61C672.351 215.194 672.275 217.503 670.625 217.98L666.047 219.302C665.309 219.515 664.793 220.179 664.767 220.946L664.609 225.709C664.553 227.425 662.333 228.066 661.37 226.644L658.698 222.699C658.268 222.063 657.477 221.777 656.739 221.99L652.161 223.311C650.511 223.788 649.216 221.874 650.27 220.519L653.197 216.759C653.669 216.153 653.697 215.312 653.267 214.676L650.594 210.731C649.632 209.309 651.051 207.486 652.666 208.07L657.147 209.692C657.869 209.953 658.677 209.72 659.149 209.114L662.075 205.353C663.13 203.998 665.302 204.784 665.245 206.5Z" fill="#EEBC33"/>
<path d="M707.03 97.0349L706.909 99.3432C706.89 99.7151 707.113 100.057 707.46 100.191L709.618 101.019C710.396 101.317 710.338 102.436 709.533 102.652L707.3 103.251C706.94 103.347 706.683 103.665 706.664 104.037L706.544 106.345C706.5 107.177 705.418 107.467 704.964 106.769L703.705 104.83C703.501 104.518 703.12 104.372 702.761 104.468L700.528 105.067C699.723 105.283 699.113 104.343 699.636 103.696L701.091 101.899C701.325 101.609 701.346 101.202 701.144 100.89L699.884 98.9511C699.43 98.2527 700.135 97.3815 700.913 97.6798L703.071 98.5077C703.419 98.6412 703.813 98.5354 704.047 98.2455L705.501 96.4486C706.027 95.8016 707.073 96.203 707.03 97.0349Z" fill="#EEBC33"/>
<path d="M428.21 259.189L430.013 262.199C430.304 262.684 430.874 262.927 431.425 262.8L434.844 262.015C436.076 261.732 436.951 263.191 436.121 264.145L433.816 266.79C433.444 267.217 433.39 267.833 433.68 268.318L435.483 271.328C436.133 272.412 435.016 273.695 433.853 273.2L430.625 271.825C430.104 271.603 429.501 271.742 429.129 272.168L426.824 274.813C425.993 275.767 424.428 275.1 424.54 273.841L424.85 270.346C424.9 269.783 424.581 269.251 424.061 269.03L420.833 267.655C419.67 267.159 419.82 265.465 421.052 265.182L424.472 264.397C425.023 264.271 425.43 263.804 425.48 263.24L425.79 259.745C425.902 258.486 427.559 258.105 428.21 259.189Z" fill="#EEBC33"/>
<path d="M478.371 149.272H353.07V156.177H478.371V149.272Z" fill="#F5AB6B"/>
<path d="M379.713 173.026H369.724V221.652H379.713V173.026Z" fill="#FFD86E"/>
<path d="M379.713 176.63H369.724V178.73H379.713V176.63Z" fill="white"/>
<path d="M379.713 180.546H369.724V182.647H379.713V180.546Z" fill="white"/>
<path d="M379.713 215.2H369.724V217.299H379.713V215.2Z" fill="white"/>
<path d="M379.715 221.652H389.703V173.027H379.715V221.652Z" fill="#F7478F"/>
<path d="M399.69 173.026H389.701V221.652H399.69V173.026Z" fill="#8BA026"/>
<path d="M399.69 176.63H389.701V178.73H399.69V176.63Z" fill="white"/>
<path d="M399.69 215.2H389.701V217.299H399.69V215.2Z" fill="white"/>
<path d="M407.77 221.807L417.619 220.148L409.542 172.199L399.693 173.858L407.77 221.807Z" fill="#62A4DA"/>
<path d="M407.176 218.243L417.025 216.583L416.677 214.513L406.827 216.172L407.176 218.243Z" fill="white"/>
<path d="M406.52 214.394L416.369 212.735L416.02 210.664L406.171 212.323L406.52 214.394Z" fill="white"/>
<path d="M463.024 190.959C463.024 191.657 457.562 192.22 450.817 192.22C444.073 192.22 438.6 191.658 438.6 190.959C438.6 190.271 444.073 189.708 450.817 189.708C457.561 189.708 463.024 190.271 463.024 190.959Z" fill="#62A4DA"/>
<path d="M445.96 176.072L440.25 177.008L444.486 202.841L450.196 201.905L445.96 176.072Z" fill="#A7B82C"/>
<path d="M447.004 200.272C446.314 200.385 445.664 199.918 445.551 199.228L442.417 180.116C442.304 179.427 442.771 178.776 443.461 178.663C444.15 178.55 444.801 179.018 444.914 179.707L448.047 198.819C448.161 199.509 447.693 200.159 447.004 200.272Z" fill="#C4D933"/>
<path d="M440.26 177.019L445.969 176.083L442.979 171.455C442.622 170.902 441.778 171.04 441.615 171.679L440.26 177.019Z" fill="#A7B82C"/>
<path d="M450.194 201.914L444.484 202.851L444.665 203.95L450.374 203.014L450.194 201.914Z" fill="#C4D933"/>
<path d="M445.958 176.083L440.248 177.019L440.324 177.481L446.033 176.545L445.958 176.083Z" fill="#C4D933"/>
<path d="M462.565 177.172L457.467 175.203L448.557 198.271L453.655 200.24L462.565 177.172Z" fill="#F7478F"/>
<path d="M451.839 197.389C451.223 197.151 450.917 196.46 451.155 195.844L457.747 178.778C457.985 178.162 458.677 177.855 459.293 178.093C459.909 178.331 460.215 179.023 459.977 179.639L453.385 196.705C453.147 197.321 452.455 197.627 451.839 197.389Z" fill="#F76DA5"/>
<path d="M457.471 175.223L462.569 177.192L462.348 171.991C462.322 171.37 461.568 171.079 461.131 171.521L457.471 175.223Z" fill="#F7478F"/>
<path d="M453.649 200.247L448.551 198.277L448.171 199.26L453.27 201.229L453.649 200.247Z" fill="#F76DA5"/>
<path d="M462.556 177.21L457.457 175.24L457.298 175.653L462.396 177.622L462.556 177.21Z" fill="#F76DA5"/>
<path d="M454.55 176.85L449.238 175.562L443.412 199.597L448.724 200.885L454.55 176.85Z" fill="#EEBC33"/>
<path d="M446.533 198.251C445.892 198.096 445.498 197.45 445.653 196.809L449.963 179.028C450.118 178.387 450.765 177.993 451.406 178.148C452.047 178.304 452.441 178.95 452.285 179.591L447.975 197.372C447.82 198.013 447.174 198.407 446.533 198.251Z" fill="#FFD86E"/>
<path d="M449.227 175.539L454.538 176.827L453.641 171.7C453.534 171.088 452.748 170.897 452.372 171.392L449.227 175.539Z" fill="#EEBC33"/>
<path d="M448.728 200.878L443.416 199.59L443.168 200.614L448.48 201.901L448.728 200.878Z" fill="#FFD86E"/>
<path d="M454.556 176.844L449.244 175.556L449.14 175.986L454.452 177.274L454.556 176.844Z" fill="#FFD86E"/>
<path d="M463.024 190.959V222.316C454.883 224.106 446.741 224.106 438.6 222.316V190.959C438.6 191.657 444.073 192.22 450.817 192.22C457.561 192.22 463.024 191.657 463.024 190.959Z" fill="#57B4F7"/>
<path d="M478.371 221.46H353.07V228.365H478.371V221.46Z" fill="#F5AB6B"/>
<path d="M407.964 142.015H395.826V149.117H407.964V142.015Z" fill="#A7B82C"/>
<path d="M402.021 142.015H395.826V149.117H402.021V142.015Z" fill="#C4D933"/>
<path d="M407.964 142.015L402.021 142.427V149.116L401.082 142.015H407.964Z" fill="#D9F038"/>
<path d="M431.064 140.378H416.127V149.116H431.064V140.378Z" fill="#A7B82C"/>
<path d="M423.75 140.378H416.127V149.116H423.75V140.378Z" fill="#C4D933"/>
<path d="M431.062 140.377L423.749 140.884V149.116L422.594 140.377H431.062Z" fill="#D9F038"/>
<path d="M428.262 121.455V141.992H416.128V133.008C416.128 131.879 415.672 130.86 414.931 130.119C414.195 129.379 413.172 128.922 412.043 128.922C409.79 128.922 407.962 130.75 407.962 133.008V141.992H395.824V121.455H428.262Z" fill="#F7478F"/>
<path d="M411.264 128.533C409.011 128.533 407.183 130.361 407.183 132.619V141.603H395.822V141.992H407.96V133.008C407.96 130.75 409.788 128.922 412.041 128.922C412.545 128.922 413.026 129.018 413.471 129.184C412.835 128.774 412.078 128.533 411.264 128.533Z" fill="#CF3B78"/>
<path d="M427.482 121.455V141.604H416.127V141.993H428.26V121.455H427.482Z" fill="#CF3B78"/>
<path d="M431.062 121.457H428.262V141.993H431.062V121.457Z" fill="#CF3B78"/>
<path d="M394.512 121.457H432.431L413.471 104.854L394.512 121.457Z" fill="#FFD86E"/>
<path d="M413.471 104.854L412.334 105.85L430.156 121.457H432.431L413.471 104.854Z" fill="#EEBC33"/>
<path d="M457.623 134.823H433.119V149.16H457.623V134.823Z" fill="#62A4DA"/>
<path d="M445.625 134.823H433.119V149.16H445.625V134.823Z" fill="#6EB9F5"/>
<path d="M457.624 134.823L445.626 135.655V149.16L443.73 134.823H457.624Z" fill="#85C7FF"/>
<path d="M392.799 126.222H378.018V149.273H392.799V126.222Z" fill="#EEBC33"/>
<path d="M392.799 126.222C392.799 126.732 389.49 127.146 385.408 127.146C381.327 127.146 378.018 126.732 378.018 126.222C378.018 125.712 381.327 125.298 385.408 125.298C389.49 125.298 392.799 125.712 392.799 126.222Z" fill="#FFD86E"/>
<path d="M451.579 115.314H439.168V134.67H451.579V115.314Z" fill="#57B4F7"/>
<path d="M451.577 115.315C451.577 115.743 448.799 116.09 445.372 116.09C441.944 116.09 439.166 115.743 439.166 115.315C439.166 114.886 441.944 114.539 445.372 114.539C448.799 114.539 451.577 114.886 451.577 115.315Z" fill="#6EB9F5"/>
<mask id="mask1_1951_3078" style="mask-type:luminance" maskUnits="userSpaceOnUse" x="0" y="0" width="858" height="483">
<path d="M857.996 0H0.619141V482.274H857.996V0Z" fill="white"/>
</mask>
<g mask="url(#mask1_1951_3078)">
<path d="M703.57 -2.70654C703.57 -2.70654 706.897 13.3679 726.514 15.017C726.514 15.017 701.287 36.2675 693.45 31.4769C687.24 27.6808 703.57 -2.70654 703.57 -2.70654Z" fill="#A7B82C"/>
<path d="M739.954 23.0557C739.954 23.0557 746.864 37.9459 766.34 35.071C766.34 35.071 746.632 61.5215 737.908 58.6471C730.995 56.3697 739.954 23.0557 739.954 23.0557Z" fill="#F7478F"/>
<path d="M785.564 42.8159C785.564 42.8159 795.251 56.0677 813.789 49.4414C813.789 49.4414 799.632 79.2339 790.515 78.1206C783.29 77.2383 785.564 42.8159 785.564 42.8159Z" fill="#85C7FF"/>
<path d="M832.066 52.8818C832.066 52.8818 844.203 63.9344 861.046 53.7423C861.046 53.7423 853.119 85.7604 843.962 86.4892C836.707 87.0657 832.066 52.8818 832.066 52.8818Z" fill="#EEBC33"/>
<path d="M683.174 -24.8198C683.174 -24.8198 740.479 60.3699 882.228 54.1272" stroke="#8C5D43" stroke-width="1.16277" stroke-miterlimit="10"/>
</g>
<path d="M578.583 465.979C717.962 465.979 830.95 454.006 830.95 439.236C830.95 424.466 717.962 412.493 578.583 412.493C439.205 412.493 326.217 424.466 326.217 439.236C326.217 454.006 439.205 465.979 578.583 465.979Z" fill="#F0F0FD"/>
<path d="M681.337 447.289H640.462C637.018 447.289 634.226 444.497 634.226 441.054C634.226 437.611 637.018 434.819 640.462 434.819H681.337C684.78 434.819 687.572 437.611 687.572 441.054C687.572 444.498 684.78 447.289 681.337 447.289Z" fill="#CF3B78"/>
<path d="M675.904 440.184H639.875C638.822 440.184 637.969 439.33 637.969 438.277V438.037C637.969 436.984 638.822 436.13 639.875 436.13H675.904C676.957 436.13 677.811 436.984 677.811 438.037V438.277C677.811 439.33 676.957 440.184 675.904 440.184Z" fill="#F7478F"/>
<path d="M678.928 434.793H642.866C639.422 434.793 636.631 432.001 636.631 428.558C636.631 425.115 639.422 422.323 642.866 422.323H678.928C682.372 422.323 685.163 425.115 685.163 428.558C685.163 432.001 682.372 434.793 678.928 434.793Z" fill="#57B4F7"/>
<path d="M674.65 422.296H647.145C643.701 422.296 640.91 419.505 640.91 416.061C640.91 412.618 643.701 409.826 647.145 409.826H674.65C678.094 409.826 680.886 412.618 680.886 416.061C680.886 419.505 678.094 422.296 674.65 422.296Z" fill="#62A4DA"/>
<path d="M670.907 409.799H650.889C647.446 409.799 644.654 407.008 644.654 403.564C644.654 400.121 647.445 397.329 650.889 397.329H670.907C674.351 397.329 677.142 400.121 677.142 403.564C677.143 407.007 674.351 409.799 670.907 409.799Z" fill="#A7B82C"/>
<path d="M673.019 428.558H642.494C641.251 428.558 640.242 427.55 640.242 426.306C640.242 425.062 641.25 424.054 642.494 424.054H673.019C674.262 424.054 675.271 425.062 675.271 426.306C675.271 427.55 674.262 428.558 673.019 428.558Z" fill="#5549FA"/>
<path d="M669.028 414.704H646.018C645.08 414.704 644.32 413.944 644.32 413.006C644.32 412.069 645.08 411.309 646.018 411.309H669.028C669.965 411.309 670.725 412.069 670.725 413.006C670.725 413.944 669.965 414.704 669.028 414.704Z" fill="#6EB9F5"/>
<path d="M666.042 401.786H649.003C648.244 401.786 647.629 401.171 647.629 400.411V400.19C647.629 399.431 648.244 398.816 649.003 398.816H666.042C666.801 398.816 667.416 399.431 667.416 400.19V400.411C667.416 401.171 666.801 401.786 666.042 401.786Z" fill="#C4D933"/>
<path d="M689.547 451.01H632.25C631.223 451.01 630.39 450.177 630.39 449.15C630.39 448.122 631.223 447.29 632.25 447.29H689.547C690.575 447.29 691.407 448.123 691.407 449.15C691.407 450.177 690.574 451.01 689.547 451.01Z" fill="#D98B47"/>
<path d="M662.989 397.329H658.806V381.213C658.806 380.058 659.743 379.122 660.898 379.122C662.052 379.122 662.989 380.058 662.989 381.213V397.329Z" fill="#D98B47"/>
<path d="M445.448 393.962H356.945V445.741H445.448V393.962Z" fill="#A7B82C"/>
<path d="M402.115 393.962H356.945V445.741H402.115V393.962Z" fill="#C4D933"/>
<path d="M445.448 393.962L402.115 396.966V445.741L395.268 393.962H445.448Z" fill="#D9F038"/>
<path d="M464.612 342.183H376.109V393.962H464.612V342.183Z" fill="#EEBC33"/>
<path d="M421.278 342.183H376.109V393.962H421.278V342.183Z" fill="#FFD257"/>
<path d="M464.612 342.183L421.279 345.187V393.962L414.432 342.183H464.612Z" fill="#FFDD82"/>
<path d="M429.694 304.417H366.004V341.679H429.694V304.417Z" fill="#57B4F7"/>
<path d="M398.509 304.417H366.004V341.679H398.509V304.417Z" fill="#57B4F7"/>
<path d="M429.694 304.417L398.51 306.578V341.679L393.582 304.417H429.694Z" fill="#62A4DA"/>
<path d="M559.767 290.841C557.754 286.583 560.323 281.542 564.954 280.681C569.01 279.928 574.66 280.499 580.796 285.997C592.789 296.743 599.583 302.423 599.583 302.423L621.643 290.479C621.643 290.479 625.098 292.941 625.303 296.345C625.508 299.75 606.12 316.014 600.166 317.851C594.212 319.689 579.204 312.041 570.783 304.703C565.857 300.411 561.839 295.225 559.767 290.841Z" fill="#985A46"/>
<path d="M621.842 289.985C621.842 289.985 627.193 284.191 628.91 283.501C630.627 282.809 631.695 283.727 631.343 284.218C630.992 284.708 628.658 286.594 629.252 286.955C629.846 287.314 636.923 285.814 637.79 287.286C638.657 288.757 633.567 289.434 633.567 289.434C633.567 289.434 639.588 288.158 639.041 289.775C638.494 291.392 634.084 292.642 634.084 292.642C634.084 292.642 638.667 290.765 639.407 291.768C640.146 292.771 636.219 294.476 636.219 294.476C636.219 294.476 639.581 293.348 639.369 294.681C639.157 296.013 633.236 297.971 630.275 297.99C627.315 298.009 624.158 297.57 624.158 297.57L620.582 291.439L621.842 289.985Z" fill="#985A46"/>
<path d="M635.634 289.037C635.279 289.253 634.903 289.402 634.523 289.533C634.143 289.665 633.741 289.717 633.347 289.797C632.558 289.952 631.765 290.107 630.957 290.145C630.946 290.145 630.936 290.137 630.936 290.126C630.935 290.115 630.943 290.106 630.953 290.105C631.347 290.035 631.733 289.93 632.117 289.82C632.503 289.715 632.887 289.603 633.27 289.486C633.653 289.372 634.026 289.221 634.419 289.145C634.812 289.067 635.209 289.003 635.624 288.998C635.636 288.998 635.645 289.007 635.645 289.019C635.645 289.026 635.641 289.033 635.634 289.037Z" fill="#6E4233"/>
<path d="M636.345 291.885C635.976 292.108 635.587 292.264 635.192 292.402C634.798 292.541 634.382 292.602 633.974 292.689C633.565 292.775 633.155 292.858 632.743 292.929C632.329 292.989 631.914 293.067 631.488 293.045C631.477 293.045 631.469 293.035 631.469 293.024C631.469 293.014 631.478 293.006 631.487 293.005L631.491 293.005C631.899 292.974 632.301 292.844 632.698 292.733C633.098 292.624 633.496 292.503 633.892 292.378C634.29 292.257 634.677 292.098 635.085 292.015C635.492 291.929 635.903 291.857 636.333 291.846C636.345 291.845 636.354 291.854 636.355 291.866C636.355 291.875 636.351 291.881 636.345 291.885Z" fill="#6E4233"/>
<path d="M636.224 294.496C635.882 294.705 635.52 294.847 635.152 294.968C634.785 295.093 634.397 295.136 634.016 295.205C633.635 295.272 633.253 295.336 632.868 295.384C632.482 295.42 632.092 295.471 631.701 295.413C631.69 295.411 631.682 295.401 631.684 295.39C631.685 295.38 631.694 295.373 631.704 295.373H631.707C632.086 295.377 632.462 295.275 632.833 295.187C633.206 295.1 633.576 294.997 633.945 294.893C634.314 294.79 634.674 294.646 635.052 294.58C635.431 294.511 635.812 294.454 636.213 294.457C636.224 294.457 636.234 294.466 636.234 294.478C636.234 294.485 636.23 294.492 636.224 294.496Z" fill="#6E4233"/>
<path d="M571.853 305.912C571.853 305.912 560.52 303.926 558.868 291.384C557.511 281.089 564.614 276.097 573.894 278.521C583.842 281.119 586.086 290.58 586.086 290.58C586.086 290.58 589.845 290.006 590.235 290.815C590.626 291.624 588.158 293.019 587.987 293.865C587.817 294.711 587.95 296.017 586.184 296.625C584.418 297.233 585.644 298.663 583.938 300.025C582.231 301.387 581.454 301.17 581.011 302.16C580.569 303.15 580.171 304.891 579.281 305.122C578.39 305.352 577.543 306.215 576.871 307.284C576.2 308.354 575.329 310.584 574.394 310.413C573.459 310.243 571.853 305.912 571.853 305.912Z" fill="#E4E4FD"/>
<path d="M560.663 194.227C560.663 194.227 561.071 179.821 566.685 178.067C572.299 176.312 573.728 179.142 574.202 180.402C574.675 181.663 582.117 177.033 585.418 180.936C588.719 184.838 592.704 192.522 587.395 195.984C587.395 195.984 596.952 196.991 592.981 204.998C589.009 213.005 581.43 209.334 581.43 209.334C581.43 209.334 573.34 220.176 568.197 214.301C563.054 208.425 560.045 209.188 560.045 209.188C560.045 209.188 549.947 196.006 560.663 194.227Z" fill="#302017"/>
<path d="M527.671 208.274C527.671 208.274 527.263 193.869 521.649 192.114C516.035 190.359 514.606 193.189 514.132 194.45C513.659 195.71 506.216 191.081 502.916 194.983C499.615 198.885 495.629 206.569 500.939 210.031C500.939 210.031 491.381 211.038 495.353 219.045C499.325 227.052 506.904 223.381 506.904 223.381C506.904 223.381 514.994 234.223 520.137 228.348C525.28 222.472 528.289 223.235 528.289 223.235C528.289 223.235 538.387 210.053 527.671 208.274Z" fill="#302017"/>
<path d="M546.867 263.156C546.867 263.156 547.658 272.132 546.867 274.91C546.076 277.688 555.404 282.935 564.938 280.465L566.721 268.684C566.721 268.684 549.664 266.063 546.867 263.156Z" fill="#854F3D"/>
<path d="M546.868 274.91C546.868 274.91 535.929 280.343 535.068 286.073C534.166 292.074 533.833 335.663 537.949 339.161C542.064 342.659 585.687 344.923 589.185 337.103C592.683 329.284 585.687 288.336 579.719 282.986C573.752 277.636 565.487 276.839 565.487 276.839C565.487 276.839 560.313 281.854 546.868 274.91Z" fill="#E4E4FD"/>
<path d="M537.949 339.161C537.949 339.161 530.053 344.876 534.166 385.87C534.166 385.87 532.187 423.834 532.496 434.946H542.681C542.681 434.946 564.664 379.697 564.939 371.98L574.473 406.241C574.473 406.241 582.806 432.477 584.967 434.946H594.844L589.186 337.103C573.2 342 556.081 342.529 537.949 339.161Z" fill="#854F3D"/>
<path d="M584.846 211.025C587.743 216.828 589.017 223.586 588.961 229.952C588.838 243.774 597.272 245.974 591.197 258.854C585.122 271.734 553.313 276.84 537.859 255.795C537.859 255.795 534.339 260.025 528.804 257.372C523.27 254.718 519.45 246.951 520.834 241.479C522.217 236.006 527.119 237.25 527.119 237.25C527.119 237.25 519.297 228.739 520.632 216.235C522.087 202.603 535.304 191.758 548.604 190.692C561.087 189.691 575.527 196.944 582.612 207.227C583.444 208.433 584.187 209.705 584.846 211.025Z" fill="#985A46"/>
<path d="M588.672 229.982C588.672 229.982 589.635 225.185 593.111 225.07C596.587 224.955 602.344 236.77 591.464 243.239C591.464 243.239 588.011 234.087 588.672 229.982Z" fill="#985A46"/>
<path d="M531.072 245.898C530.529 245.143 529.879 244.456 529.181 244.191C529.015 244.109 528.843 244.086 528.685 244.047C528.517 244.052 528.365 244.025 528.205 244.074C527.898 244.113 527.58 244.259 527.271 244.429C527.116 244.528 526.963 244.652 526.811 244.756L526.753 244.795L526.726 244.828C526.709 244.848 526.691 244.867 526.672 244.885C526.628 244.914 526.608 244.966 526.581 245.008C526.476 245.18 526.413 245.425 526.402 245.734C526.393 246.045 526.425 246.407 526.499 246.773C526.585 247.144 526.699 247.52 526.853 247.894C527.115 248.656 527.53 249.388 527.984 250.072C528.421 250.776 528.98 251.378 529.56 251.893C529.856 252.14 530.176 252.348 530.499 252.491C530.822 252.635 531.167 252.74 531.52 252.711C532.244 252.712 533.025 252.234 533.728 251.599L533.741 251.587C533.768 251.562 533.81 251.564 533.835 251.591C533.855 251.614 533.857 251.647 533.841 251.671C533.346 252.452 532.626 253.179 531.681 253.407C530.733 253.636 529.752 253.295 528.975 252.783C528.185 252.263 527.518 251.582 526.959 250.829C526.401 250.075 525.925 249.257 525.587 248.377C525.26 247.498 525.038 246.556 525.131 245.597C525.189 245.122 525.345 244.642 525.657 244.261C525.803 244.064 526.009 243.914 526.208 243.787C526.417 243.676 526.62 243.553 526.834 243.453C527.275 243.281 527.74 243.128 528.225 243.157C528.467 243.143 528.7 243.217 528.935 243.268C529.156 243.362 529.383 243.447 529.575 243.591C530.371 244.133 530.881 244.977 531.201 245.856C531.213 245.89 531.195 245.928 531.161 245.941C531.133 245.951 531.102 245.941 531.085 245.918L531.072 245.898Z" fill="#6E4233"/>
<path d="M591.857 231.69C591.694 231.455 591.593 231.196 591.536 230.903C591.48 230.612 591.491 230.285 591.618 229.928C591.749 229.577 592.076 229.238 592.439 229.057C592.626 228.943 592.803 228.915 592.994 228.862C593.178 228.834 593.327 228.808 593.54 228.805C594.049 228.815 594.493 229.037 594.8 229.284C595.121 229.53 595.334 229.811 595.517 230.085C595.879 230.642 596.065 231.214 596.186 231.791C596.397 232.938 596.287 234.141 595.74 235.202C595.603 235.464 595.453 235.723 595.263 235.951C595.063 236.176 594.859 236.391 594.62 236.566C594.136 236.906 593.585 237.129 593.027 237.112L592.996 237.111C592.961 237.111 592.933 237.081 592.933 237.045C592.934 237.021 592.948 237 592.969 236.99C593.821 236.558 594.436 235.759 594.72 234.859C595.013 233.958 595.036 232.976 594.855 232.049C594.764 231.586 594.628 231.126 594.4 230.719C594.182 230.317 593.844 229.937 593.415 229.877C592.967 229.82 592.472 229.937 592.235 230.326C591.989 230.7 591.943 231.206 591.99 231.667C591.994 231.703 591.968 231.735 591.932 231.739C591.907 231.742 591.885 231.73 591.872 231.711L591.857 231.69Z" fill="#6E4233"/>
<path d="M561.737 244.114C561.737 244.114 561.519 237.004 555.397 236.256C549.275 235.509 545.568 240.788 545.933 243.469C546.298 246.149 555.365 250.163 561.737 244.114Z" fill="white"/>
<path d="M561.736 244.114C561.508 243.111 561.185 242.143 560.76 241.236C560.339 240.329 559.808 239.482 559.149 238.778C558.489 238.077 557.704 237.517 556.823 237.19C555.95 236.847 554.993 236.726 554.034 236.757C553.079 236.794 552.078 236.936 551.15 237.204C550.21 237.454 549.324 237.853 548.543 238.403C546.984 239.507 546.015 241.409 545.93 243.468C545.718 242.454 545.822 241.371 546.16 240.356C546.511 239.343 547.152 238.41 547.987 237.701C548.82 236.983 549.822 236.506 550.841 236.168C551.876 235.857 552.913 235.672 554.003 235.633C555.083 235.622 556.206 235.756 557.224 236.213C558.241 236.653 559.146 237.354 559.807 238.214C560.49 239.061 560.946 240.044 561.265 241.042C561.568 242.046 561.749 243.081 561.736 244.114Z" fill="#302017"/>
<path d="M549.219 243.287C550.119 245.82 552.769 247.093 555.137 246.13C557.505 245.167 558.695 242.333 557.795 239.8C556.894 237.267 554.245 235.994 551.877 236.957C549.508 237.921 548.318 240.754 549.219 243.287Z" fill="#8BA026"/>
<path d="M550.781 242.652C551.353 244.262 553.037 245.071 554.543 244.459C556.048 243.847 556.805 242.046 556.233 240.436C555.66 238.825 553.976 238.016 552.471 238.628C550.965 239.24 550.209 241.042 550.781 242.652Z" fill="#302017"/>
<path d="M554.661 239.85C554.623 240.683 555.501 241.406 556.623 241.466C557.746 241.526 558.687 240.899 558.726 240.067C558.764 239.234 557.886 238.51 556.764 238.45C555.642 238.391 554.7 239.017 554.661 239.85Z" fill="white"/>
<path d="M548.555 243.156C548.537 243.547 549.033 243.891 549.663 243.925C550.293 243.958 550.818 243.669 550.837 243.277C550.854 242.886 550.358 242.542 549.729 242.508C549.099 242.475 548.573 242.765 548.555 243.156Z" fill="white"/>
<path d="M588.875 237.37C588.875 237.37 587.11 231.07 581.557 231.975C576.003 232.879 573.908 238.551 574.822 240.853C575.736 243.155 584.604 244.414 588.875 237.37Z" fill="white"/>
<path d="M588.874 237.37C588.019 235.701 586.869 234.163 585.367 233.224C584.615 232.765 583.783 232.479 582.926 232.425C582.069 232.372 581.197 232.513 580.362 232.805C579.529 233.09 578.691 233.494 577.946 233.972C577.561 234.2 577.212 234.475 576.872 234.759C576.544 235.054 576.238 235.372 575.962 235.716C574.868 237.095 574.444 239 574.82 240.854C574.409 239.996 574.264 239.01 574.329 238.032C574.41 237.054 574.742 236.077 575.298 235.243C575.842 234.398 576.594 233.713 577.401 233.149C578.226 232.596 579.087 232.158 580.029 231.826C580.972 231.519 581.994 231.347 583.013 231.455C584.029 231.574 585.017 231.954 585.815 232.56C586.631 233.146 587.262 233.92 587.772 234.736C588.269 235.563 588.659 236.446 588.874 237.37Z" fill="#302017"/>
<path d="M577.673 239.847C579.026 241.88 581.639 242.337 583.511 240.868C585.382 239.399 585.803 236.56 584.45 234.527C583.098 232.495 580.484 232.037 578.613 233.506C576.742 234.975 576.321 237.814 577.673 239.847Z" fill="#8BA026"/>
<path d="M578.799 238.964C579.702 240.321 581.447 240.626 582.696 239.645C583.945 238.664 584.226 236.769 583.323 235.412C582.421 234.054 580.676 233.749 579.426 234.73C578.177 235.711 577.896 237.606 578.799 238.964Z" fill="#302017"/>
<path d="M581.706 235.376C581.856 236.13 582.789 236.551 583.79 236.316C584.792 236.082 585.482 235.279 585.332 234.525C585.182 233.771 584.248 233.349 583.247 233.584C582.246 233.819 581.556 234.621 581.706 235.376Z" fill="white"/>
<path d="M577.059 239.9C577.129 240.254 577.643 240.435 578.204 240.303C578.766 240.171 579.164 239.777 579.094 239.422C579.023 239.068 578.51 238.888 577.948 239.02C577.387 239.151 576.988 239.546 577.059 239.9Z" fill="white"/>
<path d="M571.035 238.996C571.147 240.527 571.607 241.868 572.379 242.772C572.77 243.222 573.236 243.588 573.773 243.869C573.914 243.932 574.041 244.013 574.174 244.087C574.314 244.154 574.466 244.206 574.61 244.267L574.829 244.357L574.937 244.403L575.09 244.461C575.294 244.539 575.499 244.614 575.705 244.72C576.107 244.926 576.516 245.191 576.9 245.56C577.274 245.924 577.653 246.424 577.795 247.056C577.942 247.681 577.843 248.346 577.608 248.844C577.383 249.356 577.044 249.741 576.685 250.048C575.97 250.668 575.132 250.998 574.285 251.127C573.44 251.232 572.544 251.126 571.872 250.663L571.856 250.651C571.825 250.63 571.818 250.589 571.839 250.559C571.855 250.536 571.884 250.526 571.911 250.533C572.618 250.727 573.375 250.657 574.065 250.43C574.759 250.208 575.408 249.822 575.91 249.301C576.405 248.793 576.762 248.069 576.56 247.391C576.366 246.717 575.743 246.241 575.098 245.931C574.776 245.764 574.429 245.647 574.082 245.481C573.91 245.402 573.734 245.332 573.565 245.244L573.078 244.948C572.449 244.529 571.859 244.011 571.467 243.35C570.648 242.045 570.512 240.411 570.905 238.956C570.915 238.922 570.95 238.901 570.985 238.91C571.012 238.918 571.031 238.942 571.033 238.969L571.035 238.996Z" fill="#6E4233"/>
<path d="M545.714 234.595C545.501 234.58 545.292 234.491 545.132 234.326C544.783 233.97 544.79 233.398 545.146 233.05C551.221 227.11 558.225 229.567 558.52 229.674C558.987 229.844 559.227 230.36 559.058 230.827C558.889 231.296 558.374 231.544 557.905 231.369C557.652 231.28 551.649 229.213 546.406 234.341C546.215 234.528 545.961 234.612 545.714 234.595Z" fill="#302017"/>
<path d="M575.348 228.819C575.091 228.819 574.836 228.71 574.658 228.499C574.338 228.12 574.384 227.553 574.763 227.232C574.931 227.088 578.961 223.741 585.412 224.959C585.902 225.052 586.224 225.525 586.131 226.013C586.038 226.503 585.567 226.826 585.077 226.733C579.504 225.68 576.071 228.488 575.928 228.608C575.759 228.75 575.553 228.819 575.348 228.819Z" fill="#302017"/>
<path d="M579.223 257.973C578.845 260.137 577.906 262.248 575.742 262.861C573.596 263.474 571.81 261.743 570.457 259.614C574.065 256.223 578.863 257.829 579.223 257.973Z" fill="#D02B48"/>
<path d="M579.223 257.972C578.863 257.828 574.065 256.223 570.458 259.614C568.817 256.998 568.485 255.67 568.395 255.346C568.629 255.508 572.243 256.854 575.274 256.313C578.376 255.754 579.392 253.397 579.392 253.397C579.392 253.397 579.711 255.267 579.223 257.972Z" fill="#5F2A18"/>
<path d="M579.243 257.973C579.243 257.973 579.243 257.973 579.225 257.973" stroke="#5F2A18" stroke-width="1.80371" stroke-miterlimit="10"/>
<path opacity="0.17" d="M563.199 251.025C563.538 253.262 561.219 255.47 558.017 255.956C554.816 256.443 551.945 255.023 551.605 252.786C551.265 250.549 553.585 248.341 556.787 247.854C559.988 247.368 562.859 248.787 563.199 251.025Z" fill="#E6A29B"/>
<path opacity="0.17" d="M590.56 245.28C591.012 247.332 588.998 249.52 586.061 250.167C583.125 250.814 580.378 249.674 579.927 247.622C579.475 245.57 581.489 243.383 584.425 242.736C587.362 242.089 590.108 243.229 590.56 245.28Z" fill="#E6A29B"/>
<path d="M584.674 434.806C584.674 434.806 584.243 441.091 584.674 442.886C585.105 444.682 599.769 452.463 607.849 451.665C610.228 451.43 612.785 450.425 612.944 447.715C613.223 442.977 608.969 441.978 605.437 440.491C603.559 439.701 601.673 438.919 599.838 438.031C599.363 437.802 597.175 437.011 597.175 436.302C597.175 435.105 598.231 431.255 596.756 430.786C595.28 430.316 589.993 430.756 588.995 430.786C587.997 430.816 588.696 434.606 588.696 434.606L584.674 434.806Z" fill="#EEBC33"/>
<path d="M607.85 448.972C599.77 449.77 585.106 441.989 584.675 440.194C584.582 439.805 584.53 439.201 584.505 438.502C584.461 440.21 584.472 442.043 584.675 442.887C585.106 444.682 599.77 452.463 607.85 451.665C610.229 451.431 612.786 450.425 612.945 447.716C612.986 447.033 612.922 446.436 612.79 445.896C612.187 447.951 609.952 448.765 607.85 448.972Z" fill="white"/>
<path d="M598.718 437.539C598.718 437.539 594.066 437.685 592.631 440.025" stroke="white" stroke-width="0.591411" stroke-miterlimit="10" stroke-linecap="round" stroke-linejoin="round"/>
<path d="M602.146 439.064C602.146 439.064 597.493 439.211 596.059 441.552" stroke="white" stroke-width="0.591411" stroke-miterlimit="10" stroke-linecap="round" stroke-linejoin="round"/>
<path d="M605.525 440.309C605.525 440.309 600.872 440.455 599.438 442.795" stroke="white" stroke-width="0.591411" stroke-miterlimit="10" stroke-linecap="round" stroke-linejoin="round"/>
<path d="M595.675 438.051C595.675 438.051 595.047 433.784 597.236 434.011C599.426 434.237 595.675 438.051 595.675 438.051Z" stroke="white" stroke-width="0.591411" stroke-miterlimit="10" stroke-linecap="round" stroke-linejoin="round"/>
<path d="M595.676 438.051C595.676 438.051 592.7 434.397 591.349 435.75C589.562 437.539 595.676 438.051 595.676 438.051Z" stroke="white" stroke-width="0.591411" stroke-miterlimit="10" stroke-linecap="round" stroke-linejoin="round"/>
<path d="M532.228 434.806C532.228 434.806 531.798 441.091 532.228 442.887C532.659 444.682 547.323 452.463 555.404 451.665C557.783 451.431 560.339 450.425 560.498 447.716C560.777 442.978 556.523 441.979 552.991 440.492C551.114 439.701 549.227 438.919 547.392 438.032C546.917 437.803 544.729 437.012 544.729 436.303C544.729 435.106 545.785 431.255 544.31 430.786C542.834 430.317 537.547 430.757 536.549 430.786C535.551 430.816 536.25 434.607 536.25 434.607L532.228 434.806Z" fill="#EEBC33"/>
<path d="M555.403 448.973C547.322 449.771 532.658 441.99 532.227 440.194C532.134 439.806 532.083 439.202 532.058 438.503C532.014 440.211 532.025 442.043 532.227 442.887C532.658 444.683 547.322 452.464 555.403 451.666C557.782 451.431 560.338 450.426 560.497 447.716C560.538 447.033 560.474 446.436 560.342 445.896C559.74 447.951 557.505 448.765 555.403 448.973Z" fill="white"/>
<path d="M546.273 437.539C546.273 437.539 541.62 437.686 540.185 440.026" stroke="white" stroke-width="0.591411" stroke-miterlimit="10" stroke-linecap="round" stroke-linejoin="round"/>
<path d="M549.698 439.065C549.698 439.065 545.045 439.211 543.611 441.552" stroke="white" stroke-width="0.591411" stroke-miterlimit="10" stroke-linecap="round" stroke-linejoin="round"/>
<path d="M553.079 440.309C553.079 440.309 548.426 440.455 546.992 442.796" stroke="white" stroke-width="0.591411" stroke-miterlimit="10" stroke-linecap="round" stroke-linejoin="round"/>
<path d="M543.23 438.052C543.23 438.052 542.601 433.785 544.791 434.012C546.98 434.238 543.23 438.052 543.23 438.052Z" stroke="white" stroke-width="0.591411" stroke-miterlimit="10" stroke-linecap="round" stroke-linejoin="round"/>
<path d="M543.23 438.051C543.23 438.051 540.255 434.398 538.903 435.751C537.116 437.539 543.23 438.051 543.23 438.051Z" stroke="white" stroke-width="0.591411" stroke-miterlimit="10" stroke-linecap="round" stroke-linejoin="round"/>
<path d="M559.128 278.584C559.128 278.584 557.426 283.984 550.607 283.251C543.787 282.518 544.154 276.595 544.154 276.595L546.884 274.91L559.128 278.584Z" fill="white"/>
<path d="M559.064 278.548C559.064 278.548 564.362 287.856 573.716 279.15C573.716 279.15 569.482 276.837 565.487 276.839C565.487 276.839 560.239 278.521 559.064 278.548Z" fill="white"/>
<path d="M589.998 325.707C589.998 325.707 608.011 372.738 612.43 379.572C616.85 386.405 592.543 401.936 569.893 401.936C547.243 401.936 523.212 386.405 520.174 382.057C517.135 377.708 535.027 325.292 535.027 325.292C534.464 317.932 534.142 310.439 534.166 302.756C544.467 294.05 539.611 279.654 539.611 279.654C541.118 278.174 544.707 275.916 546.867 274.91C546.867 274.91 551.796 287.865 560.71 286.853C569.626 285.842 568.839 277.226 568.839 277.226C571.333 277.421 574.147 278.786 575.794 280.051C575.794 280.051 582.004 298.333 586.4 301.024C586.4 301.024 589.638 315.59 589.998 325.707Z" fill="#F76DA5"/>
<path d="M592.632 397.404C592.632 397.404 581.018 349.927 579.919 348.828C578.82 347.729 586.275 399.526 586.275 399.526C586.275 399.526 591.575 397.826 592.632 397.404Z" fill="#F74D92"/>
<path d="M557.804 400.61C557.804 400.61 561.618 351.027 560.51 350.294C559.403 349.562 549.699 398.448 549.699 398.448C549.699 398.448 555 400.086 557.804 400.61Z" fill="#F74D92"/>
<path d="M528.07 388.329C528.07 388.329 534.306 362.384 535.588 362.384C536.871 362.384 532.462 390.93 532.462 390.93L528.07 388.329Z" fill="#F74D92"/>
<path d="M609.938 386.943C609.938 386.943 602.45 366.23 600.618 366.047C598.786 365.864 607.583 389.09 607.583 389.09L609.938 386.943Z" fill="#F74D92"/>
<path d="M535.027 325.291C535.027 325.291 559.414 335.373 589.999 325.706" stroke="#F74D92" stroke-width="1.4349" stroke-miterlimit="10" stroke-linecap="round" stroke-linejoin="round"/>
<path d="M574.081 206.839C574.081 206.839 572.039 222.882 562.122 225.653C552.204 228.424 550.891 225.653 550.891 225.653C550.891 225.653 549.724 234.987 542.432 236.592C535.14 238.196 540.391 242.863 537.328 246.218C534.265 249.572 536.453 251.905 536.453 251.905C536.453 251.905 532.369 251.03 531.786 247.092C531.202 243.155 531.056 238.05 530.036 237.321C529.015 236.592 521.933 237.855 520.62 242.668C520.62 242.668 515.743 241.259 513.701 227.258C511.66 213.257 524.931 192.547 543.891 189.339C562.851 186.13 571.747 194.151 571.747 194.151C571.747 194.151 593.15 197.615 591.837 213.476C590.525 229.336 587.025 229.336 589.65 232.946C592.275 236.556 590.087 239.29 590.087 239.29C590.087 239.29 589.978 235.353 586.915 232.399C583.853 229.446 587.134 222.445 584.509 215.663C581.884 208.881 574.081 206.839 574.081 206.839Z" fill="#302017"/>
<path d="M550.842 225.6C551.892 223.926 552.969 222.358 554.041 220.798C554.3 220.401 554.559 220.006 554.838 219.627C555.108 219.243 555.36 218.845 555.622 218.456L556.412 217.294C556.676 216.908 556.934 216.518 557.176 216.118C557.434 215.73 557.705 215.348 557.954 214.953C558.202 214.559 558.433 214.154 558.696 213.767C558.966 213.383 559.187 212.974 559.436 212.577C559.671 212.174 559.938 211.786 560.168 211.378C561.16 209.775 562.021 208.113 563.065 206.419L563.204 206.457L562.777 207.837L562.562 208.526L562.303 209.2C562.129 209.648 561.964 210.102 561.781 210.547L561.187 211.863C560.361 213.601 559.436 215.297 558.375 216.905C557.307 218.508 556.151 220.051 554.911 221.522C553.667 222.99 552.356 224.401 550.938 225.706L550.842 225.6Z" fill="#4A3123"/>
<path d="M558.794 195.114C558.109 197.005 557.249 198.817 556.35 200.611C555.897 201.506 555.401 202.377 554.922 203.261C554.419 204.13 553.905 204.994 553.367 205.843L552.557 207.118C552.289 207.544 551.984 207.946 551.698 208.361L550.826 209.597L549.912 210.807C548.682 212.411 547.333 213.932 545.928 215.408C545.215 216.135 544.436 216.808 543.693 217.508L542.495 218.483C542.086 218.797 541.717 219.154 541.266 219.422C540.408 219.984 539.502 220.59 538.712 221.078L537.491 221.851L536.311 222.673C534.784 223.816 533.326 225.068 532.217 226.589C532.063 226.771 531.937 226.967 531.819 227.168C531.7 227.368 531.56 227.563 531.455 227.771L531.151 228.405C531.06 228.62 530.99 228.842 530.905 229.063C530.618 229.951 530.483 230.938 530.716 231.882L530.588 231.945C530.205 230.987 530.221 229.942 530.427 228.962C530.621 227.972 531.058 227.05 531.571 226.195C532.624 224.485 534.065 223.061 535.602 221.796L536.784 220.878C537.188 220.585 537.608 220.316 538.019 220.034C538.852 219.48 539.651 218.904 540.464 218.339L540.768 218.126L541.055 217.889L541.627 217.415L542.768 216.464C543.479 215.774 544.223 215.118 544.908 214.402C547.69 211.575 550.158 208.448 552.439 205.198C553.016 204.39 553.555 203.556 554.11 202.733C554.643 201.894 555.191 201.066 555.702 200.214C556.742 198.523 557.742 196.803 558.668 195.048L558.794 195.114Z" fill="#4A3123"/>
<path d="M578.088 201.887C578.979 201.746 579.868 201.825 580.758 201.96C581.637 202.128 582.522 202.372 583.353 202.784C584.199 203.163 584.984 203.701 585.699 204.344C586.072 204.65 586.362 205.045 586.678 205.413C586.836 205.598 586.956 205.814 587.096 206.014C587.222 206.223 587.382 206.414 587.478 206.64C587.673 207.082 587.902 207.551 588.025 207.952C588.171 208.368 588.324 208.782 588.432 209.21C588.649 210.066 588.868 210.921 588.957 211.803C589.182 213.546 589.185 215.351 588.66 217.065L588.516 217.058C588.524 215.379 588.254 213.696 587.86 212.061C587.664 211.242 587.426 210.432 587.152 209.635C586.886 208.837 586.583 208.044 586.208 207.306C586.131 207.112 585.998 206.948 585.896 206.768C585.781 206.595 585.687 206.406 585.555 206.246C585.292 205.923 585.05 205.582 584.742 205.299C584.168 204.692 583.486 204.194 582.774 203.755C581.339 202.889 579.722 202.313 578.07 202.03L578.088 201.887Z" fill="#4A3123"/>
<path d="M523.999 200.662C522.93 202.278 521.896 203.818 520.901 205.367C520.666 205.763 520.43 206.156 520.174 206.534C519.932 206.921 519.71 207.319 519.477 207.71C519.234 208.094 519.02 208.494 518.791 208.884L518.453 209.474L518.149 210.079C517.259 211.654 516.53 213.302 515.826 214.979C515.655 215.401 515.494 215.828 515.31 216.252L514.85 217.556C514.767 217.773 514.673 217.991 514.598 218.213C514.531 218.436 514.47 218.66 514.392 218.884L514.166 219.562L513.909 220.247L513.766 220.239L513.907 218.827L513.977 218.12C514.011 217.886 514.063 217.655 514.105 217.422L514.37 216.027L514.746 214.658L514.938 213.974L515.179 213.306C515.345 212.862 515.49 212.41 515.673 211.974L516.247 210.674C516.429 210.236 516.674 209.828 516.884 209.404C517.788 207.739 518.835 206.153 520.01 204.67C521.191 203.191 522.474 201.795 523.907 200.552L523.999 200.662Z" fill="#4A3123"/>
<path d="M606.036 319.766L604.684 315.804L586.758 321.921L588.111 325.883L606.036 319.766Z" fill="#A7B82C"/>
<path d="M588.915 323.405C588.751 322.926 589.007 322.406 589.485 322.243L602.747 317.717C603.225 317.553 603.745 317.809 603.909 318.288C604.072 318.766 603.816 319.286 603.338 319.449L590.076 323.975C589.598 324.138 589.078 323.883 588.915 323.405Z" fill="#C4D933"/>
<path d="M604.699 315.806L606.051 319.768L608.995 317.08C609.346 316.759 609.147 316.173 608.672 316.134L604.699 315.806Z" fill="#A7B82C"/>
<path d="M588.143 325.889L586.791 321.927L586.028 322.188L587.38 326.15L588.143 325.889Z" fill="#C4D933"/>
<path d="M606.053 319.769L604.701 315.807L604.38 315.916L605.733 319.878L606.053 319.769Z" fill="#C4D933"/>
<path d="M530.709 287.681C531.197 282.996 536.009 280.02 540.414 281.687C544.272 283.146 548.807 286.566 551.2 294.45C555.877 309.858 558.738 318.239 558.738 318.239L583.793 319.474C583.793 319.474 585.47 323.371 583.878 326.388C582.287 329.405 557.274 333.249 551.231 331.731C545.188 330.213 536.325 315.889 532.934 305.246C530.951 299.021 530.206 292.503 530.709 287.681Z" fill="#985A46"/>
<path d="M584.222 319.155C584.222 319.155 591.802 316.978 593.629 317.278C595.455 317.578 595.892 318.917 595.337 319.154C594.782 319.391 591.809 319.793 592.129 320.409C592.45 321.024 599.279 323.413 599.257 325.121C599.234 326.829 594.532 324.766 594.532 324.766C594.532 324.766 600.341 326.8 599.035 327.898C597.728 328.996 593.31 327.777 593.31 327.777C593.31 327.777 598.201 328.55 598.313 329.792C598.426 331.033 594.183 330.453 594.183 330.453C594.183 330.453 597.642 331.233 596.77 332.262C595.897 333.291 589.82 331.893 587.279 330.373C584.739 328.853 582.268 326.841 582.268 326.841L582.391 319.745L584.222 319.155Z" fill="#985A46"/>
<path d="M596.506 325.5C596.091 325.501 595.692 325.433 595.299 325.347C594.905 325.263 594.534 325.098 594.156 324.963C593.402 324.686 592.642 324.407 591.932 324.02C591.923 324.015 591.919 324.003 591.924 323.993C591.929 323.984 591.94 323.98 591.95 323.984C592.322 324.129 592.707 324.239 593.093 324.344C593.477 324.454 593.863 324.558 594.25 324.657C594.638 324.758 595.035 324.822 595.41 324.962C595.787 325.099 596.159 325.249 596.516 325.461C596.526 325.467 596.529 325.479 596.523 325.49C596.52 325.496 596.514 325.499 596.506 325.5Z" fill="#6E4233"/>
<path d="M595.637 328.304C595.206 328.304 594.792 328.235 594.383 328.148C593.974 328.063 593.587 327.898 593.192 327.762C592.798 327.623 592.405 327.481 592.015 327.329C591.63 327.164 591.235 327.017 590.882 326.777C590.873 326.771 590.87 326.758 590.876 326.749C590.882 326.741 590.893 326.738 590.902 326.742L590.905 326.744C591.27 326.929 591.68 327.027 592.079 327.138C592.478 327.252 592.88 327.355 593.284 327.455C593.687 327.557 594.1 327.622 594.492 327.762C594.884 327.901 595.274 328.052 595.647 328.266C595.657 328.271 595.66 328.284 595.655 328.294C595.651 328.3 595.644 328.304 595.637 328.304Z" fill="#6E4233"/>
<path d="M594.176 330.473C593.775 330.475 593.392 330.408 593.015 330.321C592.636 330.236 592.282 330.073 591.921 329.934C591.56 329.793 591.201 329.65 590.846 329.491C590.498 329.322 590.137 329.163 589.833 328.91C589.825 328.903 589.824 328.89 589.831 328.882C589.837 328.874 589.848 328.872 589.857 328.878L589.86 328.879C590.181 329.079 590.555 329.187 590.918 329.304C591.282 329.423 591.652 329.528 592.022 329.63C592.391 329.734 592.773 329.797 593.131 329.938C593.491 330.075 593.846 330.224 594.187 330.434C594.197 330.441 594.2 330.453 594.194 330.463C594.19 330.47 594.183 330.473 594.176 330.473Z" fill="#6E4233"/>
<path d="M533.222 306.835C533.222 306.835 524.564 299.257 529.658 287.678C533.84 278.172 542.501 277.59 549.177 284.477C556.334 291.86 553.343 301.112 553.343 301.112C553.343 301.112 556.854 302.571 556.769 303.465C556.683 304.359 553.849 304.271 553.265 304.906C552.68 305.541 552.116 306.727 550.291 306.33C548.466 305.934 548.772 307.792 546.606 308.072C544.441 308.351 543.889 307.762 542.997 308.379C542.105 308.996 540.862 310.278 539.981 310.013C539.1 309.747 537.928 310.046 536.799 310.612C535.67 311.177 533.769 312.632 533.058 312.002C532.348 311.37 533.222 306.835 533.222 306.835Z" fill="#E4E4FD"/>
<path d="M767.614 419.209C767.614 419.209 772.261 415.498 773.886 414.867C775.512 414.237 789.431 421.44 793.153 428.141C794.248 430.114 794.842 432.639 792.824 434.218C789.296 436.98 786.235 434.214 783.183 432.272C781.56 431.239 779.94 430.195 778.265 429.247C777.832 429.002 776.043 427.729 775.492 428.11C774.563 428.753 772.142 431.641 770.985 430.747C769.828 429.854 767.328 425.514 766.815 424.723C766.302 423.933 769.62 422.438 769.62 422.438L767.614 419.209Z" fill="#57B4F7"/>
<path d="M791.061 429.588C787.339 422.886 773.42 415.684 771.795 416.314C771.443 416.45 770.947 416.735 770.39 417.091C771.692 416.139 773.121 415.163 773.884 414.867C775.51 414.237 789.429 421.44 793.151 428.141C794.247 430.114 794.84 432.639 792.822 434.218C792.314 434.616 791.817 434.888 791.326 435.076C792.598 433.503 792.029 431.331 791.061 429.588Z" fill="white"/>
<path d="M777.281 428.644C777.281 428.644 774.894 424.953 775.941 422.582" stroke="white" stroke-width="0.558322" stroke-miterlimit="10" stroke-linecap="round" stroke-linejoin="round"/>
<path d="M780.306 430.483C780.306 430.483 777.92 426.793 778.966 424.421" stroke="white" stroke-width="0.558322" stroke-miterlimit="10" stroke-linecap="round" stroke-linejoin="round"/>
<path d="M783.085 432.438C783.085 432.438 780.699 428.747 781.745 426.376" stroke="white" stroke-width="0.558322" stroke-miterlimit="10" stroke-linecap="round" stroke-linejoin="round"/>
<path d="M776.043 426.005C776.043 426.005 772.393 427.81 773.745 429.388C775.098 430.966 776.043 426.005 776.043 426.005Z" stroke="white" stroke-width="0.558322" stroke-miterlimit="10" stroke-linecap="round" stroke-linejoin="round"/>
<path d="M776.043 426.006C776.043 426.006 771.608 425.659 771.932 423.883C772.361 421.535 776.043 426.006 776.043 426.006Z" stroke="white" stroke-width="0.558322" stroke-miterlimit="10" stroke-linecap="round" stroke-linejoin="round"/>
<path d="M768.995 419.499L770.366 425.79C770.366 425.79 767.676 426.835 764.05 428.019C763.599 426.133 762.15 424.246 761.756 422.36L768.995 419.499Z" fill="#E3AD8D"/>
<path d="M761.451 422.48L761.755 422.36C762.148 424.247 763.598 426.133 764.049 428.019C757.06 430.301 746.587 433.099 745.156 429.925C742.984 425.105 761.451 422.48 761.451 422.48Z" fill="#3C3A6E"/>
<path d="M716.661 392.851C713.604 398.188 704.985 412.234 702.376 417.82C699.251 424.513 694.109 433.267 697.872 440.757C702.396 449.76 713.717 449.223 721.963 448.245L724.454 448.763L733.275 398.176L716.661 392.851Z" fill="#3C3A6E"/>
<path d="M733.398 332.715C733.398 332.715 722.317 337.008 717 344.527C711.683 352.046 704.277 363.881 704.277 363.881L688.957 357.365C688.957 357.365 683.226 359.715 683.263 362.898C683.3 366.08 700.248 377.982 705.498 379.07C710.748 380.158 721.743 363.823 724.643 360.106C727.542 356.389 733.398 332.715 733.398 332.715Z" fill="#F0C6AD"/>
<path d="M738.593 331.125C737.739 331.965 718.482 331.113 713.064 346.511C713.064 346.511 724.024 357.47 726.954 358.157C729.884 358.843 738.593 331.125 738.593 331.125Z" fill="#85C7FF"/>
<path d="M689.524 355.44C689.524 355.44 684.884 346.661 683.017 345.265C681.15 343.87 679.555 344.642 679.824 345.352C680.094 346.062 682.324 349.112 681.485 349.358C681.178 349.448 679.887 348.952 678.305 348.362C674.939 352.724 675.829 357.461 675.609 362.1C675.983 362.242 676.345 362.368 676.676 362.458C680.272 363.437 684.36 364.323 684.36 364.323L690.86 358.176L689.524 355.44Z" fill="#F0C6AD"/>
<path d="M681.508 349.369C681.181 350.105 680.927 350.874 680.733 351.651C680.534 352.426 680.402 353.218 680.384 354.008C680.362 354.799 680.5 355.573 680.724 356.299C680.84 356.664 680.999 357.013 681.194 357.35C681.399 357.679 681.64 357.991 681.912 358.297C681.922 358.307 681.921 358.323 681.912 358.333C681.904 358.34 681.891 358.341 681.882 358.337C681.522 358.138 681.186 357.878 680.907 357.559C680.632 357.237 680.414 356.865 680.25 356.472C679.925 355.675 679.911 354.805 679.981 353.986C680.052 353.16 680.239 352.357 680.491 351.581C680.753 350.808 681.073 350.058 681.463 349.346C681.47 349.334 681.485 349.33 681.498 349.337C681.509 349.342 681.514 349.358 681.508 349.369Z" fill="#E3AD8D"/>
<path d="M676.064 360.199L686.646 355.81L679.8 339.307L669.218 343.697L676.064 360.199Z" fill="#57B4F7"/>
<path d="M669.243 343.705C669.395 344.07 671.886 343.384 674.808 342.172C677.73 340.959 679.976 339.68 679.825 339.315C679.673 338.95 677.181 339.636 674.259 340.849C671.337 342.061 669.091 343.34 669.243 343.705Z" fill="#6EB9F5"/>
<path d="M682.823 351.6C683.043 349.878 677.559 350.341 676.792 350.41C677.488 350.255 681.795 349.274 680.631 347.834C680.209 347.303 678.883 347.157 677.166 347.282C674.013 347.512 671.463 349.965 670.979 353.089L670.965 353.178C670.533 355.915 670.985 359.24 674.275 361.945C675.603 363.037 677.47 363.21 679.022 362.471C681.583 361.253 684.015 359.847 684.039 358.615C684.054 356.907 680.927 357.62 678.804 358.274C678.565 358.372 678.316 358.455 678.108 358.534C678.108 358.534 678.115 358.509 678.105 358.493C678.322 358.429 678.555 358.355 678.804 358.273C681.277 357.35 685.158 355.642 683.821 354.452C682.781 353.514 680.274 353.585 678.256 353.838C680.311 353.396 682.713 352.641 682.823 351.6Z" fill="#F0C6AD"/>
<path d="M680.381 357.662C680.036 357.884 679.673 358.057 679.306 358.218C678.938 358.378 678.551 358.485 678.169 358.61C677.409 358.864 676.646 359.111 675.88 359.349L675.869 359.319C676.602 358.995 677.34 358.679 678.08 358.371C678.448 358.215 678.811 358.041 679.193 357.919C679.576 357.799 679.963 357.691 680.369 357.632L680.381 357.662Z" fill="#E3AD8D"/>
<path d="M679.2 353.631C678.861 353.842 678.503 354.002 678.142 354.151C677.78 354.299 677.4 354.393 677.025 354.504C676.279 354.734 675.529 354.954 674.777 355.167L674.767 355.137C675.489 354.838 676.214 354.546 676.942 354.264C677.305 354.12 677.662 353.958 678.038 353.85C678.414 353.743 678.793 353.647 679.191 353.602L679.2 353.631Z" fill="#E3AD8D"/>
<path d="M676.799 350.424C676.571 350.601 676.326 350.728 676.076 350.843C675.825 350.957 675.555 351.018 675.292 351.097C674.767 351.259 674.239 351.414 673.708 351.559L673.697 351.529C674.196 351.297 674.698 351.073 675.204 350.857C675.456 350.746 675.701 350.618 675.966 350.544C676.231 350.47 676.5 350.407 676.788 350.395L676.799 350.424Z" fill="#E3AD8D"/>
<path d="M760.978 315.409C760.978 315.409 760.15 324.809 760.978 327.718C761.806 330.628 752.037 336.122 742.053 333.536L740.185 321.199C740.185 321.199 758.048 318.454 760.978 315.409Z" fill="#F0AE86"/>
<path d="M760.978 327.718C760.978 327.718 771.611 333.59 773.335 339.408C775.059 345.227 774.629 391.342 770.319 395.005C766.009 398.669 720.324 401.039 716.661 392.85C712.997 384.661 720.324 341.779 726.573 336.176C732.823 330.573 741.478 329.738 741.478 329.738C741.478 329.738 746.897 334.991 760.978 327.718Z" fill="#62A4DA"/>
<path d="M721.203 260.814C718.17 266.892 716.835 273.969 716.894 280.635C717.023 295.11 708.19 297.414 714.552 310.903C720.914 324.391 754.022 331.128 770.411 307.699C770.411 307.699 774.097 312.129 779.893 309.35C785.689 306.572 789.689 298.438 788.24 292.707C786.792 286.975 781.658 288.278 781.658 288.278C781.658 288.278 789.849 279.365 788.452 266.269C786.928 251.993 773.085 240.636 759.157 239.519C746.084 238.472 730.962 246.068 723.542 256.837C722.673 258.099 721.894 259.431 721.203 260.814Z" fill="#F0C6AD"/>
<path d="M717.196 280.667C717.196 280.667 716.188 275.644 712.548 275.523C708.908 275.403 702.879 287.776 714.273 294.551C714.273 294.551 717.89 284.967 717.196 280.667Z" fill="#F0C6AD"/>
<path d="M777.384 297.292C777.483 296.275 777.877 295.248 778.77 294.439C778.989 294.232 779.27 294.091 779.551 293.942C779.849 293.839 780.16 293.718 780.483 293.701C781.139 293.605 781.753 293.77 782.326 293.947C782.601 294.05 782.857 294.177 783.125 294.298L783.224 294.345L783.339 294.424L783.567 294.591C783.725 294.698 783.85 294.84 783.976 294.982C784.481 295.559 784.722 296.264 784.823 296.901C784.972 298.187 784.688 299.301 784.322 300.335C783.486 302.352 782.2 304.159 780.211 305.298C779.705 305.561 779.172 305.812 778.564 305.895C777.969 305.979 777.328 305.979 776.753 305.754C776.606 305.715 776.477 305.628 776.344 305.562C776.212 305.493 776.083 305.424 775.973 305.328L775.638 305.062C775.542 304.961 775.452 304.854 775.363 304.751C775.27 304.65 775.191 304.541 775.124 304.425L774.917 304.09C774.803 303.854 774.714 303.61 774.619 303.38L774.614 303.368C774.6 303.332 774.617 303.291 774.652 303.276C774.684 303.263 774.72 303.275 774.739 303.303C775.257 304.1 775.994 304.814 776.921 305.025C777.85 305.238 778.817 304.895 779.598 304.366C780.39 303.831 781.065 303.128 781.627 302.35C782.188 301.572 782.666 300.728 782.998 299.829C783.341 298.94 783.575 297.986 783.493 297.045C783.441 296.58 783.297 296.123 783.01 295.765C782.736 295.398 782.287 295.193 781.87 294.968C781.021 294.575 779.968 294.503 779.184 295.067C778.392 295.587 777.851 296.449 777.519 297.335C777.505 297.372 777.464 297.39 777.428 297.376C777.398 297.365 777.38 297.334 777.383 297.303L777.384 297.292Z" fill="#A67E67"/>
<path d="M713.721 282.432C713.527 281.926 713.281 281.451 712.996 281.329C712.87 281.261 712.783 281.289 712.681 281.325C712.644 281.336 712.568 281.365 712.521 281.372C712.46 281.397 712.361 281.421 712.333 281.445C712.358 281.494 712.363 281.528 712.312 281.61C712.271 281.694 712.197 281.82 712.142 281.975C712.081 282.125 712.016 282.294 711.971 282.48C711.913 282.658 711.873 282.853 711.835 283.048C711.684 283.838 711.635 284.672 711.707 285.49C711.801 286.309 712.019 287.11 712.697 288.006L712.717 288.032C712.739 288.062 712.733 288.104 712.704 288.126C712.684 288.141 712.657 288.144 712.636 288.134C712.164 287.921 711.737 287.602 711.395 287.207C711.055 286.81 710.806 286.34 710.639 285.849C710.302 284.863 710.26 283.797 710.443 282.777C710.55 282.269 710.707 281.766 710.972 281.31C711.226 280.866 711.619 280.4 712.203 280.321C712.34 280.311 712.471 280.314 712.605 280.317C712.739 280.344 712.876 280.346 713.004 280.405C713.265 280.49 713.504 280.675 713.644 280.912C713.922 281.394 713.935 281.942 713.862 282.455C713.857 282.491 713.823 282.515 713.788 282.51C713.764 282.507 713.745 282.491 713.737 282.469L713.721 282.432Z" fill="#A67E67"/>
<path d="M745.402 295.467C745.402 295.467 745.631 288.02 752.043 287.237C758.454 286.454 762.336 291.983 761.954 294.79C761.572 297.597 752.076 301.801 745.402 295.467Z" fill="white"/>
<path d="M745.403 295.467C745.39 294.385 745.579 293.301 745.896 292.249C746.23 291.204 746.707 290.174 747.423 289.288C748.115 288.387 749.062 287.654 750.128 287.192C751.194 286.713 752.37 286.573 753.501 286.585C754.642 286.625 755.729 286.819 756.812 287.145C757.879 287.499 758.929 287.998 759.801 288.75C760.232 289.126 760.626 289.549 760.949 290.02C761.27 290.492 761.526 291.002 761.714 291.531C762.068 292.594 762.177 293.728 761.954 294.79C761.866 292.634 760.851 290.642 759.219 289.485C758.4 288.909 757.473 288.491 756.489 288.23C755.517 287.949 754.468 287.8 753.469 287.762C752.464 287.729 751.462 287.856 750.547 288.215C749.625 288.558 748.803 289.143 748.112 289.878C747.421 290.615 746.865 291.502 746.425 292.452C745.979 293.403 745.641 294.416 745.403 295.467Z" fill="#302017"/>
<path d="M758.513 294.601C757.57 297.253 754.795 298.586 752.315 297.577C749.835 296.569 748.589 293.601 749.532 290.949C750.474 288.296 753.249 286.963 755.729 287.972C758.209 288.98 759.455 291.948 758.513 294.601Z" fill="#8C5D43"/>
<path d="M756.878 293.936C756.278 295.622 754.515 296.469 752.938 295.828C751.362 295.187 750.569 293.3 751.169 291.614C751.768 289.928 753.532 289.08 755.109 289.721C756.685 290.362 757.477 292.249 756.878 293.936Z" fill="#302017"/>
<path d="M752.813 291C752.853 291.873 751.933 292.63 750.758 292.693C749.582 292.756 748.597 292.099 748.556 291.228C748.516 290.356 749.435 289.598 750.611 289.535C751.786 289.473 752.772 290.128 752.813 291Z" fill="white"/>
<path d="M759.209 294.463C759.227 294.873 758.708 295.234 758.048 295.268C757.388 295.304 756.838 295 756.819 294.59C756.8 294.181 757.319 293.82 757.979 293.784C758.639 293.75 759.189 294.053 759.209 294.463Z" fill="white"/>
<path d="M716.984 288.404C716.984 288.404 718.833 281.806 724.649 282.754C730.464 283.701 732.659 289.64 731.702 292.051C730.745 294.463 721.457 295.781 716.984 288.404Z" fill="white"/>
<path d="M716.984 288.404C717.209 287.436 717.618 286.511 718.137 285.644C718.671 284.79 719.333 283.979 720.187 283.366C721.023 282.731 722.057 282.333 723.121 282.208C724.189 282.095 725.259 282.275 726.247 282.597C727.234 282.945 728.134 283.404 728.999 283.982C729.845 284.573 730.632 285.291 731.202 286.176C731.784 287.049 732.132 288.072 732.216 289.097C732.284 290.121 732.133 291.153 731.702 292.052C732.097 290.11 731.652 288.116 730.506 286.671C730.217 286.312 729.897 285.979 729.553 285.669C729.198 285.372 728.832 285.084 728.429 284.845C727.648 284.344 726.771 283.922 725.898 283.624C725.024 283.318 724.111 283.171 723.214 283.226C722.315 283.282 721.445 283.581 720.657 284.062C719.869 284.543 719.173 285.205 718.567 285.949C717.955 286.692 717.43 287.521 716.984 288.404Z" fill="#302017"/>
<path d="M728.716 290.998C727.3 293.127 724.562 293.606 722.603 292.067C720.643 290.528 720.203 287.556 721.619 285.427C723.036 283.298 725.772 282.819 727.732 284.358C729.691 285.896 730.133 288.869 728.716 290.998Z" fill="#8C5D43"/>
<path d="M727.536 290.072C726.591 291.494 724.764 291.813 723.455 290.786C722.147 289.759 721.853 287.774 722.798 286.352C723.744 284.931 725.571 284.611 726.879 285.638C728.187 286.665 728.482 288.651 727.536 290.072Z" fill="#302017"/>
<path d="M724.492 286.315C724.335 287.105 723.357 287.546 722.31 287.3C721.261 287.054 720.538 286.214 720.695 285.424C720.852 284.634 721.83 284.193 722.878 284.439C723.927 284.685 724.649 285.525 724.492 286.315Z" fill="white"/>
<path d="M729.356 291.054C729.282 291.425 728.745 291.614 728.157 291.476C727.569 291.338 727.152 290.925 727.225 290.554C727.299 290.182 727.836 289.994 728.424 290.132C729.013 290.27 729.43 290.683 729.356 291.054Z" fill="white"/>
<path d="M735.801 290.067C736.259 290.778 736.48 291.614 736.538 292.492C736.555 292.931 736.522 293.382 736.432 293.832C736.352 294.286 736.171 294.721 735.968 295.146C735.57 296.022 734.845 296.692 734.113 297.251C733.925 297.386 733.727 297.506 733.531 297.632C733.332 297.742 733.127 297.832 732.924 297.932L732.348 298.189C732.199 298.251 732.049 298.313 731.919 298.386C731.352 298.644 731.005 298.998 730.923 299.183C730.869 299.281 730.829 299.405 730.88 299.605C730.932 299.796 731.038 300.042 731.203 300.282C731.545 300.752 732.057 301.221 732.659 301.552C733.259 301.907 733.944 302.142 734.749 302.19L734.773 302.191C734.811 302.193 734.84 302.226 734.838 302.264C734.836 302.293 734.816 302.317 734.789 302.325C734.021 302.561 733.191 302.508 732.429 302.282C731.667 302.049 730.956 301.637 730.391 301.063C730.111 300.775 729.869 300.44 729.715 300.058C729.557 299.679 729.519 299.237 729.629 298.831C729.738 298.423 729.988 298.071 730.285 297.794C730.582 297.514 730.925 297.293 731.284 297.117C731.641 296.935 732.024 296.811 732.366 296.65C732.541 296.571 732.721 296.502 732.892 296.416L733.385 296.122C734.022 295.707 734.616 295.197 735.014 294.541C735.833 293.251 736.012 291.599 735.666 290.108C735.657 290.07 735.68 290.032 735.718 290.023C735.748 290.017 735.778 290.029 735.793 290.054L735.801 290.067Z" fill="#A67E67"/>
<path d="M762.186 285.497C762.409 285.481 762.627 285.388 762.796 285.215C763.16 284.843 763.154 284.244 762.781 283.88C756.419 277.658 749.083 280.232 748.775 280.343C748.285 280.522 748.034 281.062 748.211 281.551C748.387 282.042 748.928 282.301 749.418 282.119C749.682 282.025 755.97 279.86 761.46 285.231C761.661 285.426 761.927 285.515 762.186 285.497Z" fill="#8C5D43"/>
<path d="M731.151 279.448C731.42 279.448 731.687 279.335 731.874 279.113C732.209 278.716 732.161 278.123 731.764 277.786C731.588 277.635 727.367 274.13 720.611 275.406C720.099 275.503 719.761 275.998 719.858 276.509C719.955 277.022 720.449 277.36 720.962 277.263C726.798 276.161 730.394 279.101 730.543 279.227C730.721 279.376 730.937 279.448 731.151 279.448Z" fill="#8C5D43"/>
<path d="M727.092 309.98C727.488 312.247 728.471 314.457 730.738 315.099C732.985 315.741 734.855 313.928 736.272 311.699C732.494 308.148 727.47 309.829 727.092 309.98Z" fill="#D02B48"/>
<path d="M727.092 309.98C727.47 309.829 732.494 308.148 736.272 311.699C737.991 308.96 738.496 307.891 738.591 307.55C738.345 307.72 734.402 308.809 731.228 308.242C727.979 307.657 727.092 305.189 727.092 305.189C727.092 305.189 726.582 307.146 727.092 309.98Z" fill="#5F2A18"/>
<path d="M727.072 309.98C727.072 309.98 727.072 309.98 727.091 309.98" stroke="#5F2A18" stroke-width="1.88891" stroke-miterlimit="10"/>
<path opacity="0.54" d="M743.874 302.703C743.518 305.046 745.948 307.359 749.3 307.868C752.653 308.378 755.66 306.891 756.015 304.548C756.371 302.204 753.942 299.892 750.589 299.383C747.237 298.874 744.23 300.361 743.874 302.703Z" fill="#E6A29B"/>
<path opacity="0.54" d="M715.218 296.688C714.745 298.837 716.855 301.129 719.93 301.806C723.005 302.483 725.882 301.29 726.355 299.141C726.828 296.991 724.719 294.7 721.643 294.023C718.568 293.346 715.691 294.539 715.218 296.688Z" fill="#E6A29B"/>
<path d="M760.979 327.718C760.979 327.718 749.386 332.61 741.479 329.738L738.176 330.641C738.176 330.641 745.116 340.427 763.067 328.979L760.979 327.718Z" fill="#85C7FF"/>
<path d="M713.821 275.79C710.479 273.884 710.063 246.945 732.952 240.198C755.841 233.45 774.886 244.282 774.886 244.282C774.886 244.282 773.487 241.263 774.886 240.198C776.283 239.133 777.856 242.861 777.856 242.861C777.856 242.861 777.681 237.534 779.603 238.067C781.525 238.6 780.476 244.815 780.476 244.815C780.476 244.815 782.049 241.974 784.32 243.039C786.592 244.104 781.525 248.544 781.525 248.544C781.525 248.544 791.309 254.225 791.659 266.477C792.008 278.729 786.086 289.149 786.086 289.149C777.852 286.519 773.632 298.778 773.632 298.778C766.438 295.271 777.68 270.562 772.613 271.501C767.546 272.441 756.888 264.195 756.888 264.195C756.888 264.195 760.033 270.384 751.646 271.449C743.259 272.514 728.757 256.889 728.757 256.889C719.322 262.571 716.929 275.636 716.929 279.542C716.93 279.542 715.308 276.637 713.821 275.79Z" fill="#D98B47"/>
<g opacity="0.63">
<path d="M756.849 264.259C754.952 263.687 753.216 262.81 751.558 261.816L750.934 261.446C750.728 261.318 750.533 261.177 750.331 261.044C749.933 260.77 749.527 260.507 749.135 260.223C748.356 259.65 747.604 259.039 746.858 258.419C746.491 258.102 746.144 257.759 745.788 257.428C745.438 257.092 745.071 256.773 744.748 256.404L743.765 255.32C743.444 254.949 743.143 254.561 742.847 254.171C741.674 252.604 740.642 250.873 740.121 248.956L740.251 248.88L741.032 250.066C741.286 250.465 741.602 250.822 741.884 251.202C742.03 251.388 742.167 251.581 742.318 251.763L742.782 252.3C743.097 252.654 743.388 253.028 743.724 253.363C745.006 254.76 746.411 256.039 747.841 257.283C749.264 258.537 750.756 259.712 752.271 260.855C753.029 261.427 753.8 261.98 754.578 262.524C755.351 263.075 756.133 263.615 756.929 264.131L756.849 264.259Z" fill="#F5AB6B"/>
</g>
<g opacity="0.63">
<path d="M779.133 265.679C776.627 265.214 774.242 264.365 771.935 263.35C770.769 262.862 769.659 262.262 768.538 261.678C767.432 261.065 766.36 260.391 765.295 259.699C764.255 258.972 763.228 258.219 762.248 257.4C761.285 256.563 760.327 255.709 759.479 254.741C757.75 252.863 756.259 250.646 755.545 248.186L755.678 248.116C756.858 250.292 758.482 252.2 760.291 253.884C762.094 255.581 764.079 257.078 766.136 258.455C768.181 259.853 770.313 261.125 772.493 262.305C774.675 263.48 776.905 264.577 779.189 265.54L779.133 265.679Z" fill="#F5AB6B"/>
</g>
<g opacity="0.63">
<path d="M726.019 252.047C725.488 253.19 724.84 254.151 724.172 255.08C723.496 255.998 722.782 256.859 722.053 257.691C721.326 258.524 720.558 259.315 719.798 260.113C719.02 260.909 718.248 261.681 717.359 262.564L717.217 262.514C717.586 261.411 718.163 260.395 718.805 259.436C719.443 258.47 720.174 257.574 720.925 256.698C721.69 255.834 722.501 255.013 723.332 254.216C724.162 253.416 725.021 252.649 725.924 251.931L726.019 252.047Z" fill="#F5AB6B"/>
</g>
<path d="M737.12 347.346C737.12 347.346 727.57 346.543 727.55 346.541C727.222 346.513 726.372 351.329 726.305 351.821C726.053 353.652 725.94 355.68 726.621 357.44C727.862 360.651 732.916 362.339 735.407 359.565C738.103 356.564 737.056 351.011 737.12 347.346Z" fill="#85C7FF"/>
<path d="M725.525 397.069C725.525 397.069 746.578 402.05 771.367 393.554C771.367 393.554 775.856 409.98 771.367 416.845C766.878 423.709 749.946 429.356 749.946 429.356C749.946 429.356 761.254 426.621 769.908 424.644C770.887 429.505 772.121 434.003 772.592 438.652C759.39 444.872 736.391 453.465 727.656 451.413C715.133 448.471 716.547 413.985 725.525 397.069Z" fill="#45437E"/>
<path d="M779.593 422.658C780.538 422.903 782.515 430.509 782.279 432.96C782.207 433.702 778.315 435.955 772.591 438.651C772.122 434.003 770.886 429.504 769.908 424.644C775.041 423.472 779.241 422.567 779.593 422.658Z" fill="#F0C6AD"/>
<path d="M778.407 423.247C778.407 423.247 783.562 419.13 785.365 418.432C787.168 417.732 802.609 425.722 806.737 433.156C807.952 435.345 808.611 438.146 806.372 439.898C802.458 442.961 799.063 439.894 795.677 437.739C793.878 436.593 792.08 435.435 790.222 434.383C789.742 434.112 787.757 432.698 787.146 433.121C786.115 433.834 783.429 437.038 782.146 436.047C780.862 435.056 778.09 430.241 777.52 429.364C776.952 428.488 780.632 426.83 780.632 426.83L778.407 423.247Z" fill="#57B4F7"/>
<path d="M804.418 434.761C800.289 427.328 784.849 419.337 783.046 420.036C782.656 420.187 782.106 420.504 781.488 420.898C782.933 419.843 784.518 418.76 785.365 418.432C787.168 417.733 802.608 425.723 806.737 433.157C807.952 435.346 808.611 438.146 806.372 439.899C805.809 440.34 805.257 440.641 804.713 440.849C806.123 439.105 805.492 436.695 804.418 434.761Z" fill="white"/>
<path d="M789.13 433.714C789.13 433.714 786.483 429.619 787.643 426.989" stroke="white" stroke-width="0.619365" stroke-miterlimit="10" stroke-linecap="round" stroke-linejoin="round"/>
<path d="M792.487 435.754C792.487 435.754 789.84 431.66 791.001 429.03" stroke="white" stroke-width="0.619365" stroke-miterlimit="10" stroke-linecap="round" stroke-linejoin="round"/>
<path d="M795.572 437.923C795.572 437.923 792.924 433.828 794.085 431.199" stroke="white" stroke-width="0.619365" stroke-miterlimit="10" stroke-linecap="round" stroke-linejoin="round"/>
<path d="M787.757 430.788C787.757 430.788 783.708 432.789 785.208 434.54C786.708 436.29 787.757 430.788 787.757 430.788Z" stroke="white" stroke-width="0.619365" stroke-miterlimit="10" stroke-linecap="round" stroke-linejoin="round"/>
<path d="M787.759 430.787C787.759 430.787 782.839 430.403 783.198 428.432C783.674 425.827 787.759 430.787 787.759 430.787Z" stroke="white" stroke-width="0.619365" stroke-miterlimit="10" stroke-linecap="round" stroke-linejoin="round"/>
<path d="M765.34 395.385C765.688 397.863 765.85 401.256 766.132 403.742C766.779 409.452 767.843 415.811 762.213 419.284C758.209 421.754 753.455 422.825 749.66 425.662C748.608 426.448 745.748 428.468 746.856 430.03C747.702 431.221 750.201 431.204 751.483 431.215C755.082 431.244 758.607 430.34 762.118 429.666C764.89 429.132 767.652 428.534 770.391 427.851" stroke="#5549FA" stroke-width="0.751366" stroke-miterlimit="10" stroke-linecap="round" stroke-linejoin="round"/>
<path d="M750.506 398.062C750.506 398.062 755.595 408.668 766.181 404.167" stroke="#5549FA" stroke-width="0.751366" stroke-miterlimit="10" stroke-linecap="round" stroke-linejoin="round"/>
<path d="M775.709 344.228C775.074 339.336 769.958 336.348 765.389 338.21C761.389 339.84 756.733 343.54 754.436 351.857C749.947 368.112 747.173 376.961 747.173 376.961L720.975 378.917C720.975 378.917 719.323 383.042 721.068 386.158C722.814 389.274 749.102 392.638 755.389 390.889C761.675 389.14 770.574 373.909 773.844 362.677C775.756 356.107 776.363 349.264 775.709 344.228Z" fill="#F0C6AD"/>
<path d="M750.975 358.308C750.975 358.308 753.945 331.907 768.861 335.639C783.777 339.372 775.532 365.353 775.532 365.353L750.975 358.308Z" fill="#85C7FF"/>
<path d="M720.518 378.595C720.518 378.595 712.524 376.516 710.621 376.879C708.716 377.241 708.295 378.654 708.882 378.887C709.469 379.121 712.593 379.463 712.273 380.116C711.953 380.769 704.867 383.451 704.936 385.238C705.005 387.026 709.874 384.742 709.874 384.742C709.874 384.742 703.846 387.025 705.242 388.14C706.639 389.255 711.232 387.862 711.232 387.862C711.232 387.862 706.131 388.8 706.048 390.103C705.963 391.407 710.389 390.687 710.389 390.687C710.389 390.687 706.788 391.595 707.729 392.649C708.67 393.703 714.996 392.079 717.615 390.421C720.235 388.762 722.769 386.59 722.769 386.59L722.452 379.164L720.518 378.595Z" fill="#F0C6AD"/>
<path d="M707.813 385.522C708.181 385.291 708.567 385.124 708.958 384.97C709.347 384.814 709.762 384.736 710.164 384.62C710.567 384.506 710.969 384.388 711.368 384.262C711.769 384.142 712.169 384.016 712.555 383.855C712.566 383.85 712.578 383.854 712.583 383.865C712.587 383.875 712.583 383.886 712.574 383.892C711.841 384.316 711.054 384.628 710.271 384.938C709.878 385.089 709.495 385.272 709.085 385.37C708.675 385.47 708.26 385.552 707.825 385.562C707.813 385.562 707.803 385.552 707.803 385.541C707.803 385.533 707.807 385.526 707.813 385.522Z" fill="#E3AD8D"/>
<path d="M708.802 388.434C709.187 388.201 709.59 388.032 709.998 387.877C710.404 387.72 710.835 387.641 711.254 387.523C711.674 387.408 712.093 387.289 712.508 387.16C712.921 387.032 713.348 386.919 713.725 386.716L713.729 386.714C713.739 386.709 713.751 386.712 713.757 386.722C713.762 386.732 713.759 386.743 713.75 386.749C713.387 387.01 712.978 387.175 712.579 387.357C712.175 387.527 711.767 387.686 711.358 387.842C710.949 387.996 710.548 388.178 710.121 388.278C709.696 388.38 709.264 388.463 708.813 388.475C708.801 388.475 708.791 388.465 708.791 388.454C708.791 388.446 708.795 388.438 708.802 388.434Z" fill="#E3AD8D"/>
<path d="M710.383 390.667C710.734 390.437 711.102 390.272 711.475 390.119C711.847 389.963 712.245 389.886 712.629 389.767C713.013 389.65 713.398 389.531 713.775 389.397C714.152 389.264 714.541 389.142 714.872 388.925L714.875 388.922C714.885 388.916 714.898 388.919 714.904 388.928C714.91 388.937 714.908 388.949 714.901 388.955C714.589 389.229 714.216 389.404 713.856 389.591C713.489 389.766 713.116 389.926 712.742 390.083C712.367 390.237 712.001 390.418 711.607 390.517C711.214 390.617 710.815 390.698 710.395 390.707C710.383 390.707 710.373 390.697 710.373 390.685C710.373 390.678 710.377 390.671 710.383 390.667Z" fill="#E3AD8D"/>
</svg>
