<svg width="365" height="365" viewBox="0 0 365 365" fill="none" xmlns="http://www.w3.org/2000/svg">
<path d="M365 182.5C365 206.466 360.279 230.198 351.108 252.34C341.937 274.482 328.494 294.6 311.547 311.547C294.6 328.494 274.482 341.937 252.34 351.108C230.198 360.28 206.466 365 182.5 365C158.534 365 134.802 360.279 112.66 351.108C90.5183 341.937 70.3997 328.494 53.453 311.547C36.5063 294.6 23.0635 274.482 13.892 252.34C4.7205 230.198 -2.09519e-06 206.466 0 182.5L182.5 182.5H365Z" fill="#4D1435"/>
<circle cx="238" cy="183" r="126.5" fill="white" stroke="#4D1435"/>
<g clip-path="url(#clip0_2551_3556)">
<path d="M247.87 196.245C247.87 204.343 241.404 213.6 240.666 214.631C240.052 215.49 239.059 216 238 216C236.941 216 235.948 215.49 235.333 214.631C234.596 213.6 228.13 204.343 228.13 196.245C228.13 192.093 229.005 188.842 230.733 186.58C232.457 184.323 235.038 183.078 238 183.078C240.962 183.078 243.543 184.323 245.267 186.58C246.995 188.842 247.87 192.093 247.87 196.245Z" fill="#EEBC33"/>
<path d="M247.87 196.245C247.87 204.343 241.404 213.6 240.667 214.631C240.052 215.49 239.059 216 238 216V183.078C240.962 183.078 243.543 184.323 245.267 186.58C246.995 188.842 247.87 192.093 247.87 196.245Z" fill="#E79C2C"/>
<path d="M247.87 123.755C247.87 127.907 246.995 131.158 245.267 133.42C243.543 135.677 240.962 136.922 238 136.922C235.038 136.922 232.457 135.677 230.733 133.42C229.005 131.158 228.13 127.907 228.13 123.755C228.13 115.657 234.596 106.4 235.333 105.369C235.948 104.51 236.941 104 238 104C239.059 104 240.052 104.51 240.666 105.369C241.404 106.4 247.87 115.657 247.87 123.755Z" fill="#EEBC33"/>
<path d="M247.87 123.755C247.87 127.907 246.995 131.158 245.267 133.42C243.543 135.677 240.962 136.922 238 136.922V104C239.059 104 240.052 104.51 240.667 105.369C241.404 106.4 247.87 115.657 247.87 123.755Z" fill="#E79C2C"/>
<path d="M211.42 167.267C213.677 165.543 214.922 162.962 214.922 160C214.922 157.038 213.677 154.457 211.42 152.733C209.158 151.005 205.907 150.13 201.755 150.13C193.657 150.13 184.4 156.596 183.369 157.333C182.51 157.948 182 158.941 182 160C182 161.059 182.51 162.052 183.369 162.666C184.4 163.404 193.657 169.87 201.755 169.87C205.907 169.87 209.158 168.995 211.42 167.267Z" fill="#EEBC33"/>
<path d="M292.631 157.333C291.6 156.596 282.343 150.13 274.245 150.13C270.093 150.13 266.842 151.005 264.58 152.733C262.323 154.457 261.078 157.038 261.078 160C261.078 162.962 262.323 165.543 264.58 167.267C266.842 168.995 270.093 169.87 274.245 169.87C282.343 169.87 291.6 163.404 292.631 162.666C293.49 162.052 294 161.059 294 160C294 158.941 293.49 157.948 292.631 157.333Z" fill="#E79C2C"/>
<path d="M222.806 131.773C221.972 130.322 220.82 128.859 219.352 127.391C213.625 121.664 202.506 119.691 201.257 119.485C200.213 119.313 199.15 119.654 198.402 120.402C197.654 121.15 197.313 122.213 197.485 123.257C197.691 124.506 199.664 135.625 205.391 141.352C208.327 144.287 211.245 145.965 214.067 146.344C214.471 146.398 214.874 146.425 215.274 146.425C217.65 146.425 219.89 145.473 221.681 143.681C223.775 141.588 224.72 138.882 224.344 136.067C224.153 134.656 223.641 133.221 222.806 131.773Z" fill="#EEBC33"/>
<path d="M260.726 146.425C264.016 146.414 267.439 144.529 270.609 141.352C276.336 135.625 278.309 124.506 278.515 123.257C278.687 122.213 278.346 121.15 277.598 120.402C276.85 119.654 275.787 119.313 274.743 119.485C274.12 119.588 271.027 120.133 267.376 121.369C263.723 122.603 259.512 124.528 256.648 127.391C253.713 130.327 252.035 133.245 251.657 136.067C251.28 138.882 252.225 141.588 254.319 143.681C256.11 145.475 258.35 146.425 260.726 146.425Z" fill="#E79C2C"/>
<path d="M214.067 173.657C211.245 174.035 208.327 175.713 205.391 178.648C199.664 184.375 197.691 195.494 197.485 196.743C197.313 197.787 197.654 198.85 198.402 199.598C199.023 200.219 199.859 200.558 200.723 200.558C200.9 200.558 201.08 200.545 201.257 200.515C201.88 200.412 204.973 199.867 208.624 198.631C212.277 197.397 216.488 195.472 219.352 192.609C222.287 189.673 223.965 186.755 224.344 183.933C224.72 181.118 223.775 178.412 221.681 176.319C219.588 174.225 216.882 173.28 214.067 173.657Z" fill="#EEBC33"/>
<path d="M270.609 178.649C267.673 175.713 264.755 174.035 261.933 173.657C259.116 173.278 256.412 174.226 254.319 176.319C252.225 178.412 251.28 181.118 251.657 183.934C251.847 185.345 252.359 186.78 253.194 188.228C254.028 189.678 255.181 191.141 256.648 192.609C262.375 198.336 273.494 200.309 274.743 200.515C274.921 200.546 275.1 200.559 275.277 200.559C276.141 200.559 276.977 200.22 277.598 199.598C278.346 198.85 278.687 197.787 278.515 196.744C278.309 195.495 276.336 184.376 270.609 178.649Z" fill="#E79C2C"/>
<path d="M238 189.641C254.37 189.641 267.641 176.37 267.641 160C267.641 143.63 254.37 130.359 238 130.359C221.63 130.359 208.359 143.63 208.359 160C208.359 176.37 221.63 189.641 238 189.641Z" fill="#ECF2FF"/>
<path d="M267.641 160C267.641 176.343 254.343 189.641 238 189.641V130.359C254.343 130.359 267.641 143.657 267.641 160Z" fill="#D9E5FF"/>
<path d="M248.474 154.153L232.153 170.474C228.839 173.487 224.692 168.815 227.513 165.834L238 155.347L243.834 149.513C247.165 146.535 251.287 151.14 248.474 154.153Z" fill="#EEBC33"/>
<path d="M248.474 154.153L238 164.627V155.347L243.834 149.513C247.165 146.535 251.287 151.14 248.474 154.153Z" fill="#EEBC33"/>
<path d="M228.67 154.068C230.489 154.068 231.964 152.593 231.964 150.774C231.964 148.955 230.489 147.48 228.67 147.48C226.85 147.48 225.375 148.955 225.375 150.774C225.375 152.593 226.85 154.068 228.67 154.068Z" fill="#EEBC33"/>
<path d="M247.321 172.612C249.14 172.612 250.615 171.137 250.615 169.318C250.615 167.499 249.14 166.024 247.321 166.024C245.501 166.024 244.026 167.499 244.026 169.318C244.026 171.137 245.501 172.612 247.321 172.612Z" fill="#EEBC33"/>
</g>
<path d="M230.146 238.125C230.04 237.133 229.593 236.36 228.805 235.807C228.025 235.254 227.01 234.977 225.76 234.977C224.881 234.977 224.127 235.11 223.499 235.375C222.87 235.64 222.389 236 222.055 236.455C221.722 236.909 221.552 237.428 221.544 238.011C221.544 238.496 221.654 238.917 221.874 239.273C222.101 239.629 222.408 239.932 222.794 240.182C223.18 240.424 223.608 240.629 224.078 240.795C224.548 240.962 225.021 241.102 225.499 241.216L227.68 241.761C228.559 241.966 229.404 242.242 230.214 242.591C231.033 242.939 231.764 243.379 232.408 243.909C233.059 244.439 233.574 245.08 233.953 245.83C234.332 246.58 234.521 247.458 234.521 248.466C234.521 249.83 234.173 251.03 233.476 252.068C232.779 253.098 231.771 253.905 230.453 254.489C229.143 255.064 227.555 255.352 225.692 255.352C223.881 255.352 222.309 255.072 220.976 254.511C219.65 253.951 218.612 253.133 217.862 252.057C217.12 250.981 216.718 249.67 216.658 248.125H220.805C220.866 248.936 221.116 249.61 221.555 250.148C221.995 250.686 222.567 251.087 223.271 251.352C223.983 251.617 224.779 251.75 225.658 251.75C226.574 251.75 227.377 251.614 228.067 251.341C228.764 251.061 229.309 250.674 229.703 250.182C230.097 249.682 230.298 249.098 230.305 248.432C230.298 247.826 230.12 247.326 229.771 246.932C229.423 246.53 228.934 246.197 228.305 245.932C227.684 245.659 226.957 245.417 226.124 245.205L223.476 244.523C221.559 244.03 220.044 243.284 218.93 242.284C217.824 241.277 217.271 239.939 217.271 238.273C217.271 236.902 217.643 235.701 218.385 234.67C219.135 233.64 220.154 232.841 221.442 232.273C222.73 231.697 224.188 231.409 225.817 231.409C227.468 231.409 228.915 231.697 230.158 232.273C231.408 232.841 232.389 233.633 233.101 234.648C233.813 235.655 234.18 236.814 234.203 238.125H230.146ZM246.95 247.182H250.768L253.03 250.114L254.643 252.023L258.518 257H254.428L251.791 253.659L250.666 252.068L246.95 247.182ZM259.075 243.364C259.075 245.871 258.606 248.019 257.666 249.807C256.734 251.587 255.462 252.951 253.848 253.898C252.242 254.845 250.42 255.318 248.382 255.318C246.344 255.318 244.518 254.845 242.905 253.898C241.299 252.943 240.026 251.576 239.087 249.795C238.155 248.008 237.689 245.864 237.689 243.364C237.689 240.856 238.155 238.712 239.087 236.932C240.026 235.144 241.299 233.777 242.905 232.83C244.518 231.883 246.344 231.409 248.382 231.409C250.42 231.409 252.242 231.883 253.848 232.83C255.462 233.777 256.734 235.144 257.666 236.932C258.606 238.712 259.075 240.856 259.075 243.364ZM254.837 243.364C254.837 241.598 254.56 240.11 254.007 238.898C253.462 237.678 252.704 236.758 251.734 236.136C250.765 235.508 249.647 235.193 248.382 235.193C247.117 235.193 246 235.508 245.03 236.136C244.06 236.758 243.299 237.678 242.746 238.898C242.2 240.11 241.928 241.598 241.928 243.364C241.928 245.129 242.2 246.621 242.746 247.841C243.299 249.053 244.06 249.973 245.03 250.602C246 251.223 247.117 251.534 248.382 251.534C249.647 251.534 250.765 251.223 251.734 250.602C252.704 249.973 253.462 249.053 254.007 247.841C254.56 246.621 254.837 245.129 254.837 243.364Z" fill="#4D1435"/>
<defs>
<clipPath id="clip0_2551_3556">
<rect width="112" height="112" fill="white" transform="translate(182 104)"/>
</clipPath>
</defs>
</svg>
