<svg width="680" height="635" viewBox="0 0 680 635" fill="none" xmlns="http://www.w3.org/2000/svg">
<path d="M58.6111 161.216L119.672 84.1218C152.105 43.1723 199.273 16.5375 251.089 9.91266L281.924 5.97036C312.635 2.04378 343.839 5.30114 373.078 15.4859L443.946 40.172C489.723 56.1176 528.151 88.1461 552.083 130.301L604.363 222.39C625.557 259.722 634.177 302.883 628.948 345.492L621.339 407.49C615.684 453.57 594.175 496.246 560.5 528.203L506.584 579.368C470.297 613.803 422.179 633 372.154 633H348.671C293.52 633 242.548 603.613 214.913 555.885L194.224 520.152C179.394 494.54 152.041 478.77 122.445 478.77C83.8649 478.77 50.379 452.169 41.6524 414.588L21.3527 327.17C7.85992 269.064 21.5746 207.977 58.6111 161.216Z" fill="#EFFCF9"/>
<path d="M101.611 161.216L162.672 84.1218C195.105 43.1723 242.273 16.5375 294.089 9.91266L324.924 5.97036C355.635 2.04378 386.839 5.30114 416.078 15.4859L486.946 40.172C532.723 56.1176 571.151 88.1461 595.083 130.301L647.363 222.39C668.557 259.722 677.177 302.883 671.948 345.492L664.339 407.49C658.684 453.57 637.175 496.246 603.5 528.203L549.584 579.368C513.297 613.803 465.179 633 415.154 633H391.671C336.52 633 285.548 603.613 257.913 555.885L237.224 520.152C222.394 494.54 195.041 478.77 165.445 478.77C126.865 478.77 93.379 452.169 84.6524 414.588L64.3527 327.17C50.8599 269.064 64.5746 207.977 101.611 161.216Z" stroke="#97FFE7" stroke-width="4"/>
</svg>
